<svg version="1.2" xmlns="http://www.w3.org/2000/svg" viewBox="0 0 62 42" width="62" height="42"><style>.a{fill:#047bc3}.b{fill:#fbfbfb}.c{fill:#fbdb05}.d{fill:#db241b}.e{fill:#1c1c14}</style><path fill-rule="evenodd" class="a" d="m35.7 2.2c1 0.2 1.7 0.2 2.1 0.3 0.6 0.1 2.1 0.4 2.5 0.5 0.1 0 0.3 0.1 0.5 0.1 1.9 0.5 4.4 1.4 6.1 2.2 3.1 1.4 5.5 3.1 7.6 5.2 0.4 0.4 0.7 0.7 0.7 0.7-0.1 0.1-48.3 0-48.3 0 0-0.1 1.2-1.3 1.6-1.7 1.1-1 2.4-1.9 3.8-2.7 0.5-0.4 1.6-0.9 2.1-1.2 0.6-0.3 1.1-0.5 1.2-0.6 1.8-0.7 3.9-1.5 5.6-1.9 0.2 0 0.4-0.1 0.5-0.1 0.3-0.1 1.7-0.3 2.4-0.5 0.5-0.1 1-0.1 2.2-0.3 0.4 0 2.3-0.2 2.8-0.2 1.7-0.1 5.2 0 6.6 0.2zm13.7 12.9c0.2 0 0.3 0 0.2 0-0.1 0-0.3 0-0.4 0-0.1 0 0 0 0.2 0zm-0.9 0q0.1 0 0 0.1 0 0-0.1 0-0.1-0.1 0.1-0.1zm1.8 0q0.2 0 0.1 0.1c-0.1 0-0.1 0-0.2 0q-0.1-0.1 0.1-0.1zm-2.2 0.1q0.1 0 0.1 0-0.1 0-0.2 0 0 0 0.1 0zm2.6 0q0.1 0 0.1 0-0.1 0-0.2 0 0 0 0.1 0zm-35.6 0.2q0 0.1 0 0.1 0 0-0.1-0.1c0-0.1 0-0.1-2.1 0-1.2 0-2.1-0.1-2.1-0.1 0.1-0.1 4.2 0 4.3 0.1zm7.7-0.1h1.9-1.9-1.9v11.3h9.8-4.9-4.9v-5.6c0-3.1 0-5.6 0-5.6 0-0.1 0.4-0.1 1.9-0.1zm7.9 0v1.4 1.4-1.3c0-0.8 0-1.4 0-1.4q0-0.1 0-0.1zm0 0q0 0 0 0zm0 0c0.2 0 1.6 0 5.8 0h5.8v1.4 1.3-1.3-1.4zm16.7 0q0.1 0-0.1 0c-0.1 0.1-0.2 0.1-0.1 0q0.1 0 0.2 0zm7 1.5l0.3 0.4-0.3-0.3c-0.2-0.2-0.4-0.4-0.4-0.4 0 0 0.1 0 0.4 0.3zm-44.4 0.6q0 0-0.1 0.1-0.1 0.2 0 0 0.1-0.1 0.1-0.1zm39.7 0.4q0.1 0 0.1 0-0.1 0-0.2 0 0 0 0.1 0zm-1.9 0.5c0 0-0.1 0.1-0.2 0.1l-0.1 0.2 0.1-0.2c0.1-0.1 0.2-0.1 0.2-0.1zm3.4 0.2l0.2 0.1-0.2-0.1c0-0.1-0.1-0.2-0.1-0.2q0 0 0.1 0.2zm4.5 0.7q0 0.1 0 0.2 0 0 0-0.1-0.1 0-0.1-0.1 0-0.1 0.1 0zm-3.7 0.8q0 0.1 0 0.2-0.1 0.1-0.1-0.1 0-0.1 0.1-0.1zm-5.1 0.1q0 0.1 0 0.1 0 0.1 0 0 0-0.2 0-0.1zm-3.9 0.1c0 0 0 0.1 0 0.1q0 0.1 0-0.1 0-0.1 0 0zm12.8 0c0 0 0 0.1 0 0.2q0 0.1 0-0.1 0-0.2 0-0.1zm-3.8 0.4c0 0.1 0 0.4 0 0.6 0 0.1 0 0 0-0.3 0-0.3 0-0.5 0-0.3zm-38.4-0.2q0 0.1 0.1 0.2 0 0.1 0 0-0.1 0-0.1-0.1 0-0.2 0-0.1zm33.2 0.2c0 0 0 0.1 0 0.2q0 0.1 0-0.1 0-0.2 0-0.1zm0 0.6c0 0 0 0.1 0 0.2q0 0.1 0-0.1 0-0.2 0-0.1zm9 0.1c0 0.1 0 0.2 0 0.3q0 0.1 0-0.1 0-0.2 0-0.2zm-3.8 0.2c0 0.1 0 0.2 0 0.2q-0.1 0.1-0.1 0 0-0.2 0.1-0.2zm-9 0.1q0 0.1 0 0.2 0 0 0-0.1 0-0.2 0-0.1zm3.9 0.3q0 0.2 0 0.1c0-0.1 0-0.2 0-0.2-0.1-0.2 0-0.1 0 0.1zm8.9-0.1q0 0.1 0 0.2 0 0 0-0.1 0-0.1 0-0.1zm-12.7 0.1q0 0.1 0 0.2-0.1 0-0.1-0.1 0-0.1 0.1-0.1zm-28.9 0.2c0 0.1 0 0.1 0 0.2 0 0-2.6 0-2.7 0 0 0 0.6-0.1 1.4-0.1l1.3 0.1v-0.1q-0.1-0.1-0.1-0.2 0 0 0.1 0.1zm4.1 1.1q0 0.1 0 0.1 0 0.1 0 0-0.1-0.1-0.1-0.2 0 0 0.1 0.1zm31.1 1c0.3 0 0.4 0 0.2 0-0.1 0-0.3 0-0.4 0-0.1 0 0 0 0.2 0zm-34.4 0.6c0 0-0.9 0-2.1 0-1.7 0-2.2 0-2.2 0q0 0.1-0.1 0 0.1 0 0.1 0c0-0.1 4.3-0.1 4.3 0zm39.7 0c0 0-0.1 0-0.4 0.3l-0.3 0.4 0.3-0.4c0.2-0.2 0.4-0.3 0.4-0.3zm-39.4 0.9q0.1 0.1 0.1 0.2 0 0.1 0 0c0 0-0.1-0.1-0.1-0.2q0-0.1 0 0zm-5 0.1q0.1 0.1 0 0.2 0 0.1-0.1 0.1 0 0 0.1-0.1 0-0.2 0-0.2zm-4.1 0.7c0 0.1 0.2 0.1 2 0.1h1.9-2c-2 0-2.1 0-1.9-0.1q0-0.1 0 0zm9.4 0c0.1 0.1 0.5 0.1 2.1 0.1 1.1 0 2 0 2 0 0 0.1-4.1 0-4.1-0.1q0 0 0 0zm31.6 0q0 0 0.1 0.1 0.1 0 0 0 0 0-0.1 0-0.1-0.1 0-0.1zm-10.7 0.1c1.1 0 1.5 0 1 0-0.5 0-1.4 0-2 0-0.5 0-0.1 0 1 0zm11.6 0.1q0.2 0 0.1 0-0.1 0-0.1 0-0.1 0 0 0zm2.7 0q0.2 0 0.1 0-0.1 0-0.1 0-0.1 0 0 0zm-1.3 0.1q0.2 0 0.1 0c0 0-0.1 0-0.2 0q0 0 0.1 0z"/><path fill-rule="evenodd" class="b" d="m29.5 0c0.3 0 0.4 0 0.3 0-0.1 0-0.4 0-0.5 0-0.2 0-0.1 0 0.2 0zm3 0c0.3 0 0.4 0 0.2 0-0.1 0-0.3 0-0.5 0-0.1 0 0 0 0.3 0zm-4.4 0.1q0.1 0 0.1 0c-0.1 0-0.2 0-0.2 0q-0.1 0 0.1 0zm5.8 0q0.2 0 0.1 0c0 0-0.1 0-0.2 0q0 0 0.1 0zm-6.7 0q0.1 0 0.1 0 0 0.1-0.1 0.1-0.1 0-0.1-0.1 0 0 0.1 0zm7.6 0q0.1 0 0.1 0 0 0.1-0.1 0.1-0.1 0-0.1-0.1 0 0 0.1 0zm-8.2 0.1q0.1 0 0.1 0-0.1 0-0.2 0-0.1 0 0.1 0zm8.8 0q0.2 0 0.1 0 0 0-0.1 0-0.1 0 0 0zm-9.5 0q0.1 0 0.1 0.1 0 0-0.1 0-0.1 0-0.1 0 0-0.1 0.1-0.1zm10.2 0q0.1 0 0.1 0.1 0 0-0.1 0-0.1 0-0.1 0 0-0.1 0.1-0.1zm-11.1 0.1q0.1 0.1 0.1 0.1c-0.1 0-0.2 0-0.2 0q-0.1-0.1 0.1-0.1zm12 0q0.1 0 0.2 0.1c0 0-0.2 0-0.2 0q-0.1-0.1 0-0.1zm-12.5 0.1q0.1 0 0.1 0 0 0.1-0.1 0.1-0.1 0-0.1-0.1 0.1 0 0.1 0zm13 0q0 0 0.1 0 0 0.1-0.1 0.1-0.1 0-0.1-0.1 0 0 0.1 0zm-13.4 0.1q0.1 0 0 0 0 0.1-0.1 0 0 0 0.1 0zm13.8 0q0.1 0 0.1 0-0.1 0.1-0.1 0-0.1 0 0 0zm-14.2 0q0.1 0 0.1 0 0 0.1-0.1 0.1-0.1 0-0.1-0.1 0 0 0.1 0zm14.6 0q0 0 0 0 0.1 0.1 0 0.1-0.1 0-0.1-0.1 0 0 0.1 0zm-15.3 0.1q0 0 0.1 0.1 0 0-0.1 0-0.1 0-0.1 0 0-0.1 0.1-0.1zm16 0q0.1 0 0.1 0.1 0 0-0.1 0-0.1 0-0.1 0 0.1-0.1 0.1-0.1zm-16.7 0.2q0.1 0 0.1 0 0 0-0.1 0 0 0 0 0 0 0 0 0zm17.4 0q0 0 0 0 0 0 0 0-0.1 0-0.1 0 0 0 0.1 0zm-18 0.1q0.1 0 0.1 0 0 0.1-0.1 0.1-0.1 0-0.1-0.1 0 0 0.1 0zm18.6 0q0 0 0 0 0.1 0.1 0 0.1-0.1 0-0.1-0.1 0 0 0.1 0zm-19.1 0.1q0.1 0 0.1 0 0 0.1-0.1 0.1-0.1 0-0.1-0.1 0 0 0.1 0zm19.6 0q0.1 0 0.1 0 0 0.1-0.1 0.1-0.1 0-0.1-0.1 0 0 0.1 0zm-19.8 0q0 0.1 0 0.1 0 0-0.1 0-0.1 0 0 0 0 0 0.1-0.1zm20 0q0.1 0.1 0.1 0.1 0.1 0 0 0-0.1 0-0.1 0 0 0 0-0.1zm-20.6 0.2q0 0 0.1 0 0 0.1-0.1 0.1-0.1 0-0.1-0.1 0.1 0 0.1 0zm21.2 0q0 0 0.1 0 0 0.1-0.1 0.1-0.1 0-0.1-0.1 0.1 0 0.1 0zm-21.7 0.1q0.1 0 0.1 0 0 0.1-0.1 0.1 0 0-0.1-0.1 0.1 0 0.1 0zm22.2 0q0 0 0.1 0-0.1 0.1-0.1 0.1-0.1 0-0.1-0.1 0 0 0.1 0zm-22.6 0.1q0 0 0 0.1 0 0 0 0-0.1 0-0.1 0 0-0.1 0.1-0.1zm-0.5 0.2q0.1 0 0.1 0 0 0-0.1 0-0.1 0-0.1 0 0 0 0.1 0zm24 0q0 0 0 0 0 0 0 0-0.1 0-0.1 0 0 0 0.1 0zm0.5 0.1q0.1 0 0.1 0.1 0.1 0 0 0 0 0-0.1 0-0.1-0.1 0-0.1zm-25.9 0.3q0.1 0 0.1 0 0 0.1-0.1 0.1-0.1 0-0.1-0.1 0.1 0 0.1 0zm26.8 0q0 0 0.1 0 0 0.1-0.1 0.1-0.1 0-0.1-0.1 0 0 0.1 0zm-27.2 0.1q0.1 0 0.1 0 0 0.1-0.1 0.1 0 0 0-0.1 0 0 0 0zm-0.3 0.1q0 0 0 0.1 0 0 0 0-0.1 0-0.1 0 0-0.1 0.1-0.1zm28.2 0q0.1 0 0.1 0.1 0 0-0.1 0 0 0 0 0 0-0.1 0-0.1zm0.1 0.1h0.1c0.1 0 0.2 0.1 0.2 0.1q-0.1 0-0.1 0 0 0-0.1-0.1zm0.8 0.2q0 0 0 0.1 0 0 0 0-0.1 0-0.1 0 0-0.1 0.1-0.1zm-30.3 0.2q0 0 0.1 0-0.1 0-0.1 0-0.1 0-0.1 0 0 0 0.1 0zm-3.1 1.3c0.1 0 0.1 0.1-0.1 0.1q-0.1 0-0.1 0.1 0 0-0.1 0 0 0 0 0 0-0.1 0.1-0.1 0.1 0 0.1-0.1 0.1 0 0.1 0zm37.8 0.6q0.1 0.1 0 0-0.1 0-0.1 0 0 0-0.1-0.1 0.1 0 0.2 0.1zm-39.9 0.6q0 0.1-0.1 0.1c0 0 0 0 0-0.1 0.1 0 0.1 0 0.1 0zm41.1 0.1q0 0-0.1 0 0 0 0-0.1c0 0 0.1 0 0.1 0.1zm-41.6 0.2q0 0 0 0-0.1 0.1-0.1 0.1-0.1 0.1-0.1 0.1-0.1-0.1 0-0.1 0 0 0.1-0.1 0.1 0 0.1 0zm-1.4 0.9q0 0.1 0 0.1-0.1 0-0.1 0.1 0 0-0.1 0l-0.2 0.1 0.2-0.1c0-0.1 0.1-0.1 0.1-0.2q0.1 0 0.1 0zm-0.7 0.6q-0.1 0-0.1 0 0 0 0-0.1 0.2-0.1 0.1 0.1zm46.5 0.2q0 0 0 0.1c0 0-0.2-0.2-0.2-0.2q0-0.1 0.2 0.1zm-47 0.1q0.1 0 0 0.1-0.1 0-0.1 0 0 0 0 0 0.1-0.1 0.1-0.1zm47.1 0q0.1 0 0.1 0.1 0.1 0 0.1 0-0.1 0-0.1 0-0.1-0.1-0.1-0.1zm-47.3 0.2c0 0-0.2 0.2-0.2 0.2q0 0 0-0.1c0.1-0.1 0.2-0.1 0.2-0.1zm47.7 0.1q0.1 0.1 0.1 0.1c0 0-0.2-0.2-0.2-0.2q0-0.1 0.1 0.1zm-48.1 0.2c0.1 0-0.1 0.2-0.2 0.2q0 0 0.1-0.1 0.1-0.1 0.1-0.1zm48.6 0.2q0 0.1-0.1-0.1c-0.1 0-0.2-0.1-0.2-0.1q0 0 0 0c0-0.1 0.3 0.2 0.3 0.2zm-49 0.1c0 0.1-0.2 0.3-0.3 0.3 0 0 0.2-0.2 0.3-0.3q0 0 0 0zm49.1 0c0.1 0 0.4 0.4 0.4 0.4 0 0-0.4-0.3-0.4-0.4q0 0 0 0zm-49.6 0.5c0 0.1-1.4 1.4-1.4 1.4 0 0 0.3-0.3 0.7-0.7 0.5-0.6 0.7-0.7 0.7-0.7zm50.2 0c0 0 1.3 1.3 1.3 1.3 0 0.1-1.1-1-1.3-1.3q0 0 0 0zm1.5 1.5c0 0 0.3 0.4 0.3 0.4 0 0-0.4-0.3-0.4-0.3q0-0.1 0.1-0.1zm-53.2 0.1c0 0-0.3 0.3-0.3 0.3 0 0 0-0.1 0.1-0.2q0.2-0.2 0.2-0.1zm53.6 0.4c0 0 0.2 0.2 0.2 0.3q0 0-0.1-0.1-0.1-0.2-0.1-0.2zm-54.1 0.1q0 0 0 0.1-0.1 0.1-0.1 0.1 0-0.1 0-0.1 0.1-0.1 0.1-0.1zm-0.2 0.3c0 0-0.1 0.2-0.2 0.2q0-0.1 0.1-0.1c0.1-0.1 0.1-0.2 0.1-0.1zm54.7 0.1q0 0.1 0 0.1c0 0-0.2-0.2-0.2-0.2 0-0.1 0.2 0.1 0.2 0.1zm-55 0.2q0.1 0 0 0.1-0.1 0.1-0.1 0.1 0 0 0-0.1 0.1-0.1 0.1-0.1zm-0.2 0.3q0 0.1-0.1 0.1c0 0 0-0.1 0.1-0.1q0.1-0.1 0 0zm55.6 0q0.1 0 0.1 0.1c0 0-0.2 0-0.2-0.1q0-0.1 0.1 0zm0.5 0.7c0 0.1 0 0-0.2-0.2q-0.1 0-0.1-0.1c0-0.1 0.2 0.1 0.3 0.3zm-56.5-0.1q0.1 0 0 0.1-0.1 0.1-0.1-0.1 0 0 0.1 0zm-0.6 0.9q0.1 0 0 0.1c-0.1 0.1-0.1 0.1-0.1 0q0.1-0.1 0.1-0.1zm57.5 0q0.1 0 0.1 0 0 0.1 0.1 0.1 0 0 0 0.1c0 0-0.1 0-0.1-0.1q-0.1-0.1-0.1-0.1zm0.4 0.5q0 0.1 0 0.1 0 0-0.1-0.1 0 0 0 0-0.1 0-0.1-0.1c0-0.1 0.1 0 0.2 0.1zm0.5 1.2c0.1 0 0.2 0.1 0.1 0.2q0 0 0-0.1 0 0 0 0-0.1 0-0.1-0.1 0 0 0 0zm-59.4 0.2q0 0.1 0 0.1-0.1 0 0 0 0-0.1 0-0.2c0.1-0.1 0.1 0 0 0.1zm54.5 4.9c0.6 4.3-1.8 6.9-6.2 6.9-4.2 0-6.5-2.1-6.5-5.8 0-3.3 1.8-5.3 5.1-5.8 4.1-0.5 7.2 1.3 7.6 4.7zm-44.9-4.5h4.2l0.1 0.3c0.2 0.4 0.6 1.4 0.7 1.5 0 0.1 0.3 0.9 0.7 1.8 0.1 0.3 0.3 0.8 0.4 1.1 0.1 0.2 0.3 0.7 0.5 1 0.1 0.3 0.3 0.8 0.4 1.1 0.2 0.4 0.4 0.8 0.5 1.1 0.3 0.8 0.6 1.6 0.7 1.6 0.1 0.3 0.6 1.7 0.6 1.7 0 0-4 0-4 0 0 0-0.1-0.4-0.3-0.9l-0.3-0.9h-4.3l-0.6 1.8h-2c-1 0-1.9 0-1.9 0 0 0 0.3-0.8 0.4-0.9 0-0.1 0.1-0.4 0.2-0.7 0.1-0.2 0.3-0.7 0.4-0.9 0.1-0.3 0.3-0.7 0.4-1 0.1-0.3 0.3-0.6 0.3-0.7 0 0 0.1-0.3 0.2-0.6 0.2-0.3 0.3-0.7 0.5-1 0.1-0.3 0.2-0.6 0.2-0.6 0 0 0.1-0.3 0.3-0.6 0.1-0.4 0.2-0.7 0.2-0.7 0.1 0 0.1-0.2 0.2-0.4 0.3-0.7 0.7-1.7 0.9-2.2 0.1-0.3 0.2-0.5 0.2-0.5 0 0 0.1-0.1 0.1-0.2zm10.1 0h3.8v8.4h3 3v1.4 1.4h-9.8zm9.8 0h11.6v2.8h-3.9v8.4h-3.8v-8.4h-3.9zm-29.9 0.7q0 0 0 0.1 0 0 0 0 0 0-0.1 0 0.1-0.1 0.1-0.1zm60.4 0q0 0 0 0.1 0 0 0 0 0 0 0 0 0-0.1 0-0.1zm-60.5 0.3q0 0.1 0 0.1 0 0.1 0 0.1-0.1 0-0.1-0.1 0 0 0.1-0.1zm60.6 0.1q0.1 0 0.1 0.1 0 0-0.1 0 0 0 0-0.1 0 0 0 0zm-60.9 1.1q0 0 0 0 0 0.1 0 0.1-0.1 0-0.1-0.1 0 0 0.1 0zm61.2 0q0.1 0 0.1 0 0 0.1-0.1 0.1 0 0 0-0.1 0 0 0 0zm-14.8 3.4q0 3.2 2.6 3.2c1.8 0 2.6-1 2.6-3.3 0-1.8-0.6-2.8-1.9-3.1-2.1-0.4-3.3 0.8-3.3 3.2zm-46.6-2.9q0.1 0 0.1 0.1 0 0.1-0.1 0.1 0 0 0-0.1 0-0.1 0-0.1zm61.5 0q0.1 0 0.1 0.1 0 0.1-0.1 0.1 0 0 0-0.1 0-0.1 0-0.1zm-49.2 1.4c-0.2 0.6-0.5 1.4-0.7 1.9-0.1 0.5-0.3 0.9-0.2 0.9 0 0 2.6 0 2.6 0q0-0.1 0-0.2c-0.1-0.1-1.1-3.1-1.2-3.4-0.1-0.5-0.1-0.6-0.5 0.8zm-12.4-0.7q0.1 0 0.1 0.1 0 0.1-0.1 0.1 0 0 0-0.1 0-0.1 0-0.1zm61.8 0q0 0 0 0.1 0 0.1 0 0.1-0.1 0-0.1-0.1 0-0.1 0.1-0.1zm0 0.5q0.1 0.1 0 0.2 0 0 0-0.1 0-0.1 0-0.1zm-61.8 0q0 0.1 0 0.2 0 0-0.1-0.1 0.1-0.1 0.1-0.1zm-0.1 1.2c0 0.3 0 0.7 0 1 0 0.2 0 0 0-0.5 0-0.6 0-0.8 0-0.5zm62 0c0 0.3 0 0.7 0 1 0 0.2 0 0 0-0.5 0-0.6 0-0.8 0-0.5zm-61.9 1.9q0 0.1 0 0.2 0 0.1 0-0.1 0-0.1 0-0.1zm0 0.5q0.1 0 0.1 0.1 0 0.1-0.1 0.1 0 0 0-0.1 0-0.1 0-0.1zm61.8 0q0 0 0 0.1 0 0.1 0 0.1-0.1 0-0.1-0.1 0-0.1 0.1-0.1zm-61.7 0.8q0.1 0 0.1 0 0 0.1-0.1 0.1 0 0 0-0.1 0 0 0 0zm61.5 0q0.1 0 0.1 0 0 0.1-0.1 0.1 0 0 0-0.1 0 0 0 0zm-61.3 0.5q0 0 0 0.1 0 0.1 0 0.1-0.1 0-0.1-0.1 0-0.1 0.1-0.1zm61.2 0q0.1 0 0.1 0.1 0 0.1-0.1 0.1 0 0 0-0.1 0-0.1 0-0.1zm-60.9 1.2q0 0.1 0 0.1-0.1-0.1-0.1-0.1 0.1-0.1 0.1 0zm60.6-0.1q0.1 0 0.1 0.1 0 0-0.1 0.1 0 0 0-0.1 0-0.1 0-0.1zm-60.5 0.4q0 0 0 0.1 0 0 0 0 0 0-0.1 0 0.1-0.1 0.1-0.1zm60.4 0q0 0 0 0.1 0 0 0 0 0 0 0 0 0-0.1 0-0.1zm-59.3 2.5q0 0 0 0.1 0.1 0.1 0.1 0.1 0 0 0 0c0 0.1 0 0.1-0.1-0.1q-0.1-0.1 0-0.1zm58.2 0q0.1 0 0 0.1c-0.1 0.2-0.1 0.2-0.1 0.1q0 0 0 0 0 0 0.1-0.1 0-0.1 0-0.1zm-57.7 0.9l0.1 0.1c0.1 0.1 0.1 0.2 0 0.2 0 0 0-0.1-0.1-0.2zm0.4 0.6q0.1 0.1 0.1 0.1c-0.1 0-0.1-0.1-0.1-0.1q0-0.1 0 0zm56.5 0c0.1 0 0 0.1 0 0.1q-0.1 0 0-0.1 0 0 0 0zm-56 0.7q0.1 0.1 0 0-0.1 0-0.1-0.1c0-0.1 0.1 0 0.1 0.1zm0.1 0.1q0 0 0.1 0.1 0 0.1 0 0.1 0 0-0.1-0.1 0-0.1 0-0.1zm55.3 0.1q0 0-0.1 0.1c-0.1 0.1-0.1 0 0-0.1q0.1 0 0.1 0zm-55.1 0.2c0 0 0.2 0.2 0.2 0.2 0 0.1-0.1 0-0.1-0.1q-0.1-0.1-0.1-0.1zm54.9 0c0 0.1-0.2 0.3-0.2 0.3 0 0 0-0.1 0.1-0.2 0.1-0.1 0.1-0.1 0.1-0.1zm-54.5 0.4q0.1 0.1 0.1 0.2c0 0-0.2-0.2-0.2-0.3q0 0 0.1 0.1zm54.3-0.1c0 0-0.2 0.3-0.2 0.3q-0.1-0.1 0-0.2 0.1-0.1 0.2-0.1zm-54 0.6c0.2 0.1 0.2 0.2 0.2 0.2 0 0-0.4-0.4-0.4-0.4 0 0 0.1 0 0.2 0.2zm53.6-0.1c0 0-0.3 0.3-0.3 0.3 0 0 0-0.1 0.2-0.2q0.1-0.2 0.1-0.1zm-52.4 1.3c0.2 0.2 0.4 0.4 0.4 0.4 0 0-1.3-1.2-1.3-1.2 0-0.1 0.4 0.2 0.9 0.8zm51.9-0.8c0 0-0.2 0.3-0.6 0.6-0.3 0.4-0.6 0.6-0.6 0.6q0 0 0.1-0.1c0 0 0.1-0.1 0.2-0.2 0.1-0.1 0.3-0.3 0.5-0.5 0.1-0.1 0.3-0.3 0.3-0.3q0.1-0.1 0.1-0.1zm-1.4 1.4c0 0-0.3 0.3-0.3 0.3 0 0 0-0.1 0.1-0.2 0.2-0.1 0.2-0.2 0.2-0.1zm-49.7 0.2c0.2 0.1 0.2 0.2 0.2 0.2 0 0-0.2-0.2-0.3-0.3-0.1-0.2 0-0.1 0.1 0.1zm0.4 0.3q0.2 0.1 0.2 0.2c-0.1 0-0.3-0.2-0.3-0.3q0 0 0.1 0.1zm48.7 0.1q-0.1 0.1-0.1 0.1-0.1-0.1 0-0.1 0.1-0.1 0.1-0.1c0.1-0.1 0.1 0 0 0.1zm-48.2 0.3q0.1 0.1 0 0.1c0 0-0.2-0.2-0.2-0.2q0-0.1 0.2 0.1zm47.9-0.1c0 0-0.2 0.2-0.2 0.2q0 0 0.1-0.1 0.1-0.2 0.1-0.1zm-0.3 0.2q0 0-0.1 0.1-0.1 0.1-0.1 0.1 0 0 0.1-0.1 0.1-0.1 0.1-0.1zm-47.4 0q0 0.1 0.1 0.1 0.1 0.1 0 0.1 0 0-0.1-0.1-0.1 0 0-0.1zm0.3 0.3q0.1 0.1 0.1 0.1c0 0-0.2-0.1-0.2-0.2q0 0 0.1 0.1zm46.8-0.1c0 0.1-0.1 0.2-0.2 0.2q0 0 0.1-0.1c0.1-0.1 0.1-0.1 0.1-0.1zm-0.2 0.2q0 0-0.1 0.1-0.1 0.1-0.1 0.1 0 0 0.1-0.1 0-0.1 0.1-0.1zm-0.3 0.2q0 0 0 0.1-0.1 0.1-0.2 0.1 0-0.1 0.1-0.1 0.1 0 0.1-0.1 0 0 0 0zm-45.3 0.4q0 0 0 0.1 0 0-0.1-0.1-0.1-0.1 0.1 0zm44.8 0q-0.1 0.1-0.1 0.1 0-0.1 0.1-0.1 0.1-0.1 0 0zm-0.8 0.6q0 0-0.1 0 0 0-0.1 0.1 0 0 0-0.1 0.1-0.1 0.2 0zm-0.3 0.1c0.1 0 0 0.1-0.1 0.1q0 0 0 0 0 0.1-0.1 0.1c0 0 0-0.1 0.1-0.1q0.1 0 0.1-0.1 0 0 0 0zm-41.3 0.9q0.1 0 0 0-0.1 0-0.1 0-0.1 0-0.1-0.1c0-0.1 0.1 0 0.2 0.1zm40.1-0.1q-0.1 0.1-0.2 0.1c0 0 0.1-0.1 0.2-0.1q0.1-0.1 0 0zm-0.5 0.2c0.1 0-0.1 0.1-0.1 0.2-0.2 0-0.2 0 0-0.1q0.1-0.1 0.1-0.1zm-39.2 0.1c0.1 0 0.2 0.1 0.2 0.1q-0.1 0-0.2 0 0-0.1 0-0.1zm37.2 1q0 0 0 0-0.1 0-0.1 0.1 0 0-0.1 0c-0.1 0-0.1-0.1 0-0.1q0.1 0 0.2 0zm-35.1 0q0.1 0 0.1 0.1 0 0-0.1 0 0 0-0.1 0 0.1-0.1 0.1-0.1zm1.3 0.6q0 0 0 0 0 0 0.1 0 0 0 0 0.1c0 0-0.2-0.1-0.2-0.1q0 0 0.1 0zm32.4 0q0 0 0 0 0 0 0 0-0.1 0-0.1 0 0 0 0.1 0zm-31.5 0.3q0 0 0 0.1 0 0 0 0-0.1 0-0.1 0 0-0.1 0.1-0.1zm1.5 0.6q0.1 0 0.1 0 0 0.1-0.1 0.1 0 0-0.1-0.1 0.1 0 0.1 0zm27.5 0q0.1 0 0.1 0 0 0.1-0.1 0.1 0 0 0-0.1 0 0 0 0zm-1.1 0.4q0.1 0 0 0-0.1 0.1-0.1 0 0 0 0.1 0zm-24.6 0.1q0.1 0 0.1 0.1 0 0-0.1 0-0.1 0-0.1 0 0-0.1 0.1-0.1zm23.9 0q0.1 0 0.1 0.1 0 0-0.1 0 0 0 0 0 0-0.1 0-0.1zm-23.5 0.2q0.1 0 0.1 0 0 0-0.1 0 0 0 0 0 0 0 0 0zm23.1 0q0.1 0 0.1 0-0.1 0-0.1 0-0.1 0-0.1 0 0.1 0 0.1 0zm-22.6 0.1q0.1 0 0.1 0 0 0.1-0.1 0.1 0 0 0-0.1 0 0 0 0zm22.1 0q0.1 0 0.1 0 0 0.1-0.1 0.1 0 0-0.1-0.1 0.1 0 0.1 0zm-1 0.2q0.1 0 0.1 0.1-0.1 0-0.1 0-0.1-0.1 0-0.1zm-19.8 0.1q0 0 0 0 0.1 0.1 0 0.1-0.1 0-0.1-0.1 0 0 0.1 0zm19.6 0q0 0 0 0 0.1 0.1 0 0.1-0.1 0-0.1-0.1 0 0 0.1 0zm-19.1 0.1q0.1 0 0.1 0 0 0.1-0.1 0.1 0 0 0-0.1 0 0 0 0zm18.5 0q0 0 0 0 0 0.1 0 0.1-0.1 0-0.1-0.1 0 0 0.1 0zm-17.9 0.1q0.1 0 0.1 0.1 0 0 0 0-0.1 0-0.1 0 0-0.1 0-0.1zm17.3 0q0.1 0 0.1 0.1 0 0-0.1 0-0.1 0-0.1 0 0-0.1 0.1-0.1zm-16.6 0.2q0.1 0 0.1 0 0 0-0.1 0-0.1 0-0.1 0 0 0 0.1 0zm16 0q0 0 0 0 0 0 0 0-0.1 0-0.1 0 0 0 0.1 0zm-15.3 0.1q0.1 0 0.1 0 0 0.1-0.1 0.1-0.1 0-0.1-0.1 0 0 0.1 0zm14.5 0q0.1 0 0.1 0 0 0.1-0.1 0.1 0 0-0.1-0.1 0 0 0.1 0zm-14.1 0.1q0.1 0 0.1 0-0.1 0-0.2 0 0 0 0.1 0zm13.7 0q0.2 0 0.1 0-0.1 0-0.1 0-0.1 0 0 0zm-13.3 0q0.2 0 0.1 0.1-0.1 0-0.2 0 0-0.1 0.1-0.1zm12.9 0q0.2 0 0.1 0c0 0.1-0.2 0.1-0.2 0q0 0 0.1 0zm-12.4 0.1q0.1 0-0.1 0-0.1 0-0.1 0 0.2-0.1 0.2 0zm12.1 0q0.1 0-0.1 0-0.1 0-0.1 0 0.1-0.1 0.2 0zm-11.7 0q0.2 0 0.1 0.1-0.1 0-0.1 0-0.1-0.1 0-0.1zm11.1 0q0.1 0 0.1 0.1-0.1 0-0.2 0 0-0.1 0.1-0.1zm-10.5 0.1q0.1 0 0.1 0 0 0.1-0.1 0.1-0.1 0-0.2-0.1 0.1 0 0.2 0zm10 0q0.1 0 0.1 0 0 0.1-0.1 0.1-0.2 0-0.2-0.1 0 0 0.2 0zm-9.4 0.1q0.2 0 0.1 0c-0.1 0-0.2 0-0.2 0q-0.1 0 0.1 0zm8.8 0q0.1 0 0.1 0c-0.1 0-0.2 0-0.2 0q-0.1 0 0.1 0zm-8.2 0q0.1 0 0.1 0 0 0.1-0.1 0.1-0.1 0-0.1-0.1 0 0 0.1 0zm7.5 0q0.2 0 0.2 0-0.1 0.1-0.2 0.1-0.1 0-0.1-0.1 0 0 0.1 0zm-6.6 0.1q0.2 0 0.1 0c-0.1 0-0.1 0-0.2 0q-0.1 0 0.1 0zm5.7 0q0.2 0 0.1 0c0 0-0.1 0-0.2 0q0 0 0.1 0zm-4.1 0c0.3 0 0.4 0 0.3 0.1-0.2 0-0.5 0-0.6 0-0.2-0.1 0-0.1 0.3-0.1zm2.6 0c0.3 0 0.5 0 0.3 0.1-0.2 0-0.4 0-0.6 0-0.2-0.1 0-0.1 0.3-0.1z"/><path fill-rule="evenodd" class="c" d="m30.7 0c1 0 3.9 0.1 4 0.1 0 0 0.3 0.1 0.6 0.1 0.4 0 0.7 0 0.7 0.1 0 0 0.2 0 0.4 0 0.3 0 0.5 0.1 0.6 0.1 0 0 0.1 0 0.2 0 0.1 0 0.2 0 0.2 0 0 0 0.1 0.1 0.2 0.1 0.1 0 0.2 0 0.2 0 0.1 0 0.1 0 0.2 0q0.2 0 0.2 0c0 0.1 0.2 0.1 0.4 0.1 0.2 0 0.3 0.1 0.3 0.1 0 0 0.2 0 0.3 0 0.2 0 0.4 0.1 0.4 0.1 0 0 0.3 0.1 0.5 0.1q0.1 0 0.1 0c0 0 0.1 0.1 0.2 0.1 0.2 0 0.3 0 0.3 0.1q0 0 0.2 0 0.1 0 0.1 0 0 0 0.2 0 0.1 0 0.1 0.1 0 0 0.1 0 0.2 0 0.2 0-0.1 0 0.2 0.1c0.1 0 0.2 0 0.2 0 0 0.1 0.1 0.1 0.3 0.1 0.1 0 0.2 0 0.2 0.1 0 0 0.1 0 0.2 0 0.1 0 0.2 0.1 0.2 0.1 0 0 0.1 0 0.2 0.1 0.2 0 0.3 0 0.3 0q0 0.1 0 0.1c0.1-0.1 0.3 0 0.4 0.1q0 0 0.1 0 0-0.1 0 0c0 0 0.1 0 0.2 0 0.1 0.1 0.2 0.1 0.2 0.1 0 0 0.1 0.1 0.2 0.1 0.1 0 0.2 0 0.2 0q0 0.1 0.2 0.1c0.1 0 0.2 0 0.2 0.1q0 0 0.1 0 0.2 0.1 0.2 0.1 0 0 0.1 0 0.1 0 0.1 0c0 0 0.1 0.1 0.2 0.1q0.1 0 0.1 0.1 0 0 0.2 0c0.1 0 0.2 0.1 0.2 0.1q0 0 0.1 0 0.1 0.1 0.2 0.1 0 0 0.1 0.1 0.1 0 0.2 0 0 0.1 0.1 0.1 0.2 0 0.2 0.1 0 0 0.1 0 0.2 0.1 0.2 0.1 0 0 0 0 0.1 0 0.1 0 0 0.1 0.1 0.1 0.2 0 0.2 0.1 0 0 0.1 0 0.1 0 0.1 0.1 0.1 0 0.2 0 0.1 0.1 0.1 0.1 0 0 0.1 0.1 0.2 0 0.2 0 0 0.1 0.1 0.1 0.1 0 0.1 0.1 0 0 0.1 0 0.1 0 0.1 0 0 0 0.1 0.1 0.1 0 0.1 0 0 0.1 0.1 0.1 0.1 0 0.2 0 0 0.1 0.1 0.1 0.1 0 0.1 0.1 0 0 0.1 0 0.1 0.1 0.1 0.1 0 0 0.1 0.1 0.2 0 0.2 0c0 0 0 0.1 0.2 0.1 0.1 0 0.1 0.1 0.1 0.1q0 0 0.1 0.1 0.1 0 0.1 0 0 0.1 0.1 0.1 0.1 0 0.2 0 0 0.1 0 0.1 0.1 0 0.2 0.1 0.1 0 0.1 0.1 0.1 0 0.1 0 0 0 0.1 0.1 0.1 0 0.1 0 0 0.1 0 0 0.1 0 0.1 0.1 0 0 0.1 0c0 0.1 0.1 0.1 0.2 0.2q0.1 0.1 0.1 0.1c0 0 0.1 0 0.3 0.2q0.1 0.1 0.1 0 0-0.1 0 0 0.3 0.2 0.4 0.2 0 0 0 0.1 0 0 0.1 0 0.1 0.1 0.1 0.1c0.1 0.1 0.2 0.2 0.3 0.2q0 0 0.1 0.1 0.1 0.1 0.1 0.1 0.1 0 0.1 0 0 0.1 0.1 0.1 0.1 0 0.1 0-0.1 0.1 0 0.1 0.1 0 0.1 0.1 0 0 0 0c0.1 0 0.2 0.1 0.2 0.1q0.1 0.1 0.2 0.1 0 0 0.1 0.1 0 0.1 0.1 0.1c0 0 0.1 0.1 0.1 0.1 0.1 0.1 0.2 0.2 0.2 0.2q0.1 0 0.1 0.1 0 0 0 0c0.1 0 0.1 0.1 0.2 0.1q0.1 0.1 0.1 0.1c0 0 0.1 0.1 0.3 0.2 0.1 0.2 0.2 0.3 0.2 0.3q0.1 0 0.1 0c0.2 0.2 1 1.1 1.3 1.3 0.1 0.1 0.2 0.3 0.2 0.3 0 0 0.1 0.1 0.3 0.3 0.1 0.1 0.2 0.2 0.2 0.2 0 0 0.1 0.1 0.2 0.2 0.1 0.1 0.1 0.2 0.1 0.2-0.1-0.1 0 0 0.1 0.1 0 0.1 0.1 0.1 0.1 0.1 0 0.1 0.1 0.2 0.2 0.2q0 0 0 0 0 0.2 0.1 0.3 0.1 0 0.1 0.1 0 0 0 0 0.1 0.1 0.1 0.2 0.1 0 0.1 0.1 0.1 0 0.1 0.1c0 0.1 0.1 0.2 0.1 0.2q0.1 0.1 0.1 0.1 0 0.1 0.2 0.3 0.1 0 0.1 0.1c0 0.1 0.1 0.3 0.2 0.4q0 0 0 0.1c0.1 0.1 0.1 0.2 0.2 0.3q0.1 0 0 0.1 0 0 0.1 0 0 0 0 0.1 0 0.1 0.1 0.1 0 0 0 0-0.1 0.1 0 0.1 0 0 0.1 0.1 0 0.1 0 0.1 0.1 0 0.1 0.1c0 0.1 0 0.2 0.1 0.2q0 0.1 0 0.2 0 0 0.1 0 0 0 0 0.2 0.1 0.1 0.1 0.1 0-0.1 0 0c0 0.1 0.1 0.3 0.1 0.3q0.1 0 0 0.1 0 0 0.1 0.1 0 0 0 0.1 0 0.1 0.1 0.1c0 0 0 0.1 0 0.2 0.1 0.1 0.1 0.2 0.1 0.2 0 0 0.1 0.1 0.1 0.2 0 0.1 0 0.2 0 0.2 0.1 0 0.1 0.2 0.1 0.3q0 0.1 0.1 0.1c0 0 0 0.1 0 0.2 0 0.1 0.1 0.2 0.1 0.2q0 0 0 0.2 0 0.1 0 0.1c0 0 0.1 0.1 0.1 0.3 0 0.1 0 0.3 0 0.3 0.1 0 0.1 0.1 0.1 0.3 0 0.2 0.1 0.4 0.1 0.4 0.1 0 0.1 3.9 0 3.9 0 0-0.1 0.2-0.1 0.4 0 0.2 0 0.3-0.1 0.3 0 0 0 0.2 0 0.3 0 0.2-0.1 0.3-0.1 0.3q0 0 0 0.2 0 0.1 0 0.1-0.1 0-0.1 0.2c0 0.1 0 0.2 0 0.2-0.1 0-0.1 0.1-0.1 0.2 0 0.1 0 0.2-0.1 0.2 0 0 0 0.1 0 0.2 0 0.1-0.1 0.2-0.1 0.2 0 0 0 0.1-0.1 0.2 0 0.1 0 0.2 0 0.2q-0.1 0-0.1 0.1 0 0.2 0 0.2-0.1 0-0.1 0.1 0.1 0 0 0 0 0 0 0.2-0.1 0.1-0.1 0.1 0 0-0.1 0.2 0 0.1 0 0.1-0.1 0-0.1 0.1 0 0.1-0.1 0.1 0 0 0 0.2 0 0.1-0.1 0.1 0 0 0 0.1-0.1 0.1-0.1 0.1-0.1 0 0 0.1 0 0.1 0 0.1-0.1 0-0.1 0.1c0 0.1-0.1 0.1-0.2 0.2q0 0.1-0.1 0.2c0 0.1 0 0.1 0 0.2q-0.1 0-0.1 0.1 0 0 0 0c-0.1 0-0.2 0.2-0.1 0.3q0 0-0.1 0 0 0-0.1 0.1 0 0.1 0 0.1-0.1 0-0.1 0c0 0.1-0.2 0.3-0.2 0.4q0 0 0 0 0 0.1-0.1 0.2-0.1 0-0.1 0.1 0 0 0 0.1-0.1 0-0.1 0.1-0.1 0.1-0.1 0.1-0.1 0-0.1 0.1c0 0 0 0.1-0.1 0.2-0.1 0-0.1 0.1-0.1 0.1q0 0-0.1 0.1-0.1 0.1-0.1 0.2 0 0 0 0c-0.1 0-0.1 0.1-0.1 0.2q0 0-0.1 0 0 0-0.1 0.1c0 0-0.2 0.2-0.3 0.3-0.1 0.1-0.2 0.2-0.2 0.3 0 0-0.1 0.1-0.2 0.2-0.3 0.3-0.6 0.6-0.9 0.9-0.1 0.1-0.2 0.2-0.2 0.2q-0.1 0-0.1 0.1-0.1 0.1-0.1 0.1c0 0-0.2 0.1-0.3 0.2-0.1 0.2-0.3 0.3-0.3 0.3q0 0 0 0 0 0-0.1 0.1c0 0-0.1 0-0.1 0.1q-0.1 0.1-0.1 0.1-0.1 0-0.5 0.4-0.1 0.1-0.1 0.1-0.1 0-0.2 0.1c-0.1 0-0.2 0.1-0.2 0.2-0.1 0-0.1 0.1-0.2 0.1q-0.1 0.1-0.1 0.1 0 0 0 0 0 0-0.1 0.1 0 0-0.1 0-0.1 0.1-0.1 0.1-0.1 0-0.2 0.1c0 0-0.1 0.1-0.1 0.1q0 0.1-0.1 0.1-0.1 0-0.1 0.1 0 0 0 0c-0.1 0-0.1 0-0.3 0.2q-0.1 0-0.1 0c0 0-0.1 0-0.2 0.2q-0.1 0-0.1 0-0.1 0-0.2 0.1c0 0-0.1 0.1-0.1 0.1q-0.1 0-0.1 0.1-0.1 0-0.1 0 0 0.1-0.1 0.1-0.1 0-0.2 0.1c0 0 0 0.1-0.1 0.1q-0.2 0-0.2 0 0 0.1-0.1 0.1-0.1 0-0.1 0.1-0.1 0-0.1 0.1-0.1 0-0.1 0 0 0-0.1 0.1-0.1 0-0.1 0 0 0.1 0 0.1c0-0.1-0.2 0-0.2 0q0 0.1-0.1 0.1 0-0.1 0 0 0 0-0.2 0.1-0.1 0-0.1 0 0 0.1 0 0.1-0.1 0-0.2 0c0 0-0.1 0.1-0.1 0.1q-0.1 0-0.1 0.1-0.1 0-0.2 0-0.1 0.1-0.1 0.1 0 0-0.1 0.1-0.1 0-0.1 0 0 0.1-0.1 0-0.1 0-0.1 0.1 0 0-0.1 0-0.1 0-0.1 0.1 0 0-0.2 0-0.1 0.1-0.1 0.1 0 0-0.1 0.1-0.1 0-0.2 0 0 0.1-0.1 0.1-0.1 0-0.1 0.1 0 0-0.2 0-0.1 0.1-0.1 0.1c0 0-0.1 0-0.2 0.1-0.2 0-0.3 0-0.3 0.1q0 0-0.1 0-0.1 0-0.1 0.1-0.1 0-0.2 0-0.1 0.1-0.1 0.1-0.1 0-0.2 0.1-0.2 0-0.2 0 0 0.1-0.1 0.1-0.2 0-0.2 0.1 0 0-0.1 0-0.2 0-0.2 0.1 0 0-0.1 0-0.1 0-0.1 0c0 0-0.1 0.1-0.2 0.1q-0.1 0-0.1 0.1c0 0-0.1 0-0.2 0-0.1 0-0.2 0.1-0.2 0.1 0 0-0.1 0-0.2 0-0.1 0.1-0.2 0.1-0.2 0.1 0 0-0.2 0.1-0.3 0.1q-0.1 0-0.1 0c0 0-0.1 0.1-0.2 0.1-0.1 0-0.2 0-0.2 0.1q0 0-0.1 0 0 0-0.1 0c0 0-0.1 0-0.2 0.1-0.1 0-0.2 0-0.2 0 0 0-0.1 0.1-0.2 0.1-0.1 0-0.2 0-0.2 0 0 0.1-0.2 0.1-0.3 0.1-0.1 0-0.2 0.1-0.2 0.1 0 0-0.1 0-0.3 0-0.1 0.1-0.2 0.1-0.2 0.1 0 0-0.1 0-0.2 0.1q-0.3 0-0.3 0 0 0.1-0.1 0.1-0.2-0.1-0.2 0c0 0-0.1 0-0.3 0-0.1 0-0.2 0.1-0.2 0.1 0 0-0.2 0-0.3 0.1-0.2 0-0.3 0-0.3 0 0 0-0.2 0.1-0.4 0.1-0.1 0-0.3 0-0.3 0 0 0.1-0.2 0.1-0.4 0.1-0.2 0-0.3 0.1-0.3 0.1 0 0-0.2 0-0.4 0q-0.5 0.1-0.4 0.1 0.1 0-0.2 0c-0.1 0-0.3 0-0.3 0 0 0.1-0.2 0.1-0.5 0.1-0.3 0-0.5 0-0.5 0.1 0 0-0.3 0-0.6 0-0.4 0-0.7 0.1-0.7 0.1-0.1 0.1-7.1 0.1-7.2 0 0 0-0.3-0.1-0.7-0.1-0.3 0-0.6 0-0.6 0 0-0.1-0.2-0.1-0.5-0.1-0.3 0-0.5 0-0.5-0.1 0 0-0.2 0-0.3 0q-0.2 0-0.2 0 0.1 0-0.4-0.1c-0.2 0-0.4 0-0.4 0 0 0-0.1-0.1-0.3-0.1-0.2 0-0.4 0-0.4-0.1 0 0-0.1 0-0.3 0-0.2 0-0.3-0.1-0.4-0.1 0 0-0.1 0-0.3 0-0.1-0.1-0.3-0.1-0.3-0.1 0 0-0.1-0.1-0.2-0.1-0.2 0-0.3 0-0.3 0 0-0.1-0.1-0.1-0.2-0.1q-0.2 0.1-0.1 0 0.1 0-0.1 0c-0.1 0-0.2 0-0.2 0q-0.1 0-0.2-0.1 0 0 0 0c0 0-0.1 0-0.2-0.1-0.2 0-0.3 0-0.3 0 0 0-0.1-0.1-0.2-0.1-0.1 0-0.2 0-0.2-0.1 0 0-0.1 0-0.3 0-0.1 0-0.2-0.1-0.2-0.1 0 0-0.1 0-0.2 0-0.1-0.1-0.2-0.1-0.2-0.1q-0.1 0-0.2 0-0.1 0-0.1 0 0.1-0.1-0.1-0.1c-0.1 0-0.2-0.1-0.2-0.1 0 0-0.1 0-0.2 0-0.1-0.1-0.2-0.1-0.2-0.1 0 0-0.1 0-0.2-0.1-0.1 0-0.2 0-0.2 0 0 0-0.1-0.1-0.2-0.1-0.1 0-0.2 0-0.2 0q0-0.1-0.1-0.1c-0.1 0-0.2-0.1-0.2-0.1q0 0-0.1 0-0.1 0-0.1 0 0 0-0.1-0.1-0.2 0-0.2 0 0-0.1-0.2-0.1-0.1 0-0.1-0.1 0 0-0.2 0-0.1-0.1-0.2-0.1 0 0-0.1-0.1-0.1 0-0.2 0 0-0.1-0.1-0.1-0.1 0-0.1 0c0-0.1-0.1-0.1-0.3-0.1-0.1-0.1-0.2-0.1-0.2-0.1q0 0-0.1-0.1-0.2 0-0.2 0 0-0.1-0.1-0.1-0.1 0-0.1-0.1-0.1 0-0.2 0-0.1-0.1-0.1-0.1 0 0-0.1 0-0.2-0.1-0.2-0.1 0 0-0.1-0.1-0.1 0-0.1 0 0-0.1-0.1-0.1-0.1 0.1-0.1 0 0 0-0.1 0-0.1-0.1-0.1-0.1 0 0-0.1-0.1-0.1 0-0.2 0 0-0.1-0.1-0.1-0.1 0-0.1-0.1 0 0-0.1 0-0.1-0.1-0.1-0.1 0 0-0.1 0-0.2-0.1-0.2-0.1 0-0.1 0 0-0.1 0-0.1-0.1-0.1 0-0.2 0 0 0-0.1-0.1 0-0.1 0-0.1-0.1 0-0.1 0 0 0-0.1-0.1-0.1 0-0.1 0 0-0.1-0.1-0.1 0 0-0.1 0c0-0.1-0.1-0.1-0.2-0.1q-0.1-0.1-0.2-0.1 0-0.1-0.1-0.1-0.1 0-0.1-0.1 0 0-0.1 0c0 0-0.1-0.1-0.2-0.2q-0.1 0-0.2-0.1 0 0 0 0-0.1-0.1-0.1-0.1-0.1 0-0.1 0 0-0.1-0.1-0.1 0 0-0.1 0c-0.2-0.2-0.2-0.2-0.3-0.2q0 0 0 0 0-0.1-0.1-0.1-0.1 0-0.1-0.1c0 0-0.1-0.1-0.1-0.1q-0.1-0.1-0.2-0.1 0 0-0.1-0.1-0.1 0-0.2 0 0-0.1 0-0.1 0 0-0.1-0.1c-0.1 0-0.1-0.1-0.2-0.1q0-0.1-0.1-0.1c0 0-0.1 0-0.1-0.1q-0.1-0.1-0.2-0.1 0 0-0.1-0.1 0-0.1-0.1-0.1c0 0-0.1-0.1-0.2-0.2 0 0-0.1-0.1-0.2-0.1q0 0 0 0c0-0.1-0.3-0.3-0.3-0.3 0 0-0.2-0.1-0.3-0.2-0.1-0.2-0.2-0.3-0.2-0.3q-0.1 0-0.1 0c-0.3-0.3-1-1.1-1.3-1.3-0.1-0.1-0.2-0.3-0.2-0.3 0 0-0.1-0.1-0.3-0.2-0.1-0.1-0.2-0.3-0.2-0.3 0 0 0-0.1-0.1-0.2-0.1 0-0.2-0.1-0.2-0.1 0-0.1 0-0.1-0.1-0.2 0 0-0.1-0.1-0.1-0.1 0-0.1-0.1-0.1-0.1-0.2-0.1 0-0.1-0.1-0.1-0.1q-0.1-0.1-0.1-0.2-0.1 0-0.1 0 0-0.1-0.1-0.2 0 0 0-0.1-0.1 0-0.1-0.1-0.1 0-0.1-0.1 0 0 0 0c0-0.1-0.2-0.3-0.2-0.3 0-0.1-0.1-0.1-0.1-0.2q-0.2-0.1-0.1-0.2 0 0 0 0c-0.2-0.2-0.2-0.3-0.2-0.3q0-0.1-0.1-0.1 0 0 0-0.1c-0.1-0.1-0.1-0.1-0.2-0.3q-0.1 0 0-0.1 0 0-0.1 0 0 0 0-0.1 0 0-0.1 0 0 0 0-0.1 0.1-0.1 0-0.1 0 0-0.1-0.1 0-0.1 0-0.1-0.1 0-0.1-0.1 0-0.2 0-0.2-0.1 0-0.1-0.1 0-0.1-0.1-0.1 0 0 0-0.1-0.1-0.2-0.1-0.1 0 0 0-0.1 0-0.1 0-0.1-0.1-0.1-0.1-0.1 0-0.1 0-0.1-0.1 0 0 0 0-0.1-0.1-0.1 0 0 0-0.2 0-0.1-0.1-0.1c0 0 0-0.1 0-0.2-0.1-0.1-0.1-0.2-0.1-0.2 0 0-0.1-0.1-0.1-0.2q0-0.2 0-0.2c-0.1 0-0.1 0-0.1-0.2 0-0.1 0-0.2-0.1-0.2q0 0 0-0.1 0-0.1 0-0.1 0 0 0-0.1 0-0.1-0.1-0.1 0 0 0-0.1 0-0.2 0-0.2c0 0-0.1-0.1-0.1-0.3 0-0.1 0-0.3 0-0.3-0.1 0-0.1-0.1-0.1-0.3 0-0.2-0.1-0.4-0.1-0.4-0.1 0-0.1-3.9 0-3.9 0 0 0.1-0.2 0.1-0.4 0-0.2 0-0.3 0.1-0.3 0 0 0-0.2 0-0.3 0-0.2 0.1-0.3 0.1-0.3q0 0 0-0.1 0-0.2 0-0.2 0.1 0 0.1-0.1 0-0.1 0-0.1 0 0 0-0.1 0-0.1 0-0.1 0.1 0 0.1-0.1c0-0.1 0-0.3 0.1-0.3 0 0 0-0.1 0-0.2 0-0.1 0.1-0.2 0.1-0.2 0 0 0-0.1 0.1-0.2 0-0.1 0-0.2 0-0.2q0.1 0 0.1-0.1 0-0.1 0-0.1 0.1-0.1 0.1-0.1-0.1-0.1 0-0.1 0 0 0-0.1 0.1-0.2 0.1-0.2 0 0 0.1-0.2 0-0.1 0-0.1 0.1 0 0.1 0 0-0.1 0-0.2c0.1 0 0.1-0.1 0.1-0.2q0-0.1 0.1-0.1 0 0 0-0.1 0.1-0.1 0.1-0.1 0.1 0 0-0.1 0 0 0 0 0.1 0 0.1-0.1 0-0.1 0-0.1 0.1 0 0.1 0-0.1-0.1 0-0.1 0.1-0.1 0.1-0.2 0-0.1 0 0 0 0.1 0.1-0.1 0-0.1 0-0.1c0.1 0 0.2-0.3 0.2-0.4q0 0 0.1-0.1 0.2-0.2 0.2-0.2c0-0.1 0.2-0.3 0.2-0.4q0 0 0 0 0-0.1 0.1-0.1 0 0 0.1-0.1 0-0.1 0-0.1 0.1-0.1 0.1-0.1 0-0.1 0.1-0.1 0-0.1 0.1-0.1c0-0.1 0-0.2 0.1-0.2 0-0.1 0.1-0.1 0.1-0.2 0 0 0.1 0 0.1-0.1q0.1-0.1 0.1-0.1 0-0.1 0.1-0.2c0.1 0 0.2-0.1 0.2-0.1 0 0 0.1-0.2 0.2-0.3 0.1-0.1 0.2-0.2 0.2-0.3 0 0 0.1-0.1 0.3-0.3 0.5-0.4 1.2-1.1 1.3-1.3 0-0.1 0.1-0.1 0.1-0.1 0.1 0 0.2-0.1 0.3-0.2 0.1-0.1 0.2-0.2 0.2-0.2 0.1 0 0.1-0.1 0.2-0.2 0.1-0.1 0.2-0.1 0.2-0.1 0 0 0.1-0.1 0.2-0.2 0 0 0.1-0.1 0.1-0.1 0 0 0.1 0 0.2-0.1 0-0.1 0.1-0.1 0.1-0.1q0.1 0 0.1-0.1 0.1-0.1 0.1-0.1 0.1 0 0.2-0.1c0 0 0.1-0.1 0.1-0.1q0.1-0.1 0.1-0.1 0 0 0.1-0.1c0 0 0.1 0 0.2 0 0-0.1 0.1-0.2 0.2-0.2 0 0 0.1-0.1 0.1-0.1q0.1-0.1 0.1-0.1 0 0 0.1 0 0.1-0.1 0.1-0.1c0.1 0 0.1-0.1 0.3-0.2q0-0.1 0 0 0 0 0 0 0.1 0 0.1-0.1 0 0 0.1 0 0 0 0.1-0.1 0 0 0 0c0.1 0 0.2-0.1 0.3-0.2q0.1 0 0.1-0.1 0.1 0 0.1 0 0-0.1 0.1-0.1 0 0.1 0 0 0 0 0.1 0 0 0 0.1-0.1 0.1 0 0.2-0.1c0 0 0.1 0 0.2-0.1q0.1-0.1 0.2-0.1 0.1-0.1 0.1-0.1 0.1-0.1 0.1-0.1 0.1 0 0.1 0-0.1-0.1 0 0 0.1 0 0.1 0 0-0.1 0-0.1 0.1 0 0.1 0 0-0.1 0.1 0 0 0 0-0.1 0 0 0.2 0 0.1-0.1 0.1-0.1 0 0 0.1-0.1 0.1 0 0.1 0 0-0.1 0.1-0.1 0.1 0 0.1-0.1 0.1 0 0.2 0 0.1 0 0.1-0.1 0 0 0.1 0 0.1-0.1 0.1-0.1 0 0 0.1 0 0.1 0 0.1 0 0-0.1 0.1-0.1 0.1 0 0.1-0.1 0 0 0.1 0 0.2-0.1 0.2-0.1 0 0 0.1-0.1 0.1 0 0.2 0 0-0.1 0.1-0.1 0.1 0 0.1 0 0-0.1 0.2-0.1 0.1 0 0.1-0.1 0 0 0.1 0 0 0 0 0 0 0 0.2-0.1 0.1 0 0.1 0 0-0.1 0.2-0.1 0.1 0 0.1-0.1 0.1 0 0.2 0 0.1-0.1 0.1-0.1 0.1 0 0.2-0.1 0.2 0 0.2 0c0 0 0-0.1 0.1-0.1q0.2 0 0.2-0.1-0.1 0 0 0 0.1 0 0.1 0 0 0 0.1 0 0.1 0 0.1-0.1 0 0 0.1 0 0.1 0 0.1 0c0 0 0-0.1 0.1-0.1 0.2 0 0.2 0 0.2 0 0-0.1 0.1-0.1 0.2-0.1 0.1 0 0.2 0 0.2-0.1 0 0 0.1 0 0.2 0 0.1 0 0.2-0.1 0.2-0.1 0 0 0.1 0 0.2-0.1q0.1 0 0.1 0 0-0.1 0.1 0 0.1 0 0.1-0.1c0 0 0.2 0 0.4 0q0 0 0-0.1c0 0 0.1 0 0.3 0 0.1-0.1 0.2-0.1 0.2-0.1 0 0 0.1-0.1 0.2-0.1 0.1 0 0.2 0 0.2 0 0-0.1 0.1-0.1 0.2-0.1 0.2 0 0.3 0 0.3-0.1 0 0 0.1 0 0.2 0q0.3-0.1 0.2-0.1 0 0 0.2 0 0.1 0 0.1 0 0-0.1 0.1-0.1 0.2 0 0.2 0 0 0 0.1 0 0.2 0 0.2 0c0-0.1 0.1-0.1 0.3-0.1 0.1 0 0.2-0.1 0.2-0.1 0 0 0.1 0 0.3 0 0.2-0.1 0.3-0.1 0.3-0.1 0 0 0.2-0.1 0.4-0.1 0.1 0 0.3 0 0.3 0 0 0 0.1-0.1 0.3-0.1q0.4 0 0.4-0.1 0 0 0.2 0c0.1 0 0.1 0 0.2 0 0 0 0.1 0 0.2 0 0.1 0 0.2-0.1 0.2-0.1 0 0 0.1 0 0.2 0 0.1 0 0.2 0 0.2 0q0 0 0.1-0.1c0.4 0 0.9 0 0.9 0 0-0.1 0.3-0.1 0.7-0.1 0.3 0 0.6-0.1 0.6-0.1 0.1 0 0.7 0 1.4-0.1 0.7 0 1.6 0 2 0zm-1.6 2c-0.5 0-2.4 0.2-2.8 0.2-1.2 0.2-1.7 0.2-2.2 0.3-0.7 0.2-2.1 0.4-2.4 0.5-0.1 0-0.3 0.1-0.5 0.1-1.7 0.4-3.8 1.2-5.6 1.9-0.1 0.1-0.6 0.3-1.2 0.6-0.5 0.3-1.6 0.8-2.1 1.2-11.9 7.1-12.7 19.4-1.8 27.2 0.6 0.4 2.2 1.5 2.3 1.5 0 0 0.1 0 0.2 0.1 0.3 0.1 1.7 0.9 2.1 1 0.9 0.4 1.4 0.7 2.4 1 0.6 0.2 1.7 0.6 2 0.7 0.1 0 0.3 0.1 0.5 0.1 0.6 0.2 1.7 0.5 2.1 0.6 2.5 0.5 3.6 0.7 6.2 0.9 0.8 0 4.6 0 5.4 0 1.3-0.1 1.6-0.2 2.1-0.2 0.8-0.1 2-0.3 2.3-0.4 0.2 0 0.6-0.1 0.9-0.1 0.3-0.1 0.6-0.2 0.7-0.2 0.1 0 0.3-0.1 0.6-0.1 0.5-0.1 1.2-0.3 1.7-0.4 0.2-0.1 0.5-0.2 0.7-0.3 3.3-0.9 6.8-2.7 9.4-4.6 9.8-7.5 9.4-18.7-0.9-25.9-2.9-2-6.7-3.7-10.4-4.6-0.2 0-0.4-0.1-0.5-0.1-0.4-0.1-1.9-0.4-2.5-0.5-0.4-0.1-1.1-0.1-2.1-0.3-0.2 0-0.8-0.1-1.4-0.1-1-0.1-4.1-0.1-5.2-0.1z"/><path fill-rule="evenodd" class="d" d="m59.2 20.3q0 0 0 0.1 0 0.1 0-0.1 0-0.1 0 0zm0 1.3q0 0.1 0 0 0-0.1 0-0.1 0-0.1 0 0.1zm-52.2 9.4c1.3 1.3 2.8 2.6 4.4 3.6 0.5 0.3 1.4 0.9 1.4 0.9 0 0 0.1 0 0.2 0.1 0.3 0.1 1.7 0.9 2.1 1 0.9 0.4 1.4 0.7 2.4 1 0.6 0.2 1.7 0.6 2 0.7 0.1 0 0.3 0.1 0.5 0.1 0.6 0.2 1.7 0.5 2.1 0.6 1.6 0.3 2.1 0.4 3.1 0.5 1 0.2 1.6 0.3 3.1 0.4 0.8 0 4.6 0 5.4 0 1.3-0.1 1.6-0.2 2.1-0.2 0.8-0.1 2-0.3 2.3-0.4 0.2 0 0.6-0.1 0.9-0.1 0.3-0.1 0.6-0.2 0.7-0.2 0.1 0 0.3-0.1 0.6-0.1 0.5-0.1 1.2-0.3 1.7-0.4 0.2-0.1 0.5-0.2 0.7-0.3 4.7-1.3 9.4-4.1 12.2-7.1 0.2-0.3 0.4-0.5 0.4-0.5-0.1 0.1-48.5 0.1-48.6 0 0 0 0.1 0.1 0.3 0.4z"/><path fill-rule="evenodd" class="e" d="m6.8 11.2h24.2c13.3 0 24.2 0 24.2 0.1 0.1 0 0.6 0.7 0.9 1.1 4.3 5.5 4.1 12.5-0.6 17.9l-0.3 0.4h-24.2-24.2l-0.3-0.4c-3.6-4.3-4.7-9.5-2.8-14.2 0.2-0.3 0.2-0.4 0.4-0.9 0.6-1.2 1.6-2.8 2.6-3.8zm36.2 9.7c0 4 2.6 6.1 7.2 5.8 3.6-0.2 5.6-2.3 5.6-5.9 0-3.4-2-5.5-5.7-5.7-4.4-0.3-7.1 1.9-7.1 5.8zm-28-5.7h-4.2l-0.1 0.2c0 0.1-0.1 0.3-0.2 0.5-0.1 0.3-0.2 0.5-0.2 0.5-0.1 0.2-0.4 1-0.7 1.7-0.1 0.2-0.2 0.5-0.2 0.6 0 0-0.2 0.3-0.3 0.6-0.1 0.3-0.2 0.6-0.3 0.7 0 0-0.1 0.2-0.2 0.4-0.1 0.3-0.2 0.7-0.4 1-0.1 0.4-0.3 0.8-0.4 1-0.1 0.2-0.2 0.4-0.2 0.5 0 0-0.1 0.3-0.2 0.6-0.2 0.4-0.3 0.6-0.3 0.7 0 0-0.1 0.3-0.2 0.6-0.4 0.9-0.7 1.5-0.7 1.6q-0.1 0.1-0.1 0.1 0 0.1 2 0.1h2l0.3-1 0.3-0.9h2.1 2.2l0.6 1.8 2 0.1c1.1 0 2 0 2-0.1 0 0-0.1-0.4-0.6-1.4-0.1-0.4-0.5-1.5-0.6-1.7-0.1 0-0.1-0.1-0.1-0.2-0.1-0.1-0.2-0.5-0.4-1-0.2-0.5-0.4-1-0.5-1 0-0.1-0.4-1.1-0.8-2.2-0.3-0.5-0.5-1-0.5-1.1 0 0-0.1-0.3-0.2-0.5-0.1-0.3-0.4-0.9-0.5-1.3-0.2-0.3-0.3-0.7-0.4-0.8zm9.7 0h-1.9c-1.5 0-1.9 0.1-1.9 0.1 0 0 0 2.6 0 5.6v5.6l9.8 0.1v-2.8l-6-0.1zm17.7 0h-5.8c-3.2 0-5.9 0-5.9 0.1 0 0 0 0.6 0 1.4v1.3h1.9l2 0.1v4.2 4.2h3.9v-4.2-4.2l3.9-0.1zm9.6 5.5c0 2.3-0.7 3.3-2.4 3.3-1.8 0.1-2.7-0.9-2.7-3.1q0-2.9 2.1-3.2c1.9-0.2 3 0.9 3 3zm-39.1-2.4c0 0 0.2 0.6 0.7 2 0.1 0.3 0.3 0.9 0.4 1.2 0.1 0.3 0.2 0.6 0.2 0.6 0 0-0.6 0.1-1.3 0.1-0.7 0-1.3-0.1-1.3-0.1 0 0 0.1-0.3 0.2-0.6 0.1-0.4 0.4-1.2 0.6-1.8 0.2-0.6 0.4-1.2 0.4-1.3 0.1-0.1 0.1-0.1 0.1-0.1z"/></svg>