<svg version="1.2" xmlns="http://www.w3.org/2000/svg" viewBox="0 0 62 42" width="62" height="42"><style>.a{fill:#fafafa}.b{fill:#f4841c}.c{fill:#1464a4}.d{fill:#4b84ba}.e{fill:#145ca4}</style><path fill-rule="evenodd" class="a" d="m29.6 6.3l0.7 0.4c0.4 0.2 1.6 0.8 2.7 1.4 1.1 0.6 2.1 1.1 2.1 1.1 0 0-0.1 0-2.6 1.3-1.1 0.6-2 1.1-2 1.1 0 0 0.2 0 0.6 0 1.6-0.1 5.3-0.1 7.3 0 13.1 0.7 21.2 3.9 22.1 8.7 0.8 3.6-1.7 6.9-6.9 9.4-5 2.3-12.7 3.9-19.7 4l-1 0.1v0.7q0 0.7-0.1 0.7c0 0-5.4-2.8-5.4-2.8 0 0 0.8-0.4 3.8-2 0.6-0.3 0.8-0.4 0.7-0.4 0 0-0.3 0-0.7 0-6.9 0.3-14.9-0.5-19.8-1.9q-10.6-3-9.5-9.1c0.6-3.2 3.6-6 9.1-8 4.8-1.9 11.6-3.1 17.5-3.2h1.1zm0.3 0.5c0 0 0 0.3 0 0.6v0.7h-1c-5.4 0-12.1 1.1-16.9 2.8-5.7 2-9 4.6-9.7 7.8-1.4 5.5 5.3 9.4 18.4 10.6 2.5 0.3 6.4 0.4 8.4 0.3h0.7-0.3c-4.9-0.5-9-1-11.6-1.5-10.6-2-14.8-4.7-13.7-8.8 0.8-3.2 5.2-5.9 12.5-7.6 4-0.9 8.7-1.5 12.6-1.5h0.6v0.6c0 0.3 0 0.6 0.1 0.6 0 0 4.4-2.3 4.3-2.3 0 0-1-0.5-2.2-1.1-1.2-0.7-2.1-1.2-2.2-1.2zm-0.3 3.7h-0.5c-4 0-9.8 0.8-13.6 1.8-7.4 2-11.2 4.8-11.2 8.3 0 3.5 5.7 6.1 17.3 7.7 1.9 0.3 1.8 0.3 4.1 0.6 1.5 0.1 4.3 0.4 6.3 0.6 0.4 0.1 0.8 0.1 0.8 0.1 0 0 0.1 0.3 0.1 0.7v0.6h0.5c8.4-0.2 16.6-2.1 20.9-4.7 2.4-1.5 3.6-3.1 3.8-5 0.4-4-6-6.7-19.6-8.4-2-0.3-5.1-0.6-8.2-0.9-0.4 0-0.6-0.1-0.7-0.1 0 0 0-0.1 0-0.6zm2.9 1.1c-1.5 0-2 0.1-2.1 0.1h-0.2 0.5c1.5 0.2 2.2 0.3 3.4 0.4 18.1 1.9 25.4 4.9 24 9.9-0.8 3-4.5 5.5-10.9 7.2-4 1-9.3 1.8-13.7 1.9h-0.8v-1.4l-0.5 0.3c-3.7 1.9-4.5 2.3-4.4 2.3 0 0 4.8 2.5 4.9 2.5 0 0 0-0.3 0-0.6v-0.7h0.3c1.8 0.1 6-0.3 8.9-0.7 10.1-1.7 16.8-5.1 18.3-9.4 1-3.1-0.3-5.8-3.8-7.8q-6-3.4-19.1-4c-0.6 0-4.3 0-4.8 0zm-22.4 4.9h2c2.4 0 2.8 0 3.3 0.2 1.9 0.7 1.8 3.5-0.2 4.5-0.5 0.3-1.2 0.4-2.6 0.4h-0.8-0.1c0 0.1-0.2 1.3-0.4 2.5l-0.1 0.4-2.6 0.1v-0.1c0-0.1 0.1-0.3 0.5-2.6 0.1-0.6 0.3-1.5 0.4-2 0-0.4 0.1-0.8 0.1-0.9 0 0 0 0-0.3 0-0.1 0-0.3 0-0.3 0 0-0.1 0.2-0.5 0.9-2zm9.2-0.1l2.2 0.1c2.5 0 2.6 0 3.2 0.3 0.8 0.5 1 1.7 0.4 2.9-0.3 0.6-1.2 1.3-1.8 1.5q-0.2 0-0.2 0c0 0 0.4 0.6 1.6 2.4 0.3 0.5 0.5 0.9 0.5 0.9 0 0-0.6 0-1.4 0h-1.4l-0.5-0.9c-1-1.6-1.3-2.2-1.3-2.1 0 0-0.1 0.4-0.2 0.9-0.1 0.5-0.2 1.2-0.3 1.5l-0.1 0.6h-1.2-1.1c0-0.1 0.1-0.3 0.1-0.7 0.3-1.1 0.6-2.7 0.8-3.7 0.1-0.6 0.2-1.1 0.2-1.1q-0.1 0-0.4 0c-0.2 0-0.3-0.1-0.3-0.1 0 0 0.1-0.2 0.2-0.5 0.2-0.3 0.4-0.7 0.5-0.9 0.1-0.2 0.2-0.5 0.3-0.7zm11.5 0c0 0.1-0.1 0.6-0.2 1.2-0.5 2.9-0.7 3.7-0.9 4.8-0.1 0.7-0.2 1.4-0.2 1.6l-0.1 0.4h-1.2c-1.2 0.1-1.2 0.1-1.2 0 0-0.1 0-0.1 0.6-3.8 0.3-1.5 0.3-1.7 0.3-1.7 0 0 0 0-0.3 0q-0.2 0-0.2-0.1c0 0 0.1-0.2 0.2-0.5 0.1-0.3 0.3-0.9 0.5-1.2 0.1-0.4 0.3-0.7 0.3-0.7 0 0 2.4 0 2.4 0zm3.6 0h1.3 1.4l0.1 0.8c0.4 1.7 0.8 3.3 0.8 3.3 0 0.1 0 0 0.1-0.1 0.1-0.2 1.1-1.5 1.9-2.8 0.2-0.2 0.4-0.6 0.6-0.8l0.3-0.4h2.5v8.1h-2.4v-0.4c0-0.2 0-1.2-0.1-2.3v-2l-0.7 1.1c-0.4 0.6-1.1 1.7-1.6 2.4l-0.8 1.2h-0.2c-0.1 0-0.3 0-0.5 0l-0.4-0.1v-0.1c0-0.1-0.4-1.3-0.6-2.1 0-0.2-0.2-0.7-0.3-1.1-0.1-0.4-0.2-0.8-0.3-1 0-0.2-0.1-0.3-0.1-0.3 0 0-0.1 0.3-0.2 0.5-0.1 0.3-0.2 0.7-0.3 0.9-0.2 0.5-0.5 1.3-0.9 2.4-0.2 0.4-0.3 0.8-0.3 0.8v0.1h-1.2c-0.7 0-1.3-0.1-1.3-0.1 0 0 0.3-0.8 0.7-1.7 0.8-2 1.7-4.3 1.7-4.4 0.1 0 0 0-0.3 0-0.2 0-0.3 0-0.3 0 0-0.1 0.1-0.2 0.3-0.4 0.2-0.3 0.5-0.7 0.7-1zm15 0h1.5c0.8 0 1.5 0 1.5 0q0 0.1 0.6 3.1c0.1 0.7 0.3 1.7 0.4 2.1 0 0.4 0.2 1 0.2 1.3 0.1 0.8 0.3 1.5 0.3 1.5 0 0.1-0.1 0.1-1.4 0.1-1.3 0-1.4 0-1.4-0.1 0 0 0-0.3 0-0.6l-0.1-0.6h-1.5-1.5l-0.1 0.3c-0.1 0.1-0.3 0.4-0.4 0.6l-0.2 0.4h-1.5c-0.8 0-1.5 0-1.5 0 0 0 0.1-0.2 0.2-0.3 0.1-0.3 0.4-0.6 1.2-1.9 0.1-0.2 0.3-0.5 0.4-0.7 0.8-1.2 2.1-3.2 2.1-3.3 0 0-0.2 0-0.4 0h-0.3l0.9-0.9zm-36.3 1.6h-0.7v0.1c0 0.1-0.1 0.4-0.1 0.8-0.1 0.3-0.2 0.7-0.2 0.7q0 0.1 0 0.2v0.1h0.6c0.7 0 0.9-0.1 1.2-0.3 0.6-0.5 0.6-1.3 0-1.6-0.1 0-0.2 0-0.8 0zm8.1 0.1c0 0 0 0.4-0.1 0.7-0.1 0.4-0.1 0.7-0.1 0.8h-0.1 0.6c0.7 0 0.8 0 1.1-0.1 0.6-0.3 0.6-1.2 0.1-1.4-0.2 0-1.4 0-1.5 0zm28.8 1.3c-0.1 0.3-0.5 0.9-0.7 1.3-0.2 0.4-0.3 0.7-0.3 0.7 0 0 0.4 0 0.9 0h0.9c0-0.1 0-0.2 0-0.3 0-0.3-0.2-2.5-0.2-2.6 0-0.1 0-0.1-0.6 0.9z"/><path fill-rule="evenodd" class="b" d="m29.9 6.9c0.1 0 4.4 2.2 4.4 2.3 0.1 0-4.3 2.2-4.3 2.2-0.1 0-0.1-0.2-0.1-0.6v-0.6h-0.6c-4.4 0.1-9.9 0.8-14 1.9-7.4 2-11.3 4.9-11.3 8.5 0 3.4 4.3 5.7 13.9 7.5 2.6 0.5 6.7 1.1 11.6 1.5l0.3 0.1h-0.7c-2 0.1-5.9-0.1-8.4-0.3-13.1-1.3-19.8-5.1-18.4-10.7 0.7-3.1 4-5.8 9.7-7.8 4.8-1.7 11.5-2.8 16.9-2.8h1v-0.6c0-0.4 0-0.6 0-0.6zm2.6 4.8c-1.5 0-2 0-2.1 0.1h-0.2 0.5c5 0.5 8.1 0.9 11.4 1.4 10.9 1.6 16.3 4.2 16.2 7.8-0.1 3.5-4 6.3-11.1 8.2-4 1.1-9.3 1.9-13.7 1.9l-0.8 0.1v-1.4l-0.5 0.2c-3.7 2-4.5 2.4-4.4 2.4 0 0 4.8 2.5 4.9 2.5 0 0 0-0.3 0-0.7v-0.6h0.3c1.2 0 4.1-0.1 6.2-0.4 9.3-1.1 16.7-3.9 19.7-7.5 1.5-1.9 2-4.1 1.3-6.1-1.7-4.5-9.9-7.3-22.9-7.9-0.6 0-4.3 0-4.8 0z"/><path fill-rule="evenodd" class="c" d="m60.8 0q0 0 0 0 0 0.1 0.1 0.1 0 0 0.1 0 0 0 0.1 0 0 0 0 0c0 0 0.3 0.2 0.3 0.1q0 0 0 0.1 0 0 0.1 0 0.1 0 0 0 0 0.1 0 0.1 0.1 0 0.1 0 0 0 0 0.1 0 0 0.1 0 0 0 0 0 0 0 0 0.1 0.1 0 0.1 0.1-0.1 0 0 0 0 0 0 0 0 0.1 0.1 0.2c0.1 0.2 0.1-0.9 0.1 20.1 0 12.5 0 19.8-0.1 19.8q0 0 0 0.1c0 0.1-0.1 0.2-0.1 0.2q-0.1 0.1-0.1 0.2 0 0 0 0c0 0-0.1 0.1-0.2 0.1 0 0.1-0.1 0.2-0.1 0.2q-0.1 0-0.1 0 0 0.1 0 0.1-0.1 0-0.1 0c0 0-0.2 0.1-0.2 0.1q-0.1 0-0.1 0c0 0-59.8 0-59.9 0q0 0-0.1 0 0 0 0-0.1 0 0-0.1 0 0 0 0 0 0 0 0 0 0 0-0.1 0 0-0.1-0.1-0.1-0.1-0.1-0.1-0.1 0 0.1 0 0 0 0 0 0c0 0-0.1-0.1-0.1-0.1q-0.1 0-0.1 0c0.1-0.1-0.1-0.3-0.1-0.3q0 0 0 0 0 0-0.1-0.1 0 0 0 0 0 0 0-0.1 0 0 0 0 0 0 0-0.1 0 0 0 0-0.1-0.1-0.1-0.1 0 0 0 0 0 0 0-19.8c0-10.8 0-19.7 0-19.7q0 0.1 0 0 0 0 0 0 0.1 0 0.1-0.1c0-0.1 0-0.1 0.1-0.3q0-0.1 0-0.1c0 0 0.3-0.4 0.4-0.4q0 0 0.1-0.1 0 0 0.1 0 0 0 0-0.1 0.1 0 0.1 0 0 0 0.1 0c0.1-0.1 5.3-0.1 29.9-0.1 16.5 0 29.9 0 29.9 0zm-30.7 6.6l-0.5-0.3v1.5h-0.9c-2.4 0-5.8 0.3-8.3 0.7-0.3 0.1-0.8 0.2-1.2 0.2-0.3 0.1-0.8 0.2-1 0.2-0.2 0.1-0.7 0.2-1 0.2-0.6 0.2-2.2 0.5-2.8 0.7-0.2 0.1-0.6 0.2-0.7 0.2-3.5 1-6.9 2.7-8.9 4.4-3.3 2.7-4 6.4-1.7 9.2 0.8 1.1 2.5 2.4 4.2 3.1 0.2 0 0.4 0.1 0.5 0.2 0.1 0.1 0.6 0.2 1.2 0.5 0.7 0.2 2.3 0.7 3.2 0.9 0.8 0.2 1.7 0.4 2 0.5 1.5 0.3 2.1 0.4 2.7 0.5 0.3 0 0.8 0.1 1.2 0.1 0.8 0.1 1.9 0.3 2.7 0.3 1.5 0.1 1.9 0.2 2.6 0.2 2.4 0.2 5.6 0.2 7.7 0.1 0.3 0 0.7 0 0.7 0 0.1 0-0.2 0.2-2.2 1.2-1.2 0.6-2.2 1.2-2.2 1.2 0 0 5.4 2.8 5.4 2.8 0.1 0 0.1-0.3 0.1-0.7v-0.7h0.8c2 0 4.5-0.2 6.7-0.5 0.3-0.1 0.7-0.1 0.8-0.2 0.5 0 1.5-0.2 2.8-0.4 1-0.2 3.2-0.7 4.2-1 0.2-0.1 0.6-0.2 0.7-0.2 0.4-0.2 1.7-0.6 2.3-0.8 6.4-2.4 9.6-5.6 9.5-9.5q-0.2-4.8-8.2-7.4c-0.9-0.3-2.2-0.6-3-0.8-0.3 0-0.7-0.1-0.9-0.2-0.3-0.1-0.7-0.1-1-0.2-0.2 0-0.6-0.1-0.9-0.1-1.4-0.3-3.9-0.6-5.3-0.7-1.3-0.1-2.9-0.2-4.2-0.3-1.1 0-4.7 0-5.8 0-0.5 0-0.8 0.1-0.9 0 0 0 1.7-0.9 3.8-1.9 0.4-0.2 0.8-0.4 0.8-0.4 0 0-1-0.6-2.3-1.2-1.2-0.7-2.4-1.3-2.7-1.4zm-1 4h0.5v1.3h0.2c0.1 0 0.5 0.1 0.9 0.1 0.5 0 1.4 0.1 2.1 0.2 0.6 0.1 1.5 0.2 1.8 0.2 1.1 0.1 1.6 0.2 2.9 0.3 0.7 0.1 1.4 0.2 1.4 0.2 0.5 0 3.7 0.5 4.4 0.6 0.5 0.1 1 0.2 1.1 0.2 0.5 0.1 2.8 0.6 3.6 0.8 6.7 1.6 10 3.6 10.1 6.3 0.1 3.8-4.6 6.9-13 8.8-3.6 0.8-7.9 1.3-11.5 1.4h-0.7v-0.7c0-0.7 0-0.7-0.1-0.7 0 0-0.4 0-0.8-0.1-0.5 0-1.1-0.1-1.5-0.1-0.3 0-1.3-0.1-2.1-0.2-0.9-0.1-1.8-0.2-2-0.2-0.8-0.1-4.1-0.5-5.3-0.7-13.2-2-18.3-5-16.3-9.5 1.2-2.9 5.9-5.4 12.4-6.8 0.3-0.1 0.7-0.2 1.1-0.2 1.1-0.3 2.8-0.5 4.1-0.7 2.5-0.3 3.7-0.4 6-0.5 0.1 0 0.4 0 0.7 0zm-17 6c-2.3 0-2-0.1-2.1 0.2 0 0-0.1 0.2-0.2 0.4-0.5 1.1-0.8 1.8-0.8 1.9 0 0 0.1 0 0.3 0h0.3v0.2c0 0-0.1 0.5-0.2 1-0.1 0.5-0.2 1-0.3 1.3 0 0.2-0.1 0.8-0.2 1.3-0.2 0.9-0.3 1.7-0.3 1.7 0 0 0.4 0 1.3 0 0.7 0 1.3 0 1.3 0 0 0 0.1-0.3 0.2-0.6 0-0.4 0.1-0.8 0.1-1 0.1-0.3 0.1-0.6 0.2-0.9l0.1-0.4h0.9c1.9-0.1 2.6-0.3 3.3-1 0.5-0.5 0.7-1.1 0.7-1.8 0-1.5-0.7-2.2-2.3-2.3-0.2 0-1.2 0-2.3 0zm7.1 0c0 0-0.1 0.2-0.2 0.4-0.1 0.2-0.3 0.6-0.4 0.9-0.3 0.6-0.5 1.2-0.5 1.2 0 0 0.1 0 0.3 0 0.2 0 0.3 0 0.3 0 0 0.1-0.3 1.8-0.8 4.2-0.1 0.6-0.2 1.1-0.2 1.2v0.1h1.1 1.2l0.1-0.4c0.1-0.6 0.5-2.5 0.5-2.5 0-0.1 0-0.1 0.4 0.5 0.8 1.5 1.1 1.9 1.2 2.2l0.2 0.2h1.4c0.8 0 1.5 0 1.5 0 0 0-0.1-0.1-0.2-0.3-0.1-0.1-0.3-0.4-0.4-0.6-0.2-0.2-0.4-0.6-0.5-0.8-1.2-1.8-1.1-1.5-0.9-1.6 1-0.3 1.8-1.1 2-2 0.4-1.5-0.1-2.4-1.5-2.7-0.3 0-4.5-0.1-4.6 0zm10.3 0h-1.2c0 0.1-0.1 0.3-0.2 0.5q-0.6 1.5-0.7 1.7c-0.2 0.3-0.2 0.3 0.2 0.3h0.3l-0.1 0.2c0 0.1-0.1 0.5-0.1 0.8-0.1 0.4-0.2 1-0.3 1.3 0 0.4-0.1 0.9-0.2 1.3 0 0.3-0.1 0.9-0.2 1.2-0.1 0.4-0.1 0.7-0.1 0.7 0 0 0 0 1.2 0h1.2 0.1c0-0.3 0.2-1.3 0.2-1.6 0.1-0.1 0.2-0.7 0.2-1.1 0.1-0.5 0.2-1.1 0.3-1.3 0-0.3 0.1-0.9 0.2-1.4 0.1-0.4 0.2-0.9 0.2-1.1 0-0.2 0.1-0.6 0.2-0.9 0-0.3 0.1-0.6 0.1-0.6 0 0-0.1 0-1.3 0zm7.5 0h-2.6l-0.2 0.2c-0.1 0.1-0.4 0.4-0.5 0.7-0.2 0.2-0.4 0.5-0.5 0.6-0.1 0.1-0.2 0.2-0.2 0.2-0.1 0.2-0.1 0.2 0.2 0.2 0.2 0 0.4 0 0.4 0 0 0-0.1 0.2-0.1 0.3-0.1 0.2-0.2 0.5-0.3 0.7-0.1 0.3-0.3 0.8-0.6 1.4-0.1 0.2-0.3 0.7-0.4 1.2-0.2 0.4-0.4 0.9-0.5 1.1 0 0.2-0.1 0.4-0.2 0.5 0 0.1-0.1 0.4-0.2 0.6-0.1 0.2-0.1 0.3-0.1 0.3 0 0 0.5 0 1.2 0h1.3v-0.2c0.1-0.1 0.2-0.4 0.3-0.6 0.3-0.7 0.4-1.2 0.6-1.6 0.2-0.6 0.4-1.1 0.6-1.7 0.1-0.2 0.2-0.4 0.2-0.4 0-0.1 0.1 0.4 0.4 1.2 0.1 0.4 0.4 1.7 0.7 2.6l0.2 0.7v0.1c0.1 0 0.3 0 0.6 0h0.5l0.3-0.5c0.3-0.5 0.8-1.3 1.9-2.9 0.4-0.5 0.7-1.1 0.8-1.2l0.1-0.1v2.3 2.3h2.5v-8h-2.6l-0.2 0.2c-0.1 0.2-0.3 0.5-0.5 0.8-0.5 0.7-1.1 1.6-1.3 1.9-0.2 0.3-0.6 0.9-0.7 1.1l-0.1 0.1-0.1-0.2c-0.1-0.4-0.5-2.1-0.7-3.1-0.1-0.4-0.1-0.8-0.2-0.8zm13.9 0h-1.5l-0.4 0.4c-0.3 0.3-0.7 0.7-1 1l-0.6 0.5 0.8 0.1-0.2 0.2c0 0.1-0.2 0.3-0.3 0.5-0.1 0.2-0.4 0.7-0.6 1-0.3 0.4-0.6 0.8-0.7 1-0.1 0.2-0.3 0.6-0.5 0.8-0.1 0.2-0.3 0.5-0.4 0.6-0.1 0.2-0.3 0.5-0.4 0.7-0.2 0.2-0.3 0.4-0.3 0.5-0.1 0.1-0.5 0.7-0.5 0.7v0.1h3l0.2-0.3c0.1-0.2 0.3-0.5 0.4-0.7l0.1-0.3h3v0.7l0.1 0.6h2.8v-0.1c0 0-0.1-0.3-0.1-0.5-0.1-0.3-0.2-0.9-0.2-1.3-0.1-0.4-0.2-0.9-0.2-1.1-0.1-0.2-0.2-0.8-0.3-1.3-0.1-0.4-0.2-1-0.2-1.2 0-0.2-0.1-0.8-0.2-1.3-0.1-0.4-0.2-0.9-0.2-1 0-0.1 0-0.2-0.1-0.2 0-0.1-0.1-0.1-1.5-0.1zm-37 1.7c0.7 0.4 0.4 1.5-0.5 1.8-0.2 0-1.3 0-1.3 0 0-0.1 0.1-0.5 0.2-0.9 0.1-0.5 0.1-0.9 0.1-0.9 0.1-0.1 1.3-0.1 1.5 0zm8.7 0.1c0.4 0.1 0.5 0.5 0.3 1-0.2 0.4-0.5 0.5-1.4 0.5h-0.6l0.1-0.1c0 0 0-0.2 0.1-0.5 0-0.2 0.1-0.5 0.1-0.7 0-0.1 0-0.2 0-0.2 0 0 1.3 0 1.4 0zm27.9 0.4c0 0 0.1 0.6 0.2 1.4 0 0.7 0.1 1.3 0.1 1.4v0.1h-1.8l0.1-0.2c0-0.1 0.1-0.3 0.2-0.4 0.1-0.2 0.2-0.5 0.4-0.7 0.1-0.3 0.3-0.7 0.4-0.9 0.1-0.2 0.2-0.4 0.2-0.4 0 0 0.1-0.1 0.1-0.2q0.1-0.1 0.1-0.1z"/><path fill-rule="evenodd" class="d" d="m29.7 6.3q0.1 0.1 0.1 0.1 0 0-0.1 0-0.1-0.1-0.1-0.1 0 0 0.1 0zm0.7 0.4c0.1 0.1 0.2 0.1 0.2 0.1 0 0-0.1 0-0.2-0.1-0.1 0-0.3-0.1-0.3-0.1 0 0 0.2 0 0.3 0.1zm0.8 0.4c0.2 0.1 0.3 0.2 0.3 0.2 0 0-0.1-0.1-0.3-0.1-0.1-0.1-0.2-0.2-0.2-0.2 0 0 0.1 0.1 0.2 0.1zm0.8 0.5c0.2 0 0.3 0.1 0.3 0.1 0 0-0.1 0-0.3-0.1-0.1-0.1-0.2-0.1-0.2-0.1 0-0.1 0.1 0 0.2 0.1zm-4.2 0.2q0.2 0 0.1 0c0 0-0.1 0-0.2 0q-0.1 0 0.1 0zm-0.7 0q0.1 0 0.1 0-0.1 0-0.2 0 0 0 0.1 0zm-0.6 0q0.2 0 0.2 0.1c-0.1 0-0.2 0-0.3 0q0-0.1 0.1-0.1zm-0.4 0.1q0.2 0 0.1 0c0 0-0.1 0-0.2 0q0 0 0.1 0zm6.8 0.1c0.1 0.1 0.2 0.1 0.2 0.1 0 0-0.1 0-0.2-0.1-0.2-0.1-0.3-0.1-0.3-0.1 0 0 0.1 0 0.3 0.1zm-7.2-0.1q0.2 0 0.1 0c0 0-0.1 0-0.2 0q0 0 0.1 0zm-0.3 0q0.1 0-0.2 0.1c-0.2 0-0.4 0-0.5 0 0 0 0 0 0.2-0.1 0.2 0 0.4 0 0.5 0zm-0.9 0.1q0.1 0 0 0 0 0-0.1 0 0 0 0.1 0zm-0.3 0q0.1 0 0.1 0-0.1 0-0.2 0 0 0 0.1 0zm-0.3 0q0.1 0 0.1 0.1-0.1 0-0.1 0-0.1-0.1 0-0.1zm-0.2 0.1q0.1 0 0 0 0 0-0.1 0 0 0 0.1 0zm-0.2 0q0 0 0 0 0 0-0.1 0 0 0 0.1 0zm-1.5 0.2q0.1 0 0 0 0 0-0.1 0 0 0 0.1 0zm-0.2 0c0.1 0-0.1 0-0.4 0.1-0.3 0-0.5 0.1-0.5 0-0.1 0 0.1 0 0.4 0 0.2-0.1 0.5-0.1 0.5-0.1zm11.9 0.1c0.2 0.1 0.3 0.2 0.3 0.2 0 0-0.1-0.1-0.3-0.1-0.1-0.1-0.2-0.2-0.2-0.2 0 0 0.1 0.1 0.2 0.1zm0.8 0.5c0.2 0 0.3 0.1 0.3 0.1 0 0-0.1 0-0.3-0.1-0.1-0.1-0.2-0.2-0.2-0.2 0 0 0.1 0.1 0.2 0.2zm-15.4-0.2c0 0-0.1 0.1-0.3 0.1-0.2 0.1-0.4 0.1-0.4 0.1-0.1 0 0.1 0 0.3-0.1 0.1 0 0.3-0.1 0.4-0.1zm-1.9 0.4c0 0.1-0.7 0.2-0.7 0.2 0 0 0.1-0.1 0.3-0.1q0.4-0.1 0.4-0.1zm17.9 0.1c0 0-0.5 0.2-0.5 0.2 0 0 0.1 0 0.2-0.1 0.1-0.1 0.2-0.1 0.3-0.1q0-0.1 0 0zm-18.8 0.1q0.1 0 0 0 0 0.1-0.1 0.1-0.1 0 0-0.1 0.1 0 0.1 0zm18 0.3c0 0-0.1 0-0.2 0.1-0.2 0.1-0.3 0.1-0.3 0.1 0 0 0.1 0 0.3-0.1 0.2-0.2 0.2-0.2 0.2-0.1zm-19 0c0 0-0.5 0.1-0.5 0.1 0 0 0.1 0 0.2-0.1q0.4 0 0.3 0zm18.2 0.4c0 0-0.1 0.1-0.3 0.1-0.1 0.1-0.2 0.1-0.2 0.1 0 0 0.1 0 0.2-0.1 0.3-0.1 0.3-0.1 0.3-0.1zm-19.8 0c0 0-0.1 0.1-0.2 0.1-0.1 0-0.2 0.1-0.2 0.1-0.1 0 0-0.1 0.1-0.1 0.2 0 0.3-0.1 0.3-0.1zm19 0.4c0 0-0.1 0.1-0.3 0.2-0.1 0-0.2 0.1-0.2 0.1 0 0 0.1-0.1 0.2-0.2 0.3-0.1 0.3-0.1 0.3-0.1zm-20.4 0.1c0 0-0.1 0-0.2 0-0.1 0.1-0.2 0.1-0.2 0.1 0 0 0.1 0 0.2-0.1 0.1 0 0.2 0 0.2 0zm16.8 0c0.3 0 0.4 0.1 0.3 0.1-0.2 0-0.4 0-0.5 0-0.1 0 0-0.1 0.2-0.1zm-0.9 0.1q0.3 0 0.2 0c-0.1 0-0.2 0-0.3 0q-0.2 0 0.1 0zm-0.6 0c0.3 0-0.5 0-1.2 0.1-0.4 0-0.2 0 0.4-0.1 0.3 0 0.7 0 0.8 0zm-1.7 0.1q0.2 0 0.1 0-0.1 0-0.1 0-0.1 0 0 0zm-0.3 0q0.1 0 0 0 0 0-0.1 0 0 0 0.1 0zm-0.3 0.1q0 0 0 0 0 0-0.1 0 0 0 0.1 0zm6.5 0.1c0 0-0.1 0-0.2 0.1-0.1 0.1-0.2 0.1-0.2 0.1 0 0 0.1-0.1 0.2-0.1 0.2-0.2 0.2-0.2 0.2-0.1zm-20.7 0c0 0-0.5 0.2-0.5 0.2 0 0 0.1-0.1 0.3-0.1q0.3-0.2 0.2-0.1zm12.9 0q0.1 0 0 0 0 0-0.1 0 0 0 0.1 0zm-0.3 0q0.1 0 0.1 0-0.1 0-0.1 0 0 0 0 0zm-0.2 0q0.1 0 0.1 0-0.1 0.1-0.1 0-0.1 0 0 0zm-0.2 0.1q0.1 0 0 0 0 0-0.1 0 0 0 0.1 0zm-0.2 0q0 0 0 0 0 0-0.1 0 0 0 0.1 0zm-0.2 0c0 0-0.1 0-0.3 0.1-0.2 0-0.4 0-0.4 0 0 0 0.1 0 0.3 0 0.1-0.1 0.3-0.1 0.4-0.1zm-0.9 0.1q0.1 0 0.1 0 0 0-0.1 0 0 0 0 0zm-0.1 0q0 0 0 0.1 0 0-0.1 0 0-0.1 0.1-0.1zm-11.8 0.2c0 0-0.5 0.2-0.5 0.2 0 0 0.1-0.1 0.2-0.1q0.3-0.1 0.3-0.1zm20.6 0.1c-0.3 0.2-0.3 0.2-0.1 0.2h0.2-0.1l-0.2-0.1 0.2-0.1c0.2 0 0.3-0.1 0.3-0.1 0 0 0 0-0.3 0.1zm-10.5 0c0 0-0.7 0.1-0.7 0.1 0 0 0.1 0 0.3 0q0.5-0.1 0.4-0.1zm14.1 0.1c0.9 0 1.2 0 0.8 0-0.5 0-1.2 0-1.6 0-0.5 0-0.1 0 0.8 0zm-2.3 0q0.3 0 0.2 0c-0.1 0-0.2 0-0.3 0q-0.1 0 0.1 0zm4.6 0q0.2 0 0.1 0c-0.1 0-0.2 0-0.3 0q-0.1 0 0.2 0zm-5.3 0q0.1 0 0.1 0c-0.1 0.1-0.2 0.1-0.3 0q0 0 0.2 0zm6.1 0q0.1 0 0.1 0c-0.1 0.1-0.2 0.1-0.3 0q0 0 0.2 0zm0.6 0.1q0.1 0 0.1 0c-0.1 0-0.2 0-0.2 0q-0.1 0 0.1 0zm0.5 0q0.1 0 0.1 0-0.1 0-0.2 0 0 0 0.1 0zm0.5 0q0.1 0 0.1 0-0.1 0-0.2 0 0 0 0.1 0zm0.4 0q0.1 0 0.1 0.1-0.1 0-0.2 0 0-0.1 0.1-0.1zm0.4 0.1q0.1 0 0.1 0-0.1 0-0.1 0-0.1 0 0 0zm0.4 0q0 0 0 0 0 0-0.1 0 0 0 0.1 0zm0.3 0q0.1 0 0.1 0-0.1 0-0.1 0-0.1 0 0 0zm-31.4 0c0 0-0.2 0.1-0.4 0.2-0.2 0.1-0.3 0.2-0.3 0.2 0 0 0.1-0.1 0.3-0.2 0.2-0.1 0.3-0.2 0.4-0.2zm31.8 0q0.1 0 0.1 0.1-0.1 0-0.2 0 0-0.1 0.1-0.1zm0.3 0.1q0.2 0 0.1 0-0.1 0-0.2 0 0 0 0.1 0zm0.3 0c0.1 0 0.3 0 0.4 0 0.2 0 0.3 0.1 0.2 0.1 0 0-0.2-0.1-0.4-0.1-0.2 0-0.3 0-0.2 0zm-23.8 0.1c0 0-0.6 0.1-0.6 0.1 0 0 0.1 0 0.3-0.1q0.4-0.1 0.3 0zm12 0c0.1 0 0.3 0 0.4 0 0.2 0 0.3 0.1 0.3 0.1-0.1 0-0.8-0.1-0.8-0.1q0 0 0.1 0zm12.7 0q0.1 0 0 0 0 0-0.1 0-0.1 0 0.1 0zm0.2 0q0.1 0 0.1 0-0.1 0-0.2 0 0 0 0.1 0zm0.3 0q0 0 0 0 0 0-0.1 0 0 0 0.1 0zm0.2 0.1q0.1 0 0 0 0 0-0.1 0 0 0 0.1 0zm-12.6 0q0.2 0 0.1 0-0.1 0-0.1 0-0.1 0 0 0zm12.8 0q0.1 0 0.1 0-0.1 0-0.1 0-0.1 0 0 0zm-12.5 0q0.1 0 0.1 0-0.1 0-0.1 0-0.1 0 0 0zm0.3 0q0.1 0 0.1 0-0.1 0.1-0.1 0 0 0 0 0zm-22.8 0.1c0 0-0.1 0.1-0.2 0.1-0.2 0.1-0.3 0.2-0.3 0.2 0 0 0.1-0.1 0.3-0.2 0.3-0.1 0.2-0.1 0.2-0.1zm23.9 0q0.1 0 0 0 0 0.1-0.1 0 0 0 0.1 0zm0.2 0.1q0.1 0 0.1 0-0.1 0-0.1 0 0 0 0 0zm12.4 0q0 0 0 0 0 0-0.1 0 0 0 0.1 0zm-12.1 0q0.1 0 0.1 0-0.1 0-0.1 0-0.1 0 0 0zm12.2 0c0.1 0 0.2 0 0.3 0q0.2 0 0.2 0.1c-0.1 0-0.2-0.1-0.3-0.1q-0.2 0-0.2 0zm-11.9 0q0 0 0 0 0 0-0.1 0 0 0 0.1 0zm0.2 0q0.1 0 0.1 0-0.1 0.1-0.1 0-0.1 0 0 0zm0.3 0.1q0.1 0 0 0 0 0-0.1 0 0 0 0.1 0zm12 0q0.1 0 0.2 0 0.1 0 0 0-0.1 0-0.2 0-0.1 0 0 0zm-29.6 0c0 0-0.1 0-0.2 0-0.1 0.1-0.2 0.1-0.2 0.1-0.1 0 0 0 0.1-0.1 0.2 0 0.3 0 0.3 0zm17.8 0q0.1 0 0.1 0-0.1 0-0.1 0-0.1 0 0 0zm0.3 0c0 0 0.2 0 0.3 0q0.3 0.1 0.2 0.1c-0.1 0-0.2 0-0.4-0.1q-0.2 0-0.1 0zm11.9 0q0 0 0 0 0 0-0.1 0 0 0 0.1 0zm-11.2 0.1c0.1 0 0.2 0 0.3 0q0.1 0 0 0c-0.1 0-0.2 0-0.3 0q-0.1 0 0 0zm0.5 0q0.1 0 0.1 0.1-0.1 0-0.1 0-0.1-0.1 0-0.1zm-27.8 0.2c0 0-0.4 0.2-0.4 0.2 0 0 0.1-0.1 0.2-0.1q0.3-0.2 0.2-0.1zm29.4 0q0.1 0 0.1 0-0.1 0-0.1 0 0 0 0 0zm10.8 0c0.1 0 0.7 0.1 0.6 0.1 0 0-0.1 0-0.3 0-0.2 0-0.3-0.1-0.3-0.1zm-10.3 0.1q0.1 0 0 0 0 0-0.1 0 0 0 0.1 0zm0.2 0q0.1 0 0.1 0-0.1 0-0.1 0-0.1 0 0 0zm-23.2 0q0 0-0.2 0.1c-0.1 0-0.2 0.1-0.2 0.1q0-0.1 0.1-0.1c0.1 0 0.2-0.1 0.3-0.1zm23.4 0c0 0 0.2 0.1 0.4 0.1 0.2 0 0.3 0 0.3 0-0.1 0-0.3 0-0.5 0-0.1 0-0.3-0.1-0.2-0.1zm0.9 0.1q0 0 0 0 0 0.1-0.1 0 0 0 0.1 0zm0.2 0.1q0.1 0 0 0 0 0-0.1 0 0 0 0.1 0zm-32.2 0.2c0 0-0.5 0.3-0.5 0.3 0 0 0.1-0.1 0.3-0.2q0.3-0.2 0.2-0.1zm43-0.1c0.1 0 0.7 0.2 0.7 0.2 0 0-0.2 0-0.4-0.1-0.2 0-0.3-0.1-0.3-0.1zm-36.4 0.1c0 0-0.7 0.2-0.8 0.2 0 0 0.2 0 0.4-0.1 0.3-0.1 0.4-0.2 0.4-0.1zm27.7 0q0 0 0 0.1 0 0-0.1 0 0-0.1 0.1-0.1zm0.5 0.1c0.2 0.1 0.4 0.1 0.4 0.1 0 0-0.8-0.1-0.8-0.1 0 0 0 0 0.4 0zm0.5 0.1q0.1 0 0.1 0-0.1 0-0.1 0-0.1 0 0 0zm-35.9 0.1q0.1 0-0.1 0.1-0.2 0.1-0.2 0.1 0 0 0.2-0.1 0.1-0.1 0.1-0.1zm45.6 0.1c0.1 0.1 0.2 0.1 0.2 0.1 0 0-0.4-0.1-0.5-0.1 0 0 0.1 0 0.3 0zm-39.7 0c0 0 0 0-0.1 0.1q-0.1 0 0-0.1 0.1 0 0.1 0zm-0.2 0.1c0 0-0.1 0-0.1 0q-0.1 0.1 0 0 0.1 0 0.1 0zm32.3 0c0.2 0.1 0.4 0.1 0.3 0.1 0 0-0.6-0.1-0.7-0.1 0 0 0.1 0 0.4 0zm-32.5 0.1c0 0-0.1 0-0.1 0q-0.1 0 0 0 0.1 0 0.1 0zm-6.1 0.2c0 0 0 0-0.1 0.1q-0.2 0.1-0.2 0.1c0.1-0.1 0.1-0.1 0.2-0.2 0.1-0.1 0.1-0.1 0.1 0zm47.3 0c0 0 0.6 0.2 0.6 0.2 0 0-0.2 0-0.3-0.1-0.2-0.1-0.3-0.1-0.3-0.1zm-42 0.1c-0.1 0-0.5 0.2-0.5 0.2 0 0 0.1-0.1 0.2-0.1q0.3-0.1 0.3-0.1zm35.2 0c0.1 0 0.7 0.1 0.7 0.1 0 0.1-0.2 0-0.4 0-0.2-0.1-0.3-0.1-0.3-0.1zm-40.9 0.2q0 0-0.1 0.1c-0.1 0-0.2 0.2-0.3 0.3-0.1 0.1-0.2 0.1-0.2 0.1 0 0 0.2-0.2 0.3-0.3 0.1-0.1 0.3-0.2 0.3-0.2zm5 0.1q0 0-0.1 0 0 0.1-0.1 0.1 0 0 0.1-0.1 0.1 0 0.1 0zm43.9 0c0 0 0.1 0.1 0.2 0.1q0.1 0 0 0 0 0-0.1 0-0.1-0.1-0.1-0.1zm-44.2 0.2c0 0-0.5 0.2-0.5 0.2 0 0 0.1-0.1 0.2-0.2 0.2 0 0.3-0.1 0.3 0zm38.3-0.1c0 0 0.6 0.2 0.6 0.2-0.1 0-0.2 0-0.4-0.1-0.1 0-0.3-0.1-0.2-0.1zm6.9 0.3q0 0 0.1 0.1 0 0 0 0 0 0-0.1 0 0-0.1 0-0.1zm-50.6 0.1c0 0-0.5 0.5-0.7 0.7-0.2 0.2 0.1-0.1 0.4-0.4 0.2-0.2 0.3-0.3 0.3-0.3zm4.7 0c0 0-0.5 0.3-0.5 0.3 0-0.1 0.2-0.1 0.3-0.2 0.2-0.1 0.2-0.1 0.2-0.1zm46.1 0q0 0 0.1 0.1 0.1 0 0 0 0 0-0.1 0-0.1-0.1 0-0.1zm-5.3 0.1c0 0 0.1 0 0.2 0.1q0.1 0 0.1 0c-0.1 0-0.2 0-0.3-0.1q-0.1 0 0 0zm5.9 0.2c0 0 0.5 0.3 0.5 0.3 0 0-0.5-0.2-0.5-0.3q0 0 0 0zm-4.8 0.1q0 0 0.1 0 0 0.1 0 0.1 0 0-0.1-0.1 0 0 0 0zm-42.7 0.1c0 0-0.3 0.1-0.4 0.2-0.1 0.1 0 0 0.2-0.1 0.2-0.2 0.2-0.2 0.2-0.1zm42.9 0c0.1 0 0.2 0 0.3 0.1 0.2 0 0.3 0.1 0.3 0.1-0.1 0-0.2-0.1-0.3-0.1-0.2-0.1-0.3-0.1-0.3-0.1zm5.2 0.1q0.1 0.1 0.1 0.1 0 0-0.1-0.1-0.1 0-0.1 0 0 0 0.1 0zm-52.8 0.2c0 0 0 0.1-0.1 0.2-0.3 0.4-0.3 0.4-0.2 0.3 0-0.1 0.1-0.2 0.2-0.3 0.1-0.1 0.1-0.2 0.1-0.2zm4.1 0c-0.1 0.1-0.5 0.4-0.4 0.3 0 0 0.1-0.1 0.2-0.1q0.3-0.3 0.2-0.2zm49.3 0.2l0.1 0.1-0.1-0.1c0 0-0.1-0.1-0.2-0.1q-0.1-0.1-0.1-0.1c0 0 0.3 0.1 0.3 0.2zm-4.3 0c0.1 0 0.1 0.1 0.1 0.1 0 0-0.4-0.2-0.4-0.2 0 0 0 0 0.3 0.1zm4.4 0l0.1 0.1q0 0 0.1 0v0.1q-0.1-0.1-0.1-0.1zm0.4 0.3c0.1 0 0.2 0.1 0.2 0.1 0 0-0.1 0-0.2-0.1-0.1-0.1-0.1-0.1-0.1-0.1 0 0 0 0 0.1 0.1zm-50.5-0.1q0.1 0-0.2 0.2c-0.1 0.1-0.1 0.1-0.1 0.1 0 0 0.1-0.1 0.2-0.1 0-0.1 0.1-0.2 0.1-0.2zm46.8 0.2c0.1 0.1 0.2 0.1 0.2 0.1 0 0-0.5-0.2-0.5-0.2 0 0 0 0 0.3 0.1zm-47.2 0.1q0.1 0-0.1 0.1l-0.1 0.1 0.1-0.1q0.1-0.1 0.1-0.1zm47.6 0.1c0.1 0 0.7 0.4 0.7 0.4 0 0-0.6-0.4-0.7-0.4q0 0 0 0zm3.9 0.1q0.1 0.1 0.1 0.1 0 0-0.1-0.1-0.1-0.1-0.1-0.1 0 0 0.1 0.1zm-55.2 0c0 0-0.1 0.2-0.1 0.2-0.1 0 0-0.1 0-0.1q0.1-0.1 0.1-0.1zm7.2 0h2.3c1.3 0 2.3 0 2.4 0l0.1 0.1h-0.1c-0.1-0.1-1.2-0.1-2.4-0.1h-2.3v0.1q-0.1 0.1-0.1 0.1 0 0 0.1-0.1zm13.4 0c0.1 0-0.8 0-2 0h-2.3l-0.1 0.3c0 0.1-0.1 0.3-0.1 0.3 0-0.1 0.2-0.5 0.2-0.6 0.1 0 4 0 4.3 0zm6 0h1.3v0.1q0 0.1-0.1 0v-0.1h-1.2c-0.9 0-1.2 0-1.2 0.1q0 0 0 0c0-0.1 0.1-0.1 1.2-0.1zm4.9 0h1.3c0.7 0 1.3 0 1.3 0 0 0-0.6 0-1.3 0h-1.3l-0.1 0.2q-0.1 0.1-0.1 0.1c-0.1 0-0.1 0 0.1-0.2zm7.7 0h1.3v4.1 4-4-4h-1.3-1.3l-0.1 0.1c0 0.1-0.1 0.2-0.1 0.2 0 0 0.1-0.3 0.2-0.3 0-0.1 0.1-0.1 1.3-0.1zm7.3 0h1.5c1.6 0 1.6 0 1.6 0.1q-0.1 0.1-0.1 0h-1.5-1.5l-0.6 0.6c-0.4 0.3-0.7 0.7-0.8 0.7-0.2 0.2 0.1-0.1 1-0.9zm-43.1 0c0 0-0.1 0.1-0.3 0.3-0.1 0.2-0.3 0.3-0.3 0.3 0 0 0.1-0.1 0.3-0.3 0.2-0.2 0.3-0.3 0.3-0.3zm17.4 0q0.1 0 0.1 0-0.1 0-0.1 0-0.1 0 0 0zm4.5 0.1q0 0 0 0.1-0.1 0.1-0.1 0.1 0 0 0.1-0.1 0-0.1 0-0.1zm30.2 0.2c0.3 0.2 0.8 0.8 0.9 1q0.1 0.1 0-0.1c-0.1 0-0.3-0.3-0.6-0.6-0.2-0.2-0.4-0.3-0.3-0.3zm-42.5 0.2h0.1-0.1c0 0-0.1-0.1-0.2-0.2q-0.1 0-0.1 0c0-0.1 0.3 0.1 0.3 0.2zm8.8-0.1c0 0 0.1 0.1 0.2 0.1l0.1 0.1-0.1-0.1c-0.1-0.1-0.2-0.1-0.2-0.1q0-0.1 0 0zm3.4 0q0 0 0 0.1-0.1 0.1 0-0.1 0 0 0 0zm27.4 0.2c-0.1 0-0.2-0.1-0.2-0.1q-0.1-0.1-0.2-0.1c0 0 0.3 0.1 0.4 0.2zm-53-0.1c0 0 0 0.1-0.1 0.2 0 0.1-0.1 0.1-0.1 0.1 0 0 0 0 0.1-0.1 0-0.1 0.1-0.2 0.1-0.2zm13.7 0.2c0.1 0.1 0.1 0.2 0.2 0.2q0.1 0.2-0.1 0c0 0-0.1-0.2-0.2-0.2q-0.1-0.2 0.1 0zm-10.5 0q0 0-0.1 0.1h-0.1l0.1-0.1q0.1 0 0.1 0zm34.6 0c0 0 0 0-0.1 0.2-0.1 0.1-0.2 0.2-0.2 0.2 0 0 0.1-0.1 0.2-0.2 0-0.2 0.1-0.2 0.1-0.2zm-15.2 0c0 0 0.2 0.3 0.2 0.4q0 0-0.1-0.1c0-0.1-0.1-0.2-0.1-0.2q-0.1-0.1 0-0.1zm30.8 0.2c0.1 0.1 0.2 0.1 0.2 0.2 0.1 0-0.4-0.3-0.4-0.4 0 0 0.1 0.1 0.2 0.2zm-22.2-0.2q0 0 0 0.1-0.1 0.1-0.1 0.1 0 0 0-0.1 0.1-0.1 0.1-0.1zm-28.2 0.1c0 0 0 0.1-0.1 0.2 0 0.1-0.1 0.2-0.1 0.2 0 0 0-0.1 0.1-0.2q0.1-0.1 0.1-0.2zm4.2 0.1q0 0-0.1 0.1 0 0.1 0 0.1-0.1 0 0-0.1 0.1-0.1 0.1-0.1zm9.1 0c0 0-0.1 0.1-0.1 0.2-0.1 0.2-0.2 0.3-0.2 0.3 0 0 0.1-0.1 0.2-0.3 0-0.1 0.1-0.3 0.1-0.2zm-16.5 0q0 0-0.1 0.1-0.1 0.3 0 0 0.1-0.1 0.1-0.1zm35 0.4c0 0.2 0.1 0.3 0.1 0.3 0 0-0.2-0.6-0.2-0.6q0-0.1 0.1 0.3zm-32-0.1q0 0-0.1 0.1 0 0 0 0 0 0 0 0 0.1-0.1 0.1-0.1zm28.1 0c0 0 0 0.1-0.1 0.1-0.1 0.1-0.1 0.2-0.1 0.2-0.1 0 0 0 0.1-0.2q0.1-0.1 0.1-0.1zm-5.7 0q0.1 0.1 0 0.2 0 0.1-0.1 0.1 0 0 0.1-0.1 0-0.2 0-0.2zm12.2 0c0 0-0.3 0.5-0.4 0.6 0 0 0.3-0.4 0.4-0.5q0-0.1 0-0.1zm-23.2 0.5q0 0.2-0.1 0c0-0.1 0-0.2 0-0.3q-0.1-0.1-0.1-0.1c0-0.1 0.1 0.2 0.2 0.4zm40.1-0.1c0 0-0.1 0-0.2-0.1-0.1-0.1-0.2-0.2-0.2-0.2 0-0.1 0.3 0.2 0.4 0.3zm-9.1-0.1c0.1 0 0 0-0.1 0.2l-0.2 0.2 0.2-0.2c0.1-0.1 0.1-0.2 0.1-0.2zm11.8 0c0 0 0.1 0.1 0.1 0.2 0.1 0.1 0.1 0.1 0.1 0.1 0 0 0 0-0.1-0.1 0-0.1-0.1-0.2-0.1-0.2zm-54.5 0.1q0 0 0 0-0.1 0.1-0.1 0.1 0 0 0.1-0.1 0 0 0 0zm7.9 0q0.9 0-0.1 0c-0.3 0-0.4 0-0.4 0 0 0 0.2 0 0.5 0zm17.5 0c0 0 0 0.2 0 0.4 0 0.1-0.1 0.3-0.1 0.3 0 0 0-0.2 0.1-0.4 0-0.1 0-0.3 0-0.3zm-5 0.1c0 0.1 0 0.2 0 0.3q0 0 0-0.2 0-0.2 0-0.1zm-13 0q0 0-0.1 0.1 0 0.1 0 0.1 0 0 0-0.1 0-0.1 0.1-0.1zm1.4 0c0.1-0.1 0.2 0 0.3 0.1v0.1l-0.1-0.1c0 0-0.1-0.1-0.1-0.1q-0.1 0-0.1 0zm19.2 0.1c-0.2 0.1-0.2 0.1 0.2 0.1 0.2 0 0.4 0 0.4 0 0 0-0.2 0-0.4 0-0.2 0-0.3 0-0.3 0q0-0.1 0.1-0.1 0-0.1 0-0.2 0 0.1 0 0.2zm-14.6-0.1c0 0 0 0.1-0.1 0.2 0 0.1-0.1 0.1-0.1 0.1 0 0 0.1-0.1 0.1-0.2 0.1 0 0.1-0.1 0.1-0.1zm38.4 0c0.1 0 0.1 0.1 0.2 0.1 0.1 0.1 0.2 0.2 0.2 0.2 0 0-0.1-0.1-0.2-0.2-0.1 0-0.2-0.1-0.2-0.1zm-34.2 0q0.4 0.2 0.4 0.7c0 0.1-0.1 0.4-0.2 0.4q0 0 0.1-0.1c0.2-0.4 0-0.8-0.3-0.9-0.2-0.1-1.4-0.1-1.4 0q0 0 0 0-0.1 0 0-0.1c0 0 1.2 0 1.4 0zm-17.7 0.1q0 0 0 0.1-0.1 0.1-0.1 0.1 0 0 0-0.1 0.1-0.1 0.1-0.1zm4.4 0c0 0-0.1 0.1-0.1 0.2-0.1 0.1-0.1 0.2-0.1 0.2 0 0 0-0.1 0.1-0.2 0-0.1 0.1-0.2 0.1-0.2zm7.4 0.1q0 0 0 0.1 0 0 0-0.1 0-0.1 0 0zm36 0q0.1 0.1 0.1 0.2 0 0.1-0.1 0 0-0.1 0-0.2 0-0.1 0 0zm-50.8 0.1q0 0.1 0 0.1 0-0.1 0-0.1 0.1-0.2 0 0zm45.5-0.1h0.3c0.4 0 0.5 0 0.4 0.1q0 0 0-0.1 0 0-0.4 0zm-35 0.1c0 0 0 0 0 0.2q-0.1 0.1-0.1 0.1c0 0 0-0.1 0-0.2q0.1-0.1 0.1-0.1zm27.1 0c0 0-0.1 0.1-0.1 0.2-0.1 0-0.1 0.1-0.1 0.1 0 0 0-0.1 0.1-0.1 0-0.1 0.1-0.2 0.1-0.2zm-21.2 0.1q0 0 0 0.1-0.1 0.2-0.1 0 0.1-0.1 0.1-0.1zm29.8 0c0 0-0.1 0.1-0.1 0.2h-0.1 0.1q0-0.1 0.1-0.2 0 0 0 0zm-46.1 0c0 0 0 0.2-0.1 0.3 0 0.1 0 0.2 0 0.2 0 0 0-0.2 0-0.3 0-0.1 0.1-0.2 0.1-0.2zm48.5 0c0.1 0 0.1 0.7 0.1 0.7q0 0.1 0 0c0-0.2-0.1-0.7-0.1-0.7q0 0.1 0 0 0 0 0 0zm2.4 0.1q0 0.1 0 0.2 0 0 0-0.1 0 0 0-0.1-0.1-0.1 0 0zm-38.6 0.1q0 0.1 0 0.1 0 0.1 0 0 0-0.2 0-0.1zm43.2 0c0 0 0.1 0.1 0.1 0.2 0 0.1 0 0-0.1-0.2q-0.1-0.1 0 0zm2.6 0c0 0 0.1 0.3 0.1 0.3 0 0 0-0.1-0.1-0.2 0-0.1 0-0.1 0-0.1zm-55.4 0c0 0 0 0.1-0.1 0.3 0 0.2-0.1 0.3-0.1 0.3 0-0.1 0.1-0.3 0.2-0.5q0-0.1 0-0.1zm22.7 0q0 0 0 0.1c-0.1 0.1-0.1 0.1 0.2 0.1h0.3-0.3c-0.3 0-0.3 0-0.2-0.2q0 0 0 0zm6.1 0.1c0 0-0.1 0.1-0.1 0.2-0.1 0.1-0.1 0.3-0.1 0.2 0 0 0-0.1 0.1-0.2 0-0.1 0.1-0.2 0.1-0.2zm16.9 0c0 0-0.3 0.5-0.3 0.5 0 0 0.1-0.1 0.1-0.3 0.1-0.1 0.2-0.2 0.2-0.2zm-41.3 0.1q0 0 0.3 0h0.3l-0.1 0.1q0 0.1 0 0v-0.1h-0.3c-0.2 0-0.2 0-0.2 0q0-0.1 0 0zm9.3 0c0.4 0 0.4 0 0.4 0.1q0 0 0 0c0-0.1-0.1-0.1-0.4-0.1-0.1 0-0.3 0-0.3 0 0 0 0.2 0 0.3 0zm-1.6 0q0 0.1 0 0.2 0 0 0-0.1 0-0.1 0-0.1zm22.3 0c0.1 0-0.2 0.3-0.2 0.4q-0.1 0 0.1-0.2c0.1-0.1 0.1-0.2 0.1-0.2zm-20.3 0.1c0 0 0 0.2-0.1 0.3 0 0.1 0 0.2 0 0.2 0 0 0-0.1 0-0.2 0-0.2 0.1-0.3 0.1-0.3zm2.3 0.1c0 0-0.1 0.5-0.1 0.5q-0.1 0.1-0.1 0c0.1 0 0.1-0.2 0.1-0.3 0-0.1 0.1-0.2 0.1-0.2zm4.3 0c0 0-0.1 0.3-0.1 0.4q-0.1 0-0.1 0c0-0.1 0.1-0.2 0.1-0.3q0.1-0.1 0.1-0.1zm-23.5 0q0 0.1 0 0.1 0 0.1 0 0 0-0.1 0-0.1zm14.9 0.1c0 0-0.1 0.3-0.2 0.4q0 0 0 0c0-0.1 0.1-0.2 0.1-0.3 0-0.1 0-0.2 0.1-0.1zm20.9 0q0 0 0 0.1 0 0.1 0 0 0-0.1 0-0.1 0-0.1 0 0zm10-0.1q0 0 0 0.1c-0.2 0.2-0.2 0.3-0.2 0.3 0 0 0-0.1 0.1-0.3q0.1-0.1 0.1-0.1zm-24.9 0.2q0.1 0 0 0c0 0.1-0.2 0.2-0.2 0.2q-0.1 0 0.1-0.1c0 0 0.1-0.1 0.1-0.1q0 0 0 0zm27.8 0q0.1 0.1 0 0.2 0 0 0-0.1 0-0.1 0-0.1zm7.4 0.4q0 0-0.1-0.2c0-0.1-0.1-0.2-0.1-0.2 0 0 0.2 0.3 0.2 0.4zm-43.9-0.4c0.1 0-0.1 0.2-0.2 0.3q0 0 0.1-0.1c0.1-0.1 0.1-0.2 0.1-0.2zm23.7 0.1q0 0.1 0 0.1 0 0.1 0 0-0.1 0-0.1-0.1 0-0.1 0.1 0zm-36 0q0.1 0.1 0 0.2 0 0 0-0.1 0-0.1 0-0.1zm26 0.1c0 0 0 0.1 0 0.2 0 0.1-0.1 0.2-0.1 0.2 0 0 0-0.1 0.1-0.2 0-0.1 0-0.2 0-0.2zm-2.6 0c0 0 0 0.2-0.1 0.2q0 0 0.1-0.1 0-0.1 0-0.1zm25.5 0.1q0 0.1 0 0.1 0 0.1 0 0 0-0.1 0-0.1zm-12.8 0.4q0 0-0.1-0.1c0-0.2 0-0.3 0-0.3 0 0 0.1 0.3 0.1 0.4zm0.7-0.4c0 0 0 0.1-0.1 0.2 0 0.1-0.1 0.2-0.1 0.2 0 0 0.1-0.1 0.1-0.2 0.1-0.1 0.1-0.2 0.1-0.2zm11.3 0.1q0 0-0.1 0.2c0 0-0.1 0.1-0.1 0.1q0 0 0.1-0.1 0.1-0.2 0.1-0.2zm10.6 0q0 0.1 0 0.1 0 0.1 0 0 0 0 0-0.1 0 0 0 0zm-46.9 0.1c-0.1 0.1-0.4 0.1-0.9 0.1h-0.6 0.6c0.6-0.1 0.7-0.1 0.8-0.1q0.3-0.1 0.1 0zm19.4 0c0.1 0 0 0.1 0 0.2 0 0.1-0.1 0.2-0.1 0.2 0 0 0-0.1 0.1-0.2 0-0.1 0-0.2 0-0.2zm14.2 0.1c0 0 0 0.1-0.1 0.2q0-0.1 0.1-0.2 0 0 0 0zm3.5 0q0 0.1 0 0.1 0 0.1 0 0 0-0.1 0-0.1zm-15.2 0q0 0.1 0 0.2 0 0.1 0 0 0-0.1 0-0.1 0-0.1 0-0.1zm5.4 0c0 0-0.1 0.1-0.1 0.2q-0.1 0 0-0.1 0.1-0.1 0.1-0.1zm-15.9 0.1c-0.1 0.1-0.4 0.4-0.5 0.5q-0.2 0.1-0.1 0c0.3-0.2 0.5-0.4 0.5-0.5q0.2-0.2 0.1 0zm35.6 0.3q0 0 0-0.1c0-0.1 0-0.2 0-0.2 0-0.1 0 0.2 0 0.3zm-56.2-0.2q0 0.1 0 0.1 0 0.1 0 0 0-0.1 0-0.1zm-2.6 0.1q0.1 0 0 0.1 0 0.1 0 0 0-0.2 0-0.1zm36.5-0.1c0 0-0.3 0.4-0.3 0.4 0 0.1 0.2-0.2 0.3-0.3q0-0.1 0-0.1zm12.4 0.1q0 0 0 0.1 0 0 0-0.1 0-0.1 0 0zm-34.5 0.1c-0.1 0.1-0.4 0.5-0.5 0.6q-0.2 0.1-0.1 0c0.2-0.1 0.8-0.7 0.7-0.7q0 0-0.1 0.1zm19.4-0.1q0 0.1 0 0.1 0 0.1 0 0.1 0-0.1 0-0.2-0.1 0 0 0zm-0.3 0.1c0 0-0.1 0.1-0.1 0.2-0.1 0.2-0.1 0.3-0.1 0.3 0 0 0-0.2 0.1-0.3 0-0.1 0.1-0.3 0.1-0.2zm11.6 0c0.1 0 0 0.1-0.1 0.2v0.1-0.1q0.1-0.1 0.1-0.1 0-0.1 0-0.1zm-16.8 0.1c0 0 0 0.2-0.1 0.5 0 0.2-0.1 0.4-0.1 0.4 0 0 0.1-0.2 0.1-0.5 0.1-0.2 0.1-0.4 0.1-0.4zm30.6 0q0 0.1 0 0.1 0 0 0 0 0-0.1 0-0.1zm-20.2 0c0 0-0.1 0.1-0.2 0.3-0.1 0.1-0.1 0.3-0.2 0.3 0 0 0.1-0.2 0.2-0.3 0.1-0.2 0.2-0.3 0.2-0.3zm9 0q0 0-0.1 0.2c0 0.1 0 0.1-0.1 0.1q0 0 0.1-0.1 0.1-0.2 0.1-0.2zm1.2 0.1q0.1 0 0 0 0 0.1 0 0 0-0.1 0 0zm7.5 0.1c0 0 0 0.2 0 0.3q0 0.1 0-0.2 0-0.2 0-0.1zm-56.3-0.1q0 0.1 0 0.1 0 0.1 0 0 0-0.1 0-0.1zm58.8 0.1q0 0 0 0.1 0 0 0-0.1 0 0 0 0zm-13.9 0c0 0-0.1 0.1-0.2 0.2v0.1-0.1q0.1-0.1 0.1-0.2 0.1 0 0.1 0zm-42.4 0.1q0 0 0 0.1 0 0 0-0.1 0-0.1 0 0zm-2.5 0.2c0.1 0.2 0.1 0.3 0.1 0.3 0 0-0.1-0.4-0.1-0.5 0 0 0 0.1 0 0.2zm48.9-0.2q0 0.1 0 0.1 0 0 0 0 0-0.1 0-0.1zm-26.7 0c0 0.1-0.3 0.2-0.3 0.2 0 0 0 0 0.1-0.1 0.3-0.1 0.3-0.1 0.2-0.1zm29.2 0.2c0 0.2 0 0.3 0 0.4q0.1 0.1 0-0.1c0-0.1 0-0.3-0.1-0.4q0-0.1 0.1 0.1zm-44-0.1c0 0 0 0.1 0 0.3-0.1 0.2-0.1 0.3-0.1 0.3 0 0 0-0.1 0-0.3 0.1-0.2 0.1-0.3 0.1-0.3zm40 0q0 0 0 0.1-0.1 0.1-0.1 0.1 0 0 0.1-0.1 0-0.1 0-0.1zm11.4 0.3c0 0.1 0 0.2 0 0.4 0 0.1 0 0 0-0.2 0-0.2 0-0.3 0-0.2zm-9.9-0.1q0 0 0 0.1 0 0 0-0.1 0-0.1 0 0zm-18.2 0q0 0-0.1 0.1-0.1 0.2 0 0 0.1-0.1 0.1-0.1zm-17.2 0c0 0-0.2 0.2-0.2 0.2q0-0.1 0.1-0.1c0.1-0.1 0.1-0.1 0.1-0.1zm31.1 0q0 0 0 0.1c-0.1 0-0.1 0.1-0.2 0.3-0.1 0.1-0.2 0.2-0.2 0.2q0 0 0.1-0.1c0 0 0.1-0.1 0.1-0.3 0.1-0.1 0.2-0.2 0.2-0.2zm-23.3 0.1q0.1 0 0 0 0 0.1 0 0.1 0 0 0 0 0 0 0 0 0-0.1 0-0.1zm-8.1 0.1c0 0-0.4 0.1-0.4 0.1 0 0 0.1 0 0.2-0.1 0.2 0 0.3-0.1 0.2 0zm24.9 0c0 0 0 0-0.1 0.2-0.1 0.1-0.1 0.1-0.1 0.1 0 0 0-0.1 0.1-0.2 0.1-0.1 0.1-0.1 0.1-0.1zm9 0.1c-0.1 0.2-0.1 0.1 0.9 0.1h0.9-0.9-0.9l0.1-0.1q0-0.1 0-0.1 0 0-0.1 0.1zm1.8-0.1q0 0.1 0 0.1 0 0.1 0 0 0-0.1 0-0.1zm-48.8 0.1q0 0 0 0.1 0 0 0-0.1 0 0 0 0 0-0.1 0 0zm16.3 0c0 0 0 0.1 0 0.3 0 0.1-0.1 0.2-0.1 0.2 0 0 0-0.1 0.1-0.2 0-0.2 0-0.3 0-0.3zm16.6 0c0 0.1-0.1 0.2-0.1 0.3-0.1 0.1-0.1 0.2-0.1 0.2 0 0 0-0.1 0.1-0.2 0-0.2 0.1-0.3 0.1-0.3zm-14.3 0.1q0.1 0 0 0c0 0.1 0 0.2 0 0.4-0.1 0.2-0.1 0.3-0.1 0.3 0 0 0-0.1 0-0.2 0-0.1 0.1-0.3 0.1-0.4q0-0.1 0-0.1zm15.4 0.3c0 0.1 0 0.2 0 0.2 0 0-0.1-0.5-0.1-0.5q0-0.1 0.1 0.3zm-22.2-0.3q0 0 0 0.1 0 0-0.1 0 0-0.1 0.1-0.1zm-1.2 0.1c0.5 0 0.7 0 0.5 0-0.3 0-0.6 0-0.9 0-0.2 0 0 0 0.4 0zm10.9 0.2c0.2 0.3 0.2 0.3 0.2 0.3 0-0.1-0.3-0.4-0.3-0.5-0.1-0.1 0 0 0.1 0.2zm-18.9-0.1q0.1 0.1 0.1 0.1c-0.1 0.1-0.1-0.1-0.1-0.2q0 0 0 0.1zm22.8 0.1c0 0 0 0.1 0 0.2 0 0.1 0 0.2 0 0.2-0.1 0 0-0.1 0-0.2 0-0.1 0-0.2 0-0.2zm-6.6 0q0 0 0.1 0.1 0 0.1 0 0.1 0 0 0-0.1-0.1-0.1-0.1-0.1zm37.2 0.1c0 0-0.1 0.4-0.1 0.4q0 0.1 0 0c0 0 0-0.1 0.1-0.2 0-0.2 0-0.2 0-0.2zm-53.3 0.1q0.1 0.1 0.1 0.1c0 0-0.1-0.2-0.1-0.2q0-0.1 0 0.1zm34.9-0.1c0 0-0.1 0.2-0.2 0.3 0 0 0-0.1 0.1-0.2q0.1-0.1 0.1-0.1zm21.1 0.1q0 0 0 0.1 0 0 0-0.1 0-0.1 0 0zm-14.7-0.1q0 0-0.1 0.1c0 0 0 0.1-0.1 0.2q-0.1 0.1-0.1 0.1c0 0 0 0 0.2-0.2 0-0.1 0.1-0.2 0.1-0.2zm-9.9 0.2q0 0.1 0 0.1 0 0 0 0-0.1-0.1-0.1-0.1 0 0 0.1 0zm-3.9 0c0 0-0.1 0.1-0.1 0.3-0.1 0.1-0.1 0.2-0.1 0.2 0 0 0-0.1 0.1-0.2 0-0.2 0.1-0.3 0.1-0.3zm28.5 0.1c0 0 0 0.1-0.1 0.2 0 0.1 0 0.2 0 0.2 0 0 0-0.1 0-0.2 0-0.2 0.1-0.3 0.1-0.2zm-58.4 0c0 0 0.2 0.5 0.2 0.5 0 0-0.2-0.5-0.2-0.5q0 0 0 0zm25 0c0 0 0 0.1 0 0.2 0 0.1 0 0.2 0 0.2 0 0 0-0.1 0-0.2 0-0.1 0-0.2 0-0.2zm30.6 0.2q0 0 0 0.1-0.1 0-0.1 0 0 0 0 0 0.1-0.1 0.1-0.1zm-52.8 0.1q0.1 0.2 0 0.1 0 0-0.1-0.1-0.1-0.2 0.1 0zm18.8-0.1l0.1 0.1q0 0 0.1 0.1v0.1l-0.1-0.1q0 0 0-0.1zm15.3 0c0 0 0 0.1-0.2 0.3-0.1 0.1-0.2 0.3-0.2 0.3 0 0 0.1-0.2 0.2-0.3 0.1-0.2 0.2-0.3 0.2-0.3zm-18 0.1c0 0 0 0.1 0.1 0.2q0.1 0.1 0 0.1c0 0 0-0.1-0.1-0.2q0-0.1 0-0.1zm13.2 0.1c0 0-0.1 0.1-0.1 0.2 0 0.1-0.1 0.2-0.1 0.2 0 0 0-0.1 0.1-0.2 0-0.1 0.1-0.2 0.1-0.2zm26.1 0q0 0 0 0.1 0 0.1 0 0.1 0 0 0-0.1 0-0.1 0-0.1zm-15.1 0q0.1 0 0 0.1c0 0-0.1 0.1-0.1 0.2q-0.1 0.1-0.1 0.1c0 0 0 0 0.1-0.2 0.1-0.1 0.1-0.2 0.1-0.2zm-40 0.4c0.1 0 0.1 0.1 0.1 0.1 0 0-0.1-0.1-0.2-0.2q-0.2-0.3 0.1 0.1zm16-0.2q0 0 0 0.1 0.1 0.1 0 0.1 0 0 0-0.1 0-0.1 0-0.1zm-9.9 0.1c0 0 0 0.1 0 0.2 0 0.1-0.1 0.2-0.1 0.2 0 0 0-0.1 0.1-0.2 0-0.1 0-0.2 0-0.2zm18.1 0c0 0 0 0.2 0 0.4-0.1 0.3-0.1 0.5-0.1 0.4 0 0 0-0.2 0-0.4 0.1-0.2 0.1-0.4 0.1-0.4zm28 0c0 0-0.2 0.3-0.2 0.4q0 0 0-0.1c0.1-0.1 0.1-0.2 0.1-0.2q0.1-0.1 0.1-0.1zm-54.9 0.2q0.1 0.1 0.1 0.1c-0.1-0.1-0.1-0.2-0.1-0.2-0.1-0.1-0.1-0.1 0 0.1zm21.5-0.2c0 0 0.3 0.4 0.3 0.5 0.1 0.1 0 0-0.2-0.2 0-0.2-0.1-0.3-0.1-0.3zm-15.3 0.1q0 0 0 0.1-0.1 0.1-0.1 0.1 0 0 0-0.1 0.1-0.1 0.1-0.1zm27.4 0.2c0.1 0.2 0.1 0.3 0.1 0.3 0 0-0.2-0.5-0.2-0.5q0-0.1 0.1 0.2zm17.3 0.1c0.1 0.1 0.1 0.3 0.1 0.4q0 0.1 0-0.1c-0.1-0.2-0.1-0.3-0.1-0.4q0-0.1 0 0.1zm-14.9-0.1c0 0-0.1 0.2-0.2 0.2q0 0.1 0 0c0.1-0.1 0.1-0.2 0.2-0.2zm9.3 0h1.5c0.8 0 1.5 0 1.5 0 0 0 0 0.2 0 0.3v0.3-0.3l-0.1-0.3h-1.4c-1.4 0-1.5 0-1.5 0.1q-0.1 0 0 0zm-45.1 0.1q0.1 0.1 0 0.1 0-0.1 0-0.1-0.2-0.2 0 0zm2.9 0.1c0.1 0 0.2 0.1 0.2 0.1 0 0-0.3-0.2-0.3-0.2q-0.1-0.1 0.1 0.1zm3-0.2c0 0 0 0.2-0.1 0.3 0 0.2 0 0.4 0 0.4 0 0 0-0.2 0-0.4 0-0.2 0.1-0.3 0.1-0.3zm12.8 0c0 0 0.1 0.1 0.1 0.2q0.1 0.1 0 0.1c0 0 0-0.1-0.1-0.2q0-0.1 0-0.1zm10 0q0 0.1 0 0.2-0.1 0.1-0.1 0.1 0 0 0.1-0.1 0-0.2 0-0.2zm13.4 0c0 0-0.1 0.2-0.1 0.3h-0.1 0.1q0-0.1 0-0.2 0.1 0 0.1-0.1zm12.3 0.1c0 0-0.1 0.1-0.1 0.2q0 0 0-0.1 0.1-0.1 0.1-0.1zm-45.9 0q0 0 0 0.1 0 0.2 0 0.2-0.1-0.1 0-0.2 0-0.1 0-0.1zm29.5 0.3c0 0.2 0 0.5 0 0.6 0 0.2 0 0.1 0-0.3 0-0.3 0-0.4 0-0.3zm-23.1-0.1c0 0 0 0.2 0 0.3-0.1 0.2-0.1 0.4-0.1 0.3 0 0 0-0.1 0.1-0.3 0-0.1 0-0.3 0-0.3zm-14.2 0.5c0.2 0.3 0.3 0.4 0.2 0.3-0.2-0.1-0.6-0.6-0.7-0.7-0.1-0.1 0-0.1 0.5 0.4zm53.5-0.4c0 0-0.1 0.2-0.2 0.3q-0.1 0.1 0-0.1c0.1-0.1 0.2-0.2 0.2-0.2zm-50.9 0.1q0.2 0.1 0.2 0.1 0 0-0.1 0-0.1-0.1-0.2-0.1 0-0.1 0.1 0zm18.5 0c0 0 0.1 0.1 0.1 0.1q0 0-0.1-0.1 0-0.1 0 0zm23-0.1q0 0.1-0.1 0.2c0 0.1 0 0.2 0 0.2q0-0.1 0-0.2 0.1-0.1 0.1-0.2zm-27.6 0.1c0 0 0 0.1 0 0.2q-0.1 0.1-0.1 0.1c0 0 0-0.1 0.1-0.2q0-0.1 0-0.1zm24.6 0c0 0 0 0.1-0.1 0.2l-0.1 0.1 0.1-0.1q0-0.1 0.1-0.1 0-0.1 0-0.1zm15.5 0c0 0-0.1 0.1-0.1 0.2-0.1 0.2-0.1 0.3-0.1 0.3-0.1 0 0-0.1 0.1-0.3 0-0.1 0.1-0.2 0.1-0.2zm-26.3 0q0 0 0 0.1-0.1 0.1-0.1 0.1 0 0 0.1-0.1 0-0.1 0-0.1zm4.4 0c0 0-0.1 0.2-0.2 0.3-0.2 0.2-0.3 0.3-0.3 0.3 0 0 0.1-0.1 0.2-0.3 0.2-0.1 0.2-0.3 0.3-0.3zm12.7 0.1q0 0.1 0 0.1 0 0.1 0 0 0-0.1 0-0.1zm-44.5 0.1q0.1 0.1 0.1 0.1 0 0-0.1-0.1-0.1 0-0.1 0 0-0.1 0.1 0zm15.5 0c0 0.1 0.1 0.1 0.1 0.2q0.1 0.1 0.1 0.1c-0.1 0-0.1-0.1-0.1-0.2q-0.1-0.1-0.1-0.1zm11.8 0q0 0 0 0.1 0 0.1 0 0.1 0 0 0-0.1 0-0.1 0-0.1zm10.7 0.1c0.1 0 0 0.1-0.1 0.2v0.1-0.1q0-0.1 0.1-0.2 0 0 0 0zm-37.8 0.1c0.1 0 0.2 0.1 0.3 0.1 0.1 0.1 0.2 0.1 0.1 0.1-0.2-0.1-0.4-0.2-0.4-0.3q0 0 0 0.1zm40.8-0.1q0 0 0 0.1-0.1 0.1-0.1 0.1 0 0 0.1-0.1 0-0.1 0-0.1zm-20.6 0.1c0 0 0 0.1 0 0.2 0 0.1 0 0.2 0 0.2-0.1 0 0-0.1 0-0.2 0-0.2 0-0.2 0-0.2zm24.1 0q0 0.1 0 0.1 0 0.1 0 0 0-0.1 0-0.1zm5.8 0c0 0-0.5 0.4-0.7 0.6q-0.2 0.2 0.2-0.2c0.3-0.2 0.5-0.4 0.5-0.4zm-36.8 0c0 0 0 0.4 0 0.4-0.1 0 0-0.1 0-0.2 0-0.1 0-0.2 0-0.2zm13.7 0q0 0.1 0 0.1 0 0.1 0 0.1 0 0 0-0.1 0-0.1 0-0.1zm-8.7 0.1c0 0 0.2 0.3 0.2 0.3q0 0-0.1-0.2-0.1-0.1-0.1-0.1zm34.9 0q0 0 0 0.1 0 0.1 0 0.1-0.1 0 0-0.1 0-0.1 0-0.1zm-28.7 0.1q0 0 0 0.1-0.1 0.1-0.1 0.1 0 0 0.1-0.1 0-0.1 0-0.1zm19.8 0.1q0.1 0 0 0.1 0 0 0-0.1 0-0.1 0 0zm-13.2 0c0 0 0 0-0.1 0.1 0 0.1 0 0.1 0.1-0.1q0 0 0 0zm-33.6 0.2c0.3 0.3 0.4 0.3 0.2 0.2-0.1-0.1-0.3-0.2-0.3-0.2q-0.1-0.1 0.1 0zm32.6-0.1q0.2 0 0.1 0-0.1 0-0.1 0-0.1 0 0 0zm23 0.1c-0.1 0.1-0.3 0.3-0.3 0.3q0 0 0 0c0.1-0.1 0.1-0.2 0.2-0.3 0.1-0.1 0.1-0.2 0.1 0zm-51.9 0.1c0.2 0.1 0.4 0.2 0.4 0.2 0 0-0.8-0.3-0.8-0.4 0 0 0.2 0.1 0.4 0.2zm29.4-0.2q0.2 0 0.1 0-0.1 0.1-0.1 0-0.1 0 0 0zm18.6 0.4q0 0-0.2 0.2l-0.1 0.1 0.1-0.1c0.1-0.1 0.2-0.2 0.2-0.2zm-47.5 0.1c0 0 0.1 0 0.2 0.1 0.1 0 0.2 0 0.2 0-0.1 0-0.2 0-0.3 0-0.1-0.1-0.1-0.1-0.1-0.1zm51.1 0q0 0 0 0-0.1 0.1-0.1 0.1 0 0 0-0.1 0.1 0 0.1 0zm-54.6 0.2c0.1 0 0.1 0.1 0.1 0.1q0 0-0.1-0.1c-0.1-0.1-0.2-0.1-0.2-0.1q0.1 0 0.2 0.1zm54.5-0.1c0 0-0.2 0.4-0.4 0.5l-0.1 0.1 0.1-0.1c0.1-0.1 0.2-0.2 0.3-0.3q0-0.1 0.1-0.2zm-4.1 0.3q0.1 0-0.1 0.1-0.2 0.1 0-0.1 0.1 0 0.1 0zm-50.1 0h0.1c0 0.1 0.1 0.1 0.2 0.1q0 0.1 0 0.1c0 0-0.1-0.1-0.2-0.1zm4.2 0c0.1 0 0.1 0 0.2 0q0.1 0.1 0 0.1 0 0-0.1-0.1-0.1 0-0.1 0zm49.5 0.3c0 0-0.2 0.2-0.3 0.3q-0.1 0.1 0.1-0.1c0.1-0.1 0.2-0.2 0.2-0.2zm-48.4 0.1c0 0 0.1 0 0.3 0.1 0.1 0 0.2 0.1 0.2 0.1 0 0-0.1-0.1-0.3-0.1-0.1-0.1-0.2-0.1-0.2-0.1zm44.1 0.1c-0.1 0-0.3 0.1-0.3 0.1 0 0 0.1-0.1 0.2-0.1 0.1-0.1 0.2-0.1 0.1 0zm-48.5 0c0.1 0.1 0.2 0.1 0.2 0.1 0 0-0.3-0.1-0.3-0.2 0 0 0 0.1 0.1 0.1zm0.7 0.4c0.1 0 0.2 0.1 0.2 0.1 0 0-0.4-0.2-0.4-0.2 0-0.1 0.1 0 0.2 0.1zm47.3-0.2q0 0-0.2 0.2c-0.2 0.1-0.2 0 0-0.1 0.1 0 0.2-0.1 0.2-0.1zm-42.3 0.1q0.1 0 0.1 0 0.1 0 0 0 0 0-0.1 0 0 0 0 0zm46.6 0c0.1 0-0.4 0.4-0.6 0.6q-0.1 0.1 0.1-0.1c0.1-0.1 0.3-0.3 0.4-0.4 0.1 0 0.1-0.1 0.1-0.1zm-46.4 0.1q0.1 0 0.1 0 0.1 0 0 0 0 0-0.1 0 0 0 0 0zm0.4 0.1q0.1 0 0 0c0 0-0.1 0-0.2-0.1-0.1 0 0 0 0.2 0.1zm41.3 0q0 0-0.1 0-0.1 0.1-0.1 0.1 0 0 0.1-0.1c0.1-0.1 0.1-0.1 0.1 0zm-46.6 0q0 0 0.1 0.1 0.1 0 0.1 0-0.1 0-0.1 0-0.1-0.1-0.1-0.1zm46.1 0.2c0 0-0.1 0.1-0.2 0.2-0.2 0-0.3 0.1-0.3 0.1 0 0 0.1-0.1 0.2-0.1 0.2-0.1 0.3-0.2 0.3-0.2zm-39.7 0.1c0.1 0 0.2 0 0.4 0 0.1 0.1 0.2 0.1 0.2 0.1 0 0-0.2 0-0.3-0.1-0.2 0-0.3 0-0.3 0zm-5.7 0c0 0 0.1 0.1 0.3 0.1 0.1 0.1 0.2 0.1 0.2 0.1-0.1 0-0.5-0.2-0.5-0.2q0 0 0 0zm49.8 0.2c0.1 0-0.2 0.2-0.3 0.4q-0.2 0.1-0.1 0c0.1-0.1 0.2-0.2 0.3-0.2 0.1-0.1 0.1-0.2 0.1-0.2zm-5.2 0.1c0 0.1-0.6 0.3-0.6 0.3 0 0 0.1-0.1 0.3-0.1q0.3-0.2 0.3-0.2zm-37.2 0.1q0.1 0 0.1 0 0.1 0 0 0 0 0-0.1 0-0.1 0 0 0zm0.4 0c0.1 0.1 0.2 0.1 0.3 0.1q0.1 0 0 0c-0.1 0-0.2 0-0.2 0q-0.2-0.1-0.1-0.1zm-6.3 0.2q0.2 0.1 0.2 0.1c-0.1 0-0.4-0.2-0.5-0.2 0 0 0.1 0 0.3 0.1zm8.2 0.2c0.1 0 0.2 0 0.3 0.1 0.1 0 0.2 0 0.2 0 0 0-0.2 0-0.3 0-0.1-0.1-0.2-0.1-0.2-0.1zm33.7 0.1c0 0-0.2 0-0.3 0.1-0.1 0 0 0 0.1-0.1q0.1 0 0.2 0zm-41 0c0 0 0.1 0 0.2 0.1q0.2 0 0.2 0c0 0-0.1 0-0.2 0-0.1-0.1-0.2-0.1-0.2-0.1zm46.6 0q0 0-0.1 0.1-0.1 0.1-0.2 0.1 0.1 0 0.2-0.1c0.1-0.1 0.1-0.1 0.1-0.1zm-46.1 0.1q0 0 0.1 0.1 0 0 0 0-0.1 0-0.1 0-0.1-0.1 0-0.1zm39.5 0.2c0 0-0.5 0.2-0.5 0.2 0 0 0.1 0 0.2-0.1 0.3-0.1 0.3-0.1 0.3-0.1zm6.1 0.1c0 0-0.3 0.2-0.4 0.2q-0.1 0.1 0.2-0.1c0.2-0.2 0.2-0.2 0.2-0.1zm-36.1 0c0.1 0 0.3 0 0.4 0q0.3 0.1 0.2 0.1c-0.1 0-0.3-0.1-0.5-0.1q-0.2 0-0.1 0zm-8.2 0.1c0 0 0.1 0 0.3 0.1 0.1 0 0.2 0 0.2 0-0.1 0-0.2 0-0.3 0-0.1-0.1-0.2-0.1-0.2-0.1zm9 0q0.1 0 0 0 0 0 0 0-0.1 0 0 0zm1.9 0.3q0 0 0 0 0 0-0.1 0 0 0 0.1 0zm0.2 0q0 0 0 0 0 0-0.1 0 0 0 0.1 0zm25.7 0c0 0-0.1 0-0.2 0.1-0.1 0-0.2 0-0.2 0-0.1 0 0 0 0.1 0 0.2-0.1 0.3-0.1 0.3-0.1zm-25.6 0c0.1 0 0.3 0 0.5 0.1q0.3 0 0.1 0c-0.1 0-0.3 0-0.4-0.1q-0.2 0-0.2 0zm32.3 0.1c-0.1 0-0.4 0.2-0.4 0.2 0 0 0.1-0.1 0.2-0.2q0.3-0.1 0.2 0zm-41.4 0.1c0.1 0 0.3 0 0.3 0-0.1 0-0.7-0.1-0.8-0.1 0 0 0.1 0 0.5 0.1zm10-0.1q0.1 0 0 0 0 0-0.1 0 0 0 0.1 0zm0.2 0q0.1 0 0 0.1 0 0-0.1 0 0-0.1 0.1-0.1zm0.4 0.1q0.1 0 0 0 0 0 0 0-0.1 0 0 0zm1.8 0.2q0.1 0 0 0 0 0-0.1 0 0 0 0.1 0zm20.9 0c0 0-0.4 0.1-0.5 0.1 0 0 0.1 0 0.2 0q0.3-0.1 0.3-0.1zm-20.7 0c0.1 0 0.2 0 0.2 0q0.2 0.1 0.1 0.1c-0.1 0-0.2 0-0.3 0q-0.1-0.1 0-0.1zm28.1 0.1c0 0-0.1 0-0.2 0.1-0.2 0.1-0.3 0.1-0.3 0.1 0 0 0.1-0.1 0.3-0.1 0.2-0.2 0.2-0.2 0.2-0.1zm-27.6 0c0 0 0.2 0 0.2 0q0.2 0 0.1 0c-0.1 0-0.2 0-0.3 0q-0.2 0 0 0zm-11.2 0c0.1 0 0.2 0.1 0.4 0.1 0.1 0 0.2 0 0.2 0-0.1 0-0.2 0-0.4 0-0.1 0-0.2-0.1-0.2-0.1zm11.7 0q0.1 0 0.1 0-0.1 0.1-0.2 0 0 0 0.1 0zm0.2 0.1q0.2 0 0.1 0 0 0-0.1 0-0.1 0 0 0zm0.3 0q0.1 0 0.1 0-0.1 0-0.1 0-0.1 0 0 0zm0.2 0q0.1 0 0.1 0-0.1 0-0.1 0 0 0 0 0zm-11.7 0q0.1 0 0.1 0-0.1 0.1-0.1 0 0 0 0 0zm12 0q0.1 0 0 0 0 0.1 0 0-0.1 0 0 0zm0.5 0.1q0.1 0 0 0 0 0-0.1 0 0 0 0.1 0zm1 0.1q0.1 0 0.1 0-0.1 0-0.1 0-0.1 0 0 0zm0.3 0q0.1 0 0.1 0-0.1 0-0.1 0-0.1 0 0 0zm0.3 0q0.1 0 0.1 0.1-0.1 0-0.2 0 0-0.1 0.1-0.1zm14.8 0q0.1 0 0 0.1-0.1 0-0.1 0-0.1 0 0 0 0.1-0.1 0.1-0.1zm-27.2 0.1q0.1 0 0.1 0-0.1 0-0.1 0 0 0 0 0zm12.8 0c0.1 0 0.4 0 0.7 0 0.2 0.1 0.3 0.1 0.2 0.1-0.2 0-0.5-0.1-0.7-0.1-0.3 0-0.4 0-0.2 0zm-12.5 0q0 0 0 0 0 0-0.1 0 0 0 0.1 0zm26.7 0q0 0-0.2 0c-0.1 0.1-0.2 0.1-0.2 0.1q0 0 0.1-0.1c0.1 0 0.2 0 0.3 0zm-26.5 0q0 0 0 0 0 0-0.1 0 0 0 0.1 0zm0.2 0.1q0.1 0 0 0 0 0-0.1 0 0 0 0.1 0zm0.2 0q0.1 0 0.1 0-0.1 0-0.1 0-0.1 0 0 0zm34.5 0q0 0-0.1 0c-0.1 0.1-0.2 0.1-0.2 0.1q0 0 0.1-0.1c0.1 0 0.2 0 0.2 0zm-34.3 0c0.1 0 0.3 0 0.5 0q0.4 0.1 0.2 0.1c-0.1 0-0.3 0-0.5-0.1-0.1 0-0.2 0-0.2 0zm12.9 0q0.1 0 0.1 0-0.1 0-0.1 0-0.1 0 0 0zm0.3 0q0.1 0 0.1 0 0 0.1-0.1 0.1-0.1-0.1-0.1-0.1 0 0 0.1 0zm-12.1 0.1q0.1 0 0.1 0-0.1 0-0.1 0-0.1 0 0 0zm0.4 0q0 0 0 0 0 0.1-0.1 0 0 0 0.1 0zm0.3 0.1q0 0 0 0 0 0-0.1 0 0 0 0.1 0zm0.3 0q0 0 0 0 0 0-0.1 0 0 0 0.1 0zm0.3 0q0.1 0 0.1 0-0.1 0-0.2 0 0 0 0.1 0zm0.3 0q0.1 0 0.1 0-0.1 0.1-0.1 0-0.1 0 0 0zm0.4 0.1q0.1 0 0.1 0-0.1 0-0.2 0 0 0 0.1 0zm0.4 0q0.1 0 0.1 0-0.1 0-0.2 0 0 0 0.1 0zm20.5 0q0.1 0 0 0-0.1 0-0.2 0 0 0 0.1 0 0 0 0.1 0zm-20.1 0q0.2 0 0.1 0-0.1 0-0.2 0 0 0 0.1 0zm29.6 0q0.1 0 0 0-0.1 0.1-0.1 0.1 0 0 0.1-0.1 0 0 0 0zm-29.1 0q0.2 0 0.1 0.1c0 0-0.1 0-0.2 0q0-0.1 0.1-0.1zm19.3 0q0.1 0 0 0.1-0.1 0-0.1 0-0.1 0 0 0 0.1-0.1 0.1-0.1zm-18.7 0.1q0.2 0 0.1 0c0 0-0.1 0-0.2 0q-0.1 0 0.1 0zm6.9 0h0.3c0.1 0 0.2 0 0.2 0 0 0-0.4 0.2-0.3 0.1q0 0 0.1 0l0.1-0.1h-0.2zm-6.2 0q0.3 0 0.2 0c-0.1 0-0.3 0-0.4 0q-0.1 0 0.2 0zm5.8 0q0.3 0 0.2 0c-0.1 0-0.3 0-0.4 0q-0.1 0 0.2 0zm21.9 0q0 0-0.1 0.1-0.1 0-0.2 0 0 0 0.1 0 0.2-0.1 0.2-0.1zm-26.8 0c0.3 0 0.5 0 0.3 0-0.1 0.1-0.4 0.1-0.5 0-0.2 0-0.1 0 0.2 0zm4 0c0.3 0 0.4 0 0.3 0-0.2 0.1-0.4 0.1-0.5 0-0.2 0-0.1 0 0.2 0zm-1.9 0.1c0.8 0 1.1 0 0.7 0-0.4 0-1.1 0-1.5 0-0.4 0-0.1 0 0.8 0zm3.1 0.2c0 0-0.1 0.1-0.2 0.2-0.2 0-0.3 0.1-0.3 0.1 0 0 0.1-0.1 0.3-0.2 0.3-0.1 0.2-0.1 0.2-0.1zm9.6 0q0 0-0.1 0.1c-0.1 0-0.3 0-0.3 0q-0.1 0 0.1 0c0.1 0 0.2-0.1 0.3-0.1zm11.1 0.1c0 0-0.5 0.2-0.5 0.2 0 0 0.1-0.1 0.2-0.1q0.3-0.1 0.3-0.1zm-11.7 0q0.2 0 0 0c-0.1 0.1-0.1 0.1-0.2 0.1q-0.1 0 0-0.1c0.1 0 0.2 0 0.2 0zm-0.4 0.1q0.1 0 0.1 0-0.1 0-0.1 0-0.1 0 0 0zm-0.2 0q0.1 0 0.1 0-0.1 0-0.1 0 0 0 0 0zm-1.8 0.2q0.1 0 0.1 0-0.1 0-0.1 0-0.1 0 0 0zm-0.3 0q0.1 0 0.1 0-0.1 0.1-0.1 0-0.1 0 0 0zm-7.2 0.1c0 0-0.1 0-0.2 0.1-0.2 0.1-0.3 0.1-0.3 0.1 0 0 0.1 0 0.3-0.1 0.3-0.2 0.2-0.1 0.2-0.1zm6.9 0q0.2 0 0.1 0 0 0-0.1 0-0.1 0 0 0zm-0.3 0c0.3 0-0.1 0-0.5 0l-0.3 0.1 0.4-0.1c0.2 0 0.4 0 0.4 0zm13.9 0c0 0-0.2 0.1-0.2 0.1q0 0 0.1-0.1c0.1 0 0.1 0 0.1 0zm-14.9 0.1q0.2 0 0.1 0-0.1 0-0.2 0 0 0 0.1 0zm-0.4 0q0.2 0 0.1 0-0.1 0-0.2 0 0 0 0.1 0zm-0.4 0q0.2 0 0.1 0c-0.1 0-0.2 0-0.2 0q-0.1 0 0.1 0zm15.3 0.1q-0.1 0-0.1 0 0 0 0.1 0c0.1-0.1 0.1-0.1 0 0zm-15.8-0.1q0.2 0 0.1 0.1c-0.1 0-0.1 0-0.2 0q-0.1-0.1 0.1-0.1zm-0.7 0.1q0.3 0 0.2 0c-0.1 0-0.2 0-0.3 0q-0.1 0 0.1 0zm-0.9 0q0.3 0 0.1 0c0 0-0.2 0-0.3 0q-0.1 0 0.2 0zm-3.4 0.2c0 0-0.1 0-0.3 0.1-0.2 0.1-0.3 0.2-0.3 0.1 0 0 0.1 0 0.3-0.1 0.3-0.2 0.3-0.2 0.3-0.1zm19.7 0.1c0 0-0.1 0-0.2 0.1-0.1 0-0.2 0.1-0.2 0.1-0.1 0 0-0.1 0.1-0.1 0.2-0.1 0.3-0.1 0.3-0.1zm-20.6 0.3c0 0-0.1 0.1-0.2 0.1-0.2 0.1-0.3 0.2-0.3 0.2 0 0 0.1-0.1 0.3-0.2 0.2-0.1 0.2-0.1 0.2-0.1zm19.3 0.1c0 0-0.7 0.2-0.7 0.2 0 0 0.1 0 0.3-0.1 0.3-0.1 0.4-0.1 0.4-0.1zm-20.1 0.3c0 0.1-0.1 0.1-0.3 0.2-0.1 0.1-0.2 0.1-0.2 0.1 0 0 0.1-0.1 0.2-0.1 0.3-0.2 0.3-0.2 0.3-0.2zm18.3 0.2c0.1 0-0.3 0.1-0.4 0.1q-0.1 0 0.1-0.1c0.1 0 0.3 0 0.3 0zm-18.5 0.4c0.1 0.1 0.3 0.2 0.3 0.2 0 0-0.2-0.1-0.3-0.1-0.1-0.1-0.3-0.2-0.3-0.2 0 0 0.2 0.1 0.3 0.1zm16.5 0c0 0-0.1 0-0.2 0.1-0.2 0-0.3 0-0.4 0 0 0 0.1 0 0.2 0 0.2-0.1 0.3-0.1 0.4-0.1zm-15.6 0.5c0.1 0 0.2 0.1 0.2 0.1 0 0-0.1 0-0.2-0.1-0.2-0.1-0.3-0.1-0.3-0.1 0-0.1 0.1 0 0.3 0.1zm13.4-0.1q-0.1 0-0.1 0-0.1 0 0 0c0.1 0 0.2 0 0.1 0zm-0.3 0.1c0.1 0 0 0-0.2 0-0.1 0-0.3 0-0.3 0 0 0 0 0 0.2 0 0.1 0 0.3 0 0.3 0zm-12.3 0.4c0.1 0.1 0.2 0.1 0.2 0.1 0 0-0.1 0-0.2-0.1-0.2-0.1-0.3-0.1-0.3-0.1 0 0 0.1 0 0.3 0.1zm9.9-0.1q0.1 0 0 0 0 0-0.1 0 0 0 0.1 0zm-0.2 0q0 0 0 0 0 0-0.1 0 0 0 0.1 0zm-0.3 0q0.1 0 0.1 0.1-0.1 0-0.1 0-0.1-0.1 0-0.1zm-0.2 0.1q0.1 0 0 0 0 0-0.1 0 0 0 0.1 0zm-0.3 0q0.1 0 0.1 0-0.1 0-0.1 0-0.1 0 0 0zm-0.2 0h0.1-0.2c0 0.1-0.2 0.1-0.2 0.1q-0.2 0 0-0.1c0.1 0 0.2 0 0.3 0zm-0.6 0.1q0.1 0 0.1 0-0.1 0-0.2 0 0 0 0.1 0zm-0.3 0q0.1 0 0.1 0-0.1 0-0.2 0 0 0 0.1 0zm-0.4 0q0.1 0 0.1 0-0.1 0-0.1 0-0.1 0 0 0zm-0.3 0.1q0.1 0 0 0 0 0-0.1 0 0 0 0.1 0zm-0.4 0q0.1 0 0 0 0 0-0.1 0 0 0 0.1 0zm-0.5 0q0.2 0 0.1 0 0 0-0.1 0-0.1 0 0 0zm-0.5 0q0.2 0 0.1 0c0 0-0.1 0-0.2 0q0 0 0.1 0zm-0.7 0.1q0.3 0 0.2 0c-0.1 0-0.2 0-0.3 0q-0.1 0 0.1 0zm-4.2 0.1c0.1 0.1 0.3 0.2 0.3 0.2 0 0-0.2-0.1-0.3-0.1-0.1-0.1-0.3-0.2-0.3-0.2 0 0 0.2 0.1 0.3 0.1zm0.8 0.5c0.2 0 0.3 0.1 0.3 0.1 0 0-0.1 0-0.3-0.1-0.1-0.1-0.3-0.2-0.3-0.2 0 0 0.2 0.1 0.3 0.2zm0.9 0.4c0.1 0.1 0.2 0.1 0.2 0.1 0 0-0.1 0-0.2-0.1-0.2-0.1-0.3-0.1-0.3-0.1 0 0 0.1 0 0.3 0.1zm0.7 0.3q0.1 0.1 0.1 0.1c0 0-0.3-0.1-0.3-0.1q0 0 0.2 0z"/><path fill-rule="evenodd" class="e" d="m61 0q0.1 0.1 0.1 0.1 0 0-0.1 0c-0.1-0.1-59.6-0.1-59.8 0-0.1 0-0.2 0-0.3 0q0 0 0 0 0 0 0.1-0.1c0.1 0 59.9 0 60 0zm-60.3 0.1c-0.3 0.2-0.5 0.5-0.6 0.8l-0.1 0.2v19.8c0 10.9 0 19.8 0 19.8 0 0 0-8.9 0-19.8 0-10.9 0-19.8 0.1-19.8 0-0.1 0-0.2 0.1-0.3q0-0.1 0-0.1 0-0.1 0 0 0.1 0 0.1 0c-0.1-0.1 0.2-0.4 0.3-0.4q0 0 0.1-0.1 0 0 0.1 0c0 0 0.1-0.1 0-0.1q0 0-0.1 0zm60.4 0c0 0 0.3 0.2 0.3 0.1q0 0 0 0.1c0 0 0.1 0.1 0.2 0.1q0 0 0 0c0 0 0 0.1 0.1 0.1q0 0 0 0 0 0 0 0.1 0.1 0 0.1 0.1-0.1 0 0 0 0 0 0 0 0 0.1 0.1 0.2c0.1 0.2 0.1-0.9 0.1 20.1 0 10.9 0 19.8 0 19.8 0 0 0-9 0-19.9v-19.8l-0.1-0.2c0-0.2-0.1-0.3-0.3-0.5-0.2-0.2-0.5-0.4-0.5-0.3zm-61.1 40.7c0 0.2 0.3 0.6 0.3 0.6 0.1 0-0.1-0.3-0.1-0.3q0 0 0 0 0 0-0.1-0.1 0 0 0 0 0-0.1 0-0.1 0 0 0 0 0 0 0-0.1 0 0 0-0.1-0.1 0-0.1 0 0 0 0 0.1zm61.9 0.1c0 0.1-0.1 0.2-0.1 0.2q-0.1 0.1-0.1 0.2 0 0 0 0c0 0-0.1 0.1-0.2 0.1 0 0.1-0.1 0.2-0.1 0.2q-0.1 0-0.1 0 0 0.1 0 0.1-0.1 0-0.1 0c0 0-0.2 0.1-0.2 0.1q-0.1 0-0.1 0c0 0-59.7 0-59.8 0-0.2 0-0.3-0.1-0.3-0.1q0 0 0 0 0 0-0.1 0c0-0.1-0.2-0.2-0.2-0.2q0 0 0 0c0 0-0.1-0.1-0.1-0.1-0.1 0 0.3 0.3 0.4 0.3q0.1 0.1 0.1 0.1c0 0 0.6 0 30.1 0h29.9 0.2c0.4-0.2 0.8-0.5 0.9-0.9 0-0.1-0.1-0.1-0.1 0z"/></svg>