<svg version="1.2" xmlns="http://www.w3.org/2000/svg" viewBox="0 0 71 42" width="71" height="42">
	<title>atm-bersama-svg</title>
	<style>
		.s0 { fill: #fbfbfb } 
		.s1 { fill: #0474bc } 
		.s2 { fill: #5aa2d3 } 
		.s3 { fill: #86bcde } 
		.s4 { fill: #78b4dc } 
	</style>
	<g id="svgg">
		<path id="path0" fill-rule="evenodd" class="s0" d="m41.4 5.8c1.6 0 2.2 0.3 2.2 1.2 0 0.4-0.1 0.5-0.3 0.9l-0.2 0.3h-17.8v-0.1c0.2-1 1.1-1.9 2-2.1 0.2-0.1 0.3-0.1 0.3-0.1 0.1 0 3.1 0 6.7 0 3.6-0.1 6.8-0.1 7.1-0.1zm-16.8 2.7c0.1 0.6 0 13.4 0 13.7-0.3 1.1-1.3 2.1-2.1 2.2h-0.1l-0.1-7.6c0-4.2 0-7.7 0-7.8 0-0.3-0.2-0.5-0.5-0.5-0.3 0-0.3 0.1-1.6 1.3-0.4 0.4-0.9 0.8-2.2 2.1-0.5 0.4-1.5 1.3-2.2 2-0.6 0.6-1.8 1.7-2.6 2.4-0.8 0.7-1.6 1.5-1.8 1.7-0.2 0.2-0.8 0.8-1.3 1.2-0.5 0.5-1 1-1.2 1.1-0.1 0.2-0.7 0.7-1.2 1.1-0.5 0.5-1 1-1.3 1.3-0.5 0.5-0.6 0.5-0.6 0.4-0.6-0.7-0.5-2.2 0.1-3.1 0.2-0.3 1.6-1.6 2.9-2.8 0.1-0.2 0.3-0.4 0.4-0.4 0.1-0.1 0.5-0.5 1.1-1 0.5-0.6 1.2-1.3 1.6-1.6 0.4-0.4 0.8-0.8 1-1 0.2-0.1 0.5-0.4 0.7-0.6 0.2-0.2 0.7-0.6 1-1 2-1.8 3.5-3.3 4.1-3.9 1.4-1.4 1.9-1.7 2.7-1.8 1.6-0.2 3 1 3.2 2.6zm25.4-2.5c1 0.3 1.8 1.1 2 2.2l0.1 0.3v3.2c0 1.8 0 3.2 0 3.2 0.1 0 1.2-1 3.2-2.9 0.2-0.3 0.7-0.8 1.1-1.1 1.2-1.1 1.9-1.8 2.4-2.3 2.2-2.2 2.5-2.4 3.2-2.6 1.8-0.4 3.4 0.7 3.6 2.5 0 0.2 0 2.2 0 6.9v6.6 0.3c-0.3 1.1-1.2 2-2.1 2.2h-0.2v-7.5c0-8.4 0-8.2-0.1-8.4-0.3-0.4-0.6-0.3-1.5 0.6-0.2 0.2-1 0.8-1.6 1.4-1.1 1.1-1.3 1.3-2.1 2-0.4 0.4-1.7 1.6-2.8 2.6-0.4 0.4-0.8 0.8-1 1-0.8 0.7-3.9 3.6-4.1 3.8-0.1 0.1-0.2 0.1-0.2 0.1 0 0 0-2.6 0-5.7 0-4.4 0-5.8-0.1-5.8-0.1-0.3-0.4-0.5-0.7-0.3-0.1 0-0.7 0.5-1.8 1.6-0.3 0.2-0.7 0.6-1.1 0.9-0.4 0.4-0.9 0.8-1.2 1.1-0.3 0.3-0.9 0.8-1.3 1.2-0.4 0.3-0.9 0.8-1.1 1-0.2 0.2-0.5 0.4-0.7 0.6-0.1 0.2-0.5 0.4-0.7 0.6q-0.9 0.9-2.1 2c-0.4 0.3-0.9 0.8-1.2 1-0.4 0.4-0.8 0.8-1.9 1.8-0.5 0.5-0.8 0.7-0.8 0.7 0 0 0-2.6 0-5.8v-5.7h3.3 3.4l-0.2 0.3c-1.9 1.7-2.2 1.9-3.1 1.9-0.1 0-0.4 0-0.6 0l-0.4 0.1v1.3c0 0.7 0 1.6 0 2v0.7l0.3-0.3c0.2-0.2 0.7-0.7 2.4-2.3 0.5-0.5 1.3-1.2 1.9-1.7 1.3-1.3 1.7-1.6 2.6-2.5 1.7-1.6 2-1.9 2.3-2.2q0.6-0.5 1.3-0.6c0.3-0.1 1.2-0.1 1.6 0zm-20.3 3.3h4.3l0.1 6.5v6.4l0.1 0.2c0.2 0.4 0.6 0.3 1.4-0.4 0.2-0.2 0.5-0.5 0.7-0.7 0.5-0.5 2.2-2 2.6-2.3 0.2-0.2 0.5-0.5 0.7-0.6 0.1-0.2 0.5-0.5 0.8-0.8 0.2-0.2 0.6-0.5 0.8-0.7 0.2-0.2 0.5-0.5 0.7-0.6q0.4-0.4 1.6-1.6c0.3-0.2 0.8-0.7 1.2-1.1 0.5-0.3 0.9-0.8 1.1-0.9 0.1-0.1 0.5-0.5 0.9-0.9 0.4-0.3 1-0.8 1.3-1.1 0.4-0.3 0.7-0.6 0.7-0.6h0.1v5.8c0 5.3 0 5.8 0 5.8 0.1 0.2 0.3 0.4 0.5 0.4 0.2 0 0.3-0.1 2.1-1.8 0.5-0.5 1.1-1 1.3-1.2 0.1-0.1 0.6-0.5 0.9-0.9 0.4-0.3 0.8-0.7 1-0.9 0.2-0.2 0.7-0.6 1.1-1 0.3-0.3 0.8-0.8 1-0.9 0.1-0.2 0.9-0.9 1.7-1.7 2.8-2.6 3.6-3.3 3.7-3.4h0.1v7.1c0 3.9 0 7.1 0 7.1-0.5 0-1.4-0.6-1.7-1.1-0.6-0.8-0.6-0.9-0.6-4.6 0-1.7 0-3.1 0-3.1v-0.2l-0.2 0.2c-0.1 0.1-0.5 0.5-1 0.9-0.4 0.4-1 1-1.2 1.2-0.2 0.2-0.6 0.5-0.8 0.7-1.5 1.5-2.3 2.2-2.5 2.4-0.3 0.3-0.8 0.7-1.6 1.5-1.2 1.2-1.7 1.7-2.1 1.8-1.4 0.7-3.1 0.1-3.8-1.2-0.3-0.6-0.4-1.3-0.3-3.5 0-2.7 0-4.3-0.1-4.2 0 0-1.4 1.3-3.7 3.5-0.4 0.4-0.9 0.8-1.1 1-0.1 0.2-0.6 0.6-1 1-3.6 3.4-3.7 3.6-4.6 3.9-1.9 0.7-3.7-0.3-4-2.2-0.1-0.2-0.1-1-0.1-5.4 0-2.9 0-5.3 0-5.4v-0.1h-1.9c-2.7 0-2.8-0.1-3.7-0.8-0.4-0.3-0.8-1.1-0.8-1.4 0-0.1 0.6-0.1 4.3-0.1zm-8.5 1.1c0 0 0 14 0 14-0.1 0.1-0.4-0.1-0.6-0.1-0.8-0.4-1.4-1.1-1.6-2-0.1-0.2-0.1-0.3-0.1-3.5 0-2 0-3.3 0-3.3 0 0-0.9 0.8-1.9 1.8-0.2 0.2-0.6 0.5-0.9 0.8-0.2 0.2-0.9 0.9-1.5 1.5-0.6 0.5-1.3 1.2-1.6 1.4-0.2 0.3-0.6 0.6-0.6 0.7-0.2 0.2-1.3 1.2-2 1.9-1.1 1-2.3 1.2-3.4 0.6-0.5-0.2-0.6 0.1 1.5-1.9 0.9-0.8 1.6-1.5 2-1.9 0.2-0.2 0.5-0.5 0.7-0.7 0.2-0.2 0.6-0.5 0.7-0.7 0.6-0.4 1.7-1.5 2-1.7 0.1-0.2 0.6-0.7 1.1-1.1 0.5-0.4 0.9-0.9 1-1 0.2-0.1 1.6-1.4 2.5-2.3 0.3-0.2 0.7-0.6 1-0.9 0.3-0.3 0.7-0.6 0.9-0.8 0.2-0.2 0.4-0.5 0.6-0.6 0.1-0.1 0.2-0.2 0.2-0.2zm-5.4 17.6c0 1.3-0.7 2.1-2.1 2.5-0.5 0.1-0.5 0.1-0.1 0.3 1.1 0.6 1.4 1.1 1.4 2.1 0 1.6-1.2 2.7-3.3 3-0.5 0.1-6.2 0.2-6.3 0.1 0 0 0-0.1 0-0.3 0.3-0.8 0.8-2.7 1.1-4.1 0.3-0.9 0.5-1.7 0.5-1.8 0.3-1 0.7-2.5 0.8-2.8 0.5-1 1.3-1.4 2.7-1.5 3.7-0.2 5.3 0.6 5.3 2.5zm-6-0.7c-0.2 0.2-0.1-0.1-1.3 4.6-0.1 0.3-0.3 0.9-0.4 1.3-0.2 0.9-0.3 1-0.2 1 0.1 0.1 3.4 0.1 3.8-0.1 1.2-0.3 1.7-1.4 0.9-2.3-0.4-0.4-0.6-0.5-1.9-0.5h-1v-0.1c0-0.3 0.2-0.8 0.3-1 0.1-0.2 0.2-0.2 1-0.2 1.1 0 1.5-0.1 2-0.3 0.6-0.4 1-1.2 0.6-1.8-0.2-0.4-0.6-0.6-1.6-0.6-1.8-0.1-2-0.1-2.2 0zm13.9 3.6c-0.1 1-0.2 1.5-0.6 1.6-0.2 0.1-4 0.1-4.5 0.1h-0.2l0.1-0.3c0-0.4 0.2-0.8 0.3-0.9 0.1-0.2 0.1-0.2 1.5-0.2 1.6 0 1.5 0.1 1.5-0.4 0-1.9-2.7-2-3.8-0.1-1.4 2.6 0.4 4.7 3 3.5 0.5-0.3 0.4-0.3 0.8 0.2 0.5 0.7 0.5 0.7 0.3 0.9-1 0.7-2.8 1-4.2 0.6-0.9-0.3-1.6-1-2-1.8-1-2.7 1.1-6 4.1-6.3 2.2-0.2 3.8 1.1 3.7 3.1zm11.8-2.6c0.8 0.4 0.8 0.5 0.3 1.1-0.1 0.2-0.3 0.4-0.3 0.5-0.2 0.2-0.2 0.2-0.5-0.1-1.4-0.8-2.8-0.8-2.9 0.2-0.1 0.4 0.2 0.7 1.4 1.3 1.4 0.6 1.9 1.1 1.9 2.1 0 2.4-2.9 3.4-5.7 2.1-0.6-0.3-0.8-0.5-0.8-0.8 0-0.2 0-0.2 0.5-0.7l0.4-0.4 0.1 0.1c0.1 0 0.2 0.1 0.3 0.2 1.3 1 3.3 0.9 3.3-0.1 0-0.4-0.2-0.6-1.2-1.1-1.8-0.8-2.2-1.3-2.2-2.4 0.1-1.4 1.1-2.3 2.7-2.5 0.9-0.1 1.8 0.1 2.7 0.5zm-8.4-0.4c-0.1 0.1-0.2 0.7-0.2 0.7 0 0 0.2 0 0.3-0.1q0.9-0.6 2.3-0.6c0.5 0 0.5 0.1 0.3 1-0.2 0.9-0.3 0.9-0.8 1-1.1 0.1-1.9 0.4-2.4 0.9-0.2 0.3-0.6 1.5-1.1 3.7-0.2 0.6-0.3 1.1-0.4 1.3v0.2h-0.2c-0.3 0-1.7 0-1.7 0 0-0.1 0.9-3.4 1.3-4.8 0.1-0.3 0.2-0.8 0.3-1.3 0.4-1.4 0.5-2 0.6-2q0 0 0.1 0c0.2-0.1 1.6-0.1 1.6 0zm24.9 1.4c0.1 0.2 0.1 0.2 0.4-0.1 1.4-1.6 3.9-1.8 4.7-0.3 0.4 0.8 0.4 1.5-0.1 3.3-0.1 0.4-0.3 1-0.4 1.4-0.2 0.7-0.5 1.8-0.6 2.2l-0.1 0.2h-0.1c-0.1 0-0.5 0-1 0h-0.9v-0.1c0.1-0.3 0.3-1.1 0.6-1.9 0.7-2.8 0.8-3 0.7-3.4-0.3-1.1-2-1.2-2.7-0.1-0.3 0.4-0.6 1.1-1.1 3.1-0.1 0.5-0.2 1-0.3 1.2 0 0.2-0.1 0.5-0.2 0.6-0.1 0.7 0 0.6-1.2 0.6h-0.9v-0.1c0-0.1 0.2-0.9 0.5-2.1 0.7-2.5 0.8-2.8 0.7-3.2-0.2-1.1-1.7-1.2-2.5-0.3-0.5 0.4-0.6 0.9-1.3 3.4q-0.4 1.8-0.6 2.2v0.1h-1c-1 0-1 0-1-0.1 0-0.1 0.2-0.8 0.4-1.7 0.3-0.8 0.5-1.5 0.7-2.4 0.4-1.4 0.9-3.2 0.9-3.4q0.2-0.2 0.5-0.3c0.2-0.1 1.6-0.1 1.6 0 0 0 0 0.2-0.1 0.4-0.1 0.4-0.1 0.4 0.1 0.3 0.3-0.3 0.5-0.5 0.7-0.5q0.4-0.3 0.8-0.4c1.3-0.2 2.4 0.3 2.8 1.4zm-8.4-0.5c0.7 0.7 0.8 1.5 0.2 3.7-0.2 0.5-0.4 1.4-0.6 1.9-0.1 0.6-0.3 1.2-0.3 1.3l-0.1 0.3h-0.9c-0.7 0-1 0-1 0 0 0 0-0.2 0.1-0.4 0-0.2 0.1-0.4 0.1-0.4q0 0-0.3 0.1c-0.7 0.6-2.2 0.9-3 0.6-1.8-0.6-2.2-2.5-0.7-3.7 0.8-0.8 2.1-1.2 3.4-1.3 0.9 0 0.9 0 0.6 0.8l-0.2 0.3h-0.2c-1.8 0.3-3 1.4-2.3 2.3 0.5 0.6 1.9 0.6 2.6-0.2 0.4-0.4 0.6-0.7 0.9-1.8 0.4-1.5 0.4-1.9 0-2.3-0.5-0.4-1.8-0.5-3.1-0.1-0.4 0.1-0.4 0.1-0.5-0.1-0.3-1.3 0.1-1.7 2.1-1.8 1.3-0.1 2.7 0.2 3.2 0.8zm20.8-0.3c1 0.6 1.1 1.6 0.5 3.8-0.2 0.8-0.6 2.2-0.7 2.7-0.1 0.7-0.2 1-0.3 1 0 0-1.9 0-1.9 0 0 0 0-0.2 0.1-0.4 0.1-0.5 0.1-0.4-0.1-0.3-1 0.7-2.3 0.9-3.3 0.5-2-0.8-1.8-3.1 0.4-4.2 0.9-0.5 2.5-0.8 3.2-0.7l0.1 0.1v0.1c0 0-0.1 0.2-0.2 0.5l-0.2 0.4-0.3 0.1c-1.9 0.3-2.9 1.4-2.1 2.3 0.8 0.7 2.5 0.2 3-0.9 0.3-0.6 0.8-2.5 0.7-2.9-0.1-1-1.5-1.3-3.3-0.7-0.2 0-0.5 0.1-0.5 0.1 0 0-0.1-0.2-0.1-0.6-0.2-0.9 0.3-1.3 2.1-1.4 1.1-0.1 2.3 0.1 2.9 0.5z"/>
		<path id="path1" fill-rule="evenodd" class="s1" d="m3.5 0h63.8l0.4 0.1c1.2 0.2 2 0.7 2.7 1.8 0.3 0.4 0.4 0.6 0.5 1.2l0.1 0.4v35l-0.1 0.3c-0.3 1.6-1.5 2.7-3.1 3.1h-0.4-63.8-0.3c-1.7-0.4-2.9-1.6-3.2-3.1l-0.1-0.4v-17.4c0-19.3 0-17.7 0.2-18.3 0.4-1.3 1.5-2.3 3-2.6zm24 5.9c-1.2 0.2-2 1.1-2.2 2.2l-0.1 0.1h17.9l0.2-0.3c0.6-1 0.2-1.8-0.8-2.1-0.5-0.1-14.6 0-15 0.1zm-6.5 0.1c-0.7 0.1-1 0.4-2.3 1.7-0.4 0.4-1.3 1.2-2 1.9-0.7 0.6-1.5 1.3-1.7 1.5-0.2 0.3-0.7 0.7-1 1-0.3 0.3-0.8 0.8-1.1 1-0.2 0.3-1 1-1.6 1.6-0.7 0.7-1.6 1.5-2.1 1.9-0.4 0.5-0.9 0.9-1 1.1-1 0.9-2.2 2.1-2.4 2.3-0.5 0.7-0.6 2.1-0.2 2.9 0.2 0.4 0.1 0.4 0.7-0.2 0.2-0.2 0.5-0.5 0.7-0.6 0.1-0.1 0.3-0.3 0.4-0.4 0.2-0.2 0.6-0.5 0.9-0.9 0.4-0.3 0.9-0.8 1.2-1.1 0.3-0.2 0.6-0.5 0.8-0.6 0.1-0.2 0.3-0.4 0.6-0.6 0.2-0.2 0.5-0.6 0.8-0.8 0.5-0.4 1.7-1.6 2-1.9 0.2-0.1 0.5-0.4 0.8-0.7 0.2-0.2 0.6-0.6 0.8-0.7 0.1-0.2 0.6-0.6 0.9-0.9 1.8-1.7 3-2.8 3.4-3.2 1.2-1.2 1.8-1.6 1.9-1.7 0.2-0.1 0.6 0 0.7 0.2 0 0.1 0 0.5 0.1 7.9 0 6.2 0 7.7 0 7.7 0.1 0.1 0.5-0.1 0.7-0.2q1.4-0.7 1.6-2.3c0-0.3 0-13.2 0-13.5-0.2-1.2-1-2.2-2.2-2.4-0.4-0.2-1-0.2-1.4 0zm27.6-0.1c-0.4 0.1-0.5 0.1-0.6 0.1-0.7 0.3-0.8 0.4-3.1 2.6-0.5 0.5-1.1 1-1.2 1.1-0.2 0.2-0.7 0.7-1.2 1.1-0.4 0.5-0.9 0.9-1 1-0.2 0.2-0.6 0.6-1.1 1.1-0.5 0.4-1.1 1-1.4 1.3-0.2 0.2-0.7 0.6-1 0.9l-0.4 0.4v-1.9c0-1.1 0-2 0-2 0 0 0.3 0 0.7-0.1 0.8 0 1.1-0.1 1.7-0.4 0.2-0.2 1.9-1.8 1.9-1.8 0 0-1.6 0-3.4 0h-3.4v5.7c0 4.7 0 5.8 0 5.8 0.1 0 0.2-0.2 0.4-0.3 0.3-0.3 0.6-0.6 2.5-2.2 0.5-0.5 1-1 1.1-1.1 0.2-0.1 0.6-0.5 0.9-0.7 1-1 1.8-1.7 2.2-2.1 0.2-0.2 0.6-0.6 1-0.9 0.3-0.3 0.7-0.6 0.9-0.8 0.2-0.2 0.7-0.6 1-0.9 0.4-0.3 0.8-0.8 1.1-1 0.2-0.2 0.7-0.6 1-0.9 1.7-1.6 1.8-1.6 2-1.7 0.2 0 0.4 0.1 0.5 0.3 0.1 0.1 0.1 0.6 0.1 5.9 0 3.1 0 5.7 0 5.7q0 0.1 0.2 0c0.2-0.2 3.2-3 4-3.8 0.2-0.2 0.7-0.6 1-1 0.4-0.3 0.8-0.7 0.9-0.8 0.2-0.1 0.4-0.3 0.5-0.4 0.3-0.3 1.1-1.1 1.6-1.5 0.4-0.4 1-0.9 1.5-1.4 0.1-0.1 0.4-0.4 0.5-0.5 0.1-0.1 0.5-0.4 0.7-0.7 0.3-0.2 0.7-0.6 0.9-0.8 0.9-0.9 1.2-1 1.5-0.7 0.2 0.2 0.2-0.8 0.1 9.9 0 4.2 0 6 0.1 6.1 0.1 0.1 0.8-0.2 1.2-0.5 0.7-0.6 1-1.2 1.1-2.3 0.1-0.7 0-13.2 0-13.5-0.5-2.1-2.9-3-4.7-1.7-0.1 0.1-0.7 0.7-1.3 1.3-1.2 1.1-1.9 1.8-3.5 3.3-0.5 0.5-1 0.9-1.1 1-0.6 0.7-2.9 2.8-2.9 2.8 0 0 0-1.4 0-3.1 0-3.3 0-3.3-0.1-3.8-0.3-1-1.1-1.8-2.2-2-0.3-0.1-1.1-0.1-1.2-0.1zm-14.6 3.4h-8.7v0.1c0.1 0.7 0.8 1.5 1.6 1.9 0.5 0.3 0.7 0.3 3 0.3h1.8v0.3c0.1 0.1 0.1 2.5 0.1 5.3 0 5.5-0.1 5.3 0.1 5.9 0.4 1.2 2 2.1 3.3 1.8 1-0.2 1.6-0.6 2.9-1.8 0.3-0.4 1-1 1.4-1.4 0.8-0.8 1.2-1.1 2-1.9 0.2-0.2 1-0.9 1.7-1.6 0.7-0.6 1.6-1.6 2.2-2.1l0.9-0.8v0.2c0 0.1 0 1.2 0 2.5 0 3.9 0 4.2 0.3 4.9 0.6 1.4 2.2 2 3.7 1.4 0.4-0.2 1-0.6 2.1-1.7 0.7-0.7 1.2-1.1 2-1.9 0.4-0.4 0.9-0.9 1.2-1.2 0.6-0.6 1.6-1.5 2.1-1.9 0.2-0.2 0.7-0.7 1.2-1.2 0.5-0.4 0.9-0.8 0.9-0.8 0 0 0 0.5 0 3.2 0 3.5 0 3.6 0.4 4.3 0.3 0.6 1.3 1.4 1.9 1.4h0.1v-7.2c0-3.9 0-7.1-0.1-7.1 0 0-0.3 0.3-1.7 1.6-0.8 0.7-1.6 1.5-1.9 1.8-0.3 0.2-0.6 0.6-0.8 0.7-0.2 0.2-0.6 0.6-1 1-0.4 0.3-0.9 0.8-1 0.9-0.2 0.2-0.7 0.6-1 1-0.4 0.3-0.9 0.7-1 0.9-0.2 0.2-0.5 0.4-0.6 0.5-0.1 0.1-0.5 0.5-1 0.9-0.4 0.4-0.8 0.8-1 1-0.1 0.1-0.4 0.4-0.6 0.6-1.1 1-1.2 1-1.5 0.8-0.3-0.1-0.2 0.4-0.3-6.1 0-3.2 0-5.8 0-5.8 0 0-0.2 0.1-0.8 0.7-0.4 0.4-1.1 1-1.5 1.4-0.4 0.3-1 0.8-1.2 1-0.4 0.4-1 1-1.7 1.6-0.2 0.2-0.7 0.6-1 0.9-0.3 0.3-0.8 0.7-1 0.9-0.3 0.2-0.7 0.6-1 0.9-0.3 0.3-0.8 0.7-1 0.9-0.2 0.2-0.6 0.5-0.8 0.7-0.2 0.3-1 0.9-1.6 1.5-0.7 0.6-1.4 1.3-1.7 1.5-0.7 0.6-0.9 0.7-1.2 0.4-0.2-0.2-0.2 0.3-0.2-6.7zm-12.9 1.1c0 0-0.3 0.3-0.7 0.7-0.3 0.2-0.6 0.5-0.7 0.6-0.2 0.2-0.5 0.5-0.7 0.7-0.5 0.4-2.5 2.3-3.4 3.1-0.3 0.3-0.9 0.8-1.3 1.3-0.5 0.4-1 0.9-1.2 1.1-0.4 0.4-1.3 1.2-2.4 2.2-0.3 0.3-0.9 0.8-1.2 1.2-0.4 0.3-0.8 0.7-1 0.9-0.2 0.1-0.6 0.5-1 0.9-0.3 0.3-0.7 0.7-0.8 0.7l-0.1 0.2c0.4 0.4 1.6 0.6 2.3 0.4 0.7-0.2 0.8-0.3 3.4-2.7 0.3-0.3 0.7-0.7 1-0.9 0.2-0.2 0.8-0.8 1.4-1.4 0.5-0.5 1.3-1.2 1.7-1.6 0.4-0.4 0.9-0.8 1.1-1 0.2-0.2 0.4-0.4 0.5-0.6 0.2-0.1 0.4-0.3 0.6-0.4l0.2-0.3v0.6c0.1 0.3 0.1 1.6 0 2.9 0 3.3 0 3.5 0.5 4.2 0.4 0.6 1.3 1.2 1.8 1.2 0.1 0 0.1-2.9 0.1-7 0-3.9 0-7-0.1-7zm-11 15.1c-1.6 0.1-2.2 0.7-2.7 2.7-0.2 0.6-0.4 1.5-0.6 2.1-0.9 3.3-1.4 5.2-1.5 5.6v0.1h2.7c3.6 0 3.9 0 5-0.4 1.3-0.5 2.1-1.6 2-2.9-0.1-0.9-0.5-1.4-1.4-1.9-0.4-0.2-0.4-0.2-0.2-0.2 0.9-0.3 1.4-0.5 1.8-0.9 0.6-0.6 0.8-1.6 0.5-2.5-0.3-0.9-1.1-1.5-2.5-1.7-0.4 0-2.6-0.1-3.1 0zm2.7 1.9c1.4 0.3 1.1 2-0.3 2.4-0.3 0.1-0.7 0.1-1.5 0.1-0.9 0-0.9 0-1.1 0.3-0.1 0.2-0.3 0.9-0.3 1.1 0 0 0.1 0 1 0 1.5 0 1.8 0.2 2.1 0.8 0.5 1-0.1 1.9-1.4 2-0.2 0.1-3 0.1-3.2 0.1-0.3 0-0.4 0.3 0.4-2.7 0.2-0.7 0.4-1.5 0.5-1.8 0.6-2.2 0.6-2.3 0.9-2.4 0.2-0.1 2.5 0 2.9 0.1zm3.1 6.8c0.8 1.9 3.6 2.5 5.9 1.3 0.5-0.3 0.5-0.4 0.2-0.8-0.6-0.9-0.5-0.8-1-0.6-1.6 0.8-3.1 0.3-3.4-1.1-0.3-1 0.3-2.5 1.1-3.2 1-0.7 2.5-0.6 2.9 0.2 0.2 0.4 0.2 1.1 0 1.2 0 0-0.6 0-1.3 0-1.5 0-1.5 0-1.6 0.2-0.1 0.2-0.4 1.1-0.3 1.1 0 0.1 1.9 0.1 3.2 0.1l1.4-0.1h0.2c0.2-0.2 0.3-0.4 0.4-0.9 0.4-2-0.6-3.5-2.5-3.8-3.6-0.6-6.6 3.2-5.2 6.4zm14.2-4.5c-0.3 1.4 0.2 2.2 2 2.9 1 0.5 1.3 0.7 1.3 1.1 0 1.1-2 1.1-3.3 0.1-0.4-0.3-0.3-0.3-0.8 0.1-0.5 0.6-0.5 0.6-0.5 0.7 0 0.7 1.8 1.5 3.3 1.5 2 0 3.3-1.1 3.3-2.7 0-1-0.4-1.5-1.7-2.1-1.6-0.7-1.7-0.8-1.7-1.3 0-0.9 1.5-1.1 2.9-0.2 0.4 0.3 0.4 0.3 0.6 0 0.1-0.1 0.2-0.3 0.4-0.4 0.3-0.4 0.3-0.5 0.2-0.7-0.1-0.3-1-0.7-1.8-0.9-2-0.4-3.8 0.5-4.2 1.9zm-4.5-1.9c-0.3 0.1-0.3 0-0.8 2-0.2 0.5-0.3 1.1-0.4 1.4-0.4 1.4-1.3 4.6-1.3 4.7 0 0.1 1.7 0.2 1.9 0.1 0 0 0.2-0.4 0.4-1.5 0.6-2.1 0.8-2.8 1.1-3.4 0.3-0.7 1.2-1.1 2.4-1.2 0.6-0.1 0.6-0.1 0.9-1 0.3-1.1 0.2-1.1-0.9-1-0.8 0.1-1.2 0.2-1.7 0.5-0.3 0.2-0.3 0.2-0.2-0.2 0-0.2 0.1-0.3 0.1-0.4 0 0-1.3 0-1.5 0zm22.2 0.7c-0.1 0.2-0.3 0.3-0.3 0.3 0 0 0.1-0.2 0.1-0.4 0.1-0.2 0.1-0.4 0.1-0.4 0 0-1.2 0-1.5 0-0.6 0.1-0.6 0.1-1.1 2-0.1 0.3-0.3 1.2-0.5 2-1 3.5-1.1 3.8-1.1 3.9v0.1h2.1v-0.2c0.1-0.3 0.2-0.6 0.7-2.4 0.6-2.5 0.8-2.8 1.2-3.3 0.9-0.7 2.1-0.5 2.4 0.3 0.1 0.4 0.1 0.8-0.2 1.7-0.5 1.8-1 3.8-1 3.9 0 0 0.4 0 1 0h1l0.1-0.1c0-0.1 0.1-0.3 0.1-0.5 0.1-0.2 0.1-0.5 0.2-0.6 0-0.2 0.2-0.8 0.3-1.3 0.3-1.2 0.6-2.1 0.7-2.5 0.7-1.7 3-1.8 3-0.1 0 0.4 0 0.5-0.4 1.9-0.6 2.2-0.8 3.1-0.8 3.2 0 0 0.3 0 1 0h1v-0.1c0.1-0.1 0.3-0.9 0.5-1.8 0.3-0.8 0.5-1.8 0.6-2 0.5-1.8 0.5-2.7-0.1-3.5-0.9-1.2-3.3-0.9-4.6 0.5-0.3 0.4-0.2 0.4-0.3 0.1-0.3-0.7-0.9-1.2-1.8-1.3-0.8-0.2-1.7 0.1-2.4 0.6zm-7.6-0.6c-1.7 0.1-2.2 0.5-2 1.7 0.1 0.5 0 0.4 0.7 0.2 1.7-0.5 3.1-0.1 3.2 0.8 0.1 0.4-0.4 2.3-0.7 2.9-0.7 1.3-2.7 1.6-3.2 0.6-0.4-0.9 0.7-1.8 2.4-2l0.3-0.1 0.2-0.4c0.3-0.7 0.3-0.8-0.5-0.8-3.5 0.1-5.8 2.9-3.7 4.6 0.9 0.8 2.8 0.8 3.9-0.1 0.2-0.1 0.2-0.1 0.1 0.3 0 0.2-0.1 0.4-0.1 0.4 0 0 0.4 0 1 0h1v-0.2c0.1-0.2 0.5-1.7 0.7-2.4 0.1-0.4 0.3-1 0.3-1.3 0.3-1 0.4-1.6 0.4-2-0.1-1.4-1.1-2.1-2.9-2.2-0.5 0-0.6 0-1.1 0zm19.5 0.4c-0.4 0.2-0.5 0.6-0.3 1.4 0 0.3 0 0.3 0.5 0.2 0.8-0.2 1.1-0.3 1.9-0.3 1.2 0.1 1.6 0.5 1.4 1.6-0.1 0.7-0.5 2-0.7 2.4-0.7 1.2-2.7 1.5-3.1 0.5-0.4-0.9 0.6-1.8 2.3-2l0.3-0.1 0.1-0.3c0.5-0.8 0.4-0.8-0.3-0.8-3.1 0-5.4 2.1-4.3 4 0.8 1.2 2.9 1.4 4.4 0.5 0.1-0.1 0.2-0.2 0.2-0.2 0 0 0 0.2-0.1 0.4 0 0.2-0.1 0.4-0.1 0.4q0 0 1 0h1l0.1-0.3c0-0.1 0.2-0.8 0.4-1.4 0.2-0.7 0.4-1.5 0.5-2 0.1-0.4 0.3-0.9 0.3-1q0.6-3-2.4-3.3c-1.1-0.2-2.6 0-3.1 0.3z"/>
		<path id="path2" fill-rule="evenodd" class="s2" d="m41.1 5.8q0.2 0 0.1 0c-0.1 0-0.2 0-0.2 0q-0.1 0 0.1 0zm0.9 0q0.1 0 0 0 0 0-0.1 0 0 0 0.1 0zm-13.9 0q0.1 0 0 0 0 0.1-0.1 0 0 0 0.1 0zm-6.3 0.1q0.2 0 0.1 0c-0.1 0-0.2 0-0.2 0q-0.1 0 0.1 0zm27 0q0 0 0 0 0 0-0.1 0 0 0 0.1 0zm13.9 0q0.2 0 0.2 0c-0.1 0-0.2 0-0.3 0q0 0 0.1 0zm-39.1 0.7c0 0 0.1 0 0.2 0.1 0.1 0.1 0.2 0.2 0.2 0.2 0 0-0.1-0.1-0.2-0.2-0.1-0.1-0.2-0.1-0.2-0.1zm41.1 0q0 0.1 0.1 0.2 0.1 0 0.1 0.1 0-0.1-0.1-0.1-0.1-0.1-0.1-0.2zm-17.8 0.2q0 0-0.1 0.1l-0.1 0.1 0.1-0.1q0-0.1 0.1-0.1zm-3.3 0.1c0 0 0 0.2 0 0.2q0 0.1 0-0.1 0-0.2 0-0.1zm16.7 0.2c0 0 0 0.1-0.1 0.2l-0.2 0.1 0.2-0.1c0.1-0.2 0.1-0.2 0.1-0.2zm-41.1 0.1c0 0-0.1 0.2-0.3 0.3l-0.2 0.3 0.2-0.3c0.2-0.2 0.3-0.3 0.3-0.3zm27.2 0c0 0-0.1 0.1-0.2 0.2l-0.2 0.2 0.2-0.2c0.1-0.2 0.2-0.2 0.2-0.2zm-0.6 0.6c0 0-0.1 0.1-0.2 0.2l-0.2 0.2 0.2-0.2c0.1-0.2 0.2-0.2 0.2-0.2zm13.6 0.2c0 0-0.1 0.1-0.2 0.2l-0.3 0.3 0.3-0.3c0.2-0.2 0.2-0.2 0.2-0.2zm-41.4 0.4q0 0-0.1 0.1c-0.1 0.1-0.2 0.1-0.2 0.1q0 0 0.1-0.1c0.1-0.1 0.2-0.1 0.2-0.1zm3.8 0.1q0.1 0 0 0 0 0.1-0.1 0 0 0 0.1 0zm2.9 0.1c0 0.1 0 0.2 0 0.2q0 0.1 0-0.1 0-0.1 0-0.1zm24 0q0 0-0.1 0.1h-0.1 0.1q0.1-0.2 0.1-0.1zm-3.8 0c0 0-0.1 0.1-0.2 0.2l-0.2 0.2 0.2-0.2c0.2-0.2 0.2-0.2 0.2-0.2zm-23.5 0.1c0 0-0.1 0-0.2 0.2l-0.2 0.1 0.2-0.1c0.1-0.1 0.1-0.2 0.2-0.2zm40.7 0.1q0 0-0.1 0.1l-0.1 0.1 0.1-0.1q0-0.1 0.1-0.1zm-44.6 0.1c0 0-0.1 0.1-0.3 0.2-0.1 0.1-0.2 0.2-0.2 0.2 0 0 0.1-0.1 0.2-0.2 0.1-0.1 0.2-0.2 0.3-0.2zm45.8 0.2c0 0 0 0.1 0 0.2q0 0.1 0-0.1 0-0.2 0-0.1zm-41 3.5c0 2 0 5.2 0 7.2 0 2 0 0.4 0-3.6 0-3.9 0-5.6 0-3.6zm36-3.5c0 0-0.1 0.1-0.2 0.2l-0.2 0.2 0.2-0.2c0.2-0.2 0.2-0.3 0.2-0.2zm-37.5 0.1c0 0-0.1 0.1-0.2 0.2l-0.2 0.2 0.2-0.2c0.2-0.2 0.2-0.2 0.2-0.2zm40.8 0c0 0-0.1 0.1-0.2 0.2l-0.2 0.2 0.2-0.2c0.2-0.2 0.2-0.2 0.2-0.2zm-26.4 3c0 1.5 0 4.1 0 5.7 0 1.6 0 0.3 0-2.9 0-3.1 0-4.4 0-2.8zm4.6-2.9c1.2 0 1.6 0 1.1 0-0.6 0-1.6 0-2.1 0-0.6 0-0.1 0 1 0zm8 0.1c0 0-0.1 0.1-0.1 0.1l-0.2 0.2 0.1-0.2c0.2-0.1 0.2-0.1 0.2-0.1zm-3.8 0.1q0 0-0.2 0.2c0 0-0.1 0.1-0.1 0.1q0 0 0.1-0.1c0.1-0.1 0.2-0.2 0.2-0.2zm-2.3 0.1q0 0-0.1 0.1c-0.1 0.1-0.2 0.1-0.2 0.1q0 0 0.1-0.1c0.1-0.1 0.2-0.1 0.2-0.1zm-25 0c0 0 0 0-0.1 0.2l-0.2 0.1 0.2-0.2c0 0 0.1-0.1 0.1-0.1zm41 0q0 0.1-0.1 0.2c-0.1 0.1-0.2 0.1-0.2 0.1q0 0 0.1-0.1c0.1-0.1 0.2-0.2 0.2-0.2zm-37.4 0.1c0 0-0.1 0.1-0.2 0.2l-0.2 0.2 0.2-0.2c0.2-0.2 0.2-0.2 0.2-0.2zm40.7 0.1q0 0-0.1 0.1l-0.1 0.1 0.1-0.1q0.1-0.1 0.1-0.1zm-19.8 0.2q0 0-0.1 0.1l-0.1 0.1 0.1-0.1q0.2-0.2 0.1-0.1zm7.6 2.7c0 1.4 0 3.9 0 5.3 0 1.5 0 0.3 0-2.6 0-3 0-4.2 0-2.7zm-5.4-2.6c0 0-0.1 0.1-0.3 0.2l-0.2 0.3 0.2-0.3c0.2-0.2 0.3-0.2 0.3-0.2zm8.7 0.1c0.1 0.1 0.1 0.1 0 0.2q0 0.1 0-0.1 0-0.2 0-0.1zm13.6 2.8c0 1.6 0 4.1 0 5.7 0 1.6 0 0.3 0-2.8 0-3.2 0-4.5 0-2.9zm-5.1-2.8q-0.1 0.1-0.2 0.2l-0.1 0.1 0.1-0.1c0.1-0.2 0.2-0.2 0.2-0.2zm-44.6 0.1c0 0 0 0-0.2 0.2l-0.2 0.1 0.2-0.1c0.1-0.1 0.2-0.2 0.2-0.2zm41 0q0 0-0.1 0.1c-0.1 0.1-0.1 0.2-0.2 0.2q0-0.1 0.2-0.2c0 0 0.1-0.1 0.1-0.1zm-10.3 0.1q0 0-0.1 0.1l-0.1 0.1 0.1-0.1q0.1-0.2 0.1-0.1zm-27.1 0q0 0-0.2 0.1c0 0.1-0.1 0.2-0.1 0.2q0 0 0.1-0.2c0.1 0 0.1-0.1 0.2-0.1zm21.2 0q0 0-0.1 0.1l-0.2 0.1 0.1-0.1q0.2-0.1 0.2-0.1zm7.5 0q0 0-0.1 0.1l-0.1 0.1 0.1-0.1q0.1-0.1 0.1-0.1zm13.6 0.1q0 0-0.1 0.1l-0.1 0.1 0.1-0.1q0.1-0.1 0.1-0.1zm-36 0.1c0 0 0.1 0 0.2 0.1 0.1 0.1 0.1 0.2 0.1 0.2 0 0 0-0.1-0.1-0.2-0.1-0.1-0.2-0.1-0.2-0.1zm-5.1 0.1q0 0-0.1 0.1l-0.1 0.1 0.1-0.1q0.1-0.1 0.1-0.1zm27.1 0q0.1 0-0.1 0.1l-0.1 0.1 0.1-0.1q0.1-0.1 0.1-0.1zm12.1 0q0 0-0.1 0.2c-0.1 0-0.1 0.1-0.1 0.1q0 0 0.1-0.1c0-0.1 0.1-0.2 0.1-0.2zm-44.6 0.1c0 0-0.1 0.1-0.2 0.2l-0.2 0.2 0.2-0.2c0.2-0.2 0.2-0.2 0.2-0.2zm41.1 0q0 0-0.1 0.1c-0.1 0.1-0.2 0.2-0.2 0.2q0-0.1 0.1-0.2c0.1 0 0.2-0.1 0.2-0.1zm5 0q0 0-0.1 0.1l-0.1 0.1 0.1-0.1q0.1-0.1 0.1-0.1zm-42.4 0.1q0-0.1-0.1 0.1l-0.1 0.1 0.1-0.1q0.1-0.1 0.1-0.1zm23.5 0c0 0-0.1 0-0.3 0.2l-0.3 0.3 0.3-0.3c0.1-0.1 0.3-0.2 0.3-0.2zm4.9 0.2q0 0-0.1 0.1l-0.1 0.1 0.1-0.1q0.2-0.1 0.1-0.1zm12.1 0.1q-0.1 0-0.2 0.1l-0.1 0.1 0.1-0.1q0.2-0.2 0.2-0.1zm-41 0.1c0 0 0 0.1-0.1 0.1l-0.2 0.2 0.2-0.2c0.1-0.1 0.1-0.1 0.1-0.1zm27.1 0q0 0-0.1 0.1l-0.1 0.1 0.1-0.1q0.1-0.1 0.1-0.1zm15.3 0c0 0 0 0-0.2 0.2l-0.1 0.1 0.1-0.2q0.1-0.1 0.2-0.1zm-5.1 0.1c0 0-0.1 0.1-0.2 0.1l-0.2 0.2 0.2-0.2c0.1-0.1 0.2-0.1 0.2-0.1zm-41.3 0.2q0 0-0.1 0.1c0 0.1-0.1 0.1-0.1 0.1q0 0 0.1-0.1c0.1-0.1 0.1-0.1 0.1-0.1zm13.6 0q0.1 0 0.1 0-0.1 0-0.2 0 0 0 0.1 0zm2.9 0c0.3 0 0.5 0 0.3 0-0.2 0-0.5 0-0.7 0-0.1 0 0 0 0.4 0zm6.6 0q0.1 0 0.1 0-0.1 0-0.1 0 0 0 0 0zm9.3 0q0 0-0.1 0.1h-0.1 0.1q0.1-0.1 0.1-0.1zm-15.2 0.1q0 0 0 0.1 0 0.1 0-0.1 0-0.1 0 0zm-7.1 2c0 1.1 0 3 0 4.1 0 1.2 0 0.2 0-2 0-2.3 0-3.2 0-2.1zm17-2.1q0.1 0-0.1 0.2h-0.1l0.1-0.1q0.1 0 0.1-0.1zm17.3 0.1q0 0-0.1 0.1c-0.1 0.1-0.1 0.1-0.1 0.1q0 0 0.1-0.1c0-0.1 0.1-0.1 0.1-0.1zm-40.9 0.1q0 0-0.1 0.1l-0.1 0.1 0.1-0.1q0.1-0.1 0.1-0.1zm42.4 0q0 0-0.1 0.1l-0.1 0.1 0.1-0.1q0.1-0.1 0.1-0.1zm-13.8 0.1q0-0.1-0.1 0.1h-0.1l0.1-0.1q0.1 0 0.1 0zm-27.3 0.1c0 0-0.1 0.2-0.3 0.3l-0.3 0.3 0.3-0.3c0.3-0.3 0.3-0.3 0.3-0.3zm21.9 0c0 0-0.1 0.1-0.2 0.3-0.1 0.1-0.2 0.2-0.2 0.2 0 0 0.1-0.1 0.2-0.2 0.1-0.2 0.2-0.3 0.2-0.3zm17.3 0.1q0 0-0.1 0.1l-0.1 0.1 0.1-0.1q0-0.1 0.1-0.1zm-44.6 0c0.1 0 0 0-0.2 0.2l-0.2 0.2 0.2-0.2c0.1-0.1 0.2-0.2 0.2-0.2zm3.7 0.1q0 0-0.2 0.1c0 0.1-0.1 0.1-0.1 0.1q0 0 0.1-0.1c0.1-0.1 0.2-0.1 0.2-0.1zm27 0c0 0-0.1 0.1-0.2 0.2l-0.1 0.1 0.1-0.1c0.2-0.2 0.2-0.2 0.2-0.2zm1.6 0q0 0-0.1 0.1l-0.1 0.1 0.1-0.1q0.1-0.1 0.1-0.1zm13.7 0c0 0-0.1 0.1-0.2 0.2l-0.1 0.1 0.1-0.1c0.2-0.2 0.2-0.2 0.2-0.2zm-5.2 0.2q0 0-0.1 0.1c0 0.1-0.1 0.1-0.1 0.1q0 0 0.1-0.1c0.1-0.1 0.1-0.1 0.1-0.1zm8.5 0.5c0 0.4 0 0.9 0 1.2 0 0.4 0 0.1 0-0.6 0-0.6 0-0.9 0-0.6zm-13.5 1.2c0 0.9 0 2.4 0 3.3 0 1 0 0.2 0-1.6 0-1.8 0-2.6 0-1.7zm8.2-1.5c0.1 0 0 0-0.2 0.2l-0.2 0.2 0.2-0.2c0.1-0.1 0.2-0.2 0.2-0.2zm-40.9 0q0.1 0-0.1 0.2l-0.1 0.1 0.1-0.1q0.1-0.1 0.1-0.2zm-3.7 0.1c0 0-0.1 0.1-0.2 0.2l-0.2 0.2 0.2-0.2c0.2-0.2 0.2-0.2 0.2-0.2zm5.3 0c0 0 0 0.1-0.2 0.2l-0.1 0.1 0.1-0.1q0.1-0.2 0.2-0.2zm40.8 0q0 0-0.1 0.1l-0.1 0.1 0.1-0.1q0-0.1 0.1-0.1zm-18.9 0.1c0 0-0.1 0-0.3 0.3l-0.3 0.3 0.2-0.3c0.2-0.2 0.3-0.3 0.4-0.3zm5 0q0 0 0 0.1l-0.1 0.1v-0.1q0.2-0.1 0.1-0.1zm8.7 0.1c0 0-0.1 0.1-0.2 0.2l-0.2 0.1 0.2-0.1c0.1-0.2 0.2-0.2 0.2-0.2zm-37.5 0.1c0 0 0 0-0.2 0.1l-0.1 0.1 0.1-0.1q0.1-0.1 0.2-0.1zm15 1.1c0 0.6 0 1.5 0 2 0 0.6 0 0.1 0-1 0-1.1 0-1.6 0-1zm13.5-1q0 0-0.1 0.1l-0.1 0.1 0.1-0.1q0.1-0.1 0.1-0.1zm13.7 0.1c0 0-0.1 0-0.2 0.1l-0.1 0.2 0.1-0.2c0.2-0.1 0.2-0.2 0.2-0.1zm-40.9 0.1q0 0-0.1 0.1c-0.1 0.1-0.2 0.1-0.2 0.1q0 0 0.2-0.1c0-0.1 0.1-0.1 0.1-0.1zm-1.8 0.2q0 0-0.1 0.1c-0.1 0.1-0.2 0.1-0.2 0.1q0 0 0.1-0.1c0.1-0.1 0.2-0.1 0.2-0.1zm-3.8 0.1q0.1 0-0.1 0.1v0.1-0.1q0.1-0.1 0.1-0.1zm41 0.1c0 0-0.1 0-0.2 0.1l-0.1 0.2 0.1-0.2c0.2-0.1 0.2-0.2 0.2-0.1zm-13.9 0c0 0-0.1 0.1-0.1 0.1l-0.2 0.2 0.1-0.2c0.2-0.1 0.2-0.1 0.2-0.1zm17.3 0q0 0-0.1 0.1c-0.1 0.1-0.2 0.1-0.2 0.1q0 0 0.1-0.1c0.1-0.1 0.2-0.1 0.2-0.1zm1.6 0q-0.1 0-0.2 0.1l-0.1 0.1 0.1-0.1q0.2-0.2 0.2-0.1zm-40.9 0c0 0 0 0-0.1 0.1l-0.1 0.2 0.1-0.2q0.1-0.1 0.1-0.1zm-1.8 0.3q0 0-0.1 0l-0.1 0.1 0.1-0.1q0.1-0.1 0.1 0zm-3.7 0c0 0-0.1 0.1-0.3 0.3l-0.2 0.2 0.2-0.3c0.2-0.2 0.3-0.2 0.3-0.2zm30.6 0q0 0-0.1 0.1l-0.1 0.1 0.1-0.1q0.1-0.1 0.1-0.1zm1.6 0q0 0.1-0.1 0.1l-0.1 0.2 0.1-0.2q0.1-0.1 0.1-0.1zm12.2 0.1q0 0-0.1 0.1l-0.1 0.1 0.1-0.1q0.1-0.2 0.1-0.1zm1.5 0c0 0 0 0.1-0.2 0.2l-0.2 0.2 0.2-0.2c0.2-0.2 0.2-0.3 0.2-0.2zm-40.9 0.1c0 0 0 0.1-0.1 0.2l-0.2 0.1 0.2-0.2c0.1-0.1 0.1-0.1 0.1-0.1zm-1.7 0.1c0 0-0.1 0.1-0.2 0.2l-0.2 0.2 0.2-0.2c0.1-0.2 0.2-0.2 0.2-0.2zm23.5 0q0.1 0-0.1 0.1l-0.1 0.1 0.1-0.1q0.1-0.1 0.1-0.1zm13.9 0q0 0-0.1 0.2c-0.1 0-0.2 0.1-0.2 0.1q0 0 0.1-0.1c0.1-0.1 0.2-0.2 0.2-0.2zm3.2 0.2q0 0-0.1 0.1c-0.1 0.1-0.2 0.2-0.2 0.2q0 0 0.2-0.2c0 0 0.1-0.1 0.1-0.1zm1.4 0.2q0 0-0.1 0.1h-0.1l0.1-0.1q0.1-0.1 0.1 0zm-40.8 0q0 0-0.1 0.1l-0.1 0.1 0.1-0.1q0.1-0.1 0.1-0.1zm21.9 0c0 0-0.1 0.1-0.2 0.3l-0.3 0.2 0.3-0.3c0.2-0.2 0.2-0.2 0.2-0.2zm-27.2 0c0 0 0 0-0.1 0.2l-0.2 0.1 0.2-0.1c0-0.1 0.1-0.2 0.1-0.2zm3.5 0.2q0 0-0.1 0.1l-0.1 0.1 0.1-0.1q0.1-0.2 0.1-0.1zm40.8 0q-0.1 0-0.1 0.1l-0.1 0.1 0.1-0.1q0.1-0.1 0.1-0.1zm-12.3 0.1q-0.1 0-0.1 0.1l-0.1 0.1v-0.1q0.2-0.2 0.2-0.1zm13.7 0c0 0-0.1 0.1-0.2 0.2l-0.1 0.2 0.1-0.2c0.2-0.2 0.2-0.2 0.2-0.2zm-15.6 0.2q0.1 0-0.1 0.1l-0.1 0.1 0.1-0.1q0.1-0.1 0.1-0.1zm-27.1 0.1q0 0-0.1 0.1c-0.1 0.1-0.1 0.2-0.1 0.2q0-0.1 0.1-0.2c0 0 0.1-0.1 0.1-0.1zm32 0q0.1 0.1 0 0.2 0 0.1 0-0.1 0-0.1 0-0.1zm8.8 0c0 0 0 0.1-0.1 0.2l-0.2 0.1 0.2-0.2c0.1-0.1 0.1-0.1 0.1-0.1zm-8.9 0.1c0.1 0 0 0-0.1 0.1l-0.1 0.1 0.1-0.1q0.1-0.1 0.1-0.1zm-8.4 0q0 0-0.1 0.1l-0.1 0.1 0.1-0.1q0.1-0.1 0.1-0.1zm-27.3 0.1c0 0 0 0-0.1 0.1l-0.1 0.1 0.1-0.1q0.1-0.1 0.1-0.1zm45.9 0.1q0 0-0.1 0.1l-0.1 0.1 0.1-0.1q0.1-0.1 0.1-0.1zm3.5 0q0 0 0 0.1 0 0.1 0 0.1 0 0-0.1-0.1 0-0.1 0.1-0.1zm-17.4 0q0.1 0-0.1 0.1l-0.1 0.1 0.1-0.1q0.1-0.1 0.1-0.1zm-23.6 0.2c0 0 0 0.1 0 0.2q0 0.1 0-0.1 0-0.2 0-0.1zm-3.5-0.1q0 0-0.1 0.2c0 0-0.1 0.1-0.1 0.1q0 0 0.1-0.1c0.1-0.1 0.1-0.2 0.1-0.2zm3.2 0c0.1 0 0 0.1-0.1 0.2l-0.2 0.2 0.2-0.2c0-0.1 0.1-0.2 0.1-0.2zm-4.8 0.1q0 0-0.1 0.1l-0.1 0.1 0.1-0.1q0.1-0.1 0.1-0.1zm40.8 0q0 0-0.1 0.1l-0.1 0.1 0.1-0.1q0.1-0.1 0.1-0.1zm-12.4 0.1q0.1 0-0.1 0.1l-0.1 0.1 0.1-0.1q0.1-0.1 0.1-0.1zm-32.1 0c0 0-0.1 0.1-0.2 0.2-0.2 0.2-0.3 0.3-0.3 0.3 0 0 0.1-0.1 0.2-0.3 0.1-0.1 0.2-0.2 0.3-0.2zm45.9 0c0 0 0 0.1-0.1 0.2l-0.2 0.2 0.2-0.2c0-0.1 0.1-0.2 0.1-0.2zm-10.4 0.1c0 0 0 0-0.2 0.1l-0.2 0.2 0.2-0.2c0.1-0.1 0.2-0.1 0.2-0.1zm0.8 0.3c0 0.2 0 0.6 0 0.8 0 0.2 0 0 0-0.4 0-0.4 0-0.6 0-0.4zm-6-0.2q0 0-0.1 0.1l-0.1 0.1 0.1-0.1q0.1-0.1 0.1-0.1zm13.9 0c0 0-0.1 0.1-0.2 0.2l-0.2 0.1 0.2-0.1c0.1-0.2 0.2-0.2 0.2-0.2zm5 0c0 0-0.1 0.1-0.3 0.2-0.1 0.2-0.2 0.3-0.2 0.3 0 0 0.1-0.1 0.2-0.3 0.1-0.1 0.2-0.2 0.3-0.2zm-46 0.1q0 0-0.1 0.1c0 0.1-0.1 0.2-0.1 0.2q0 0 0.1-0.2c0.1 0 0.1-0.1 0.1-0.1zm4.8 0q0 0-0.1 0.2l-0.1 0.1 0.1-0.2q0.1-0.1 0.1-0.1zm35.8 0.2q0.1 0-0.1 0.2l-0.1 0.1 0.1-0.1q0.1-0.1 0.1-0.2zm6 0.6c0 0.4 0 0.9 0 1.2 0 0.3 0 0.1 0-0.6 0-0.6 0-0.9 0-0.6zm-19.9-0.5q0 0-0.1 0.1l-0.1 0.1 0.1-0.1q0-0.1 0.1-0.1zm-25.4 0c0 0 0 0.1-0.1 0.2l-0.1 0.1 0.1-0.1q0.1-0.2 0.1-0.2zm40.8 0.1q0-0.1-0.1 0.1l-0.1 0.1 0.1-0.1q0.1-0.1 0.1-0.1zm-46.1 0.1c0 0-0.2 0.1-0.3 0.3l-0.4 0.3 0.3-0.3c0.4-0.3 0.4-0.4 0.4-0.3zm35.5 0c0.1 0 0 0-0.1 0.2l-0.2 0.1 0.2-0.2c0.1 0 0.1-0.1 0.1-0.1zm-32 0.1q-0.1 0-0.1 0.1l-0.1 0.1v-0.1q0.2-0.2 0.2-0.1zm4.7 0q0 0-0.1 0.1c-0.1 0.1-0.1 0.2-0.2 0.2q0-0.1 0.2-0.2c0 0 0.1-0.1 0.1-0.1zm36 0q0 0-0.1 0.1l-0.1 0.1 0.1-0.1q0.1-0.1 0.1-0.1zm1.5 0.1c0 0-0.1 0.1-0.2 0.2l-0.1 0.1 0.1-0.1c0.2-0.2 0.2-0.2 0.2-0.2zm-40.9 0.1c0 0-0.1 0.1-0.1 0.2l-0.2 0.1 0.1-0.1c0.2-0.2 0.2-0.2 0.2-0.2zm44.2 0.1c0 0-0.1 0.1-0.2 0.2-0.1 0.1-0.3 0.2-0.3 0.2 0 0 0.1-0.1 0.2-0.2 0.2-0.1 0.3-0.2 0.3-0.2zm-46 0c0 0 0 0.1-0.1 0.2l-0.1 0.1 0.1-0.1q0.1-0.1 0.1-0.2zm40.8 0.1c0 0 0 0-0.2 0.2l-0.1 0.1 0.1-0.1c0.1-0.1 0.2-0.2 0.2-0.2zm-8.9 0.1c0 0 0 0-0.1 0.1l-0.2 0.1 0.2-0.1q0.1-0.1 0.1-0.1zm-30.9 0.4c0 0 0 0.1-0.2 0.2-0.1 0.1-0.2 0.2-0.2 0.2 0 0 0.1-0.1 0.2-0.2 0.1-0.1 0.2-0.2 0.2-0.2zm26.9 0q0.1 0-0.1 0.1l-0.1 0.1 0.1-0.1q0.1-0.1 0.1-0.1zm12.3 0.1q0 0-0.1 0.1c-0.1 0.1-0.1 0.1-0.2 0.1q0 0 0.2-0.1c0-0.1 0.1-0.1 0.1-0.1zm1.5 0c0 0-0.1 0.1-0.1 0.2l-0.2 0.1 0.2-0.1c0.1-0.2 0.1-0.2 0.1-0.2zm-37.6 0.1q0 0-0.2 0.1l-0.1 0.1 0.1-0.1q0.1-0.1 0.2-0.1zm-8.4 0c0 0-0.1 0.1-0.2 0.2-0.2 0.2-0.3 0.3-0.3 0.3 0 0 0.1-0.1 0.2-0.3 0.1-0.1 0.2-0.2 0.3-0.2zm3.5 0q0 0-0.1 0.1c-0.1 0.1-0.1 0.2-0.2 0.2q0 0 0.2-0.2c0 0 0.1-0.1 0.1-0.1zm32 0.1c0 0 0 0-0.2 0.1l-0.2 0.2 0.2-0.2c0.1-0.1 0.2-0.1 0.2-0.1zm13.7 0q0 0-0.1 0.2c0 0-0.1 0.1-0.1 0.1q0 0 0.1-0.1c0.1-0.1 0.1-0.2 0.1-0.2zm-10.9 0.6c0.1 0.2 0.1 0.5 0 0.7 0 0.2 0 0.1 0-0.3 0-0.5 0-0.6 0-0.4zm5.7-0.4c0 0-0.1 0.1-0.1 0.2l-0.2 0.1 0.1-0.1c0.2-0.2 0.2-0.2 0.2-0.2zm-36.1 0.1q0.1 0-0.1 0.1l-0.1 0.1 0.1-0.1q0.1-0.1 0.1-0.1zm37.4 0.2q0.1 0-0.1 0.1l-0.1 0.1 0.1-0.1q0.1-0.1 0.1-0.1zm-10.5 0.1c0 0-0.1 0.1-0.2 0.2l-0.2 0.2 0.2-0.2c0.2-0.2 0.2-0.2 0.2-0.2zm13.8 0c0 0-0.1 0.1-0.2 0.2l-0.1 0.2 0.1-0.2c0.2-0.2 0.2-0.2 0.2-0.2zm-49.4 0.1q0 0-0.2 0.1c0 0.1-0.1 0.1-0.1 0.1q0 0 0.1-0.1c0.1-0.1 0.1-0.1 0.2-0.1zm3.5 0c0 0 0 0-0.1 0.1l-0.1 0.1 0.1-0.1q0.1-0.1 0.1-0.1zm1.6 0c0 0 0 0-0.2 0.2l-0.1 0.1 0.1-0.2c0.1 0 0.2-0.1 0.2-0.1zm40.7 0.1c0 0-0.1 0.1-0.2 0.2l-0.2 0.1 0.2-0.2c0.2-0.1 0.2-0.1 0.2-0.1zm-1.6 0q0.1 0-0.1 0.1l-0.1 0.1 0.1-0.1q0.1-0.1 0.1-0.1zm-12.5 0.1q0.1 0-0.1 0.1l-0.1 0.1 0.1-0.1q0.1-0.1 0.1-0.1zm-23.9 0.2c0.1 0 0 0-0.1 0.2l-0.2 0.2 0.2-0.2c0.1-0.1 0.1-0.2 0.1-0.2zm-4.8 0.1q0 0-0.1 0.1h-0.1l0.1-0.1q0.1-0.1 0.1 0zm40.7 0q0.1 0-0.1 0.2l-0.1 0.1 0.1-0.2q0.1-0.1 0.1-0.1zm-8.8 0.1q0.1 0-0.1 0.1l-0.1 0.1 0.1-0.1q0.1-0.1 0.1-0.1zm10.3 0c0 0 0 0-0.1 0.2l-0.1 0.1 0.1-0.2q0.1-0.1 0.1-0.1zm-33.5 0.4c0 0.1 0 0.4 0 0.6 0 0.2 0 0 0-0.3 0-0.4 0-0.5 0-0.3zm-9.1-0.1q0-0.1-0.1 0.1l-0.2 0.1 0.1-0.1q0.1-0.1 0.2-0.1zm1.6 0c0 0-0.1 0-0.3 0.2l-0.2 0.2 0.2-0.2c0.2-0.1 0.2-0.2 0.3-0.2zm44.2 0c0.1 0 0 0-0.2 0.2l-0.2 0.2 0.2-0.2c0.1-0.1 0.2-0.2 0.2-0.2zm-5.1 0.1q0 0-0.1 0.1l-0.1 0.1 0.1-0.1q0-0.1 0.1-0.1zm-12.6 0.1q0.1 0 0 0.1l-0.1 0.1 0.1-0.1q0-0.1 0-0.1zm14 0c0.1 0 0 0-0.1 0.1l-0.1 0.1 0.1-0.1q0.1-0.1 0.1-0.1zm-15.6 0q0 0-0.1 0.1l-0.1 0.1 0.1-0.1q0.1-0.1 0.1-0.1zm5.1 0.1c0 0 0 0.1-0.2 0.2l-0.1 0.2 0.1-0.2c0.1-0.1 0.2-0.2 0.2-0.2zm-7.3 0.5c0 0.3 0 0.8 0 1 0 0.3 0 0.1 0-0.5 0-0.5 0-0.7 0-0.5zm-24.8-0.4c0 0 0 0-0.1 0.1l-0.2 0.1 0.2-0.1q0.1-0.1 0.1-0.1zm1.5 0.1q0 0-0.1 0.1l-0.1 0.1 0.1-0.1q0.1-0.1 0.1-0.1zm3.1 0.1q0 0-0.1 0.1c-0.1 0.1-0.1 0.2-0.1 0.2q0 0 0.1-0.2c0.1 0 0.1-0.1 0.1-0.1zm37.5 0.1q0 0-0.1 0.1l-0.1 0.1 0.1-0.1q0.1-0.1 0.1-0.1zm8.5 0.3c0 0.1 0 0.4 0 0.5 0 0.2 0 0.1 0-0.2 0-0.4 0-0.5 0-0.3zm-51.1-0.2q0.1 0-0.1 0.1l-0.1 0.1 0.1-0.1q0.1-0.1 0.1-0.1zm37.5 0.2c0 0.1 0 0.2 0 0.3 0 0.1 0 0.1 0-0.1 0-0.2 0-0.3 0-0.2zm8.4-0.1c0 0-0.1 0.1-0.2 0.1l-0.1 0.2 0.1-0.2c0.2-0.1 0.2-0.1 0.2-0.1zm-13.9 0.1c0 0 0 0-0.2 0.2l-0.2 0.1 0.2-0.2c0.1-0.1 0.2-0.1 0.2-0.1zm-30.6 0c0 0 0 0.1-0.1 0.2l-0.1 0.1 0.1-0.1q0.1-0.1 0.1-0.2zm14.5 0.2c0 0.1 0 0.2 0 0.2q0 0.1 0-0.1 0-0.2 0-0.1zm7.1 0.2c0 0.1 0 0.4 0 0.6 0 0.1 0 0 0-0.3 0-0.4 0-0.5 0-0.3zm5.1-0.3q0.1 0 0 0.1l-0.1 0.1v-0.1q0.1-0.1 0.1-0.1zm14 0q0.1 0-0.1 0.1l-0.1 0.1 0.1-0.1q0.1-0.1 0.1-0.1zm12.4 0.2c0 0.1 0 0.3 0 0.4 0 0.1 0 0 0-0.2 0-0.2 0-0.3 0-0.2zm-54.9 0c0 0 0 0-0.2 0.1l-0.1 0.1 0.1-0.1q0.1-0.1 0.2-0.1zm4.8 0q0 0-0.1 0.1c-0.1 0.1-0.2 0.2-0.2 0.2q0 0 0.1-0.2c0.1 0 0.2-0.1 0.2-0.1zm40.9 0.1q0 0-0.1 0.2c-0.1 0-0.1 0.1-0.2 0.1q0 0 0.2-0.1c0-0.1 0.1-0.2 0.1-0.2zm-44.3 0.1q0 0-0.2 0.1c0 0.1-0.1 0.1-0.1 0.1q0 0 0.1-0.1c0.1-0.1 0.2-0.1 0.2-0.1zm40.7 0q0 0-0.1 0.2l-0.2 0.1 0.1-0.1q0.1-0.1 0.2-0.2zm-10.5 0.1q0.1 0-0.1 0.2l-0.1 0.1 0.1-0.2q0.1-0.1 0.1-0.1zm-32.1 0.1q0 0-0.1 0.1l-0.1 0.1 0.1-0.1q0.1-0.1 0.1-0.1zm11 0.1q0 0.1 0 0.2 0 0 0-0.1 0-0.2 0-0.1zm29.9 0.1q0 0.1 0 0.1 0 0.1 0 0 0-0.1 0-0.1zm-2.5 0.1q0.1 0 0 0.1 0 0 0-0.1 0-0.1 0 0zm7.3-0.1c0 0-0.1 0.1-0.3 0.3l-0.2 0.2 0.2-0.2c0.3-0.3 0.3-0.3 0.3-0.3zm-28.9 0.1q0 0 0 0.1 0 0.1 0 0 0-0.1 0-0.1zm11.3 0q0 0-0.1 0.1h-0.1 0.1q0-0.1 0.1-0.1zm-23.6 0.1c0 0-0.1 0.1-0.2 0.1l-0.1 0.2 0.1-0.2c0.2-0.1 0.2-0.1 0.2-0.1zm47.5 0q0 0.1 0 0.1 0 0.1 0 0 0-0.1 0-0.1zm-52.5 0.1q0 0-0.1 0.1l-0.1 0.1 0.1-0.1q0.1-0.1 0.1-0.1zm32 0.1c0 0 0 0-0.2 0.2l-0.2 0.1 0.2-0.1c0.1-0.1 0.2-0.2 0.2-0.2zm-30.6 0c0 0 0 0.1-0.1 0.2l-0.1 0.1 0.1-0.1q0.1-0.1 0.1-0.2zm26.7 0.1q0 0-0.1 0.1l-0.1 0.1 0.1-0.1q0.1-0.1 0.1-0.1zm-23.6 0.1q0 0-0.1 0.2l-0.1 0.1 0.1-0.1q0.1-0.1 0.1-0.2zm-5 0.1q0.1 0-0.1 0.1l-0.1 0.1 0.1-0.1q0.1-0.1 0.1-0.1zm24.9 0q0 0.1 0 0.1 0 0.1 0 0 0-0.1 0-0.1zm-23.6 0.3q0.1 0 0 0.1l-0.1 0.1v-0.1q0.1-0.1 0.1-0.1zm3.2 0.1c0 0 0 0-0.2 0.2l-0.2 0.2 0.2-0.2c0.1-0.1 0.2-0.2 0.2-0.2zm41 0.1c0 0 0 0-0.2 0.2l-0.2 0.1 0.2-0.1c0.1-0.1 0.1-0.2 0.2-0.2zm-44.5 0.1q0 0-0.1 0.2c-0.1 0-0.2 0.1-0.2 0.1q0 0 0.1-0.1c0.1-0.1 0.2-0.2 0.2-0.2zm-1.7 0.1q0 0-0.1 0.1l-0.1 0.1 0.1-0.1q0.1-0.1 0.1-0.1zm4.6 0.2q0.1 0-0.1 0.2h-0.1l0.1-0.1q0.1 0 0.1-0.1zm27.2 0.1q0 0-0.1 0.1l-0.1 0.1 0.1-0.1q0.1-0.1 0.1-0.1zm-30.7 0.1q0.1 0-0.1 0.1l-0.1 0.1 0.1-0.1q0.1-0.1 0.1-0.1zm16.6 0.3c0 0 0 0-0.1 0.1l-0.2 0.2 0.2-0.2c0-0.1 0.1-0.1 0.1-0.1zm-13.6 0q0.1 0-0.1 0.1l-0.1 0.1 0.1-0.1q0.1-0.1 0.1-0.1zm27.2 0q0.1 0-0.1 0.1l-0.1 0.1 0.1-0.1q0.1-0.1 0.1-0.1zm27.3 0.1q0 0-0.1 0.1l-0.1 0.1 0.1-0.1q0.1-0.1 0.1-0.1zm-57.9 0q0 0-0.1 0.2c-0.1 0-0.2 0.1-0.2 0.1q0 0 0.1-0.1c0.1-0.1 0.2-0.2 0.2-0.2zm56.4 0.7q0 0.1 0 0.1 0 0 0-0.2 0-0.2 0 0.1zm-41-0.2v0.1q0 0.1 0.1 0.2 0 0 0 0-0.1 0-0.1-0.2zm12.3 0.8q0.2 0 0.2 0c-0.1 0-0.2 0-0.3 0q-0.1 0 0.1 0zm-22.1 0.5q0.1 0 0 0 0 0-0.1 0 0 0 0.1 0zm-4 0.6q0 0-0.1 0.2c-0.1 0-0.2 0.1-0.2 0.1q0 0 0.1-0.1c0.1-0.1 0.2-0.2 0.2-0.2zm2.2 1.2c0.3 0 0.4 0 0.3 0-0.2 0-0.5 0-0.6 0-0.2 0-0.1 0 0.3 0zm1.6 0q0.1 0 0.1 0-0.1 0-0.1 0-0.1 0 0 0zm14.6 0.6q0.2 0 0.1 0c-0.1 0-0.2 0-0.2 0q-0.1 0 0.1 0zm28.1 0q0.1 0 0.1 0-0.1 0-0.2 0 0 0 0.1 0zm0.3 0q0.1 0 0.1 0-0.1 0-0.1 0-0.1 0 0 0zm-25.9 0q0.3 0 0.2 0c-0.1 0-0.2 0-0.3 0q-0.1 0 0.1 0zm11.4 0q0.2 0 0.2 0.1c-0.1 0-0.2 0-0.3 0q-0.1-0.1 0.1-0.1zm21.2 0q0.1 0 0 0.1 0 0-0.1 0-0.1-0.1 0.1-0.1zm-21.8 0.1q0.1 0 0.1 0-0.1 0-0.2 0 0 0 0.1 0zm1.3 0q0.1 0 0.1 0-0.1 0-0.1 0-0.1 0 0 0zm19.8 0q0.1 0 0.1 0-0.1 0-0.1 0-0.1 0 0 0zm1.3 0q0.1 0 0 0 0 0-0.1 0 0 0 0.1 0zm-15.6 0c0.3 0 0.4 0 0.2 0-0.1 0-0.4 0-0.5 0-0.2 0-0.1 0 0.3 0zm4.5 0.5l0.1 0.1-0.1-0.1q-0.1-0.1-0.1-0.1 0 0 0.1 0.1zm13.1 0.2q0.1 0 0.2 0.1 0.1 0.1 0.1 0.1 0 0-0.2-0.1-0.1-0.1-0.1-0.1zm-20.9 0.1v0.1l-0.1-0.1q0-0.1 0-0.1-0.1 0 0.1 0.1zm-7.5 0q0 0.1 0 0.2 0 0 0-0.1 0-0.1 0-0.1zm2 0.2q0 0 0 0.1 0 0.1 0 0 0-0.2 0-0.1zm-17.9 0.4q0.2 0 0.1 0c-0.1 0-0.2 0-0.3 0q-0.1 0 0.2 0zm41.4 0.2q0.1 0 0 0.1 0 0-0.1 0-0.1-0.1 0.1-0.1zm-50.6 0.4c0.4 0 0.5 0 0.3 0-0.1 0-0.4 0-0.6 0-0.1 0 0 0 0.3 0zm54.2 0.2c0.1 0.1 0.1 0.2 0 0.3q0 0.1 0-0.1 0-0.3 0-0.2zm-21.1 0c0 0.1 0 0.2 0 0.2q0 0.1 0-0.1 0-0.2 0-0.1zm-14.1 0.2q0 0.1 0 0.2 0 0 0-0.1 0-0.1 0-0.1zm-6.4 0q0 0.1 0 0.1 0 0.1 0 0 0-0.1 0-0.1zm3.2 0.2c0 0 0 0-0.1 0.1l-0.1 0.1 0.1-0.1q0.1-0.1 0.1-0.1zm36.4 0q0 0.1 0 0.1 0 0.1 0 0 0-0.1 0-0.1zm-41.5 0.1q0 0.1 0 0.2 0 0.1 0-0.1 0-0.1 0-0.1zm28.2 0.1q0 0.1 0 0.1 0 0.1 0 0 0-0.1 0-0.1zm13.3 0.1q0 0 0 0.1 0 0 0-0.1 0-0.1 0 0zm-22.6 0q0.2 0 0.1 0c0 0-0.1 0-0.2 0q0 0 0.1 0zm-17 0.1q0 0.1 0 0.1 0 0.1 0 0 0-0.1 0-0.1zm-12.9 0.4c0.3 0 0.4 0 0.2 0-0.1 0-0.3 0-0.5 0-0.1 0 0 0 0.3 0zm1.8 0.4l0.1 0.1-0.1-0.1q-0.1-0.1-0.1-0.1 0 0 0.1 0.1zm17.9-0.1q0.1 0 0.2 0.1 0.1 0.1 0.1 0.1-0.1 0-0.2-0.1-0.1-0.1-0.1-0.1zm4.3 0.3q0 0 0.1 0.1 0.1 0.1 0.1 0.1 0 0-0.1-0.1-0.1-0.1-0.1-0.1zm-17.3 0.4c0 0 0 0.1 0 0.2q0 0.1 0-0.1 0-0.2 0-0.1zm2.5 0.2c0.6 0 0.8 0 0.5 0-0.3 0-0.7 0-1.1 0-0.3 0 0 0 0.6 0zm-4.9 0.1q0 0.1 0 0.1-0.1 0-0.1 0 0-0.1 0.1-0.1zm0 0.3q0 0 0 0.1-0.1 0.1-0.1 0 0-0.1 0.1-0.1zm2.9 0.9q0 0 0.1 0.1 0.1 0.1 0.1 0.1 0 0-0.1-0.1-0.1-0.1-0.1-0.1zm11.5 0q0 0-0.1 0.1l-0.1 0.1 0.1-0.1q0.1-0.2 0.1-0.1zm-21.6 0.3q0 0 0.1 0 0.1 0 0 0c-0.1 0.1-0.1 0-0.1 0q0-0.1 0 0zm2.7 0c0.3 0 0.4 0 0.3 0-0.2 0.1-0.4 0.1-0.6 0-0.1 0 0 0 0.3 0zm9 0.3q0.1 0 0 0 0 0-0.1 0 0 0 0.1 0zm-5.3 0.3q0.1 0-0.1 0.1c0 0.1-0.1 0.1-0.1 0.1q0 0 0.1-0.1c0.1-0.1 0.1-0.1 0.1-0.1zm20.6 0.3q0 0-0.2 0.1c0 0.1-0.1 0.1-0.1 0.1q0 0 0.1-0.1c0.1-0.1 0.1-0.1 0.2-0.1zm1.7 0l0.1 0.2c0.1 0.1 0.2 0.1 0.2 0.1 0 0-0.1 0-0.2-0.1zm-25.7 0.9q0.1 0 0.1 0-0.1 0-0.1 0-0.1 0 0 0zm13 0q0.2 0 0.1 0c-0.1 0-0.2 0-0.3 0q-0.1 0 0.2 0zm0.7 0q0.2 0 0.1 0-0.1 0-0.1 0-0.1 0 0 0z"/>
		<path id="path3" fill-rule="evenodd" class="s3" d="m34.6 5.8c3.4 0 4.8 0 3.1 0-1.7 0-4.6 0-6.3 0-1.7 0-0.3 0 3.2 0zm14.4 0.1q0.1 0 0.1 0-0.1 0-0.1 0-0.1 0 0 0zm2.2 0.8q0 0 0.1 0.1 0.1 0.1 0.1 0.1 0 0-0.1-0.1-0.1-0.1-0.1-0.1zm-4.3 0q0.1 0 0 0.1l-0.1 0.1v-0.1q0.1-0.1 0.1-0.1zm13.7 0.2c0 0 0 0-0.1 0.1l-0.1 0.1 0.1-0.1q0.1-0.1 0.1-0.1zm-41.2 0.1c0 0 0 0.1-0.2 0.2l-0.1 0.2 0.1-0.2c0.1-0.1 0.2-0.2 0.2-0.2zm27.2 0c0 0-0.1 0.1-0.2 0.2l-0.1 0.1 0.1-0.1c0.2-0.2 0.2-0.2 0.2-0.2zm-0.6 0.6c0 0-0.1 0.1-0.2 0.2l-0.2 0.2 0.2-0.2c0.1-0.2 0.2-0.2 0.2-0.2zm13.8 0c0 0-0.1 0.1-0.2 0.2l-0.2 0.2 0.2-0.2c0.2-0.2 0.2-0.2 0.2-0.2zm-41.5 0.5c0 0-0.1 0.1-0.2 0.2l-0.2 0.2 0.2-0.2c0.2-0.2 0.2-0.2 0.2-0.2zm26.9 0.3c0 0-0.1 0.1-0.2 0.2l-0.2 0.2 0.2-0.2c0.1-0.2 0.2-0.2 0.2-0.2zm3.4 0.2q0.1 0-0.1 0.1l-0.1 0.1 0.1-0.1q0.1-0.1 0.1-0.1zm10.1 0.1c0 0-0.1 0.1-0.2 0.2l-0.2 0.2 0.2-0.2c0.2-0.2 0.2-0.2 0.2-0.2zm-41.1 0.1c0 0 0 0-0.2 0.1l-0.1 0.2 0.1-0.2c0.1-0.1 0.2-0.1 0.2-0.1zm32.3 0.5c0 0.3 0 0.7 0 0.9 0 0.3 0 0.1 0-0.4 0-0.6 0-0.8 0-0.5zm12.1-0.4c0 0 0 0-0.2 0.2l-0.2 0.1 0.2-0.1c0.1-0.1 0.2-0.2 0.2-0.2zm3.7 0.3c0 0.2 0 0.4 0 0.6 0 0.1 0 0 0-0.3 0-0.3 0-0.4 0-0.3zm-41 0.4c0 0.3 0 0.8 0 1.1 0 0.3 0 0 0-0.6 0-0.5 0-0.8 0-0.5zm27.4-0.3c0.1 0.1 0.1 0.3 0 0.5 0 0.1 0 0 0-0.3 0-0.2 0-0.3 0-0.2zm-29.7-0.1q0 0.1 0 0.2-0.1 0-0.1-0.1 0-0.1 0.1-0.1zm21.9 0c0 0-0.1 0.1-0.2 0.2l-0.2 0.2 0.2-0.2c0.2-0.2 0.2-0.2 0.2-0.2zm-14.6 0.1c2.4 0 3.7 0 2.8 0-4.2 0-7.2 0-7.2 0 0.1 0 2 0 4.4 0zm6 0c0.2 0 0.4 0 0.2 0-0.1 0-0.3 0-0.5 0-0.1 0 0 0 0.3 0zm6.2 0q0.1 0-0.1 0.1l-0.1 0.1 0.1-0.1q0.1-0.1 0.1-0.1zm21.4 0.8c0 0.5 0 1.2 0 1.6 0 0.5 0 0.1 0-0.8 0-0.8 0-1.2 0-0.8zm-46.4-0.6c0 0 0 0-0.2 0.1l-0.1 0.1 0.1-0.1q0.1-0.1 0.2-0.1zm30.8 0q0 0-0.1 0.1c-0.1 0.1-0.2 0.1-0.2 0.1q0 0 0.1-0.1c0.1-0.1 0.2-0.1 0.2-0.1zm-27.2 0q0 0-0.1 0.1l-0.1 0.1 0.1-0.1q0.1-0.1 0.1-0.1zm37.3 0q0 0-0.1 0.2c-0.1 0-0.1 0.1-0.1 0.1q0 0 0.1-0.1c0.1-0.1 0.1-0.2 0.1-0.2zm3.5 0q0 0-0.1 0.1l-0.1 0.1 0.1-0.1q0.1-0.1 0.1-0.1zm-19.7 0.1q0 0.1-0.2 0.2c0 0.1-0.1 0.1-0.1 0.1q0 0 0.1-0.1c0.1-0.1 0.2-0.2 0.2-0.2zm-7.5 2.1c0 1.1 0 2.9 0 4 0 1.1 0 0.2 0-2 0-2.2 0-3.1 0-2zm13.2-1.8q0-0.1-0.1 0.1h-0.1l0.1-0.1q0 0 0.1 0zm-3.7 0c0 0-0.1 0.1-0.2 0.2l-0.2 0.1 0.2-0.1c0.1-0.2 0.2-0.2 0.2-0.2zm17.2 0c0.1 0 0 0.1-0.1 0.2l-0.1 0.1 0.1-0.1q0.1-0.1 0.1-0.2zm-3.5 0.1c0 0-0.1 0.1-0.2 0.2l-0.2 0.2 0.2-0.2c0.2-0.2 0.2-0.2 0.2-0.2zm-41 0c0 0-0.1 0.1-0.2 0.2l-0.2 0.2 0.2-0.2c0.1-0.2 0.2-0.2 0.2-0.2zm24.7 0.2q0 0-0.1 0.1l-0.1 0.1 0.1-0.1q0.1-0.2 0.1-0.1zm7.5 0.1q-0.1 0-0.2 0.1l-0.1 0.1 0.1-0.1q0.2-0.2 0.2-0.1zm13.7 3.5c0 2 0 5.2 0 7.1 0 2 0 0.4 0-3.5 0-3.9 0-5.5 0-3.6zm-1.9-3.4q0 0.1-0.1 0.2l-0.1 0.1 0.1-0.1c0.1-0.2 0.1-0.2 0.1-0.2zm-13.7 0.1q0 0-0.1 0.1l-0.1 0.1 0.1-0.1q0-0.1 0.1-0.1zm-27.2 0q0 0-0.1 0.2c-0.1 0-0.1 0.1-0.2 0.1q0 0 0.2-0.1c0-0.1 0.1-0.2 0.1-0.2zm21.2 0.1q0 0-0.1 0.1l-0.1 0.1 0.1-0.1q0.1-0.1 0.1-0.1zm-25 0.1c0 0-0.1 0.1-0.2 0.2l-0.2 0.1 0.2-0.1c0.2-0.2 0.2-0.2 0.2-0.2zm27.2 0c0 0-0.1 0.1-0.2 0.2l-0.2 0.2 0.2-0.2c0.1-0.2 0.2-0.2 0.2-0.2zm13.8 0q0 0-0.1 0.1l-0.1 0.1 0.1-0.1q0.1-0.2 0.1-0.1zm5 0q0.1 0-0.1 0.1c0 0.1-0.1 0.2-0.1 0.2q0 0 0.1-0.2c0.1 0 0.1-0.1 0.1-0.1zm-1.8 0.2q0 0-0.1 0.1l-0.1 0.1 0.1-0.1c0.1-0.1 0.1-0.1 0.1-0.1zm-39.2 0c0 0.1-0.1 0.2-0.3 0.4l-0.3 0.2 0.3-0.3c0.3-0.2 0.3-0.3 0.3-0.3zm27.1 0.1q0 0-0.1 0.1l-0.1 0.1 0.1-0.1q0.1-0.1 0.1-0.1zm8.4 0.1c0 0 0 0.1-0.2 0.2l-0.2 0.2 0.2-0.2c0.2-0.2 0.2-0.2 0.2-0.2zm5.1 0c0 0-0.1 0.1-0.1 0.2l-0.2 0.1 0.1-0.1c0.2-0.2 0.2-0.2 0.2-0.2zm-46.3 0.3q-0.1 0-0.2 0.1l-0.1 0.1 0.1-0.1q0.2-0.2 0.2-0.1zm44.4 0q0 0-0.1 0.1l-0.1 0.1 0.1-0.1q0.1-0.2 0.1-0.1zm-40.9 0q0 0.1-0.1 0.2c-0.1 0-0.1 0.1-0.1 0.1q0 0 0.1-0.1c0.1-0.1 0.1-0.2 0.1-0.2zm23.5 0.1q0 0-0.1 0.1l-0.1 0.1 0.1-0.1q0.1-0.1 0.1-0.1zm-3.5 0q0.3 0 0.2 0.1c-0.1 0-0.3 0-0.4 0q-0.1-0.1 0.2-0.1zm-9.1 0.1c0.4 0 0.6 0 0.4 0-0.2 0-0.6 0-0.8 0-0.2 0-0.1 0 0.4 0zm31.3 0c0.1 0 0 0.1-0.1 0.2l-0.1 0.1 0.1-0.1q0.1-0.1 0.1-0.2zm-28.8 0.3c0 0.1 0 0.3 0 0.4 0 0.1 0 0 0-0.2 0-0.2 0-0.3 0-0.2zm23.7-0.1c0 0-0.2 0.1-0.4 0.3-0.2 0.2-0.3 0.4-0.3 0.4 0 0 0.1-0.2 0.3-0.4 0.2-0.2 0.4-0.3 0.4-0.3zm3.3 0q0 0-0.1 0.1l-0.1 0.1 0.1-0.1q0.2-0.1 0.1-0.1zm-17.3 0.1c0 0-0.1 0.1-0.1 0.1l-0.2 0.2 0.1-0.2c0.2-0.1 0.2-0.1 0.2-0.1zm-23.6 0q0.1 0-0.1 0.1l-0.1 0.1 0.1-0.1q0.1-0.1 0.1-0.1zm-3.6 0c0 0.1-0.1 0.1-0.2 0.2l-0.2 0.2 0.2-0.2c0.1-0.1 0.2-0.2 0.2-0.2zm5.2 0.1q0 0-0.1 0.1l-0.1 0.1 0.1-0.1q0.1-0.2 0.1-0.1zm32.6 0.3c0 0.2 0 0.4 0 0.6 0 0.2 0 0 0-0.3 0-0.3 0-0.4 0-0.3zm8.1-0.2q0 0-0.2 0.1l-0.1 0.1 0.1-0.1c0.1-0.1 0.2-0.1 0.2-0.1zm-22.6 0.7c0 0.4 0 0.9 0 1.3 0 0.3 0 0 0-0.7 0-0.6 0-0.9 0-0.6zm20.7-0.4q0 0-0.1 0.1h-0.1l0.1-0.1q0.1-0.1 0.1 0zm-40.9 0q0.1 0-0.1 0.1l-0.1 0.1 0.1-0.1q0.1-0.1 0.1-0.1zm27.1 0q0 0-0.1 0.1l-0.1 0.1 0.1-0.1q0-0.1 0.1-0.1zm-3.7 0.2c0 0-0.1 0.1-0.2 0.2-0.2 0.1-0.3 0.2-0.3 0.2 0 0 0.1-0.1 0.2-0.2 0.2-0.1 0.3-0.2 0.3-0.2zm18.8 0c0.1 0 0 0-0.1 0.1l-0.1 0.1 0.1-0.1q0.1-0.1 0.1-0.1zm-46.1 0c0.1 0 0 0-0.1 0.2l-0.2 0.2 0.2-0.2c0.1-0.1 0.1-0.2 0.1-0.2zm5.3 0c0 0 0 0.1-0.1 0.2l-0.2 0.1 0.2-0.1q0.1-0.1 0.1-0.2zm25.4 0.1q0 0-0.1 0.1h-0.1l0.1-0.1q0.1-0.1 0.1 0zm-27.1 0q0 0-0.1 0.1l-0.2 0.1 0.1-0.1q0.1-0.1 0.2-0.1zm28.6 0q0.1 0-0.1 0.1l-0.1 0.1 0.1-0.1q0.1-0.1 0.1-0.1zm8.7 0.1q0 0-0.1 0.1c-0.1 0.1-0.2 0.2-0.2 0.2q0-0.1 0.2-0.2c0 0 0.1-0.1 0.1-0.1zm4.8 0.2q0 0.1-0.2 0.2l-0.1 0.1 0.1-0.1c0.1-0.2 0.2-0.2 0.2-0.2zm-40.9 0.1q0 0-0.1 0.1l-0.1 0.1 0.1-0.1q0.1-0.1 0.1-0.1zm-1.7 0.1q0 0-0.1 0.1l-0.1 0.1 0.1-0.1q0.1-0.2 0.1-0.1zm-3.7 0q0 0-0.1 0.2c-0.1 0-0.2 0.1-0.2 0.1q0 0 0.2-0.1c0-0.1 0.1-0.2 0.1-0.2zm44.3 0.2q-0.1 0-0.2 0.1l-0.1 0.1 0.1-0.1q0.2-0.1 0.2-0.1zm-3.5 0.1c0 0 0 0-0.2 0.2l-0.2 0.1 0.2-0.1c0.1-0.1 0.2-0.2 0.2-0.2zm-13.9 0c0 0 0 0.1-0.2 0.2l-0.2 0.2 0.2-0.2c0.1-0.1 0.2-0.2 0.2-0.2zm18.8 0.1q0 0-0.1 0.1l-0.1 0.1 0.1-0.1q0.1-0.1 0.1-0.1zm-42.5 0q0 0-0.1 0.1l-0.1 0.1 0.1-0.1q0.1-0.1 0.1-0.1zm1.6 0q0.1 0-0.1 0.1l-0.1 0.1 0.1-0.1q0.1-0.1 0.1-0.1zm27 0.1q0 0-0.1 0.1h-0.1l0.1-0.1q0.1-0.1 0.1 0zm7.4 0.2c0 0.2 0 0.3 0 0.4 0 0.2 0 0.1 0-0.2 0-0.2 0-0.3 0-0.2zm4.6-0.1q0 0-0.1 0.1l-0.1 0.1 0.1-0.1q0.2-0.1 0.1-0.1zm-44.5 0.1c0 0 0 0-0.2 0.2l-0.1 0.1 0.1-0.1c0.1-0.1 0.2-0.2 0.2-0.2zm32.2 0.1q0 0-0.1 0l-0.1 0.1 0.1-0.1q0.1-0.1 0.1 0zm13.8-0.1q0 0.1-0.1 0.2c-0.1 0-0.2 0.1-0.2 0.1q0 0 0.1-0.1c0.1-0.1 0.2-0.2 0.2-0.2zm-42.6 0.2c0 0 0 0-0.1 0.1l-0.1 0.1 0.1-0.1q0.1-0.1 0.1-0.1zm1.7 0q0-0.1-0.1 0.1l-0.1 0.1 0.1-0.1q0.1-0.1 0.1-0.1zm35.8 0c0 0-0.1 0-0.2 0.1l-0.2 0.2 0.2-0.2c0.1-0.1 0.2-0.2 0.2-0.1zm-13.9 0q0 0-0.1 0.1l-0.2 0.1 0.2-0.1c0.1-0.1 0.1-0.1 0.1-0.1zm3.4 0q0 0-0.1 0.1l-0.1 0.1 0.1-0.1q0.1-0.1 0.1-0.1zm13.7 0.1q0 0-0.1 0.1l-0.1 0.1 0.1-0.1q0-0.1 0.1-0.1zm-44.7 0.3c0 0 0 0-0.2 0.2l-0.2 0.1 0.2-0.1c0.1-0.1 0.2-0.2 0.2-0.2zm3.5 0q0 0-0.1 0.2c-0.1 0-0.1 0.1-0.1 0.1q0 0 0.1-0.1c0-0.1 0.1-0.2 0.1-0.2zm23.6 0c0 0 0 0.1-0.3 0.4l-0.3 0.3 0.3-0.4c0.2-0.1 0.3-0.3 0.3-0.3zm-22 0.1q0.1-0.1-0.1 0.1l-0.1 0.1 0.1-0.1q0.1-0.1 0.1-0.1zm27 0q0 0-0.1 0.1l-0.1 0.1 0.1-0.1q0.1-0.1 0.1-0.1zm12.1 0.1q0 0-0.1 0.1l-0.1 0.1 0.1-0.1q0.1-0.2 0.1-0.1zm-12.4 0.2q0 0-0.1 0.1l-0.2 0.1 0.1-0.1q0.2-0.2 0.2-0.1zm13.8 0c0 0-0.1 0.1-0.2 0.1l-0.1 0.2 0.1-0.2c0.2-0.1 0.2-0.1 0.2-0.1zm-15.5 0q0 0-0.1 0.1l-0.1 0.1 0.1-0.1q0.1-0.1 0.1-0.1zm-25.4 0.1q0 0-0.1 0.1l-0.1 0.1 0.1-0.1q0.1-0.2 0.1-0.1zm-1.7 0q0 0-0.1 0.1l-0.1 0.1 0.1-0.1q0.1-0.1 0.1-0.1zm-3.7 0.1c0 0-0.1 0.1-0.1 0.2l-0.2 0.1 0.2-0.1c0.1-0.2 0.1-0.2 0.1-0.2zm30.3 0.3c0 0 0 0-0.1 0.1l-0.1 0.1 0.1-0.1q0.1-0.1 0.1-0.1zm15.4 0q0.1 0-0.1 0.1l-0.1 0.1 0.1-0.1q0.1-0.1 0.1-0.1zm-42.5 0.1q0 0-0.1 0.1c-0.1 0.1-0.1 0.1-0.2 0.1q0 0 0.2-0.1c0-0.1 0.1-0.1 0.1-0.1zm32.3 0.1c0 0 0 0.1 0 0.1q0 0.1 0-0.1 0-0.1 0 0zm8.5-0.1q0 0-0.1 0.1c-0.1 0.1-0.1 0.1-0.1 0.1q0 0 0.1-0.1c0.1-0.1 0.1-0.1 0.1-0.1zm-36 0q0 0.1 0 0 0 0-0.1 0.1l-0.1 0.1 0.1-0.1q0.1-0.2 0.1-0.1zm-3.3 0.1q0 0-0.1 0.1c-0.1 0.1-0.1 0.2-0.1 0.2q0-0.1 0.1-0.2c0-0.1 0.1-0.1 0.1-0.1zm30.4 0q0 0-0.1 0.1c-0.1 0.1-0.2 0.2-0.2 0.2q0-0.1 0.1-0.2c0.1-0.1 0.2-0.1 0.2-0.1zm13.9 0.2c0 0.1 0 0.2 0 0.3q0 0.1 0-0.1 0-0.2 0-0.2zm-49.7 0c0 0 0 0-0.2 0.2l-0.1 0.1 0.1-0.1c0.1-0.1 0.2-0.2 0.2-0.2zm49.4 0q0 0-0.1 0.1l-0.2 0.1 0.1-0.1c0.2-0.1 0.2-0.1 0.2-0.1zm-41.1 0.1c0 0 0 0-0.2 0.1l-0.2 0.2 0.2-0.2c0.1-0.1 0.2-0.1 0.2-0.1zm23.8 0q0-0.1-0.1 0.1h-0.1l0.1-0.1q0.1 0 0.1 0zm12.2 0q0.1-0.1-0.1 0.1l-0.1 0.1 0.1-0.1q0.1-0.1 0.1-0.1zm1.6 0q0 0-0.1 0.1c0 0.1-0.1 0.1-0.1 0.1q0 0 0.1-0.1c0.1-0.1 0.1-0.1 0.1-0.1zm7.2 2c0 1.1 0 3 0 4.1 0 1.1 0 0.2 0-2.1 0-2.2 0-3.1 0-2zm-49.7-2q0.1 0-0.1 0.1l-0.1 0.1 0.1-0.1q0.1-0.1 0.1-0.1zm1.5 0.2c0 0-0.1 0.1-0.2 0.2l-0.2 0.1 0.2-0.1c0.1-0.2 0.2-0.2 0.2-0.2zm30.3 0c0 0-0.1 0.1-0.2 0.3-0.1 0.1-0.3 0.2-0.3 0.2 0 0 0.1-0.1 0.2-0.2 0.2-0.2 0.3-0.3 0.3-0.3zm-5.2 0.1q0.1 0-0.1 0.2l-0.1 0.1 0.1-0.2q0.1-0.1 0.1-0.1zm-19 2.1c0 1.1 0 3 0 4.1 0 1.1 0 0.2 0-2 0-2.3 0-3.2 0-2.1zm34.4-1.9q0-0.1-0.1 0.1h-0.1l0.1-0.1q0.1 0 0.1 0zm-42.5 0c0 0 0 0.1-0.1 0.1l-0.2 0.2 0.2-0.2c0.1-0.1 0.1-0.1 0.1-0.1zm-3.6 0c0 0 0 0.1-0.1 0.2l-0.1 0.1 0.1-0.1q0.1-0.1 0.1-0.2zm49.4 0c0 0-0.1 0.1-0.2 0.3-0.1 0.1-0.2 0.2-0.2 0.2 0 0 0-0.1 0.2-0.2 0.1-0.2 0.2-0.3 0.2-0.3zm-41.1 0.1q0 0.1-0.1 0.1l-0.1 0.1 0.1-0.1q0.1-0.1 0.1-0.1zm36 0.1q0-0.1-0.1 0.1l-0.1 0.1 0.1-0.1q0.1-0.1 0.1-0.1zm-12.4 0q0 0-0.1 0.2c0 0-0.1 0.1-0.1 0.1q0 0 0.1-0.1c0.1-0.1 0.1-0.2 0.1-0.2zm-32.1 0.1c0 0-0.1 0-0.3 0.3l-0.2 0.2 0.2-0.3c0.1-0.1 0.2-0.2 0.3-0.2zm35.4 0.1c0 0-0.1 0.1-0.2 0.2l-0.2 0.2 0.2-0.2c0.1-0.2 0.2-0.2 0.2-0.2zm10.4 0c0 0 0 0-0.1 0.2l-0.1 0.1 0.1-0.2q0.1-0.1 0.1-0.1zm-42.5 0.1q0.1-0.1-0.1 0.1l-0.1 0.1 0.1-0.1q0.1-0.1 0.1-0.1zm1.7 0q0 0-0.2 0.1c0 0.1-0.1 0.1-0.1 0.1q0 0 0.1-0.1c0.1-0.1 0.1-0.1 0.2-0.1zm39.1 0c0 0 0 0-0.1 0.1l-0.2 0.2 0.2-0.2q0.1-0.1 0.1-0.1zm-36.1 0c0 0 0 0.1-0.1 0.2l-0.2 0.2 0.2-0.2c0-0.1 0.1-0.2 0.1-0.2zm23.8 0q0 0.1-0.1 0.2c-0.1 0-0.2 0.1-0.2 0.1q0 0 0.1-0.1c0.1-0.1 0.2-0.2 0.2-0.2zm13.5 0.4q0.1 0-0.1 0.1l-0.1 0.1 0.1-0.1q0.1-0.1 0.1-0.1zm-42.4 0q0 0-0.2 0.1c0 0.1-0.1 0.2-0.1 0.2q0-0.1 0.1-0.2c0.1 0 0.1-0.1 0.2-0.1zm26.7 0.1q0.1 0-0.1 0.1l-0.1 0.1 0.1-0.1q0.1-0.1 0.1-0.1zm13.9 0q0 0.1-0.1 0.2c-0.1 0-0.1 0.1-0.1 0.1q0 0 0.1-0.1c0.1-0.1 0.1-0.2 0.1-0.2zm5.1 0c0 0 0 0.1-0.2 0.2l-0.1 0.1 0.1-0.1q0.1-0.1 0.2-0.2zm-41.2 0.2q-0.1 0-0.1 0.1l-0.1 0.1 0.1-0.1q0.1-0.1 0.1-0.1zm27.2 0c0 0 0 0-0.2 0.1l-0.1 0.1 0.1-0.1q0.1-0.1 0.2-0.1zm-32.1 0q0 0-0.1 0.2h-0.1l0.1-0.1q0 0 0.1-0.1zm1.6 0q0 0.1-0.1 0.2c-0.1 0.1-0.1 0.1-0.1 0.1q0 0 0.1-0.1c0.1-0.1 0.1-0.2 0.1-0.2zm26.9 0q0.1 0-0.1 0.2h-0.1l0.1-0.1q0.1 0 0.1-0.1zm-1.7 0.1q0 0-0.1 0.1l-0.1 0.1 0.1-0.1q0.1-0.1 0.1-0.1zm7.8 0.2c0 0.1 0 0.3 0 0.4 0 0.1 0 0 0-0.2 0-0.2 0-0.3 0-0.2zm-38.3-0.1c0 0-0.1 0.1-0.2 0.2l-0.2 0.2 0.2-0.2c0.2-0.2 0.2-0.2 0.2-0.2zm46 0q0 0-0.1 0.1c-0.1 0.1-0.1 0.1-0.2 0.1q0 0 0.2-0.1c0-0.1 0.1-0.1 0.1-0.1zm3.4 0q0 0-0.1 0.1l-0.1 0.1 0.1-0.1q0.1-0.1 0.1-0.1zm-5.2 0.1c0 0 0 0-0.1 0.1l-0.1 0.2 0.1-0.2q0.1-0.1 0.1-0.1zm-36 0c0 0.1-0.1 0.1-0.2 0.2l-0.1 0.2 0.1-0.2c0.1-0.1 0.2-0.2 0.2-0.2zm22 0.1q0 0-0.1 0.1l-0.1 0.1 0.1-0.1q0.1-0.1 0.1-0.1zm-26.9 0c0 0-0.1 0.1-0.2 0.3-0.2 0.1-0.3 0.2-0.3 0.2 0 0 0.1-0.1 0.2-0.2 0.1-0.2 0.3-0.3 0.3-0.3zm31.9 0.1c0 0 0 0-0.2 0.2l-0.2 0.2 0.2-0.2c0.1-0.1 0.2-0.2 0.2-0.2zm13.8 0c0 0-0.1 0.1-0.2 0.2l-0.2 0.2 0.2-0.2c0.2-0.2 0.2-0.2 0.2-0.2zm-3.5 0.1q0 0-0.1 0.1l-0.1 0.1 0.1-0.1q0.1-0.1 0.1-0.1zm-15.7 0.2q0 0-0.1 0.1l-0.1 0.1 0.1-0.1q0-0.1 0.1-0.1zm-30.4 0c0 0-0.1 0.1-0.2 0.2l-0.2 0.2 0.2-0.2c0.1-0.2 0.2-0.2 0.2-0.2zm5.1 0c0 0-0.1 0.1-0.2 0.2l-0.2 0.2 0.2-0.2c0.2-0.2 0.2-0.2 0.2-0.2zm39.2 0q0 0.1-0.1 0.2c-0.1 0-0.2 0.1-0.2 0.1q0 0 0.1-0.1c0.1-0.1 0.2-0.2 0.2-0.2zm-12.4 0.1q0 0-0.1 0.1l-0.1 0.1 0.1-0.1q0.1-0.1 0.1-0.1zm-23.8 0.1c0 0-0.1 0.1-0.2 0.2l-0.1 0.1 0.1-0.1c0.1-0.2 0.2-0.2 0.2-0.2zm16.2 0.9c0 0.5 0 1.2 0 1.7 0 0.5 0 0.1 0-0.8 0-1 0-1.4 0-0.9zm21.3-0.8c0 0-0.1 0.1-0.2 0.2l-0.1 0.1 0.1-0.1c0.2-0.2 0.2-0.2 0.2-0.2zm-10.5 0.1c0 0-0.1 0.1-0.2 0.2l-0.2 0.2 0.2-0.2c0.2-0.2 0.2-0.2 0.2-0.2zm-32.1 0q0 0-0.1 0.2c-0.1 0-0.1 0.1-0.1 0.1q0 0 0.1-0.1c0.1-0.1 0.1-0.2 0.1-0.2zm28.5 0q0.1 0-0.1 0.1l-0.1 0.1 0.1-0.1q0.1-0.1 0.1-0.1zm17.3 0.1c0.1 0 0 0-0.1 0.2l-0.2 0.1 0.1-0.1c0.2-0.2 0.2-0.2 0.2-0.2zm-5 0q0 0-0.1 0.1l-0.2 0.1 0.1-0.1q0.1-0.1 0.2-0.1zm-14.1 0q0.1 0-0.1 0.1v0.1-0.1q0.1-0.1 0.1-0.1zm-30.5 0.2q0 0-0.1 0.1c0 0.1-0.1 0.2-0.1 0.2q0-0.1 0.1-0.2c0.1-0.1 0.1-0.1 0.1-0.1zm5.2 0c0 0 0 0-0.2 0.2l-0.1 0.1 0.1-0.2q0.1-0.1 0.2-0.1zm48 0.4c0 0.2 0 0.5 0 0.7 0 0.2 0 0.1 0-0.3 0-0.4 0-0.6 0-0.4zm-49.8-0.3q0 0-0.1 0.2c-0.1 0-0.2 0.1-0.2 0.1q0 0 0.1-0.1c0.1-0.1 0.2-0.2 0.2-0.2zm26.8 0.1q0 0-0.1 0.1l-0.1 0.1 0.1-0.1q0.1-0.1 0.1-0.1zm13.9 0.1q0 0-0.1 0.1c-0.1 0.1-0.2 0.1-0.2 0.1q0 0 0.1-0.1c0.1-0.1 0.2-0.1 0.2-0.1zm-12.4 0q0 0-0.1 0.1l-0.1 0.1 0.1-0.1q0.1-0.1 0.1-0.1zm3.4 0.2c0 0 0 0-0.2 0.1l-0.1 0.1 0.1-0.1q0.1-0.1 0.2-0.1zm-27.3 0c0 0 0 0-0.2 0.2l-0.2 0.2 0.2-0.2c0.1-0.1 0.2-0.2 0.2-0.2zm37.6 0q0 0-0.1 0.2c-0.1 0-0.1 0.1-0.1 0.1q0 0 0.1-0.1c0-0.1 0.1-0.2 0.1-0.2zm-2.2 0.1c0 0.1 0 0.2 0 0.3q0 0 0-0.1 0-0.2 0-0.2zm-40.3 0q0 0-0.1 0.1l-0.1 0.1 0.1-0.1q0.1-0.1 0.1-0.1zm28.4 0q0.1 0-0.1 0.1v0.1-0.1q0.1-0.1 0.1-0.1zm12.3 0.1q0.1 0 0 0.1l-0.1 0.1v-0.1q0.1-0.1 0.1-0.1zm5 0.1c0 0-0.1 0-0.2 0.1l-0.1 0.2 0.1-0.2c0.2-0.1 0.2-0.2 0.2-0.1zm-9 0.1c0.1 0.1 0.1 0.2 0 0.3q0 0.1 0-0.1 0-0.3 0-0.2zm-10.1-0.1q0 0-0.1 0.1l-0.1 0.1 0.1-0.1q0.1-0.1 0.1-0.1zm5.1 0.2c0 0-0.1 0.1-0.2 0.2-0.2 0.1-0.3 0.2-0.3 0.2 0 0 0.1-0.1 0.2-0.2 0.2-0.1 0.3-0.2 0.3-0.2zm-32.1 0c0 0 0 0-0.2 0.1l-0.1 0.1 0.1-0.1q0.1-0.1 0.2-0.1zm42.4 0c0 0 0 0-0.1 0.1l-0.1 0.1 0.1-0.1q0.1-0.1 0.1-0.1zm-26.9 0.3c0 0.2 0 0.5 0 0.7 0 0.2 0 0.1 0-0.3 0-0.4 0-0.5 0-0.4zm11.1-0.2q0.1 0 0 0.1l-0.1 0.1v-0.1q0.1-0.1 0.1-0.1zm1.6 0.1q0.1 0-0.1 0.1l-0.1 0.1 0.1-0.1q0.1-0.1 0.1-0.1zm-27 0.2q0 0-0.1 0.1c-0.1 0.1-0.1 0.1-0.2 0.1q0 0 0.2-0.1c0-0.1 0.1-0.1 0.1-0.1zm40.7 0q0 0-0.1 0.2c0 0-0.1 0.1-0.1 0.1q0 0 0.1-0.1c0.1-0.1 0.1-0.2 0.1-0.2zm-42.5 0.1c0.1 0 0 0-0.1 0.1l-0.1 0.1 0.1-0.1q0.1-0.1 0.1-0.1zm4.9 0c0 0 0 0-0.1 0.1l-0.1 0.1 0.1-0.1q0.1-0.1 0.1-0.1zm23.6 0q0 0-0.1 0.1l-0.1 0.1 0.1-0.1q0-0.1 0.1-0.1zm17.3 0.1q0 0-0.1 0.1c-0.1 0.1-0.1 0.2-0.1 0.2q0 0 0.1-0.2c0.1 0 0.1-0.1 0.1-0.1zm-13.9 0.1c0 0-0.1 0.1-0.2 0.2l-0.1 0.1 0.1-0.2c0.2-0.1 0.2-0.1 0.2-0.1zm-32.3 0.2c0 0 0 0-0.1 0.1l-0.1 0.1 0.1-0.1q0.1-0.1 0.1-0.1zm1.7 0q0 0-0.1 0.1l-0.1 0.1 0.1-0.1q0.1-0.1 0.1-0.1zm3.2 0q0 0-0.1 0.1c-0.1 0.1-0.2 0.2-0.2 0.2q0 0 0.1-0.2c0.1 0 0.2-0.1 0.2-0.1zm35.7 0.1c0 0.1 0 0.2 0 0.3q0 0.1 0-0.1 0-0.3 0-0.2zm1.8-0.1q0.1 0-0.1 0.1l-0.1 0.2 0.1-0.2q0.1-0.1 0.1-0.1zm-4.3 0.2c0.1 0 0.1 0.1 0 0.2q0 0 0-0.1 0-0.2 0-0.1zm7.7-0.1q0 0-0.1 0.2c-0.1 0-0.2 0.1-0.2 0.1q0 0 0.1-0.1c0.1-0.1 0.2-0.2 0.2-0.2zm5.9 0.3q0 0 0 0.1 0 0.1 0 0 0-0.2 0-0.1zm-50.4 0q0-0.1-0.1 0.1h-0.1l0.1-0.1q0 0 0.1 0zm-1.8 0q0 0.1-0.1 0.2c-0.1 0-0.1 0.1-0.1 0.1q0 0 0.1-0.1c0-0.1 0.1-0.2 0.1-0.2zm28.4 0q0.1 0-0.1 0.1l-0.1 0.1 0.1-0.1q0.1-0.1 0.1-0.1zm-23.5 0.1q0 0-0.1 0.1l-0.1 0.1 0.1-0.1q0-0.1 0.1-0.1zm27.1 0.1c0 0 0 0-0.1 0.1l-0.2 0.1 0.2-0.1q0.1-0.1 0.1-0.1zm-27.5 0.2q0 0-0.1 0.1c0 0.1-0.1 0.2-0.1 0.2q0-0.1 0.1-0.2c0.1 0 0.1-0.1 0.1-0.1zm23.5 0c0.1 0 0 0-0.1 0.2l-0.2 0.1 0.2-0.1c0-0.1 0.1-0.2 0.1-0.2zm-26.7 0q0 0-0.2 0.2c0 0-0.1 0.1-0.1 0.1q0 0 0.1-0.1c0.1-0.1 0.2-0.2 0.2-0.2zm-1.7 0.1q0-0.1-0.1 0.1l-0.1 0.1 0.1-0.1q0.1-0.1 0.1-0.1zm45.9 0c0 0-0.1 0.1-0.3 0.3-0.2 0.2-0.4 0.4-0.4 0.4 0 0 0.2-0.2 0.4-0.4 0.1-0.2 0.3-0.3 0.3-0.3zm-3.9 0.1q0.1 0 0.1 0-0.1 0.1-0.2 0.1 0-0.1 0.1-0.1zm-10.1 0.1c0 0 0 0-0.2 0.1l-0.1 0.1 0.1-0.1q0.1-0.1 0.2-0.1zm-30.7 0.1q0.1 0-0.1 0.2l-0.1 0.1 0.1-0.2q0.1-0.1 0.1-0.1zm-1.7 0.1c0 0 0 0-0.2 0.2l-0.1 0.1 0.1-0.2c0.1-0.1 0.2-0.1 0.2-0.1zm4.8 0.1q0.1-0.1-0.1 0.1l-0.1 0.1 0.1-0.1q0.1-0.1 0.1-0.1zm26.9 0.2c0.1 0 0 0.1-0.2 0.3l-0.2 0.2 0.2-0.2c0.1-0.2 0.2-0.3 0.2-0.3zm-30.5 0.1c0 0-0.1 0.1-0.1 0.2l-0.2 0.1 0.2-0.1c0.1-0.2 0.1-0.2 0.1-0.2zm3.2 0.1c0 0 0 0-0.1 0.1l-0.2 0.1 0.1-0.1q0.2-0.1 0.2-0.1zm40.9 0.1q0 0-0.1 0.1c-0.1 0.1-0.1 0.2-0.1 0.2q0 0 0.1-0.2c0 0 0.1-0.1 0.1-0.1zm-44.6 0.2q0.1 0-0.1 0.2v-0.1q0.1 0 0.1-0.1zm3.1 0.2q0.1 0-0.1 0.1l-0.1 0.1 0.1-0.1q0.1-0.1 0.1-0.1zm41 0.1q0.1-0.1 0 0.1h-0.1v-0.1q0.1 0 0.1 0zm-32 0.2q0 0 0.1 0.1 0.2 0.1 0.1 0.1 0 0-0.1-0.1-0.1-0.1-0.1-0.1zm-12.5 0q0 0-0.1 0.1c-0.1 0.1-0.2 0.2-0.2 0.2q0-0.1 0.1-0.2c0.1-0.1 0.2-0.1 0.2-0.1zm15.2 0.1c0 0.1 0 0.2 0 0.3q0 0.1 0-0.1 0-0.3 0-0.2zm10.3 0.4l0.1 0.1-0.1-0.1q-0.1-0.1-0.1-0.1 0 0 0.1 0.1zm-24.3 0.4q0.1 0 0.1 0-0.1 0-0.2 0-0.1 0 0.1 0zm40.9 0q0.1 0 0.1 0-0.1 0.1-0.1 0-0.1 0 0 0zm-14.9 0.4q0.1 0 0.1 0.1-0.1 0-0.1 0 0-0.1 0-0.1zm-23.5 0.6q0.1 0 0 0 0 0-0.1 0 0 0 0.1 0zm1.4 0q0.1 0 0 0 0 0-0.1 0-0.1 0 0.1 0zm2.9 0.8q0 0 0.1 0.1 0.1 0.1 0.1 0.1 0 0-0.1-0.1-0.1-0.1-0.1-0.1zm-4.7 0.9q0.1 0 0.1 0.1-0.1 0-0.2 0-0.1-0.1 0.1-0.1zm1.7 0.1q0.1 0 0.1 0c-0.1 0-0.2 0-0.3 0q0 0 0.2 0zm14 0.5q0.3 0 0.2 0c-0.1 0.1-0.2 0.1-0.3 0q-0.1 0 0.1 0zm23.7 0.1q0.2 0 0.1 0-0.1 0-0.1 0-0.1 0 0 0zm-9.4 0q0.1 0 0.1 0.1-0.1 0-0.1 0-0.1 0 0-0.1zm0.9 0q0.1 0 0 0.1 0 0-0.1 0 0 0 0.1-0.1zm20.3 0q0.1 0 0 0.1 0 0-0.1 0 0 0 0.1-0.1zm0.7 0q0.1 0.1 0.1 0.1-0.1 0-0.2 0 0 0 0.1-0.1zm-15.9 0.1q0 0 0 0 0 0.1-0.1 0 0 0 0.1 0zm1.2 0q0.1 0 0 0.1 0 0-0.1 0-0.1-0.1 0.1-0.1zm9 0.3c0 0 0.1 0.1 0.2 0.2 0.1 0.1 0.1 0.1 0.1 0.1 0 0-0.1 0-0.1-0.1-0.1-0.1-0.2-0.2-0.2-0.2zm-5 0.3l0.1 0.1-0.1-0.1q-0.1-0.1-0.1-0.1 0-0.1 0.1 0.1zm-20.6-0.1c0 0 0 0.1-0.2 0.2l-0.1 0.1 0.1-0.1q0.1-0.2 0.2-0.2zm-13.8 0.5c0 0 0 0.1-0.1 0.2l-0.2 0.1 0.2-0.1c0.1-0.2 0.1-0.2 0.1-0.2zm35.1 0.3q0 0-0.1 0.1l-0.1 0.1 0.1-0.1q0.1-0.1 0.1-0.1zm-38.9 0q0.1 0-0.1 0.1l-0.1 0.1 0.1-0.1q0.1-0.1 0.1-0.1zm26.9 0.3q0.1 0 0 0 0 0-0.1 0 0 0 0.1 0zm21.1 0q0 0 0 0 0 0-0.1 0 0 0 0.1 0zm-46.1 0c0 0 0 0.1-0.2 0.2l-0.1 0.1 0.1-0.1q0.1-0.1 0.2-0.2zm33.5 0.1q0.1 0 0 0 0 0-0.1 0 0 0 0.1 0zm5.1 0q0.1 0 0.1 0 0 0-0.1 0-0.1 0 0 0zm-35.2 0.2c0 0 0 0-0.2 0.2l-0.2 0.2 0.2-0.2c0.1-0.1 0.2-0.2 0.2-0.2zm30.9 0q0 0.1 0.1 0.1 0.1 0.1 0.1 0.1 0 0-0.1-0.1-0.1 0-0.1-0.1zm5.2 0q0 0.1 0.1 0.1 0.1 0.1 0.1 0.1 0 0-0.1-0.1-0.1 0-0.1-0.1zm2.6 0.1q0 0.1 0 0.1 0 0.1 0 0 0-0.2 0-0.1zm-25.3 0q0 0.1 0 0.1-0.1 0.1-0.1 0 0-0.1 0.1-0.1zm20.7 0.1c0 0 0 0-0.1 0.2l-0.2 0.1 0.1-0.2q0.1-0.1 0.2-0.1zm-8.6 0.4q0 0.1 0 0.1 0 0.1 0 0 0-0.1 0-0.1zm-2 0.2q0 0.1 0 0.2 0 0 0-0.1 0-0.2 0-0.1zm-18.5 0q0 0.1 0 0.1 0 0.1 0 0 0-0.2 0-0.1zm31.5 0.1c0 0 0 0.1 0 0.2q0 0 0-0.1 0-0.2 0-0.1zm-34.8 0.4c0.7 0 1 0 0.6 0-0.3 0-0.9 0-1.3 0-0.3 0 0 0 0.7 0zm-6.1 0.1q0 0 0.2 0.1 0.1 0.1 0.1 0.1-0.1 0-0.2-0.1-0.1-0.1-0.1-0.1zm20.5 0.6c0 0 0 0.1 0.1 0.2 0.1 0.1 0.2 0.1 0.2 0.1-0.1 0-0.1 0-0.2-0.1-0.1-0.1-0.1-0.2-0.1-0.2zm-16.3 0.7q0.1 0 0.1 0-0.1 0-0.1 0-0.1 0 0 0zm4 0c0.2 0 0.3 0 0.2 0-0.1 0-0.3 0-0.4 0q-0.1 0 0.2 0zm-9.5 0.1q0 0 0 0.1 0 0.1 0-0.1 0-0.1 0 0zm20.3 0.6l0.1 0.1-0.1-0.1q-0.1-0.1-0.1-0.1 0 0 0.1 0.1zm26 0.4q0 0 0 0.1 0 0 0-0.1 0-0.1 0 0zm-23.2 0.1q0.1 0.1 0 0.2 0 0 0-0.1 0-0.1 0-0.1zm26.3 0.1c0 0 0 0-0.2 0.2l-0.1 0.1 0.1-0.1c0.1-0.1 0.2-0.2 0.2-0.2zm-33.1 0.1q0 0.1 0 0.1l-0.1 0.1v-0.1q0.2-0.1 0.1-0.1zm-19.9 0.2c0.8 0 1.2 0.1 0.8 0.1-0.5 0-1.1 0-1.6 0-0.4 0 0-0.1 0.8-0.1zm19.7 0.1q0 0-0.1 0.1l-0.1 0.1 0.1-0.1q0.1-0.2 0.1-0.1zm-9.8 0.2q0.1 0 0.1 0-0.1 0-0.1 0-0.1 0 0 0zm9.6 0.1q0 0.1 0 0.1 0 0.1 0 0 0-0.1 0-0.1zm10.5 0.1q0.2 0 0.1 0 0 0-0.1 0-0.1 0 0 0zm21.2 0q0.2 0 0.1 0c-0.1 0-0.2 0-0.2 0q-0.1 0 0.1 0zm-44.1 0.3q0 0 0.1 0.1 0.1 0.1 0.1 0.1 0 0-0.1-0.1-0.2-0.1-0.1-0.1zm41.2 0.1l0.1 0.2c0.1 0 0.2 0.1 0.2 0.1 0 0 0 0-0.2-0.1zm-14.1 0.8c0 0 0.1 0 1 0 0.6 0 1 0 1 0 0 0.1-0.4 0.1-1 0.1h-1v-0.1q0-0.1 0 0zm-20.4 0q0 0 0.1 0 0 0.1 0 0.1-0.1 0-0.1-0.1 0 0 0 0zm18.7 0l1 0.1h-1c-0.5 0-1 0-1-0.1 0 0 0.4 0 1 0zm-31.5 0.1q0.3 0 0.2 0c-0.1 0-0.3 0-0.3 0q-0.2 0 0.1 0zm28.2-0.1q0.2 0.1 0.1 0.1c0 0-0.1 0-0.2 0q-0.1 0 0.1-0.1zm16.2 0.1c0.5 0 0.7 0 0.5 0-0.3 0-0.7 0-0.9 0-0.2 0-0.1 0 0.4 0zm4.9-0.1q0.2 0 0.1 0.1 0 0-0.1 0-0.1 0 0-0.1zm3.3 0.1c0.5 0 0.7 0 0.5 0-0.3 0-0.7 0-1 0-0.3 0-0.1 0 0.5 0zm-31.1 0q0.1 0 0 0 0 0-0.1 0 0 0 0.1 0zm-12.5 0q0.3 0 0.1 0c0 0.1-0.2 0.1-0.2 0q-0.1 0 0.1 0z"/>
		<path id="path4" fill-rule="evenodd" class="s4" d="m41.4 5.8q0.2 0 0.1 0-0.1 0-0.1 0-0.1 0 0 0zm0.4 0q0.1 0 0 0 0 0-0.1 0 0 0 0.1 0zm18.2 1.6q0.1 0-0.1 0.1l-0.1 0.1 0.1-0.1q0.1-0.1 0.1-0.1zm-41.3 0.3c0 0-0.1 0.1-0.2 0.2l-0.2 0.2 0.2-0.2c0.1-0.2 0.2-0.2 0.2-0.2zm6 1.2q0 0.1 0 0.2 0 0-0.1-0.1 0.1-0.1 0.1-0.1zm19.8 0.1q0 0-0.1 0.1l-0.1 0.2 0.1-0.2c0.1-0.1 0.1-0.1 0.1-0.1zm-7.6 0.3c0.5 0 0.7 0 0.5 0-0.3 0-0.6 0-0.9 0-0.2 0 0 0 0.4 0zm-2.8 0.1c0 0.1 0 0.2 0 0.3q0 0 0-0.2 0-0.2 0-0.1zm-9.4 1.9c0 0.1 0 0.2 0 0.2q0 0.1 0-0.1 0-0.2 0-0.1zm3.7 0.3q0.1 0 0.1 0-0.1 0-0.2 0 0 0 0.1 0zm1.8 0q0.2 0 0.1 0c0 0-0.1 0-0.2 0q0 0 0.1 0zm7.4 0q0.1 0 0 0 0 0 0 0.3v0.4-0.4c0-0.1 0-0.3 0-0.3q0 0 0 0zm-5.8 1c0 0.1 0 0.2 0 0.3q0 0.2 0-0.1 0-0.3 0-0.2zm20.3 0.7c0 0.1 0 0.2 0 0.3q0 0.1 0-0.1 0-0.3 0-0.2zm11.2 1.7c0 0.2 0 0.4 0 0.6 0 0.2 0 0 0-0.3 0-0.3 0-0.5 0-0.3zm-3.4 1.3q0 0 0 0.1 0 0.1 0-0.1 0-0.1 0 0zm-1.5 0.6q0.1 0 0 0.1l-0.1 0.1 0.1-0.1q0-0.1 0-0.1zm-26.6 0.6c0 0.2 0 0.6 0 0.8 0 0.2 0 0 0-0.4 0-0.4 0-0.6 0-0.4zm14.6 0q0 0.1 0 0.1 0 0.1 0 0 0-0.2 0-0.1zm-12.3 0.7c0 0.3 0 0.9 0 1.2 0 0.3 0 0.1 0-0.6 0-0.6 0-0.9 0-0.6zm-23.2 0.3q0.1 0-0.1 0.1l-0.1 0.1 0.1-0.1q0.1-0.1 0.1-0.1zm49 0.4c0 0 0 0.1 0 0.2q0 0.1 0-0.1 0-0.2 0-0.1zm-44.6 0q0 0-0.1 0.1l-0.2 0.1 0.1-0.1q0.2-0.1 0.2-0.1zm40.7 0.3q0 0-0.1 0.2c-0.1 0-0.2 0.1-0.2 0.1q0 0 0.1-0.1c0.1-0.1 0.2-0.2 0.2-0.2zm-9.7 0.5q0.1 0.1 0 0.1 0 0.1 0 0 0-0.1 0-0.1zm-21.6 0.2q0 0.1 0 0.2 0 0 0-0.1 0-0.1 0-0.1zm-14.1 0.4q0.1 0-0.1 0.1l-0.1 0.1 0.1-0.1q0.1-0.1 0.1-0.1zm44.3 0q0 0-0.1 0.1l-0.1 0.1 0.1-0.1q0.1-0.1 0.1-0.1zm-36 0.5c0 0.1 0 0.2 0 0.3 0 0.1 0 0.1 0-0.1 0-0.3 0-0.3 0-0.2zm29.9 0q0 0.1 0 0.1 0 0.1 0 0 0-0.2 0-0.1zm-42.3 1.8q0 0-0.1 0.2c-0.1 0-0.2 0.1-0.2 0.1q0 0 0.1-0.1c0.1-0.1 0.2-0.2 0.2-0.2zm15.8 0.8q0 0.1 0 0.1 0 0.1 0 0 0-0.1 0-0.1zm41 0.6q0 0.1 0 0.2 0 0 0-0.1 0-0.1 0-0.1zm-51.7 3.3q0.2 0 0.1 0c-0.1 0-0.2 0-0.3 0q-0.1 0 0.2 0zm14.9 0.5q0.2 0 0.1 0-0.1 0.1-0.1 0-0.1 0 0 0zm6.7 1.4q0.1 0 0 0.1 0 0-0.1 0-0.1-0.1 0.1-0.1zm7.3 0.4q0.1 0 0.1 0-0.1 0-0.2 0 0 0 0.1 0zm-30.5 1.7q0.2 0 0.1 0c0 0.1-0.2 0.1-0.2 0q-0.1 0 0.1 0zm48.2 0.8q0 0-0.2 0.2l-0.1 0.1 0.1-0.1q0.1-0.1 0.2-0.2zm-21.3 0.1q0.1 0 0 0.1l-0.1 0.1v-0.1q0.1-0.1 0.1-0.1zm-1.4 1.1q0 0.1 0 0.1-0.1 0.1-0.1 0 0-0.1 0.1-0.1zm-3.2 1.3q0.1 0 0.1 0-0.1 0-0.1 0-0.1 0 0 0zm-8 1.4q0.1 0 0.1 0.1c-0.1 0-0.2 0-0.2 0q-0.1-0.1 0.1-0.1z"/>
	</g>
</svg>