<svg version="1.2" xmlns="http://www.w3.org/2000/svg" viewBox="0 0 56 42" width="56" height="42">
	<title>bank-lain-svg</title>
	<style>
		.s0 { fill: #dcdcdc } 
		.s1 { fill: #ececec } 
		.s2 { fill: #f4f4f4 } 
		.s3 { fill: #e4e4e4 } 
	</style>
	<path id="Layer" fill-rule="evenodd" class="s0" d="m52.6 1.2q1 0.4 1.4 0.9c0.2 0.3 0.2 0.4 0.3 0.5 0 0.1 0 0.1 0.1 0.2 0.1 0.3 0.1-0.1 0.1 17.8 0 18.1 0 17.5-0.2 17.8q0 0.1 0 0.2 0 0-0.1 0.1 0 0 0 0.1c0 0.1-0.9 0.9-1.1 0.9q-0.1 0-0.2 0.1c-0.3 0.2 0.4 0.2-25 0.2-21.2 0-24.4 0-24.7-0.1-0.4-0.1-1.1-0.5-1.3-0.8 0-0.1-0.1-0.2-0.1-0.2-0.1 0-0.4-0.6-0.4-0.7 0 0 0-0.1 0-0.2-0.1-0.2-0.1-34.7 0-34.8q0-0.1 0-0.3c0 0 0.2-0.4 0.3-0.6q0.3-0.4 0.4-0.5c0 0 0.1 0 0.1-0.1 0.2-0.1 0.6-0.3 1-0.4 0.3-0.2 49.1-0.2 49.4-0.1zm-33.6 5.9c-0.1 0-0.1 0.1-0.1 0.2 0 0-0.1 0.1-0.1 0.2 0 0-0.1 0.1-0.1 0.2 0 0 0 0.1 0 0.2-0.1 0-0.1 0.1-0.1 0.2 0 0.1-0.1 0.2-0.1 0.3 0 0-0.1 0.1-0.1 0.2 0 0 0 0.1 0 0.2-0.1 0-0.1 0.1-0.1 0.2 0 0 0 0.1 0 0.2-0.1 0-0.1 0.1-0.1 0.2 0 0.1-0.1 0.2-0.1 0.3-0.1 0-0.1 0.1-0.1 0.2q0 0.1 0 0.1c-0.1 0.1-0.1 0.1-0.1 0.2 0 0.2-0.2 0.6-0.2 0.8-0.1 0-0.1 0.1-0.1 0.2 0 0 0 0.1-0.1 0.2 0 0 0 0.1 0 0.2 0 0.1 0 0.1-0.1 0.2 0 0-0.1 0.1-0.1 0.2 0 0.1 0 0.2-0.1 0.3 0 0 0 0.1 0 0.2 0 0 0 0.1-0.1 0.2 0 0 0 0.1 0 0.2l-0.1 0.1c0 0.1-0.1 0.2-0.1 0.3 0 0.1 0 0.2-0.1 0.2 0 0.1 0 0.2 0 0.2 0 0.1-0.1 0.2-0.1 0.2 0 0.1-0.1 0.2-0.1 0.3v0.1c-0.1 0.1-0.1 0.2-0.1 0.3 0 0.1-0.1 0.2-0.1 0.2 0 0.1-0.1 0.2-0.1 0.2q0 0.1 0 0.2c0 0-0.1 0.1-0.1 0.2 0 0.2-0.1 0.5-0.2 0.7-0.1 0.1-0.1 0.2-0.1 0.3v0.1c-0.1 0.1-0.1 0.2-0.1 0.2 0 0.1 0 0.2-0.1 0.2 0 0.1 0 0.1 0 0.2-0.1 0.1-0.1 0.3-0.1 0.3-0.1 0.1-0.1 0.2-0.1 0.2 0 0.1 0 0.2-0.1 0.2 0 0.1 0 0.2 0 0.2 0 0.1 0 0.2-0.1 0.2 0 0.1-0.1 0.2-0.1 0.3-0.1 0.3-0.1 0.3 1.8 0.3 1.9 0 1.7 0 1.8-0.3 0-0.2 0.1-0.3 0.1-0.4 0 0 0-0.1 0-0.2 0-0.1 0.1-0.2 0.1-0.2 0-0.1 0.1-0.2 0.1-0.3 0 0 0-0.1 0-0.2 0.1-0.1 0.1-0.2 0.1-0.3l0.1-0.2h3.6l0.1 0.1c0 0 0.1 0.1 0.1 0.2q0 0.1 0 0.3c0.1 0 0.1 0.2 0.1 0.3 0 0.1 0.1 0.2 0.1 0.3 0 0.1 0.1 0.2 0.1 0.2q0 0.1 0 0.3c0.1 0 0.1 0.1 0.1 0.2 0 0.1 0 0.1 0.1 0.2 0.1 0 3.3 0 3.4 0 0.1 0 0.1-0.2 0-0.3q-0.1-0.1-0.1-0.2c0-0.1 0-0.1 0-0.2-0.1-0.1-0.1-0.2-0.1-0.3 0-0.1-0.1-0.2-0.1-0.2 0-0.1-0.1-0.1-0.1-0.2 0-0.1 0-0.2 0-0.2-0.1 0-0.1-0.2-0.1-0.3 0-0.1-0.1-0.1-0.1-0.2 0 0 0 0 0-0.1-0.1-0.1-0.1-0.2-0.1-0.3-0.1 0-0.1-0.1-0.1-0.2 0 0 0-0.1 0-0.2-0.1 0-0.1-0.1-0.1-0.2 0 0 0-0.1-0.1-0.2 0 0 0-0.2-0.1-0.2q0-0.2 0-0.3c-0.1 0-0.1-0.1-0.1-0.2 0 0 0-0.1-0.1-0.2 0 0-0.1-0.2-0.1-0.4-0.1-0.2-0.1-0.4-0.2-0.4 0 0 0-0.1 0-0.2-0.1-0.2-0.2-0.5-0.2-0.7-0.1 0-0.1-0.1-0.1-0.2 0-0.1-0.1-0.2-0.1-0.2q0-0.1 0-0.2l-0.1-0.2c0-0.1-0.1-0.2-0.1-0.2 0 0 0-0.1 0-0.2-0.1 0-0.1-0.2-0.1-0.3l-0.1-0.2c0 0-0.1-0.1-0.1-0.2 0-0.1 0-0.1 0-0.2-0.1 0-0.1-0.1-0.1-0.2 0-0.1-0.1-0.2-0.1-0.2 0-0.1 0-0.1 0-0.2-0.1-0.1-0.1-0.2-0.1-0.3-0.1 0-0.1-0.1-0.1-0.2 0 0 0-0.1 0-0.2-0.1 0-0.1-0.1-0.1-0.2 0 0 0-0.1-0.1-0.2 0 0 0-0.1-0.1-0.2q0-0.1 0-0.3c-0.1 0-0.1-0.1-0.1-0.2 0 0 0-0.1-0.1-0.1q0-0.1 0-0.2c0-0.1-0.1-0.1-0.1-0.2 0-0.1-0.1-0.2-0.1-0.3 0-0.1 0-0.2-0.1-0.2q0-0.1 0-0.2 0 0-0.1-0.1c-0.1-0.1-4.1-0.1-4.2 0zm-13.6 0.1c0 0.1 0 11.5 0.1 11.6 0 0 4.8 0 5.3 0 0.5-0.1 0.9-0.1 1.1-0.2 0 0 0.1-0.1 0.2-0.1 0 0 0.1 0 0.2 0 0-0.1 0.2-0.1 0.3-0.2 0.6-0.3 1.4-1 1.4-1.3q0 0 0.1-0.1l0.1-0.1c0-0.1 0-0.2 0.1-0.2 0 0 0-0.1 0-0.2 0-0.1 0-0.1 0.1-0.2 0.1-0.1 0.1-1.4 0-1.6 0-0.1-0.1-0.2-0.1-0.3 0 0 0-0.1-0.1-0.2 0-0.1 0-0.2 0-0.2q0-0.1-0.1-0.1 0 0-0.1-0.1c0-0.2-0.6-0.7-0.7-0.7q-0.1 0-0.1-0.1-0.1 0-0.2 0 0 0-0.1-0.1c0 0-0.1-0.1-0.2-0.1-0.2 0-0.2 0-0.1-0.1q0.1-0.1 0.1-0.1c0.1 0 0.4-0.2 0.6-0.3 0.1-0.1 0.4-0.4 0.4-0.5q0 0 0.1-0.1 0.1 0 0.3-0.6c0.2-0.4 0.2-1.6 0-2 0 0-0.1-0.2-0.1-0.3-0.3-0.4-1.1-1.2-1.5-1.2q-0.1 0-0.2 0c0-0.1-0.1-0.1-0.1-0.1-0.1 0-0.2 0-0.3-0.1-0.1 0-0.3-0.1-1-0.2-0.5 0-5.4 0-5.5 0.1zm22.9 0c-0.1 0-0.1 11.5 0 11.6 0 0 2.6 0 2.7 0 0.1-0.1 0.2-5.4 0.1-6.7-0.1-0.8-0.1-1.2-0.1-1.3q0.1 0.2 0.1 0.2 0.1 0 0.1 0.1 0 0.1 0.1 0.1 0 0 0 0.1c0 0.1 0.1 0.2 0.1 0.2 0 0.1 0.3 0.5 0.7 1.4 0.1 0.2 0.3 0.6 0.4 0.7 0 0.1 0.1 0.2 0.1 0.2q0 0.1 0 0.1 0.1 0 0.1 0.2 0.1 0.1 0.1 0.1 0 0 0.1 0.1c0 0 0 0.1 0.1 0.2 0 0.2 0.2 0.4 0.3 0.6 0.2 0.4 0.2 0.5 0.3 0.6q0.3 0.4 0.3 0.6 0 0 0 0.1 0.1 0 0.1 0.1 0 0 0 0.1 0.1 0.1 0.1 0.1c0 0 0.2 0.4 0.5 0.9 0.1 0.2 0.3 0.6 0.4 0.8q0.2 0.4 0.3 0.4c0.1 0 3.9 0 4 0 0.1-0.1 0.2-11.6 0-11.7 0 0-0.4 0-1.4 0h-1.4c0 2.1 0 7.7 0 7.8 0 0-0.1-0.1-0.5-0.9-0.1-0.3-0.2-0.4-0.2-0.5q0 0-0.1-0.1 0-0.1 0-0.1c0 0-0.1-0.1-0.2-0.3 0-0.1-0.1-0.2-0.1-0.3l-0.1-0.1c0-0.1-0.1-0.2-0.1-0.2q0-0.1-0.1-0.2c0 0 0-0.1-0.1-0.2q0-0.1-0.1-0.1c0-0.1-0.1-0.2-0.1-0.3-0.1-0.1-0.2-0.3-0.2-0.3q0-0.1 0-0.1c-0.1-0.1-0.1-0.1-0.1-0.2q-0.1-0.1-0.1-0.1 0 0-0.1-0.1c0-0.1 0-0.2 0-0.2q-0.1-0.1-0.1-0.1 0-0.1-0.1-0.2 0-0.1-0.4-0.7c0 0-0.1-0.2-0.1-0.3-0.1-0.2-0.2-0.3-0.2-0.4q0 0-0.1-0.1c0 0-0.1-0.2-0.2-0.5-0.1-0.2-0.3-0.5-0.4-0.6 0-0.2-0.1-0.3-0.1-0.3q-0.1-0.1-0.1-0.1 0-0.1-0.1-0.2c-0.1 0-4.1 0-4.1 0.1zm2.7 3.6q0 0 0 0 0 0 0 0zm10.9-3.7c-0.1 0.1-0.1 11.7 0 11.7 0.1 0 2.9 0 3 0h0.2v-3.9l0.1-0.1q0.1 0 0.2-0.1 0 0 0.1 0c0.2-0.3 0.4-0.3 0.5-0.1 0.2 0.4 0.6 1 0.6 1.1q0.1 0.1 0.1 0.2c0 0.1 0.1 0.2 0.1 0.3 0.1 0.1 0.1 0.1 0.4 0.6 0.6 1.2 0.7 1.4 0.7 1.5q0.1 0 0.1 0.1 0 0 0 0.1c0.1 0 0.1 0.1 0.1 0.2 0.1 0.1 0.2 0.1 2 0.1 1.7 0 1.8 0 1.7-0.2-0.1 0-0.2-0.2-0.3-0.4q0-0.1 0-0.1c0 0-0.1-0.1-0.2-0.2 0-0.1-0.1-0.3-0.2-0.4 0-0.1-0.1-0.3-0.2-0.4 0-0.1-0.1-0.3-0.2-0.4 0-0.1-0.1-0.2-0.1-0.2q-0.1-0.1-0.1-0.2 0-0.1-0.1-0.1c0-0.1-0.1-0.1-0.1-0.2 0-0.1-0.1-0.2-0.1-0.3-0.1 0-0.2-0.2-0.3-0.4 0-0.1-0.1-0.2-0.1-0.2q-0.1 0-0.1-0.1 0-0.1 0-0.1c0 0-0.1-0.1-0.1-0.2 0 0-0.1-0.2-0.2-0.4-0.1-0.1-0.2-0.3-0.2-0.3-0.1-0.1-0.1-0.2-0.2-0.3 0-0.1-0.1-0.2-0.2-0.4 0-0.1-0.1-0.2-0.1-0.2 0 0-0.2-0.2-0.2-0.4q-0.1-0.1-0.1-0.1c-0.1 0-0.1-0.3 0-0.4 0-0.1 0.1-0.2 0.1-0.2q0-0.1 0.1-0.1 0-0.1 0.1-0.2 0.1 0 0.1-0.1 0.1-0.1 0.1-0.2 0 0 0.1-0.1 0-0.1 0.1-0.1 0.1-0.1 0.1-0.2c0 0 0.1-0.1 0.2-0.2 0.1-0.1 0.1-0.3 0.1-0.3q0.4-0.4 0.4-0.5c0.1-0.1 0.3-0.3 0.3-0.4 0 0 0.3-0.3 0.3-0.4q0 0 0-0.1 0.1 0 0.1 0 0-0.1 0-0.1c0.1 0 0.2-0.2 0.3-0.4 0.1-0.1 0.3-0.5 0.4-0.6 0.1-0.1 0.1-0.2 0.2-0.2q0.3-0.5 0.3-0.6c0-0.1-3.3-0.1-3.4-0.1-0.1 0.1-0.3 0.3-0.3 0.4-0.1 0.1-0.3 0.3-0.3 0.4q0 0 0 0.1-0.1 0-0.1 0 0 0.1 0 0.2c-0.1 0-0.1 0.1-0.2 0.1 0 0.1-0.2 0.3-0.3 0.6-0.2 0.3-0.4 0.5-0.4 0.6-0.1 0-0.2 0.1-0.2 0.2-0.1 0.1-0.1 0.2-0.2 0.2q0 0.1 0 0.2c-0.1 0-0.1 0.1-0.1 0.1-0.1 0.1-0.1 0.1-0.2 0.2q-0.1 0.1-0.1 0.1 0 0.1 0 0.1c-0.1 0.1-0.3 0.3-0.3 0.4q-0.1 0-0.1 0.1 0 0.1 0 0.1-0.1 0.1-0.1 0.1c-0.1 0.3-0.4 0.6-0.4 0.5 0-0.1 0-1.1 0-2.4 0-2 0-2.3-0.1-2.3-0.1 0-3.1 0-3.1 0zm-20.8 2.3c0 0.1 0.2 0.5 0.2 0.6v0.2c0.1 0.1 0.1 0.2 0.1 0.3q0 0.1 0 0.3c0.1 0 0.1 0.2 0.1 0.3 0.1 0.1 0.1 0.2 0.1 0.3 0.1 0.1 0.1 0.2 0.1 0.2q0 0.1 0 0.3c0.1 0 0.1 0.1 0.1 0.2 0 0.1 0 0.2 0.1 0.3 0 0 0 0.2 0.1 0.3q0 0.1 0 0.3c0.1 0.1 0.1 0.2 0.1 0.2 0 0.1 0 0.2 0.1 0.3 0 0 0 0.2 0 0.3l0.1 0.1c-1.1 0-2.3 0-2.3 0 0-0.1 0-0.2 0.1-0.3 0-0.1 0-0.3 0-0.3 0.1-0.1 0.1-0.2 0.1-0.2 0-0.1 0-0.2 0.1-0.3q0-0.1 0-0.3c0-0.1 0.1-0.2 0.1-0.2 0-0.1 0.1-0.2 0.1-0.3 0-0.1 0-0.3 0.1-0.3q0-0.2 0-0.3c0-0.1 0.1-0.2 0.1-0.3 0 0 0.1-0.1 0.1-0.2q0-0.2 0-0.3c0 0 0.1-0.2 0.1-0.3 0-0.2 0-0.3 0.1-0.3 0 0 0-0.2 0-0.3 0-0.2 0.1-0.3 0.1-0.3zm-12.4 0.2h0.7c0.9 0 1.1 0.1 1.4 0.5 0.1 0.1 0.1 0.7 0 0.9q-0.3 0.6-1.7 0.5h-0.4zm1.4 4.4c0.4 0.1 0.8 0.2 0.8 0.4q0 0.1 0.1 0.1c0.1 0 0.2 0.6 0.1 0.8 0 0.1 0 0.2-0.1 0.3 0 0.4-0.4 0.6-1.5 0.6h-0.8c0-0.6 0-2.2 0-2.2 0.1-0.1 0.8-0.1 1.4 0zm9.5 9.1c-2.3 0-2.2 0-2.3 0.3q0 0.2 0 0.3c-0.1 0.1-0.1 0.2-0.1 0.2 0 0 0 0.1-0.1 0.2 0 0.1 0 0.1 0 0.2 0 0.1-0.1 0.1-0.1 0.2l-0.1 0.2c0 0.1 0 0.2-0.1 0.3 0 0 0 0.1 0 0.2 0 0-0.1 0.1-0.1 0.2 0 0.1-0.1 0.1-0.1 0.2 0 0.1 0 0.1 0 0.2l-0.1 0.2c0 0.1-0.1 0.2-0.1 0.3 0 0 0 0.1 0 0.2 0 0-0.1 0.1-0.1 0.2 0 0-0.1 0.1-0.1 0.2 0 0 0 0.1 0 0.2-0.1 0.2-0.2 0.5-0.3 0.7 0 0 0 0.1 0 0.2-0.1 0-0.1 0.1-0.1 0.2 0 0 0 0.1 0 0.2-0.1 0-0.1 0.1-0.1 0.2-0.1 0.1-0.1 0.2-0.1 0.3-0.1 0-0.1 0.1-0.1 0.2 0 0 0 0.1-0.1 0.2 0 0 0 0.1 0 0.2 0 0 0 0.1-0.1 0.2 0 0 0 0.1-0.1 0.2q0 0.1 0 0.3c-0.1 0-0.1 0.1-0.1 0.2 0 0 0 0.1-0.1 0.2 0 0 0 0.1 0 0.2 0 0-0.1 0.1-0.1 0.2 0 0-0.1 0.1-0.1 0.2 0 0.1 0 0.2-0.1 0.3 0 0 0 0.1 0 0.2 0 0-0.1 0.1-0.1 0.2 0 0-0.1 0.1-0.1 0.2 0 0 0 0.1 0 0.2 0 0-0.1 0.1-0.1 0.2 0 0.1-0.1 0.2-0.1 0.3 0 0 0 0.1 0 0.2q-0.1 0.1-0.1 0.1c0 0 0 0.1-0.1 0.2 0 0.2-0.1 0.6-0.2 0.7 0 0 0 0.1 0 0.2-0.1 0.1-0.1 0.2-0.1 0.3-0.1 0-0.1 0.1-0.1 0.2v0.2h1.7c1.9 0 1.9 0 1.9-0.3v-0.2c0.1-0.1 0.1-0.2 0.1-0.2 0-0.1 0-0.2 0.1-0.3 0 0 0-0.2 0-0.3 0.1-0.1 0.1-0.2 0.1-0.3 0.1-0.1 0.1-0.2 0.1-0.2 0-0.1 0-0.2 0.1-0.3v-0.1h1.8c2 0 1.9 0 1.9 0.3 0.1 0.1 0.2 0.4 0.3 0.8q0 0.2 0 0.3c0 0 0 0.1 0.1 0.2 0 0 0.1 0.2 0.1 0.3 0 0.3-0.1 0.3 1.8 0.3h1.7c0-0.1 0-0.4 0-0.5-0.1 0-0.1-0.1-0.1-0.2 0 0 0-0.1-0.1-0.2 0 0 0-0.1-0.1-0.2 0-0.1 0-0.2 0-0.2 0 0-0.1-0.1-0.1-0.2 0-0.1 0-0.2-0.1-0.2 0-0.1 0-0.1 0-0.2-0.1-0.2-0.2-0.6-0.2-0.7-0.1 0-0.1-0.1-0.1-0.2 0-0.1-0.1-0.2-0.1-0.3l-0.1-0.1c0-0.1 0-0.2 0-0.2q-0.1-0.1-0.1-0.2c0 0 0-0.1 0-0.2-0.1-0.1-0.1-0.2-0.1-0.3 0-0.1-0.1-0.2-0.1-0.2 0 0-0.1-0.1-0.1-0.2 0-0.2-0.1-0.5-0.2-0.7 0-0.1-0.2-0.4-0.2-0.6 0-0.1 0-0.2-0.1-0.2q0-0.1 0-0.2c0 0 0-0.1-0.1-0.2l-0.1-0.2c0-0.1 0-0.2-0.1-0.3 0 0 0-0.1 0-0.2 0 0 0-0.1-0.1-0.2 0 0-0.1-0.2-0.1-0.4-0.1-0.2-0.1-0.4-0.2-0.4 0-0.1 0-0.2 0-0.2 0-0.1-0.1-0.2-0.1-0.2 0-0.1-0.1-0.2-0.1-0.2 0-0.1 0-0.2 0-0.2-0.1-0.1-0.1-0.2-0.1-0.3-0.1-0.1-0.1-0.2-0.1-0.2q-0.1-0.1-0.1-0.2c0-0.1 0-0.2 0-0.2q-0.1-0.1-0.1-0.2c0 0 0-0.1 0-0.2-0.1 0-0.1-0.2-0.1-0.3l-0.1-0.2c0 0-0.1-0.1-0.1-0.2 0-0.1 0-0.1 0-0.2-0.1 0-0.1-0.1-0.1-0.2 0-0.2-0.1-0.3-0.2-0.4-0.1-0.1-0.2-0.1-2.1-0.1zm-14.1 0.1c-0.1 0.1-0.1 1.6-0.1 5.9l0.1 5.8c2.1 0 7.5 0 7.6 0l0.1-0.1v-1.2c0-0.9-0.1-1.2-0.1-1.3 0 0-0.6 0-2.2 0h-2.2v-9l-0.1-0.1c-0.1-0.1-3-0.1-3.1 0zm22.9 0c-1.3 0-1.6 0-1.6 0-0.1 0.1-0.1 1.6-0.1 5.9l0.1 5.8h3.2c0-4.3 0-11.6 0-11.7-0.1 0-0.4 0-1.6 0zm8.1 0c-1.2 0-4 0-4 0-0.1 0.1-0.1 11.6 0 11.6 0 0.1 0.4 0.1 1.4 0.1h1.4c0-2.1 0-6.5 0-6.7-0.1-0.4-0.1-1.3-0.1-1.3q0.1 0 0.1 0 0 0.1 0 0.2 0.1 0.1 0.1 0.1c0 0 0 0.2 0.1 0.3 0.1 0.1 0.2 0.4 0.3 0.6 0.5 1 0.6 1.1 0.7 1.2v0.1q0.1 0.1 0.1 0.2c0 0.1 0.1 0.2 0.1 0.2 0.1 0.1 0.1 0.1 0.1 0.2q0 0.1 0.1 0.1 0 0 0 0.1c0 0 0.1 0.2 0.3 0.5 0.1 0.1 0.1 0.2 0.3 0.6 0.1 0.2 0.2 0.4 0.2 0.4q0.1 0.1 0.1 0.2c0 0 0.1 0.1 0.1 0.2 0.1 0.2 0.2 0.3 0.2 0.3q0 0.1 0 0.1 0.1 0 0.1 0.1 0 0.1 0.1 0.2v0.1q0.1 0.1 0.1 0.1 0 0.1 0.1 0.2 0 0.1 0 0.1c0.1 0 0.1 0.2 0.2 0.3 0.1 0.1 0.1 0.3 0.2 0.3q0 0.1 0 0.1c0 0.1 0.1 0.3 0.3 0.5l0.2 0.4h4.2v-11.7h-2.8l-0.1 0.1c0 0 0 0.9 0 3.9 0 3.3 0 3.8 0 3.7-0.1-0.1-0.1-0.1-0.1-0.1q-0.1-0.1-0.1-0.2 0 0-0.1-0.1 0 0 0-0.1 0-0.1-0.1-0.1c0-0.1-0.1-0.3-0.2-0.5-0.3-0.6-0.6-1.1-0.6-1.2q-0.1 0-0.1-0.1c0-0.1-0.1-0.1-0.1-0.2q0 0-0.1-0.1 0-0.1 0-0.1-0.1 0-0.1-0.1c0 0-0.2-0.4-0.2-0.5q-0.1 0-0.1-0.1 0-0.1 0-0.1-0.1 0-0.1-0.1c0 0 0-0.1-0.1-0.2l-0.1-0.1q0-0.1 0-0.2-0.1 0-0.1-0.1 0-0.1 0-0.1c-0.1 0-0.2-0.2-0.3-0.4-0.1-0.2-0.3-0.6-0.4-0.8-0.1-0.2-0.3-0.5-0.3-0.7-0.1-0.1-0.2-0.3-0.2-0.3q0 0-0.1-0.1 0-0.1 0-0.1c0 0-0.1-0.1-0.1-0.2q0-0.1-0.1-0.1c0 0 0-0.1-0.1-0.2 0-0.1-0.1-0.3-0.2-0.3zm-16.8 2.6c0 0.1 0 0.2 0.1 0.3 0 0.1 0 0.3 0 0.4 0.1 0.1 0.1 0.2 0.1 0.3 0.1 0 0.1 0.2 0.1 0.2 0 0.1 0 0.2 0.1 0.3 0 0.1 0 0.2 0 0.2 0 0.1 0 0.2 0.1 0.3 0 0 0 0.2 0.1 0.3 0 0.1 0 0.2 0.1 0.3v0.2c0 0.1 0 0.2 0.1 0.3 0 0 0 0.1 0 0.2 0 0.1 0.1 0.2 0.1 0.3 0 0 0.1 0.2 0.1 0.3 0 0.1 0 0.2 0.1 0.3 0 0-0.1 0.1-1.2 0h-1.1v-0.2c0-0.1 0.1-0.2 0.1-0.3 0 0 0-0.1 0-0.2 0-0.1 0.1-0.2 0.1-0.2 0-0.1 0.1-0.3 0.1-0.4 0-0.1 0.1-0.2 0.1-0.3 0 0 0-0.1 0-0.2 0-0.1 0.1-0.2 0.1-0.3l0.1-0.2q0-0.2 0-0.3c0.1 0 0.1-0.2 0.1-0.3 0-0.1 0.1-0.3 0.1-0.3 0-0.1 0.1-0.3 0.1-0.3q0-0.2 0-0.3c0.1-0.1 0.1-0.2 0.1-0.3 0-0.1 0-0.2 0-0.2 0.1-0.1 0.2-0.1 0.2 0.1z"/>
	<path id="Layer" fill-rule="evenodd" class="s1" d="m3.3 1.1q0.1 0-0.1 0.1c-0.1 0.1-0.2 0.1-0.1 0 0.1 0 0.2-0.1 0.2-0.1zm49.2 0c0 0 0.1 0.1 0.2 0.1 0.2 0.1 0.1 0.1-0.1 0q-0.2-0.1-0.1-0.1zm-49.6 0.2q0.1 0-0.1 0.1-1.2 0.5-1.5 1.9v-0.1c0-0.2 0.2-0.8 0.3-0.9q0.1 0 0.1-0.1c0-0.1 0.5-0.6 0.8-0.8 0.2-0.1 0.4-0.1 0.4-0.1zm50 0c0.5-0.1 1.4 1 1.6 1.6 0 0.1 0 0.2 0.1 0.3 0 0.2 0 34.5 0 34.8-0.1 0-0.1 0.2-0.1 0.3-0.1 0.4-0.7 1.2-1.2 1.4q-0.3 0.2 0.1-0.1 0.8-0.6 1.1-1.5c0.1-0.5 0.1-34.5 0-35-0.2-0.8-0.8-1.5-1.6-1.8zm-51.7 10.8c0.1 4.7 0.1 12.3 0 17 0 4.6 0 0.8 0-8.5 0-9.3 0-13.2 0-8.5zm19.9-5c-1.6 0-2.1 0.1-2.1 0.1 0 0-0.1 0.2-0.1 0.4-0.1 0.1-0.2 0.3-0.2 0.4 0 0.1-0.1 0.2-0.1 0.3 0 0.1 0 0.1 0 0.2 0 0-0.1 0.1-0.1 0.2 0 0.1-0.1 0.3-0.1 0.3 0-0.1 0.1-0.6 0.3-1 0 0 0-0.1 0-0.2 0.1-0.1 0.1-0.2 0.1-0.3 0 0 0.1-0.1 0.1-0.2q0-0.1 0.1-0.2c0.2-0.1 4-0.1 4.1 0zm2.1 0v0.1q0-0.1-0.1-0.1zm-0.1 0q0 0 0 0zm0.1 0.1q0 0 0.1 0 0 0.2 0 0.3c0.2 0.3 0.2 0.5 0.2 0.6q0-0.1-0.1-0.1c0 0 0-0.1 0-0.2 0-0.1-0.1-0.2-0.1-0.3 0-0.1-0.1-0.2-0.1-0.2zm0.3 1q0 0.1 0 0 0-0.1 0-0.1 0 0 0 0.1zm-18 10.6h2.6c2.6 0 3.1 0 3.7-0.2h0.1c0.1 0 0 0-0.2 0.1-0.6 0.1-0.8 0.2-3.5 0.2h-2.7zm4.8-11.5c0.4-0.1 1.1 0 1.7 0.2 0.2 0.1 0 0-0.3 0-0.3-0.1-1.1-0.2-1.5-0.2q-0.4 0 0.1 0zm20.7 11.5c0-2.3 0-6.1 0-6.7-0.1-1.1-0.1-1.7 0.1-1.2-0.1-0.2-0.1-0.1-0.1 0.1 0 0.2 0 0.6 0 1 0.1 0.6 0.1 1.4 0.1 3.8v3.1h-2.8v-0.1zm0.1-7.9q0 0 0 0 0 0 0 0zm0 0q0 0 0.1 0.1c0 0-0.1 0-0.1-0.1zm1.5-3.2c0.1 0.2 0.2 0.4 0.3 0.4 0 0 0.1 0.2 0.2 0.4 0.1 0.3 0.3 0.7 0.5 1.1 0.2 0.3 0.4 0.7 0.4 0.7q0.1 0.2 0.1 0.2 0.1 0 0.1 0 0 0.1 0 0.2 0.2 0.3 0.4 0.6c-0.2-0.2-0.4-0.6-0.5-0.7-0.1-0.2-0.3-0.5-0.4-0.8-0.1-0.2-0.3-0.6-0.5-0.9q-0.1-0.5-0.3-0.6 0 0 0-0.1c-0.1-0.1-0.2-0.3-0.3-0.5zm2 3.7q0 0 0 0 0 0 0-0.1 0 0 0 0.1zm0 0c0.3 0.6 0.7 1.2 0.8 1.6 0.1 0.2 0.3 0.6 0.5 0.8 0.1 0.2 0.3 0.6 0.4 0.8 0.1 0.2 0.2 0.4 0.2 0.5l0.1 0.1q0 0.1-0.2-0.2c-0.1-0.2-0.2-0.4-0.8-1.5-0.1-0.3-0.3-0.7-0.4-0.9-0.2-0.2-0.3-0.5-0.3-0.5 0 0-0.1-0.1-0.1-0.2 0 0-0.1-0.2-0.2-0.5zm4.7-4.1c0.1 0 0.1 2.6 0.1 5.8l-0.1 5.8c-1.1 0-4.1 0-4.1 0 0 0-0.1-0.2-0.2-0.5-0.1-0.2-0.4-0.6-0.5-0.9-0.2-0.3-0.3-0.6-0.3-0.6q0-0.1-0.1-0.1c0 0 0-0.1-0.1-0.4 0.1 0.1 0.1 0.3 0.1 0.3 0 0 0.2 0.2 0.3 0.5 0.1 0.3 0.4 0.8 0.6 1.1l0.2 0.5 4.1 0.1c0-3.2 0-11.6 0-11.6zm-5.5 8.8q0 0 0 0 0-0.1-0.1-0.2 0.1 0.1 0.1 0.2zm-0.4-0.7c-0.2-0.3-0.3-0.6-0.4-0.8-0.1-0.1-0.1-0.2-0.1-0.2 0 0 0.3 0.5 0.8 1.6-0.1-0.2-0.2-0.4-0.3-0.6zm3.2-0.2c0-0.2 0-1.1 0-1.5 0-0.9 0-0.9 0-0.2 0 0.4 0 0.9 0.1 1.1q0 0.5-0.1 0.6zm-2.7 1.1q0-0.1-0.1-0.2c0.1 0.1 0.1 0.1 0.1 0.2zm8-3.2l3.1 5.7q0 0.1 0 0.1c0 0-0.8 0-1.6 0zm0 0c-0.1-3.1 0-5.7 0-5.8 0 0 0 2.8 0 5.8zm3.2 1.8q0-0.1 0-0.1 0 0.1 0 0.2zm0-0.1c0-0.1 0.2-0.1 0.4-0.2 0.4-0.2 0.5-0.2 0.7 0.2 0.1 0.2 0.1 0.3 0.1 0.3 0 0-0.1-0.1-0.1-0.3-0.2-0.3-0.3-0.4-0.6-0.1-0.1 0-0.2 0.1-0.3 0.1 0 0-0.1 0-0.2 0zm-0.2-7.6c0 0 0 0.1 0.1 2.4 0 2.3 0 2.6 0.1 2.3 0.1-0.1 0.3-0.4 0.3-0.4q0 0 0 0.1-0.1 0.1-0.1 0.1c0 0-0.1 0.1-0.1 0.2q-0.1 0.1-0.1 0.1 0 0-0.1 0.1h-0.1v-2.4c0-2.3 0-2.4-0.1-2.5q0 0 0.1 0zm3.5 0q0.1 0 0 0.1-0.1 0-0.1 0.1c-0.1 0.1-0.5 0.6-0.5 0.6q0-0.1 0-0.1c0.1 0 0.1-0.1 0.2-0.2 0.1-0.1 0.2-0.3 0.2-0.3 0.1-0.1 0.2-0.2 0.2-0.2zm3.2 0q0.2 0 0 0.3c-0.1 0.1-0.2 0.3-0.2 0.3-0.1 0.1-0.1 0.2-0.2 0.3-0.1 0.1-0.3 0.3-0.4 0.5 0.1-0.2 0.3-0.5 0.5-0.8 0.3-0.4 0.4-0.5 0.3-0.5q0-0.1 0-0.1zm-1 1.7q0 0 0 0 0.1-0.3 0.2-0.3c-0.1 0.1-0.2 0.3-0.2 0.3zm0 0q-0.2 0.1-0.3 0.4c-0.1 0.2-0.3 0.5-0.3 0.5 0 0-0.1 0.2-0.2 0.3-0.1 0.1-0.2 0.3-0.3 0.4-0.1 0.1-0.2 0.2-0.2 0.3q0 0-0.1 0 0.2-0.4 0.6-0.8c0.3-0.5 0.6-0.9 0.6-0.9 0.1-0.1 0.1-0.2 0.2-0.2zm-1.4 2q0 0 0 0 0-0.1 0-0.1 0 0 0 0.1zm0 0q-0.1 0.2-0.4 0.6-0.2 0.1-0.3 0.3 0 0 0 0c0-0.1 0-0.1 0.1-0.1 0.1-0.1 0.2-0.3 0.2-0.3 0.1-0.1 0.1-0.2 0.2-0.2 0-0.1 0.1-0.2 0.2-0.3zm-0.7 1q0 0 0 0 0 0 0-0.1 0 0 0 0.1zm0 0q-0.1 0.1-0.1 0.2c-0.3 0.3-0.3 0.3 0.1 0.9 0 0.1 0.1 0.3 0.2 0.4 0 0 0.1 0.2 0.2 0.3 0.1 0.2 0.1 0.3 0.2 0.4q0 0.1 0.1 0.1c0 0 0.2 0.5 0.4 0.8q-0.1-0.2-0.2-0.2c0 0 0-0.1-0.1-0.2l-0.1-0.2c-0.1-0.1-0.1-0.3-0.2-0.4-0.1-0.1-0.2-0.3-0.2-0.4-0.1 0-0.2-0.2-0.3-0.4 0-0.1-0.1-0.2-0.1-0.3-0.1 0-0.1-0.2-0.2-0.3-0.1-0.2-0.1-0.2 0.1-0.5q0.1-0.2 0.2-0.2zm1.2 3.3c0.1 0.2 0.2 0.4 0.2 0.4q0 0 0 0c-0.1-0.2-0.1-0.3-0.2-0.3 0-0.1 0-0.1-0.1-0.2q0-0.1 0-0.1 0 0.1 0.1 0.2zm0.2 0.4c0.1 0.1 0.1 0.2 0.1 0.2 0 0-0.1-0.1-0.1-0.2zm-37.7-8.1q-0.1 0-0.1 0c0 0 0.1 0 0.1 0zm0.1 0.1q0 0 0.1 0c0.4 0.1 1.2 0.8 1.4 1.2q0.2 0.4-0.1-0.1c-0.3-0.5-0.8-0.8-1.4-1.1zm-0.1 0q0-0.1 0-0.1 0 0 0.1 0.1-0.1 0-0.1 0zm35.5 0.6c-0.1 0.2-0.5 0.7-0.5 0.8 0 0-0.1 0.1-0.2 0.2q0.7-1 0.7-1.1c0.1-0.1 0.1-0.1 0 0.1zm-1.3 1.8c0-0.1 0.1-0.3 0.2-0.3 0 0 0.2-0.2 0.4-0.5-0.1 0.1-0.3 0.5-0.6 0.8zm0 0.1q0 0 0 0 0-0.1 0-0.1 0 0 0 0.1zm0 0q-0.2 0.2-0.4 0.5c-0.1 0.1-0.2 0.4-0.4 0.5q0.1-0.1 0.2-0.3c0.1-0.1 0.2-0.3 0.2-0.3 0.1 0 0.1-0.1 0.2-0.2 0 0 0.1-0.1 0.1-0.2q0.1 0 0.1 0zm-0.9 1.2q-0.1 0.1-0.1 0.1 0.1 0 0.1-0.1zm0.1-0.1q0-0.1 0-0.1 0 0.1-0.1 0.2 0.1-0.1 0.1-0.1zm-22-2.5c0 0 0 0.1 0.1 0.2v0.1c0 0.1-0.1-0.1-0.1-0.3 0-0.1-0.1-0.2-0.1-0.3q0 0-0.1-0.1c0.1-0.1 0.2 0.3 0.2 0.4zm-9.6 0.5c0 0.1 0.1 0.3 0.1 0.4v0.2l-0.1-0.2q0-0.2 0-0.3c-0.1-0.1-0.1-0.2-0.1-0.2q0-0.1 0.1 0.1zm4.3 0c0 0 0 0.1-0.1 0.2 0 0-0.1 0.2-0.1 0.4-0.1 0.1-0.2 0.3-0.2 0.4 0-0.2 0.2-0.7 0.3-0.8 0-0.1 0-0.2 0-0.2q0-0.1 0.1 0zm-0.4 1.1q-0.1 0.1 0-0.1 0 0 0 0.1zm5.9-1.1c0 0.1 0.1 0.2 0.1 0.2q-0.1 0.1-0.1 0 0-0.1 0-0.1-0.1 0-0.1-0.1 0-0.1 0.1 0zm-2.7 0.2q-0.1-0.2-0.1 0-0.1 0.1-0.1 0 0-0.1 0.1-0.1c0-0.1 0.1 0 0.1 0.1zm0.1 0.4q0 0.2 0 0.1c0-0.1 0-0.3-0.1-0.5q0 0.1 0.1 0.4zm2.7-0.2c0.1 0.2 0.1 0.3 0 0.2q0-0.1 0-0.2zm-15.1 0c-0.4 0-0.3 0.1-0.3 1 0 0.4 0.1 0.9 0.1 1v0.1h0.6q0.1-0.1 0.3-0.1c-0.4 0.1-0.8 0.1-0.9 0.1-0.1-0.1-0.2-2-0.1-2.1q0.1 0 0.3 0zm1.6 1.8q0 0 0 0 0 0 0 0zm0 0.1c-0.2 0-0.5 0.1-0.9 0.1 0.4 0 0.8-0.1 0.9-0.2q0 0 0 0.1zm-1.1-1.9q-0.3 0-0.5 0 0.2-0.1 0.5 0zm11.6 0c0 0 0 0.3-0.1 0.6 0 0 0-0.2 0-0.3 0.1-0.2 0.1-0.3 0.1-0.3zm-0.1 0.7q0 0 0 0 0-0.1 0-0.1 0 0 0 0.1zm0 0q-0.1 0.2-0.1 0.5l-0.1 0.1v-0.1c0-0.1 0.1-0.2 0.1-0.3 0-0.1 0.1-0.2 0.1-0.2zm-10.8-0.7c0.1 0 0.2 0 0.2 0.1q0.2 0.1-0.1 0-0.2-0.1-0.1-0.1zm0.4 0.1c0.3 0 0.5 0.4 0.5 0.8-0.1-0.4-0.1-0.5-0.4-0.6q-0.2-0.2-0.1-0.2zm0.5 0.9v0.1q0-0.1 0-0.2 0 0 0 0.1zm13.3-0.3c0 0.1 0 0.2 0 0.2q0.1 0.1 0.1 0.2c0 0 0 0.1 0 0.2q0 0 0.1 0.1-0.1 0-0.1 0c0-0.1-0.3-1-0.3-1.1 0-0.1 0.1 0.2 0.2 0.4zm0.2 0.8c0.1 0.3 0.3 0.7 0.3 0.9q0 0.1 0 0 0-0.1-0.1-0.1c0-0.2-0.1-0.5-0.2-0.7q0-0.1 0-0.1zm0-0.1q0 0 0 0.1 0-0.1 0-0.1zm-3.1-0.9q0 0.1 0 0.2c-0.1-0.1-0.1-0.2-0.1-0.2q0-0.1 0.1 0zm-3.5 0.3c0.1 0.1 0 0.2 0 0.3 0 0-0.1 0.3-0.2 0.6-0.1 0.3-0.2 0.6-0.2 0.7-0.1 0-0.1 0.1-0.1 0.2 0-0.1 0-0.2 0-0.2 0.1-0.1 0.1-0.2 0.1-0.3 0-0.1 0.1-0.2 0.1-0.2 0-0.1 0.1-0.5 0.2-0.7 0-0.1 0.1-0.2 0.1-0.2q0 0 0-0.1 0-0.1 0-0.1zm-3.7 0.1c0 0.2-0.1 0.5-0.1 0.5q0 0 0 0.1c0 0.1-0.2 0.4-0.3 0.6-0.2 0.3-0.9 0.9-1.1 0.9 0 0 0.1-0.1 0.2-0.2 0.3-0.1 0.8-0.6 0.9-0.7 0-0.1 0-0.2 0.1-0.3 0.1-0.2 0.2-0.6 0.2-0.8q0-0.2 0.1-0.1zm7.3 0.2c0.1 0.1 0.1 0.3 0 0.1 0-0.1-0.1-0.1-0.1-0.2q0-0.1 0.1 0.1zm-10.6 0.3c0 0 0 0.1-0.1 0.3-0.1 0.1-0.2 0.1-0.2 0.1q0.1-0.1 0.1-0.1c0 0 0.1-0.1 0.1-0.2 0.1-0.2 0.1-0.2 0.1-0.1zm9.8 0.1l-0.2 0.7c0-0.1 0-0.3 0.1-0.4 0-0.2 0-0.3 0.1-0.3zm0-0.1q0 0 0 0.1zm0.9 0q0 0 0 0.1 0 0 0 0 0-0.2 0-0.1zm0 0.1c0 0.1 0.1 0.2 0.1 0.2q0 0 0 0.1-0.1-0.2-0.1-0.3zm9.8 0.3c0.1 0.1 0.1 0.2 0.1 0.2l-0.3-0.5c0 0 0.1 0.1 0.2 0.3zm-9.6 0.4c0 0.1 0.1 0.2 0.1 0.2q0 0.1-0.1-0.1l-0.1-0.2q0 0 0.1 0.1zm9.9 0.2c0.1 0.1 0.3 0.4 0.4 0.7 0.1 0.2 0.3 0.7 0.5 0.9 0.1 0.3 0.3 0.6 0.3 0.6 0 0.1-0.1 0-0.2-0.3-0.2-0.2-0.7-1.2-1-1.8-0.1-0.2-0.2-0.4-0.2-0.4q0-0.1 0.2 0.3zm-11.2-0.1l-0.1 0.4q0 0-0.1 0 0 0 0.1-0.1c0-0.1 0-0.2 0-0.2q0-0.1 0.1-0.1zm-0.2 0.6q0 0.1 0-0.1 0 0 0-0.1 0 0.1 0 0.2zm4.6-0.3q0 0.1 0 0.1 0 0.1 0 0-0.1-0.1-0.1-0.2 0 0 0.1 0.1zm-2.9 0.5c0 0 0.1 0.1 0.1 0.2l0.1 0.2q0 0.2-0.1-0.1c-0.1-0.2-0.1-0.4-0.2-0.5 0-0.1 0-0.3 0-0.3 0-0.1 0.1 0.3 0.1 0.5zm-4.6-0.4c0 0-0.2 0.6-0.3 1-0.1 0-0.2 0.3-0.2 0.5-0.1 0.3-0.2 0.6-0.2 0.4 0-0.1 0.4-1.3 0.5-1.4 0-0.1 0-0.1 0-0.2 0-0.1 0.1-0.2 0.1-0.2q0-0.1 0.1-0.1zm7.6 0.3c0 0.1 0.1 0.2 0.1 0.2q0 0.1-0.1 0c0-0.1 0-0.2-0.1-0.3q0-0.1 0.1 0.1zm-12.4 0q0.1-0.1 0 0c-0.1 0.1-0.1 0.2 0 0.2 0 0 0.1 0 0.1 0q-0.1 0-0.1 0c-0.1 0-0.2-0.1-0.1-0.2q0 0 0.1 0zm0.2 0.3q0.1 0 0.2 0c0.2 0 1.2 0.9 1.2 1.2q0 0 0 0.1l-0.1-0.1q0-0.1 0-0.1c0-0.1-0.1-0.2-0.2-0.3-0.1-0.2-0.5-0.5-0.8-0.6q-0.2-0.2-0.3-0.2zm1.5 1.5c0 0.2 0.1 0.4 0.1 0.6q0 0.2 0 0-0.1-0.4-0.1-0.6zm-1.5-1.5q-0.1-0.1-0.1-0.1 0.1 0 0.1 0.1 0 0 0 0zm1.4 1.3q0 0 0.1 0.2-0.1-0.1-0.1-0.2zm6.1-1.3c-0.1 0.1-0.1 0.3-0.2 0.5 0 0.1-0.1 0.3-0.1 0.4-0.1 0.3-0.1 0.3 1.1 0.3q0 0 0 0c-1.3 0-1.3 0-1.2-0.3 0.1-0.1 0.1-0.3 0.2-0.5 0.1-0.3 0.1-0.5 0.1-0.6 0.1-0.2 0.1-0.1 0.1 0.2zm0.9 1.2l1.1-0.1v-0.1c0.1 0.1 0.1 0.2-1.1 0.2zm0 0q0 0-0.1 0 0.1 0 0.1 0zm4-0.9q0 0.1 0 0c-0.1-0.1-0.1-0.2-0.1-0.2 0-0.1 0.1 0.2 0.1 0.2zm-2.9 0.4q0 0.1-0.1-0.1 0-0.1 0-0.1c0.1 0.1 0.1 0.2 0.1 0.2zm3-0.1q-0.1 0-0.1-0.1c0-0.1 0-0.1 0.1 0.1zm0 0q0 0 0 0 0 0 0 0 0 0 0 0zm0 0q0 0 0.1 0.2c0 0.1 0 0.2 0.1 0.3 0 0.2 0.2 0.5 0.3 0.9q0 0.1-0.1-0.1c-0.1-0.1-0.3-0.8-0.4-1.1 0 0 0-0.1 0-0.2zm-15 0.5c0.7 0.2 1.1 0.9 0.9 1.6-0.2 0.4-0.5 0.7-0.8 0.7q-0.1 0 0 0c0.6-0.2 1-0.9 0.7-1.5-0.2-0.6-0.7-0.8-1.8-0.8h-0.6v0.1c-0.1 0.2-0.1 2.2 0 2.2 0.1 0.1 1 0.1 1.5 0.1-0.2 0.1-1.5 0.1-1.5 0-0.1-0.1-0.1-2.3-0.1-2.4 0.1-0.1 1.3-0.1 1.7 0zm6.4 0.3c0 0.1 0 0.2-0.1 0.2 0 0.1 0 0.2-0.1 0.3 0 0.1 0 0.2 0 0.2 0 0-0.1 0.1-0.1 0.2 0 0.1-0.1 0.4-0.1 0.3 0-0.1 0.2-0.8 0.3-1 0 0 0.1-0.1 0.1-0.2zm9.1 0.8l0.1 0.1c0.1 0.3 0.2 0.6 0.2 0.7q-0.1 0-0.1-0.1 0-0.1 0-0.1c-0.1-0.1-0.2-0.5-0.2-0.6zm20.7 0.3c0 0.1 0.2 0.3 0.3 0.6 0.2 0.3 0.3 0.5 0.3 0.5-0.1 0-0.1-0.1-0.2-0.2 0-0.1-0.2-0.4-0.3-0.6-0.1-0.3-0.2-0.5-0.2-0.5 0-0.1 0.1 0.1 0.1 0.2zm-32 0c0 0 0 0.1 0 0.2q-0.1 0.1-0.1-0.1 0-0.2 0.1-0.1zm1.8 0.2c0 0.1 0 0.2-0.1 0.2 0 0.1-0.1 0.3-0.1 0.5-0.1 0.1-0.2 0.3-0.2 0.4 0-0.3 0.2-0.6 0.3-0.9 0 0 0-0.1 0-0.2q0-0.1 0.1 0zm-0.4 1.2q-0.1 0.1 0-0.1 0 0.1 0 0.1zm-1.5-0.9c0.1 0.6-0.6 1.6-1.4 2.1 0 0 0.1-0.1 0.2-0.1 0.3-0.2 0.8-0.8 0.8-0.9q0 0 0.1-0.1c0.1-0.1 0.2-0.5 0.3-0.8q0-0.3 0-0.2zm-1.4 2.2q0 0 0 0 0-0.1 0-0.1 0 0.1 0 0.1zm0 0q-0.1 0-0.2 0.1 0.1-0.1 0.1-0.1 0 0 0.1 0zm-0.3 0.2q-0.1 0-0.1 0 0 0 0 0 0.1-0.1 0.2-0.1-0.1 0-0.1 0.1zm-0.1 0c-0.1 0.1-0.3 0.2-0.3 0.2-0.1 0-0.2 0.1-0.2 0.1-0.1 0 0.2-0.2 0.3-0.2 0 0 0-0.1 0.2-0.1zm38-1.7c0 0 0 0.1 0.1 0.1q0 0.1 0 0.1c0 0.1 0.4 0.7 0.5 0.9q0 0 0.1 0.1c0 0.1 0.1 0.3 0.2 0.4 0.1 0.2 0.2 0.4 0.2 0.4q0 0 0.1 0.1c0.1 0.1 0 0.2-1.8 0.2-1.8 0-1.7 0-1.8-0.2-0.1-0.1-0.3-0.5-0.5-0.9q-0.1-0.1-0.1-0.2c0.1 0.2 0.3 0.5 0.5 0.8l0.2 0.4c1 0 3.4 0 3.4 0 0 0 0-0.2-0.2-0.4-0.1-0.2-0.2-0.4-0.2-0.5-0.1-0.1-0.1-0.1-0.1-0.1q0-0.1-0.1-0.2c0 0-0.1-0.1-0.1-0.2-0.3-0.5-0.4-0.7-0.5-0.8 0 0-0.1-0.2-0.2-0.4-0.1-0.1-0.2-0.3-0.2-0.3 0-0.1 0.3 0.4 0.5 0.7zm-3 1q0-0.1 0-0.1 0 0.1 0 0.1 0 0 0 0zm-0.2-0.5q0 0 0 0.2 0-0.2 0-0.2zm0 0.2q0.1 0 0.2 0.2-0.1-0.1-0.2-0.2zm-21.3-1.3q0.1 0.1 0.1 0.2 0 0-0.1-0.1 0-0.1 0-0.1zm0.3 0.7c0 0.1 0 0.2 0 0.2q0.1 0.1 0.1 0.2c0 0 0 0.1 0 0.2q0 0 0 0.1 0 0 0 0c0-0.2-0.3-0.9-0.3-1 0-0.2 0.1 0.1 0.2 0.3zm0.2 0.8q0.1 0.2 0.2 0.5c0 0.1-0.1-0.2-0.2-0.4q0-0.1 0-0.1zm-0.1-0.1q0.1 0 0.1 0.1-0.1-0.1-0.1-0.1zm20.7-0.6c0.1 0.1 0.2 0.2 0.2 0.3-0.1 0-0.3-0.4-0.3-0.5q-0.1-0.2 0.1 0.2zm-27.9-0.2h1.8c2.1 0 2 0 2 0.3q0 0.2 0 0c0-0.1-0.1-0.2-0.1-0.2-0.1 0-3.7 0-3.7 0 0 0-0.1 0.1-0.1 0.3 0 0.1-0.1 0.3-0.1 0.3v-0.2c0-0.1 0.1-0.2 0.1-0.2 0 0 0-0.1 0-0.2zm-3.6 0.4q0 0.1 0 0.2 0-0.1 0-0.1 0 0 0-0.1zm0.1-0.1c0 0 0 0.1-0.1 0.1q0.1-0.1 0.1-0.1zm7.4 0.3c0 0.2 0 0.3 0 0.1-0.1 0-0.1-0.1-0.1-0.2q0-0.1 0.1 0.1zm-7.7 0.6c0 0.2-0.1 0.4-0.1 0.5-0.1 0.2-0.2 0.4-0.2 0.4 0-0.1 0.2-0.6 0.2-0.7 0.1-0.1 0.1-0.2 0.1-0.2 0-0.1 0.1-0.2 0.1-0.3 0.1-0.2 0.1 0-0.1 0.3zm3.5-0.3c0 0-0.1 0.6-0.2 0.7 0 0 0 0.1 0 0.2-0.1 0.2-0.1 0.3-0.1 0.4l-0.1 0.1h-1.7c-1.4-0.1-1.7-0.1-1.7-0.1q0-0.1 0 0c0.1 0 2.2 0 3.4 0l0.1-0.1q0-0.2 0-0.3c0 0 0.1-0.2 0.1-0.3 0.1-0.2 0.1-0.4 0.1-0.5q0.1-0.1 0.1-0.1zm4.3 0.3c0 0 0.1 0.2 0.1 0.3-0.1-0.1-0.1-0.2-0.1-0.3-0.1-0.1-0.1-0.2-0.1-0.2 0-0.2 0-0.1 0.1 0.2zm0.1 0.3q0 0.1 0 0.1 0 0 0 0 0-0.1 0-0.1 0 0 0 0zm0 0.1c0.1 0.2 0.1 0.3 0.1 0.3 0 0 0 0.1-0.1-0.3zm3.3 0q0 0 0 0 0-0.2 0 0zm0.1 0q0 0 0 0 0 0-0.1 0 0.1 0 0.1 0zm0.1 0.2q0 0 0 0.1-0.1-0.2-0.1-0.2 0 0 0.1 0.1zm0 0.1q0 0.1 0.1 0.1-0.1 0-0.1 0 0-0.1 0-0.1zm0.1 0.2q0 0 0 0 0 0 0-0.1 0 0.1 0 0.1zm0 0c0 0.2-0.3 0.2-1.7 0.2-1.8 0-1.8 0-1.8-0.2q0-0.1 0.1 0v0.1h1.7c1.5 0 1.7 0 1.7-0.1zm-0.2-0.4q0 0 0-0.1 0 0 0 0.1zm-9.2 4.9h1.9c1 0 2 0 2 0.1q0 0 0 0 0 0 0 0h-1.9c-2.2 0-2.1 0-2.2 0.3 0-0.1 0-0.2 0.1-0.3zm4 0.1q-0.1 0-0.1 0zm0 0c0.1 0.1 0.2 0.3 0.2 0.4 0 0.1 0 0-0.1-0.1zm-16.1 0v11.6l-0.1-5.8c0-3.2 0-5.8 0.1-5.8zm0 0c0.4-0.1 2.9-0.1 3-0.1 0.1 0.1 0.1 1.1 0.1 4.6 0 3.9 0 4.5 0.1 4.5q0.1 0 0 0c-0.1 0-0.1 0-0.2-4.5v-4.5zm21.3 0c0-0.1 0.3-0.1 1.5-0.1h-1.5v0.1q0 0 0 0c0 3.9 0 11.5 0 11.5q0.1 0 0 0c0 0-0.1-11.4 0-11.5zm3.1 5.7c0 5.5 0 5.8 0 5.8q-0.1 0-0.1 0c0.1 0 0.1-1.2 0.1-5.8zm6.1-5.7c-0.3 0-0.8 0-1.5 0h-2v5.7c-0.1 4.6 0 5.8 0 5.8q0.1 0 0 0c-0.1 0-0.1-11.4 0-11.5 0-0.1 2.4-0.1 3.5 0zm0.8 0.4q0 0.1 0 0.1c-0.1-0.1-0.2-0.3-0.2-0.4q0.1 0.1 0.2 0.3zm0 0.1q0.1 0.2 0.1 0.2c0 0-0.1 0-0.1-0.2zm-0.2-0.4c-0.1-0.1-0.2-0.1-0.3-0.1q0.2 0 0.3 0 0 0 0 0.1zm-0.6-0.1q0.2 0 0.3 0-0.1 0-0.3 0zm7.5 0c0.1 0.1 0 7.4 0 10.4 0 0.6 0 1-0.1 1.1 0.1-0.1 0.1-0.3 0.1-1.1q0 0 0 0c0-0.9 0-8 0-10.4h-2.8c0-0.1 2.7-0.1 2.8 0zm-26.3 0.7c0 0.2-0.1 0.4-0.1 0.4-0.1 0.2-0.2 0.5-0.2 0.4 0 0 0.1-0.5 0.2-0.7l0.1-0.1q0-0.1 0-0.3c0.1-0.2 0.1 0 0 0.3zm4.7-0.1q-0.1 0-0.1-0.1 0-0.1 0.1 0.1zm0 0q0 0 0 0.1 0-0.1 0-0.1 0 0 0 0zm0 0.1q0 0.2 0.1 0.5 0-0.2-0.1-0.4 0-0.1 0-0.1zm0.3 0.8q0 0 0 0-0.1-0.1-0.1-0.2-0.1 0-0.1-0.1 0.1 0.2 0.2 0.3zm0 0c0 0.1 0 0.2 0 0.1q0 0 0-0.1zm14.8-0.7c0 0 0.4 0.7 0.3 0.7 0 0-0.3-0.6-0.4-0.7q0-0.1 0.1 0zm0.4 0.7q0 0.1 0 0.1 0 0 0 0 0-0.1 0-0.1zm0 0.1c0.1 0.2 0.4 0.8 0.5 1q-0.1 0-0.1-0.2-0.2-0.3-0.3-0.6-0.1-0.1-0.1-0.2zm0.6 1.1q0 0-0.1-0.1 0.1 0.1 0.1 0.1zm-21.1-1.1c0 0.1-0.1 0.4-0.3 1 0 0-0.1 0.2-0.1 0.4-0.2 0.5-0.2 0.6-0.3 0.6 0 0 0.2-0.6 0.3-1 0.1-0.1 0.1-0.3 0.2-0.4 0-0.2 0.1-0.4 0.1-0.5q0.1-0.1 0.1-0.1zm5.5 0.5q0 0.1 0 0.1 0 0 0-0.1zm-0.1-0.2q-0.1-0.1-0.1-0.1c0-0.1 0.2 0.2 0.2 0.3-0.1-0.1-0.1-0.2-0.1-0.2zm0.1 0.3c0 0 0 0.1 0.1 0.1 0 0.1 0 0.1 0 0.2 0 0.1-0.1-0.1-0.1-0.3zm-2.7 0.2q0 0.3 0.1 0.6 0-0.1 0-0.2c-0.1-0.1-0.1-0.3-0.1-0.4 0-0.2-0.2-0.3-0.2 0l-0.1 0.1v-0.1c0-0.1 0-0.2 0.1-0.2 0.1-0.3 0.2-0.2 0.2 0.2zm0.1 0.6c0 0.1 0.1 0.2 0.1 0.2 0 0.1 0 0.2 0 0.2 0 0-0.1-0.2-0.1-0.4zm0.2 0.3c0 0.1 0 0.2 0 0.2-0.1 0-0.1-0.3-0.1-0.3q0 0.1 0.1 0.1zm-0.6-0.4c-0.1 0.2-0.1 0.1 0-0.2q0 0.1 0 0.2zm3.2-0.2c0 0.1 0.1 0.1 0 0.2q0 0.1 0 0 0-0.1 0-0.2-0.1 0-0.1-0.1 0 0 0.1 0.1zm15.7 0.7c0.3 0.4 0.5 0.7 0.9 1.6-0.1-0.2-0.2-0.4-0.2-0.4-0.1 0-0.2-0.2-0.3-0.4q-0.6-1.2-0.6-1.2-0.1-0.1-0.1-0.2c0 0 0.1 0 0.3 0.6zm1.1 2q0.1 0.3 0.2 0.4c0.1 0.2 0.3 0.5 0.4 0.8 0.2 0.2 0.3 0.6 0.5 0.8 0.2 0.5 0.2 0.5 0.2-0.2v-0.6l0.1 0.6q0 0.5 0 0.6c0.1 0.2-0.1 0.1-0.3-0.1 0-0.1-0.1-0.4-0.3-0.6-0.1-0.3-0.3-0.7-0.4-0.9q-0.3-0.4-0.3-0.6-0.1-0.1-0.1-0.1 0-0.1 0-0.1zm-16.6-2.1q0.1 0.3 0.2 0.6c0.1 0.1 0.1 0.2 0.1 0.2 0 0.1-0.2-0.4-0.3-0.7 0-0.1-0.1-0.2-0.1-0.2q0-0.1 0-0.2c0-0.1 0 0.1 0.1 0.3zm-3.5-0.2c0 0.1-0.1 0.5-0.1 0.4 0 0 0-0.1 0-0.2 0-0.1 0.1-0.2 0.1-0.2zm16 0.5c0.1 0.2 0.5 1 0.9 1.7q0.3 0.8 0.5 1.1c-0.4-0.6-0.7-1.4-0.7-1.4q-0.1-0.1-0.1-0.1c0 0-0.1-0.2-0.2-0.5-0.2-0.2-0.3-0.5-0.4-0.6-0.2-0.5-0.2-0.6-0.1 2.1 0.1 1.7 0.1 5.6 0 5.6q-0.1 0-0.1 0c0.1 0 0.1-5.9 0-7.2 0-0.5 0-0.8 0-0.8q0.1-0.1 0.2 0.1zm1.5 2.9q0 0.1 0 0.1-0.1-0.1-0.1-0.2 0 0.1 0.1 0.1zm0 0.1c0 0.2 0.1 0.2 0.1 0.2 0 0-0.1-0.1-0.1-0.2zm-17.6-2.9c0 0-0.1 0.2-0.1 0.3l-0.1 0.2q0 0.2 0 0c0 0 0-0.2 0.1-0.2q0-0.1 0-0.3 0-0.2 0.1 0zm-3 0.1q0 0.1 0 0.1c-0.1 0.2-0.4 1.1-0.4 1.1q0 0.1 0 0.2c-0.1 0.1-0.2 0.2-0.2 0.4 0-0.1 0-0.2 0-0.2 0-0.1 0.1-0.1 0.1-0.2 0.1-0.2 0.3-1.1 0.4-1.2q0-0.1 0.1-0.2zm-0.7 2.1c-0.1 0.3-0.1 0.5-0.2 0.6 0 0.1 0 0.2 0 0.2q0 0.1-0.1 0c0 0 0.1-0.4 0.3-0.8zm0-0.1q0-0.1 0.1-0.2 0 0 0 0-0.1 0.1-0.1 0.3 0 0 0-0.1zm4.7-1.3c0-0.1-0.2-0.7-0.2-0.8 0-0.1 0.2 0.5 0.2 0.8zm3 0.1c0-0.1-0.1-0.2-0.1-0.2q0 0 0-0.1c0-0.1 0.1 0.1 0.1 0.3zm0 0.1q0.1 0.1 0.1 0.1c0 0.2 0.1 0.5 0.1 0.6q0 0 0-0.1c0-0.1-0.1-0.3-0.2-0.6zm0.3 0.7q0 0.1 0 0.1 0 0-0.1-0.1 0.1 0 0.1 0zm-0.3-0.8q0 0.1 0 0.1 0 0 0-0.1zm-4.3 0.2c0-0.2 0-0.3 0-0.4 0.1-0.2 0.1 0 0 0.4zm-0.1 0.1c0 0.2-0.1 0.4-0.1 0.5q0 0.2 0 0.3c-0.1 0-0.1 0.1-0.1 0.1q0-0.1 0-0.2c0.1-0.1 0.1-0.2 0.2-0.7zm0.1-0.1q-0.1 0.1-0.1 0.1 0 0 0.1-0.1zm1.4-0.1q0 0 0 0 0 0 0 0zm0 0c0 0.1 0.1 0.5 0.2 0.8 0.1 0.2 0.1 0.4 0.2 0.5q0 0.2 0 0.3c0 0 0.1 0.1 0.1 0.2 0.1 0.3 0.1 0.3-1.2 0.3 1 0 1.2-0.1 1.2-0.1 0-0.1-0.1-0.3-0.2-0.5 0-0.3-0.1-0.6-0.2-0.9 0-0.2-0.1-0.3-0.1-0.4 0 0 0-0.1 0-0.2zm-1.9 2q-0.1 0 0-0.1zm0-0.3q0-0.1 0.1-0.2c0 0.1-0.1 0.3-0.1 0.4 0 0 0-0.1 0-0.2zm0.1-0.3q0.1-0.1 0.1-0.1 0 0-0.1 0.1zm0 0.1q0 0 0 0 0 0 0 0zm0 0q0 0 0 0 0 0 0 0zm0 0q0-0.1 0-0.1 0 0 0 0.1zm5-0.5q0.1 0.1 0.1 0.2 0 0-0.1-0.1 0-0.1 0-0.1zm0.3 0.7q0 0.1 0 0.2c-0.1-0.2-0.2-0.5-0.2-0.6 0-0.1 0.1 0.2 0.2 0.4zm0 0.3q0.1 0 0.1 0.1 0 0-0.1-0.1zm0-0.1q0 0 0 0 0 0 0 0.1 0-0.1 0-0.1zm-8.6 0.3c0 0-0.2 0.5-0.3 0.9 0 0.1-0.1 0.2-0.1 0.3 0 0.1-0.1 0.2-0.1 0.2 0 0.1 0 0.2-0.1 0.3 0 0.1-0.1 0.3-0.1 0.2 0 0 0.2-0.6 0.3-0.9 0-0.1 0.1-0.2 0.1-0.3 0-0.1 0.1-0.2 0.1-0.2 0-0.1 0-0.1 0-0.2 0.1-0.1 0.1-0.2 0.1-0.2q0.1-0.1 0.1-0.1zm8.8 0.3c0 0.1 0.1 0.2 0.1 0.3q-0.1-0.1-0.1-0.2c0 0.1 0.1 0.2 0.1 0.2 0.2 0.4 0.2 0.5 0.3 0.8 0 0.1 0 0.3 0.1 0.4 0.1 0.1 0.1 0.2 0.1 0.3q0 0-0.1-0.1 0 0.1 0 0.1 0-0.1-0.1-0.5c0 0 0-0.2-0.1-0.2 0-0.1-0.2-0.8-0.3-1q0 0 0 0c-0.1-0.1-0.1-0.2-0.1-0.2q0-0.1 0-0.2c0-0.1 0.1 0.1 0.1 0.3zm-0.1 0q0 0 0.1 0.1 0 0-0.1-0.1zm0.6 1.5q0 0.1 0 0.2 0-0.1 0-0.2 0 0 0 0 0 0 0 0zm-0.1-0.2q0 0.2 0.1 0.2c-0.1-0.1-0.1-0.2-0.1-0.2zm-0.4-1.2q0 0 0 0 0 0 0 0 0 0 0 0zm12.9-0.3c0.1 0 0.4 0.7 0.4 0.7 0 0-0.3-0.6-0.4-0.7zm1.1 2c0.1 0.3 0.3 0.7 0.4 0.8-0.1-0.1-0.3-0.3-0.3-0.5-0.4-0.7-0.8-1.5-0.8-1.5 0-0.1 0.1 0 0.7 1.2zm0.5 0.9q0 0.1 0 0.1-0.1-0.1-0.1-0.2 0 0 0 0 0 0.1 0.1 0.1zm0 0.1q0.1 0.1 0.1 0.1c0 0-0.1 0-0.1-0.1zm-24-1.1q0 0.2 0 0.3c-0.1 0-0.1 0.2-0.2 0.4-0.1 0.3-0.2 0.7-0.2 0.5 0.1-0.3 0.2-0.7 0.3-1 0 0 0.1-0.1 0.1-0.2zm10.2 0.4q0 0.1 0 0c-0.1-0.1-0.1-0.2-0.1-0.2 0-0.1 0.1 0.1 0.1 0.2zm-11.7-0.2c0 0 0.1 2.5 0 2.5q-0.1 0 0 0c0 0 0-2.4-0.1-2.5q0 0 0.1 0zm6.6 0.3c2 0 1.9 0 1.9 0.3 0 0 0.1 0.1 0.1 0.2 0 0.1 0.1 0.2 0.1 0.2q-0.1 0.1-0.1 0.1c0-0.1 0-0.2-0.1-0.3 0-0.1 0-0.2 0-0.2q0 0 0 0c0-0.2-0.1-0.2-2-0.2-1.9 0-1.8 0-1.9 0.2 0 0.2-0.1 0.4-0.2 0.8-0.1 0.4-0.1 0.4-0.1 0.3 0-0.1 0-0.2 0-0.2 0.1-0.1 0.1-0.2 0.1-0.4 0.2-0.5 0.2-0.7 0.3-0.7 0.1-0.1 0.4-0.1 1.9-0.1zm5.2 0.1q0 0.1 0 0.1-0.1-0.1-0.1-0.1 0-0.1 0.1 0zm0.2 0.7c0 0.1 0.1 0.2 0.1 0.2 0 0.1 0 0.2 0 0.2 0 0.1 0-0.1-0.1-0.3-0.1-0.2-0.1-0.5-0.1-0.5 0-0.1 0.1 0.2 0.1 0.4zm-10.9 0c0 0.1 0 0.1-0.1 0.2 0 0.1-0.1 0.3-0.1 0.5q-0.1 0.2-0.1 0.1c0 0 0-0.1 0.1-0.2 0 0 0-0.1 0-0.2 0 0 0.1-0.1 0.1-0.2 0 0 0.1-0.1 0.1-0.2zm25 0.8c0.1 0.3 0.3 0.6 0.3 0.6q0.1 0 0 0-0.1 0-0.3-0.4c-0.1-0.2-0.3-0.5-0.3-0.7-0.1-0.1-0.2-0.3-0.2-0.3 0-0.1 0.2 0.3 0.5 0.8zm-17.3-0.4q0 0.1-0.1-0.1v-0.1c0.1 0.1 0.1 0.2 0.1 0.2zm0.1 0.7c0.1 0.1 0.1 0.2 0.2 0.3q-0.1 0-0.2-0.3c0-0.1-0.1-0.3-0.1-0.3 0-0.1 0-0.1 0-0.2 0-0.1 0.1 0.3 0.1 0.5zm3.3-0.5c-0.1 0-0.1 0-0.1 0 0 0 0 0 0.1 0zm0 0.1c0 0.1 0.1 0.1 0.1 0.1 0 0.1 0 0.2 0.1 0.3 0 0.1 0.1 0.3 0 0.3q0 0 0-0.1c0 0 0-0.1-0.1-0.2 0 0 0-0.1 0-0.2 0 0-0.1-0.1-0.1-0.2zm-8 0.3q-0.1 0.3-0.1 0.4 0-0.1 0-0.2c0 0 0-0.2 0.1-0.3 0.1-0.3 0.1-0.2 0 0.1zm-0.1 0.4q-0.1 0-0.1 0 0 0 0.1 0 0 0 0 0zm-3.4-0.2c0 0 0 0.1 0 0.2-0.1 0 0-0.3 0-0.4 0.1-0.1 0.1 0 0 0.2zm-11.4 5c-0.3 0-1.1-1.3-1.1-1.8 0.1 0.8 0.6 1.5 1.4 1.9q0 0 0 0 0 0 0 0 0 0 0 0 0 0 0 0c-0.1 0-0.2-0.1-0.3-0.1zm0.3 0.1q0.1 0.1 0.2 0.1 0.1 0 0.1 0.1c-0.1 0-0.2-0.1-0.3-0.2zm50.4 0.1q-0.1 0.1-0.1 0.1-0.1 0 0-0.1c0.1-0.1 0.2-0.1 0.1 0zm-49.7 0.1c0.4 0.1 48.7 0.1 49.1 0q0.2 0 0.3 0c-0.1 0-0.2 0.1-0.3 0.1-0.4 0.1-49.1 0-49.3 0q-0.3-0.2 0.2-0.1zm49.4 0q0.1 0 0 0zm-24.7-38.9c13.5 0 19 0 12.3 0-6.8 0-17.8 0-24.5 0-6.8 0-1.3 0 12.2 0zm8.7 14zm8.4-0.1q0 0 0.1 0zm-30.9-5q0 0.2 0 0.1 0-0.1 0-0.3 0-0.1 0 0.2zm-8.7 13.3zm37.9 11.5q-0.1 0 0 0zm-25-4.7q0 0 0-0.1z"/>
	<path id="Layer" fill-rule="evenodd" class="s2" d="m3.3 1.1h0.2-0.2c-0.1 0-0.2 0.1-0.2 0.1q0-0.1 0-0.1c0 0 0.1 0 0.2 0zm49.2 0c0.2 0 0.3 0.1 0.3 0.1q-0.1 0-0.1 0c-0.1 0-0.1-0.1-0.2-0.1q-0.2 0 0 0zm-49.6 0.1q0.2 0 0 0.1c-0.3 0-1.2 0.7-1.2 0.9q0 0.1-0.1 0.2-0.1 0-0.1 0 0 0 0.1-0.1 0 0 0-0.1c0-0.1 0.6-0.7 1-0.9 0.1 0 0.3-0.1 0.3-0.1zm50 0c0.1 0 0.7 0.3 0.8 0.4 0 0 0.1 0.1 0.1 0.2 0.1 0 0.4 0.4 0.4 0.5q0 0 0.1 0.1 0.1 0 0.1 0.1c0 0-0.1-0.1-0.2-0.2-0.3-0.5-0.9-0.9-1.3-1q-0.1-0.1 0-0.1zm-51.4 1.4c-0.2 0.3-0.2 0.5-0.2 0.8l-0.1 0.3v-0.3c0-0.2 0-0.4 0.1-0.4 0-0.1 0-0.2 0.1-0.3 0 0 0-0.1 0-0.2 0.1-0.1 0.1 0 0.1 0.1zm52.9 0q0.1 0.1 0.1 0.1c0 0.1-0.1 0-0.1-0.1zm0.1 0.3q0 0.1 0.1 0.2c0.1 0.2 0.1 34.9 0 35.1q-0.1 0.1-0.1 0c0-0.1 0.1-0.2 0.1-0.3 0-0.2 0-34.5 0-34.7-0.1-0.1-0.1-0.2-0.1-0.3zm-46.8 4.3c1.2 0 1.7 0 1.1 0-0.6 0-1.6 0-2.2 0-0.6 0-0.1 0 1.1 0zm13.4 0h2.1-2.1c-1.9 0-2.1 0-2.1 0.1q0 0-0.1 0 0.1-0.1 0.1-0.1c0 0 0.6-0.1 2.1 0zm9.2 0h2l0.1 0.1c0 0.1 0.1 0.1 0.1 0.2q0 0 0 0.1 0.2 0.1 0-0.2c-0.2-0.3 0-0.3-2.2-0.2h-2zm7.7-0.1c0.7 0 1.3 0 1.3 0.1 0 0-1 0-2.2 0-0.2 0 0.2-0.1 0.9-0.1zm5.4 0l1.5 0.1h-1.5-1.5v5.8 5.7-5.7c0-3.2 0-5.8 0-5.8 0-0.1 0.4-0.1 1.5-0.1zm6.7 0c0.9 0 1.3 0.1 0.8 0.1-0.4 0-1.1 0-1.6 0-0.4 0-0.1-0.1 0.8-0.1zm-39.1 0.1c0.2 0.1 0.2 0.1 0.1 0.1-0.1 0-0.3 0-0.4-0.1-0.4 0-0.1 0 0.3 0zm34 0c0 0 0 1.1 0 2.4v2.4h0.1q0.1-0.1 0.1-0.1 0.1 0 0.1 0c0 0.1-0.3 0.2-0.3 0.2 0-0.1 0-1.2 0-2.5 0-1.3 0-2.4 0-2.4zm3.5 0q0 0-0.1 0.1c-0.2 0.3-0.5 0.7-0.6 0.9q0 0.1-0.1 0.1c0 0 0.1-0.2 0.2-0.4 0.2-0.2 0.4-0.5 0.4-0.6 0.1-0.1 0.1-0.1 0.2-0.1zm-11.9 1.4c0 0.7 0 2 0 2.7 0 0.8 0 0.2 0-1.4 0-1.5 0-2.1 0-1.3zm14.9-1c-0.3 0.5-0.4 0.6-0.4 0.5q0 0 0-0.1c0.1 0 0.1-0.1 0.2-0.2 0.1-0.1 0.1-0.2 0.2-0.2 0 0 0-0.1 0.1-0.2 0.3-0.4 0.2-0.2-0.1 0.2zm-39.7-0.2q0.1 0 0 0c0 0-0.1 0-0.2 0-0.2-0.1-0.1-0.1 0.2 0zm7.2 0c0 0.1-0.1 0.3-0.1 0.3q0-0.1 0-0.2 0-0.2 0.1-0.1zm-7 0c0.1 0 0.2 0.1 0.3 0.1q0.2 0.1 0.1 0.1-0.1 0-0.2-0.1c0 0-0.1 0-0.2 0q-0.1-0.1 0-0.1zm11.4 0.3q0 0-0.1-0.1 0-0.1 0-0.1c0-0.1 0.1 0.1 0.1 0.2zm-10.9-0.1c0.1 0 0.6 0.3 0.7 0.3 0.1 0.2 0 0.1-0.2 0-0.1-0.1-0.2-0.1-0.3-0.2h-0.1q-0.1-0.1-0.1-0.1zm20.2 0.1c0 0.1 0.1 0.2 0.1 0.2q0 0.1 0 0.1 0.1 0.1 0.1 0.1 0 0.1 0 0 0 0-0.1-0.1-0.1 0-0.1-0.1 0 0 0-0.1-0.1-0.1-0.1-0.1 0-0.1 0.1 0zm-9.3 0.1q0 0.1 0.1 0.1 0 0.1 0 0.1 0 0.1-0.1 0 0-0.1 0-0.2 0-0.1 0 0zm-4.6 0.2q0 0-0.1 0.1-0.1 0.2 0-0.1 0.1-0.1 0.1 0zm4.8 0.3c0 0.1 0 0.2-0.1 0.1q0-0.1 0-0.2 0-0.1 0.1 0.1zm27.5-0.1c0 0-0.1 0.1-0.1 0.2-0.1 0.1-0.2 0.2-0.2 0.1 0 0 0.2-0.2 0.2-0.3q0.1 0 0.1 0zm-18 0.2c0 0.1 0 0.2 0.1 0.2q0 0.1-0.1 0c0 0-0.1-0.1-0.1-0.2q0-0.1 0-0.1-0.1 0-0.1 0c0-0.1 0.1 0 0.2 0.1zm-14.4-0.1c0 0.1-0.1 0.1-0.1 0.2q-0.1 0.1-0.1 0.1 0-0.1 0.1-0.1 0-0.1 0-0.2 0-0.1 0.1 0zm-5 0.2c0.1 0.1 0.2 0.4 0.3 0.5q0 0.1 0 0c0-0.1-0.3-0.5-0.4-0.6q0-0.1 0.1 0.1zm33.9-0.1c0.1 0-0.1 0.3-0.2 0.3 0 0 0-0.1 0.1-0.2 0.1-0.1 0.1-0.1 0.1-0.1zm3.2 0.2q0 0-0.1 0.1c-0.1 0.1-0.1 0.2-0.1 0.3-0.1 0.1-0.2 0.2-0.2 0.1q0 0 0.1-0.1 0-0.1 0.1-0.2 0.1 0 0.1-0.1 0 0 0-0.1 0.1 0 0.1 0zm-32.3 0.1c0 0.1 0 0.2 0 0.2 0 0.1-0.1 0.1-0.1 0.2q0 0.1 0 0c0-0.1 0-0.2 0.1-0.3q0-0.2 0-0.1zm5.3 0.3c0 0.1 0.1 0.2 0.1 0.2q0 0 0 0.1c0 0.1-0.1-0.1-0.1-0.3 0-0.1-0.1-0.2-0.1-0.2q0 0 0-0.1c0-0.1 0.1 0.1 0.1 0.3zm23.6-0.2c0 0-0.2 0.3-0.3 0.3 0 0 0.1-0.2 0.2-0.3q0 0 0.1 0zm-14 0.2c0.1 0.2 0.1 0.3 0 0.1-0.1 0-0.1-0.1-0.1-0.2q0 0 0.1 0.1zm-12.3 0.1c0 0 0.2 0.4 0.2 0.5q0 0-0.1-0.2-0.1-0.4-0.2-0.1v0.2-0.1q0-0.1 0-0.3 0.1 0 0.1 0zm-7 0.1c0 0.1 0 0.2 0 0.2q0 0.1 0-0.1c-0.1 0-0.1-0.1-0.1-0.1q0-0.1 0.1 0zm33 0c0 0-0.1 0.1-0.2 0.2-0.1 0.2-0.2 0.4-0.2 0.4l-0.1 0.1q-0.1 0.1-0.1 0c0.1 0 0.4-0.5 0.5-0.7q0.1 0 0.1 0zm3.2 0.1c-0.1 0.2-0.3 0.4-0.3 0.4q0 0 0-0.1 0.1 0 0.1 0c0-0.1 0.1-0.2 0.1-0.2q0.3-0.3 0.1-0.1zm-31.9 0q0 0-0.1 0.1c-0.1 0.1-0.1 0 0-0.1q0.1-0.1 0.1 0zm15.1 0q0.1 0.1 0.1 0.1 0 0-0.1 0 0-0.1 0-0.1zm-9.6 0.1l0.1 0.1q0 0.1 0 0.1c0 0.1 0.1 0.2 0.2 0.6q0 0.1 0 0c-0.1-0.1-0.1-0.2-0.1-0.3-0.1-0.1-0.1-0.2-0.1-0.2-0.1-0.1-0.1-0.2-0.1-0.2zm-14.8 0.1c0.2 0 0.3 0 0.2 0-0.1 0-0.3 0-0.4 0-0.1 0 0 0 0.2 0zm-0.5 0q0.1 0 0 0c-0.1 0.1 0 2 0.1 2.1q0.1 0-0.1 0c0 0-0.1-1.9 0-2.1zm1.3 0h0.2c0.1 0 0.2 0 0.2 0.1q0.1 0 0.2 0c0.1 0 0.5 0.4 0.5 0.5q0 0.1-0.1 0c-0.1-0.2-0.4-0.5-0.8-0.6zm23.7 0.1c0.1 0.1 0.2 0.4 0.2 0.5 0 0-0.1-0.1-0.1-0.2-0.1-0.1-0.1-0.2-0.1-0.2q-0.1-0.1-0.1-0.1 0-0.1 0.1 0zm-15.4 0.1l-0.1 0.2q0 0 0-0.2 0.1-0.1 0.1 0zm2.7 0.2q-0.1 0.2-0.1 0.1c0-0.1 0-0.2 0-0.2 0.1-0.2 0.1-0.1 0.1 0.1zm-6.8 0c0 0.1 0 0.3 0 0.3 0 0.1 0 0.1 0-0.2q0-0.3 0-0.1zm7.2-0.2q0 0.1 0 0.2 0 0 0-0.1 0-0.1 0-0.1zm28.6 0.1c0 0-0.1 0.2-0.2 0.4-0.1 0.1-0.2 0.2-0.2 0.3q-0.1 0.1-0.1 0.1 0-0.1 0-0.1c0 0 0.1-0.1 0.2-0.2 0-0.1 0.1-0.2 0.1-0.2q0-0.1 0.1-0.2 0.1-0.1 0.1-0.1zm-31.8 0.3c0 0-0.1 0.1-0.1 0.2l-0.1 0.1q0 0.1 0 0c0-0.1 0.1-0.2 0.1-0.3q0-0.1 0.1 0zm3.2-0.1c0.1 0 0.1 0.2 0.1 0.3q0 0.3 0 0c0-0.1-0.1-0.2-0.1-0.2q0-0.1 0-0.1zm25.2 0.1q0 0-0.1 0c0 0.1-0.1 0.2-0.1 0.3-0.1 0.1-0.2 0.2-0.2 0.2 0 0 0 0.1-0.1 0.2-0.1 0.1-0.2 0.2-0.2 0.2q0 0 0 0.1 0 0-0.1 0.1-0.1 0-0.1 0.1 0 0.1 0 0.1-0.1 0-0.1 0.1-0.1 0.3-0.2 0.3-0.1 0.1 0 0c0 0 0-0.1 0-0.2q0.1-0.1 0.1-0.1 0.1 0 0.1 0c0 0 0-0.2 0.1-0.3 0.1-0.2 0.3-0.4 0.4-0.6 0.1-0.1 0.3-0.3 0.3-0.4 0.1-0.1 0.1-0.1 0.2-0.1zm-12.6 0.1q0 0.1 0 0-0.1 0-0.1-0.1 0 0 0.1 0.1zm-13.1 0c0 0.1 0 0.2-0.1 0.2 0 0.2-0.1 0.1 0-0.1q0.1-0.1 0.1-0.1zm-9.8 0.2q0 0.1 0 0.3c-0.1 0.1-0.1 0.1-0.1-0.1 0-0.3 0-0.3 0.1-0.2zm23 0c0.1 0.1 0.1 0.2 0.1 0.2q0 0-0.1-0.1c0-0.1-0.1-0.1-0.1-0.2q0.1 0 0.1 0.1zm-9.8 0.1q0.1 0.3 0 0.1 0-0.1 0-0.2 0-0.1 0 0.1zm-6.3 0.1q0 0.1-0.1 0.1c0 0.2 0 0.1 0-0.1q0.1-0.1 0.1 0zm3.6 0c0 0 0 0.1 0 0.2q0.1 0.2 0 0c0-0.1 0-0.2-0.1-0.2q0-0.1 0.1 0zm9.6 0.2q0 0-0.1-0.1-0.1-0.1-0.1 0.2v0.2l-0.1-0.2q0-0.2 0.1-0.3c0.1 0 0.2 0 0.2 0.2zm-17-0.1c0 0-0.1 0.1-0.1 0.2-0.1 0.1-0.1 0.1 0-0.2q0.1-0.1 0.1 0zm6.6-0.1c0 0-0.1 0.3-0.1 0.5q-0.1 0.3-0.1 0.1c0 0 0-0.2 0.1-0.2q0-0.2 0-0.3 0-0.1 0.1-0.1zm28.7 0c0 0-0.1 0.1-0.2 0.2 0 0.1-0.1 0.2-0.1 0.2 0 0 0.1-0.3 0.2-0.4q0 0 0.1 0zm-15.2 0.1q0 0.1 0 0.1 0 0.1 0 0-0.1-0.1-0.1-0.1 0-0.1 0.1 0zm-9.9 0.1q0 0.1 0.1 0.1 0 0.1 0 0.1 0 0-0.1 0 0-0.1 0-0.2 0-0.1 0 0zm7 0.4c0.1 0.2 0.3 0.4 0.3 0.5q0 0 0 0.1c0 0-0.1-0.2-0.2-0.4-0.1-0.3-0.3-0.5-0.3-0.5q0-0.2 0.2 0.3zm-20.4-0.3q0 0 0 0.1c0 0.1-0.4 0.5-0.6 0.5q0 0 0.2-0.1c0.2-0.1 0.4-0.4 0.4-0.5zm6.9 0.1l-0.1 0.2q0 0 0-0.2 0-0.1 0.1 0zm16.5 0q0.1 0 0.1 0 0 0.1-0.1 0-0.1 0-0.1-0.1 0 0 0.1 0.1zm-12.7 0.1q0.1 0.1 0.1 0.2c0 0.1-0.1-0.1-0.1-0.2q0-0.1 0 0zm12.8 0.1c0.1 0.1 0.3 0.4 0.2 0.5 0 0 0-0.1-0.1-0.2 0-0.1-0.1-0.2-0.1-0.2q0-0.1 0-0.1 0-0.1 0 0zm-20.5 0c0 0-0.1 0.2-0.2 0.3q0 0.1 0 0.2c0 0-0.1 0.1-0.3 0.2-0.1 0.2-0.2 0.3-0.2 0.3 0-0.1 0.1-0.1 0.1-0.2 0.2-0.2 0.5-0.6 0.5-0.7q0-0.1 0.1-0.1zm35 0.1q-0.1 0.1-0.1 0.1 0-0.1 0-0.1c0.2-0.2 0.2-0.1 0.1 0zm-31.3 0c0 0.1 0 0.2 0 0.2-0.1 0.1-0.1 0.2-0.1 0.2q0 0.1 0 0.1c0 0 0-0.2 0-0.3 0.1-0.1 0.1-0.2 0.1-0.2zm7 0.2q0 0.1-0.1 0 0-0.1 0-0.2c0-0.1 0.1 0.2 0.1 0.2zm-2.9-0.1q0 0.1 0 0.2 0 0 0-0.1 0-0.1 0-0.1zm-1.2 0.2c-0.1 0-0.1 0.1-0.1 0.2q0 0.1 0-0.1c0 0 0-0.1 0-0.2 0.1-0.1 0.1-0.1 0.1 0.1zm28.2-0.1q0.1 0 0 0.1c-0.1 0.1-0.1 0.1-0.2 0.2 0 0-0.1 0.2-0.1 0.3-0.3 0.3-0.3 0.3-0.1 0.5 0 0.1 0.1 0.2 0.1 0.3q0 0 0.1 0.1 0 0 0 0.1c0 0-0.1-0.1-0.1-0.2 0 0-0.1-0.2-0.2-0.3-0.1-0.2-0.1-0.5 0.1-0.5q0.1-0.1 0.1-0.1c0 0 0.1-0.3 0.2-0.4q0.1-0.1 0.1-0.1zm-38.5 0.1c-0.1 0-0.2 0.1-0.3 0.1q-0.1 0 0.1-0.1c0.2-0.1 0.3-0.1 0.2 0zm20.7-0.1v0.6c0.1 0.3 0.1 0.8 0.1 1v0.5-0.4c-0.1-0.2-0.1-0.7-0.1-1.1zm-6.3 0.2q0.1 0.1 0.1 0.1 0 0.1 0 0.1 0 0.1 0 0-0.1-0.1-0.1-0.2 0-0.1 0 0zm-15.4 0q0.4 0 0.3 0c-0.2 0-0.4 0-0.5 0-0.2 0-0.1 0 0.2 0zm12.6 0c0 0 0 0.2 0.1 0.3q0 0.2-0.1 0c0-0.1 0-0.2 0-0.2q-0.1-0.1 0-0.1zm12.9 0.1q0.1 0 0.1 0.1 0 0-0.1 0 0-0.1 0-0.1 0-0.1 0 0zm-17.2 0.1l-0.1 0.2q0 0 0-0.1 0.1-0.1 0.1-0.1zm14.2 0c0.1 0.1 0.3 0.5 0.3 0.5 0 0-0.1 0-0.2-0.1 0-0.2-0.1-0.3-0.1-0.3q0 0 0-0.1zm-11.4 0.3q0 0.1 0 0c0 0 0-0.1 0-0.2 0.1-0.1 0.1 0 0 0.2zm14.6-0.2c0 0.1 0 0.2 0.1 0.3 0.1 0.1 0.1 0.2 0.1 0.2 0 0-0.1-0.1-0.1-0.2-0.1-0.1-0.1-0.2-0.2-0.2q0 0 0-0.1 0-0.1 0.1 0zm-10 0.5q0 0.1 0 0c0-0.1-0.1-0.1-0.1-0.2 0 0-0.1-0.1-0.1-0.2 0-0.1 0.1 0.2 0.2 0.4zm-3-0.3c0.1 0.1 0.1 0.2 0.1 0.3q0 0.1-0.1-0.1c0-0.1 0-0.2 0-0.2q0-0.1 0 0zm-9 0.2c-0.1 0-0.2 0.1-0.2 0.1 0.1 0 0.4-0.2 0.5-0.3q0-0.1-0.3 0.2zm4.5-0.1c0 0.1-0.1 0.3-0.1 0.2q0 0 0-0.1 0.1-0.2 0.1-0.1zm2.9 0.1c0 0.1 0 0.2-0.1 0.3 0 0.1-0.1 0.2-0.1 0.2q0 0.1 0 0c0-0.1 0-0.2 0.1-0.2q0-0.2 0-0.3 0-0.1 0.1 0zm-7.7 0.1h0.1-0.1c-0.2 0.1-0.2 0.2-0.2 0.3q0.1 0 0.1 0c-0.2 0-0.2-0.1-0.1-0.2 0.1-0.1 0.1-0.1 0.2-0.1zm19.4 0q0 0 0.1 0.1c0 0.1 0 0.1-0.1 0q0-0.1 0-0.1zm-14.8 0.2c0.1 0 0 0.2-0.1 0.2q0 0 0.1-0.2 0-0.1 0 0zm7.7-0.1c0.1 0.1 0.1 0.2 0.1 0.3 0.1 0.1 0.1 0.2 0.1 0.3l0.1 0.1-0.1-0.1q-0.1-0.1-0.2-0.5 0-0.2 0-0.1zm-2.8 0.1q0 0.1 0 0.2c0 0.1-0.1-0.1-0.1-0.2q0-0.1 0.1 0zm10 0c0.2 0.5 0.3 0.6 0.3 0.5q0-0.1-0.1-0.1c0-0.1-0.1-0.1-0.1-0.2 0-0.1-0.1-0.2-0.1-0.2zm-19.5 0.1c0.1 0 0.3 0.2 0.2 0.2q0-0.1-0.2-0.1-0.1-0.1 0-0.1zm0.3 0.2c0 0 0.1 0 0.2 0q0.1 0.1 0.1 0.1-0.1 0-0.1 0-0.1-0.1-0.1-0.1-0.1 0-0.1 0zm22.5 0.1q0.2 0.3 0 0.1c0-0.1 0-0.1 0-0.2q0 0 0 0.1zm-13.2 0q0 0.1 0 0.2c0 0 0.1 0.1 0.1 0.2q0 0.3 0 0.1c-0.1-0.1-0.1-0.2-0.1-0.3-0.1 0-0.1-0.1-0.1-0.2q0-0.1 0.1 0zm-2.2 0.2q0 0.2 0 0.1c0-0.1 0-0.2 0-0.2 0.1-0.2 0.1-0.1 0 0.1zm-6.1 0.4c0.1 0.1 0.1 0.2 0.2 0.3q0 0 0 0.1c0 0-0.1-0.1-0.2-0.3-0.1-0.2-0.3-0.4-0.5-0.5q-0.1-0.1-0.1-0.1c0-0.1 0.5 0.3 0.6 0.5zm3.2-0.5q0 0.1-0.1 0.1-0.1 0.2 0 0 0.1-0.1 0.1-0.1zm31.5 0c0 0.1 0.1 0.3 0.2 0.3 0 0 0 0-0.1-0.1q-0.2-0.3-0.1-0.2zm-23.4 0.1v0.1q0 0.1 0 0.1 0.1 0.1 0.1 0.1 0 0-0.1 0c0-0.1 0-0.2 0-0.2zm10.5 0.3q0.1 0.1 0 0.2c0 0-0.1-0.3-0.2-0.4 0-0.1 0.1 0.1 0.2 0.2zm0.9 0c0.1 0.3 0.1 1.6 0.1 1.7-0.1 0-0.2 0-0.2-0.1q0-0.1-0.1-0.1 0 0-0.1-0.1c0-0.1 0-0.2 0-0.2q-0.1-0.1-0.1-0.1 0-0.2 0.2 0.2 0.3 0.7 0.2-0.2c0-0.3 0-0.7 0-0.9 0-0.3 0-0.4 0-0.2zm-19.7 0c0 0 0 0.1 0 0.2q-0.1 0.1-0.1 0c0.1-0.1 0.1-0.1 0.1-0.2q0-0.2 0 0zm15.6-0.1c0 0 0.2 0.4 0.5 1 0.1 0.2 0.3 0.4 0.3 0.4q0 0.1 0 0.2c0 0-0.1-0.2-0.2-0.4-0.1-0.3-0.3-0.5-0.3-0.5 0 0-0.2-0.5-0.3-0.7zm-12.6 0.3q-0.1 0.1-0.1 0 0.1 0 0.1-0.1c0.1-0.1 0.1-0.1 0 0.1zm28.9-0.2c0 0.1 0 0.1 0.1 0.2q0.1 0.1 0.1 0.1 0-0.1-0.1-0.1 0-0.1-0.1-0.1 0-0.1 0-0.1zm-26.4 0.3c0 0.1 0 0.2-0.1 0.2q-0.1 0 0 0 0.1-0.1 0-0.2 0 0 0-0.1 0 0 0.1 0.1zm13.4-0.1c0 0.1 0.4 0.8 0.4 0.8-0.1 0-0.1-0.2-0.2-0.3-0.1-0.2-0.2-0.3-0.2-0.4q0-0.1 0-0.1zm-25.6 0.2q0.1 0 0 0c-0.2-0.1-1.5-0.1-1.6 0-0.1 0.1-0.1 2.3 0 2.4 0.2 0.1 1.5 0.1 1.9-0.1q0.1-0.1 0.2-0.1 0 0 0 0.1-0.2 0-0.3 0c0 0.1-0.1 0.1-0.2 0.1 0 0.1-1.5 0.1-1.6 0.1-0.1-0.1-0.1-2.5 0-2.6 0.1 0 1.6 0 1.6 0.1zm6.6 0c0 0 0 0.1 0 0.2-0.1 0-0.1 0.1-0.1 0.2-0.1 0.2-0.2 0.4-0.2 0.3q0-0.1 0.1-0.1c0 0 0-0.1 0.1-0.2 0-0.1 0-0.3 0-0.4q0.1-0.1 0.1 0zm8.6 0.1q0 0.1 0 0-0.1-0.1-0.1-0.2c0-0.1 0.1 0.2 0.1 0.2zm-15-0.1c0.1 0 0.4 0.2 0.4 0.3-0.1-0.1-0.3-0.2-0.4-0.2q-0.1-0.1 0-0.1zm10.7 0.1c0.6 0 0.8 0 0.5 0-0.2 0-0.7 0-1 0-0.3 0-0.1 0 0.5 0zm-6.9 0.1c0 0.2 0 0.2 0 0.1q-0.1 0-0.1-0.1 0-0.1 0.1 0zm11.3 0.1q0.1 0.3 0 0.2-0.1-0.1-0.1-0.2 0-0.1 0.1 0zm-14.5 0.2c0 0.1 0.1 0.2 0.1 0.3q0.1 0.1 0.1 0.1c0-0.1-0.2-0.4-0.3-0.5q-0.1-0.1 0.1 0.1zm35.1 0q0 0-0.1 0c-0.1-0.1-0.2-0.1-0.5 0.1-0.1 0.1-0.2 0.1-0.2 0.1 0.1 0 0.2-0.1 0.3-0.2q0.4-0.3 0.5 0zm3.2-0.1q0 0.1 0 0.1 0.1 0.1 0.1 0.1 0 0-0.1-0.1l-0.1-0.1q0-0.1 0.1 0zm-35.1 0l0.1 0.2q0 0.1 0 0.3v0.1-0.1c0-0.1-0.1-0.2-0.1-0.3zm31.9 0.1c0 0.1 0.4 0.8 0.4 0.8q0-0.1-0.1-0.1c0-0.1-0.1-0.2-0.1-0.3-0.1-0.2-0.2-0.4-0.2-0.4zm-20.5 0.1c0 0 0 0.1 0.1 0.2 0 0.1 0 0.2 0 0.2q0 0.1 0 0 0-0.1-0.1-0.2v-0.1q0-0.1 0-0.1zm23.8 0.1q0.1 0 0.1 0.1 0 0-0.1 0 0-0.1 0-0.1zm-4.3 0.1l-0.1 0.2v1.8c0 1.1 0 1.9-0.1 1.9 0 0.1 0-0.8 0-1.9v-1.9l0.2-0.1c0.1-0.2 0.2-0.1 0 0zm-28.6 0c0 0.1 0 0.3-0.1 0.3q0-0.1 0-0.1 0.1-0.1 0.1-0.2 0-0.1 0 0zm-5.3 0.2c0 0.1 0 0.2 0 0.2q0 0.1 0-0.1 0-0.1 0-0.1zm3.2 0.2c0 0.1 0 0.3 0 0.4q0 0.1 0-0.2 0-0.3 0-0.2zm35.2-0.1c0.1 0 0.3 0.4 0.3 0.5l-0.3-0.5zm-23.9 0.1q0 0 0.1 0.1v0.1c0.1 0.2 0.2 0.5 0.2 0.3q0 0-0.1-0.1v-0.1c-0.1-0.2-0.2-0.4-0.2-0.3zm7.7-0.1c0 0.1 0.2 0.5 0.2 0.5q0 0.1 0 0c0 0-0.1-0.1-0.1-0.2-0.1-0.1-0.2-0.3-0.2-0.3q0 0 0.1 0zm-17 0.1c0 0.1 0 0.2-0.1 0.2 0 0.1 0 0.2 0 0.2q-0.1 0.1 0 0 0-0.2 0-0.3 0.1-0.2 0.1-0.1zm30.2 0.3v0.1q0 0.1 0 0 0-0.1-0.1-0.1 0-0.1 0-0.1 0 0 0.1 0.1zm-35.4 0c0 0 0 0.1-0.1 0.1q0 0.1 0 0.1c0-0.1 0-0.1 0-0.2q0.1-0.1 0.1 0zm38.7 0.1q0 0.1 0.1 0.1 0 0.1 0.1 0.2 0 0 0 0.1l0.1 0.1-0.1-0.1c-0.1-0.2-0.2-0.4-0.2-0.4zm-3.2 0.1l0.1 0.2q0 0-0.1-0.1 0-0.1 0-0.1zm-30.5 0.1q0 0 0 0.1c-0.1 0.1-0.1 0.1 0-0.1zm-5.1 0c0 0.1-0.3 0.4-0.3 0.4-0.1 0 0-0.1 0.1-0.2 0.2-0.2 0.2-0.2 0.2-0.2zm3.2 0q0 0.1 0 0.3-0.1 0.3-0.1 0.2c0-0.1 0-0.2 0.1-0.3q0-0.2 0-0.2zm11.8 0.4q0 0.1 0 0.1c0-0.1 0-0.1-0.1-0.2 0 0 0-0.1 0-0.2 0-0.1 0.1 0.2 0.1 0.3zm7.8-0.1q0 0.1 0.1 0.1 0 0.1 0 0.2 0.1 0.1 0 0.1c0-0.1-0.2-0.6-0.2-0.6 0 0 0.1 0.1 0.1 0.2zm-17.8 0c0 0.1-0.1 0.3-0.1 0.3q0-0.1 0-0.2 0.1-0.1 0.1-0.1zm34.4 0.4q0 0-0.1 0c0 0-0.2-0.3-0.2-0.4zm-3.4-0.1c0 0.1 0.1 0.2 0.1 0.3 0.1 0.1 0.1 0.2 0.1 0.2q0 0-0.1-0.1c-0.1-0.3-0.3-0.6-0.3-0.6 0-0.1 0.1 0.1 0.2 0.2zm-32.9 0.2q-0.1 0.1-0.1 0.1 0-0.1 0-0.2 0.2-0.2 0.1 0.1zm12.1 0.1q0 0-0.1-0.1 0-0.1 0-0.2c0 0 0.1 0.2 0.1 0.3zm-10.3-0.2c0 0 0 0.1-0.1 0.3q-0.1 0.2-0.1 0.1c0 0 0-0.1 0.1-0.2 0-0.1 0-0.1 0-0.2q0 0 0.1 0zm5.1 0h1.9v0.2c0.1 0 0.1 0.1 0.1 0.2q0 0.2 0 0c-0.1-0.3 0-0.3-2-0.3h-1.8l-0.1 0.1q-0.1 0.1-0.1 0 0-0.1 0.1-0.1c0 0 0.5-0.1 1.9-0.1zm29.6 0.4q0.1 0.2 0 0.1-0.1 0-0.1-0.1 0-0.1-0.1-0.2 0 0 0-0.1c0 0 0.1 0.1 0.2 0.3zm-16.3 0.2c0.2 0.4 0.5 1 0.6 1.1q0 0 0 0.1c0 0-0.1-0.1-0.1-0.2-0.3-0.5-0.7-1.4-0.7-1.4 0 0 0.1 0.2 0.2 0.4zm-20.3-0.3q0 0-0.1 0.1 0 0 0 0.1c0 0.1-0.5 0.6-0.8 0.9-0.1 0-0.2 0.1-0.2 0.1q-0.1 0.1-0.1 0.1c0 0-0.2 0.1-0.3 0.1-0.2 0.2-0.3 0.2-0.2 0.1 0 0 0.1-0.1 0.3-0.1 0.1-0.1 0.3-0.2 0.4-0.3 0.1-0.1 0.2-0.2 0.2-0.2 0.2-0.1 0.6-0.7 0.6-0.7q0-0.1 0.1-0.2 0.1 0 0.1 0zm12.2 0.1q0.2 0.2 0 0.1 0-0.1 0-0.2 0-0.1 0 0.1zm-7.2 0q0 0 0 0.1-0.1 0.1-0.1 0.1 0 0 0-0.1 0.1-0.2 0.1-0.1zm28.3 0.2c0.1 0 0.1 0.1 0.1 0.2q0 0-0.1-0.1 0-0.1 0-0.1-0.1 0-0.1-0.1 0-0.1 0.1 0.1zm-31.6-0.1q0 0.1 0 0.2-0.1 0.1-0.1 0.1 0 0 0-0.2 0.1-0.1 0.1-0.1zm7.4 0.1c0 0 0 0.1 0 0.2q0.1 0.2 0 0c0 0 0-0.1-0.1-0.2q0-0.1 0.1 0zm27.7 0.1c0 0.1 0 0.1 0 0.2q0 0 0.1 0.1 0.1 0 0.1 0.1l-0.2-0.2q0-0.1-0.1-0.1 0-0.1 0-0.2 0 0 0.1 0.1zm-24.5 0q0.1 0.1 0.1 0.1 0 0.1 0 0.1 0 0.1-0.1-0.1 0-0.1 0-0.1zm-7.4 0.1c0 0 0 0.1 0 0.2-0.1 0.1-0.1 0.2-0.1 0.3q-0.1 0.1-0.1-0.1c0 0 0.1-0.1 0.1-0.2 0-0.1 0.1-0.2 0.1-0.2q0-0.1 0 0zm-3.3 0.1c0 0.1-0.1 0.3-0.1 0.3q0-0.1 0-0.2 0.1-0.2 0.1-0.1zm32 0.2c0.1 0.2 0.1 0.4 0.2 0.4q0 0.1 0 0 0 0-0.1-0.1c0 0 0-0.1 0-0.2q-0.1-0.1-0.1-0.1 0 0-0.1-0.1 0-0.1-0.1-0.2c0 0 0.1 0.2 0.2 0.3zm-24.4-0.1c0 0.1 0.1 0.4 0.1 0.3 0 0-0.1-0.1-0.1-0.2q0-0.1 0-0.1zm27.8 0.2c0.1 0.1 0.2 0.3 0.2 0.3-0.1 0-0.1-0.1-0.1-0.1-0.1-0.1-0.1-0.2-0.1-0.2q0-0.1 0 0zm-24.4 0.3c0 0.1 0.1 0.2 0.1 0.2q0 0 0 0.1c0 0.1-0.1-0.1-0.1-0.3 0-0.1-0.1-0.2-0.1-0.2q0 0 0-0.1c0-0.1 0.1 0.1 0.1 0.3zm-11.2 0c-0.1 0.1-0.1 0.2-0.1 0.3q0 0 0-0.1c0 0 0.1-0.1 0.1-0.2 0-0.1 0.1-0.2 0.1-0.2q-0.1-0.1-0.1 0.2zm3.3 0.1q-0.1 0.2-0.1 0.1c0-0.1 0-0.1 0.1-0.2 0-0.1 0-0.1 0 0.1zm32.6 0.1q0.2 0.2 0 0.1c0-0.1-0.1-0.2-0.1-0.2q0 0 0.1 0.1zm-27.9 0c0 0 0 0.1 0 0.2q0 0.3 0 0.1c0-0.1 0-0.2-0.1-0.3q0-0.1 0.1 0zm24.5 0.1c0.1 0.2 0.1 0.3 0.1 0.2 0.1 0-0.1-0.3-0.2-0.3 0-0.1 0.1 0 0.1 0.1zm-32.6 0c0 0.1-0.1 0.3-0.1 0.2q0 0 0-0.1 0.1-0.1 0.1-0.1zm-3.2 0.1q0.1 0 0 0-0.3 0.1-0.1 0 0.1 0 0.1 0zm22.9 0q0 0.1 0 0.1 0 0.1 0 0-0.1-0.1-0.1-0.1 0-0.1 0.1 0zm-16.4 0q0 0 0 0.2-0.1 0.1-0.1 0.1 0-0.1 0-0.2 0.1-0.1 0.1-0.1zm8.2 0.1q0 0 0 0.1 0.1 0 0 0.1c0 0-0.1-0.1-0.1-0.2q0-0.2 0.1 0zm-15.2 0q0 0-0.1 0c-0.1 0.1 0 0.1 0.2 0q0.2 0 0.1 0-0.1 0-0.2 0zm-0.6 0.2c-0.2 0-0.5 0.1-0.6 0.1-0.2 0-0.1-0.1 0.5-0.2 0.5 0 0.5 0 0.1 0.1zm24-0.1c0 0.1 0.2 0.2 0.2 0.2q0-0.1-0.1-0.1-0.1-0.1-0.1-0.1zm-17.6 4.7h2.1c1.1 0 2 0 2 0 0 0-0.9 0-2 0h-2.1v0.2q-0.1 0.1-0.1 0.1c0-0.1 0-0.2 0.1-0.2zm-9.1 0.1c0 0 0.1 2 0.1 4.5v4.5h2.2c1.5 0 2.2 0 2.2 0 0 0.1 0.1 0.3 0 1.3v1.2-1.2-1.2l-2.2-0.1c-1.3 0-2.3 0-2.3 0 0 0 0-2 0-4.5 0-2.5 0-4.6 0-4.5zm18.3-0.1h0.1q0.1 0 0 0c-0.1 0.1-0.1 0.4-0.1 5.8v5.8-5.8zm5.7 0c0 0 0 2.6 0 5.8v5.8-5.8c0-3.1 0-5.7 0-5.7q0-0.1 0-0.1zm10.9 0c0.1 0 0.1 0.1 0.1 5.8v5.8-5.8c0-5.4 0-5.7-0.1-5.8q-0.1 0 0 0zm-2.6 1.7c0 0.9 0 2.4 0 3.4 0 0.9 0 0.1 0-1.7 0-1.9 0-2.6 0-1.7zm-19.1-1.5q0.2 0.3 0 0.1 0-0.1 0-0.1 0-0.1 0 0zm15.1 0.3c0.1 0.1 0.1 0.2 0.1 0.2q-0.1 0-0.1-0.1c0-0.1-0.1-0.2-0.1-0.2q-0.1-0.1-0.1-0.1c0-0.1 0-0.1 0.2 0.2zm-19.4-0.1c0 0.1-0.1 0.3-0.1 0.3q0-0.1 0-0.2 0.1-0.2 0.1-0.1zm4.4 0v0.1q0.1 0.1 0.1 0.2 0 0.1 0 0c-0.1 0-0.1-0.1-0.1-0.2zm-4.6 0.6c-0.1 0.1-0.1 0.2-0.1 0.3q0 0 0-0.1c0 0 0.1-0.1 0.1-0.2 0-0.1 0.1-0.1 0.1-0.2q-0.1-0.1-0.1 0.2zm19.8-0.1q0 0.1 0 0.1c0 0-0.1-0.1-0.1-0.2q0 0 0.1 0.1zm-14.9 0.4q0 0-0.1-0.1 0-0.1 0-0.2c0 0 0.1 0.2 0.1 0.3zm15-0.1l0.1 0.1-0.1-0.1-0.1-0.1c0-0.1 0.1-0.1 0.1 0.1zm-20 0.1c0 0.1-0.1 0.3-0.1 0.3q0-0.1 0-0.2 0.1-0.1 0.1-0.1zm5 0.1q0 0.1 0.1 0.1 0 0.1 0 0.1 0 0.1 0 0-0.1-0.1-0.1-0.2 0-0.1 0 0zm15.1 0q0 0.1 0.1 0.1c0 0 0.1 0.2 0.2 0.4 0.1 0.2 0.2 0.4 0.2 0.4 0.1 0.1 0.1 0-0.1-0.2 0-0.1-0.1-0.3-0.2-0.4q-0.2-0.4-0.2-0.3zm-20.2 0.3c0 0-0.1 0.1-0.1 0.2q-0.1 0.1 0 0c0 0 0-0.1 0-0.2q0-0.1 0.1 0zm5.2 0.1c0.1 0 0.1 0.1 0.1 0.2 0.1 0.1 0.1 0.1 0.1 0.2q0 0.1-0.1 0 0-0.1 0-0.2c-0.1 0-0.1-0.1-0.1-0.2q0-0.1 0 0zm-2.4 0.6v0.1l-0.1-0.1c0-0.3-0.1-0.4-0.2-0.2v0.1l-0.1-0.1q0-0.1 0.1-0.1c0.1-0.3 0.3 0 0.3 0.3zm-3-0.2q-0.1 0.1-0.1 0.2c0.1 0 0.1-0.2 0.1-0.3q0-0.1 0 0.1zm5.7 0.4c0 0.1 0.1 0.2 0.1 0.2q0 0 0 0.1 0 0.1 0 0c0-0.1-0.2-0.6-0.2-0.6 0-0.1 0.1 0.2 0.1 0.3zm-3.1-0.2q0 0.1 0 0.2 0 0 0-0.1 0-0.1 0-0.1zm-2.7 0.3q0 0-0.1 0.1-0.1 0.2 0-0.1 0-0.1 0.1 0zm3.2 0.2v0.1l-0.1-0.2c0 0 0-0.1 0-0.2 0-0.1 0.1 0.1 0.1 0.3zm18-0.2c0 0 0 0.1 0.1 0.1q0.1 0.2 0.1 0.1 0-0.1-0.1-0.1 0 0-0.1-0.1 0-0.1 0 0zm-18.5 0.1l-0.1 0.2v0.2-0.2c0-0.1 0-0.2 0-0.2 0.1-0.2 0.1-0.2 0.1 0zm-2.9 0.3q-0.1 0.1-0.1 0.1c0.1 0.1 0.2-0.1 0.1-0.2q0 0 0 0.1zm6.1-0.1l0.1 0.1q0 0.1 0 0.1 0.1 0.1 0.1 0.1 0 0-0.1 0c0-0.1-0.1-0.2-0.1-0.2zm15.5 0q0.1 0.1 0.1 0.1 0 0.1-0.1 0 0 0-0.1-0.1 0.1 0 0.1 0zm-18.1 0.2q0 0.1 0 0.2c0 0.1-0.1-0.1-0.1-0.2q0 0 0.1 0zm-0.8 0.3q0 0.2-0.1 0.1c0-0.1 0.1-0.2 0.1-0.3 0.1-0.2 0.1-0.1 0 0.2zm19.2 0c0 0.1 0.1 0.2 0.1 0.2-0.1 0.1-0.3-0.4-0.3-0.5 0 0 0.1 0.1 0.2 0.3zm-22-0.1c0 0.1 0 0.2 0 0.2-0.1 0.1-0.1 0.2-0.1 0.3-0.1 0.1-0.2 0.4-0.2 0.2q0 0 0.1-0.1c0 0 0-0.1 0-0.2 0.1-0.1 0.1-0.2 0.1-0.3q0.1-0.2 0.1-0.1zm18.7 0c0.2 0.1 0.2 0.1 0.2 0.2q0 0.1 0 0-0.2-0.3-0.2 0.3v0.5-0.4c-0.1-0.2-0.1-0.3-0.1-0.4q0 0 0-0.1 0-0.1 0.1-0.1zm-15 0.2q0 0 0 0.1-0.1 0.1-0.1-0.1 0-0.1 0.1 0zm2.8 0.2q0 0.1 0 0-0.1-0.1-0.1-0.2c0-0.1 0.1 0.2 0.1 0.2zm12.5 0q0 0 0 0.1 0 0 0-0.1-0.1 0-0.1-0.1 0 0 0.1 0.1zm-16.3 0.2q-0.1 0.2-0.1 0.1c0-0.1 0-0.2 0.1-0.2 0-0.2 0.1-0.1 0 0.1zm1-0.1c0.1 0 0.1 0.1 0.1 0.2 0 0.1 0 0.1-0.1-0.1 0-0.1 0-0.2 0-0.2q0 0 0 0.1zm18.4-0.1q0.1 0.1 0.1 0.1 0 0.1-0.1 0 0 0 0-0.1zm-15.5 0.2q0.1 0.3 0 0.2-0.1-0.1-0.1-0.2 0-0.1 0.1 0zm15.8 0.3c0.1 0.1 0.1 0.2 0.1 0.2 0 0.1-0.3-0.4-0.3-0.5 0 0 0.1 0.1 0.2 0.3zm-19.8 0c0 0 0 0.1 0 0.2-0.1 0.1-0.1 0.2-0.1 0.3q0 0.1 0-0.1c0 0 0-0.1 0-0.2 0-0.1 0.1-0.2 0.1-0.2q0-0.2 0 0zm16.7 0c0 0.1 0 0.1 0 0.2q0 0 0-0.1c-0.1-0.1-0.1-0.2-0.1-0.2q0 0 0.1 0.1zm-19.6 0c0 0.1-0.1 0.3-0.1 0.2q0 0 0-0.1 0.1-0.1 0.1-0.1zm7 0c0 0.1 0 0.2 0.1 0.2q0 0.2 0 0.3c0-0.1-0.1-0.2-0.1-0.2q0-0.2 0-0.3 0-0.1 0 0zm-2.8 0.1c0 0 0 0.1 0 0.2v0.1-0.1c0-0.1-0.1-0.2-0.1-0.2q0-0.2 0.1 0zm15.5 0.1c0 0 0.1 0.1 0.1 0.2 0 0.1 0.1 0.2 0.1 0.2-0.1 0-0.1-0.1-0.2-0.2 0-0.1 0-0.1-0.1-0.2q0 0 0.1 0zm-19.8 0.2c0 0.1 0 0.2-0.1 0.2 0 0.1 0 0.1 0 0.2q0 0.1-0.1 0c0 0 0-0.1 0.1-0.2q0.1-0.3 0.1-0.2zm4.4 0.3q0 0.1 0 0c-0.1-0.1-0.1-0.2-0.1-0.2 0-0.1 0.1 0.2 0.1 0.2zm18.7-0.1c0.1 0.1 0.1 0.1 0 0.1q-0.1-0.1-0.1-0.1 0-0.1 0.1 0zm-15.7 0.3c0 0.1 0 0.2 0 0.2q0.1 0 0.1 0.1c0 0.1-0.1-0.2-0.2-0.3 0-0.1 0-0.2 0-0.2q-0.1 0-0.1-0.1c0-0.1 0.1 0.1 0.2 0.3zm-4.6 0q-0.1 0.1-0.1 0c0 0 0-0.1 0.1-0.2 0-0.1 0.1 0 0 0.2zm16.4 0.2c0 0.5 0 6.2 0 6.2 0-0.1 0-1.6-0.1-3.4 0-1.8 0-3.1 0.1-2.8zm0.9-0.3c0 0.1 0.1 0.1 0.1 0.1q0 0.1 0 0.2 0.1 0 0.1 0.1c0 0-0.3-0.4-0.3-0.5q0 0 0.1 0.1zm3.1 0.1c0.1 0 0.1 0.1 0.1 0.1q0 0.1-0.1 0c0-0.1-0.1-0.2-0.1-0.2q0.1 0 0.1 0.1zm-23.4 0.1q0 0 0 0.1c-0.1 0.1-0.1 0.1 0-0.1q0-0.1 0 0zm4.8 0.3v0.2-0.2c-0.1-0.1-0.1-0.2-0.1-0.2 0-0.1 0.1 0.1 0.1 0.2zm-1.9 0.1c-0.1 0.1-0.1 0.3-0.2 0.4-0.1 0.4-0.1 0.4-0.1 0.3 0-0.1 0.1-0.2 0.1-0.3 0 0 0.1-0.2 0.1-0.3q0-0.1 0-0.3c0.1-0.1 0.1 0 0.1 0.2zm-3-0.1c0 0.1-0.1 0.3-0.1 0.3q0-0.1 0-0.2 0.1-0.1 0.1-0.1zm7.9 0.4q0 0.1 0 0c0 0 0-0.1-0.1-0.2v-0.1c0-0.2 0.1 0.1 0.1 0.3zm12.7-0.4q0.1 0.1 0.1 0.1 0 0.1-0.1 0 0-0.1 0-0.1zm0.2 0.3c0 0.1 0.1 0.1 0.1 0.2q0 0-0.1-0.1 0 0 0-0.1-0.1 0-0.1-0.1 0 0 0.1 0.1zm-15.8 0q0 0.2 0 0.3 0 0.1 0-0.1c-0.1-0.1-0.1-0.2-0.1-0.2q0 0 0.1 0zm18.9 0.1q0.2 0.3 0 0.1c0-0.1 0-0.2 0-0.2q0 0 0 0.1zm-24 0c0 0-0.1 0.1-0.1 0.2 0 0.1-0.1 0.2-0.1 0.2q0 0.1 0 0c0 0 0-0.1 0.1-0.3q0-0.1 0.1-0.1zm8.2 0.4q0 0.1-0.1-0.1c0-0.1-0.1-0.1-0.1-0.2 0 0 0.2 0.2 0.2 0.3zm-2.9 0.2q0 0.1-0.1 0-0.1-0.2-0.1-0.2c0-0.1 0.2 0.2 0.2 0.2zm-5.5-0.1c0 0.1-0.1 0.3-0.1 0.2q0 0 0-0.1 0.1-0.1 0.1-0.1zm8.4 0.1q0.1 0.3 0 0.1 0-0.1 0-0.1 0-0.1 0 0zm-5.4 0q0 0 0 0.1-0.1 0.1 0 0.1 0.1 0.1 0 0.1-0.1 0 0-0.3 0-0.1 0 0zm18.4 0c0 0.1 0.3 0.6 0.4 0.7 0.1 0.1 0.1 0.1-0.1-0.1 0-0.1-0.1-0.3-0.1-0.3 0-0.1-0.2-0.3-0.2-0.3zm3.3 0.2q0.1 0.3 0 0.1c-0.1-0.1-0.1-0.2-0.1-0.2q0 0 0.1 0.1zm-24.8 0.1c0 0.1 0 0.1-0.1 0.2q-0.1 0.1 0 0c0 0 0-0.1 0-0.2q0.1-0.1 0.1 0zm8.6-0.1v0.1q0 0.1 0.1 0.2 0 0.1 0 0c-0.1 0-0.1-0.1-0.1-0.2zm-4.3 0.1q1 0 0.6 0c-0.3 0-0.8 0-1.2 0-0.3 0 0 0 0.6 0zm21.3 0.6c0 0.6 0 0.7-0.2 0.5-0.2-0.2-0.2-0.2 0-0.1 0.1 0.1 0.2 0.1 0.1-0.2 0-0.1 0-0.4 0-0.5 0-0.3 0-0.2 0.1 0.3zm-25.8-0.1q-0.1 0.1-0.1 0.1c0.1 0.1 0.2-0.1 0.1-0.2q0-0.1 0 0.1zm25.2-0.1q0.1 0.1 0.1 0.1c-0.1 0-0.1-0.1-0.1-0.1q0-0.1 0 0zm-16.1 0.4q0 0-0.1-0.1 0-0.1 0-0.2c0 0 0.1 0.2 0.1 0.3zm13.1-0.2c0.1 0.1 0.1 0.2 0.1 0.2q0 0.1-0.1-0.1c0-0.1-0.1-0.2-0.1-0.2q0.1 0 0.1 0.1zm3.2 0.1q0.1 0.3 0 0.1c-0.1-0.1-0.1-0.2-0.1-0.2q0 0 0.1 0.1zm-16.3 0.3q0.2 0.2 0 0.1 0-0.1 0-0.2 0-0.1 0 0.1zm-9.2-0.1q0 0.1-0.1 0.2-0.1 0.1 0-0.1 0.1-0.1 0.1-0.1zm22.5 0q0 0 0 0.1c0.1 0.1 0 0.1 0 0q-0.1-0.1 0-0.1zm0.2 0.5c0.1 0.2 0.2 0.4 0.1 0.2-0.1-0.1-0.2-0.4-0.3-0.5 0-0.1 0.1 0.1 0.2 0.3zm-22.9-0.1c0.1 0 0 0.1 0 0.2q-0.1 0.1-0.1 0 0 0 0.1-0.1 0 0 0-0.1 0-0.1 0 0zm9.5 0q0.1 0.1 0.1 0.1 0 0.1 0 0.1c0 0.1-0.1-0.1-0.1-0.2q0-0.1 0 0zm-9.6 0.4c0 0 0 0.1 0 0.2-0.1 0-0.1 0.1-0.1 0.2q0 0 0-0.1c0 0 0-0.1 0.1-0.2q0-0.2 0-0.1zm9.9 0.4c0.1 0.1 0.1 0.2 0.1 0.3q0 0.1 0 0c-0.1-0.1-0.1-0.2-0.1-0.3 0-0.1-0.1-0.2-0.1-0.2q0 0 0-0.1c0-0.1 0.1 0.1 0.1 0.3zm13.4-0.1q0.1 0 0.1 0.1 0 0-0.1 0 0-0.1 0-0.2 0 0 0 0.1zm0.1 0.2c0 0 0 0.1 0.1 0.1q0.1 0.2 0 0.1c0-0.1-0.1-0.3-0.1-0.2zm-23.5 0q0 0.1-0.1 0.2c-0.1 0.1-0.1 0 0-0.1q0-0.1 0.1-0.1zm5 0.3c1.9 0 2 0 2 0.1q0 0.1-0.1 0c-0.1-0.1-0.1-0.1-1.9-0.1-1.9 0-1.9 0-2 0.2q0 0.2 0 0c0 0 0-0.1 0.1-0.2 0.1 0 0.1 0 1.9 0zm5.3 0.5c0.1 0.4 0.1 0.4 0.1 0.3-0.1-0.1-0.1-0.2-0.1-0.3 0-0.1-0.1-0.2-0.1-0.2 0-0.1-0.1-0.2-0.1-0.2q0-0.2 0.2 0.4zm13.6-0.1c0 0 0-0.1-0.1-0.2-0.1-0.1-0.1-0.2-0.1-0.2 0-0.1 0.1 0.1 0.2 0.4zm-24.1-0.2q-0.1 0.1-0.1 0.1c0.1 0.1 0.1-0.1 0.1-0.2q0-0.1 0 0.1zm7.2 0.1c0.1 0.1 0.1 0.2 0.1 0.2 0 0.1-0.1-0.1-0.1-0.2q0-0.1 0 0zm-7.3 0.2c0 0 0 0.1 0 0.2-0.1 0-0.1 0.1-0.1 0.2q-0.1 0 0-0.1c0 0 0-0.1 0-0.2q0.1-0.2 0.1-0.1zm3.2 0.1q0 0.2 0 0.1c0 0 0-0.1 0-0.2 0.1-0.1 0.1-0.1 0 0.1zm21.1 0l0.1 0.1q0 0.1 0 0.1 0.1 0.1 0.1 0.2c0 0-0.2-0.3-0.3-0.5q0 0 0.1 0.1zm-16.9 0.2c0.1 0 0.1 0.2 0.1 0.2 0 0.1 0.1 0.2 0.1 0.2q0 0.2-0.1 0 0-0.1 0-0.3c-0.1 0-0.1-0.1-0.1-0.2q0-0.1 0 0.1zm-4.3 0.3q-0.1 0.1-0.1 0.1 0-0.1 0.1-0.2c0.1-0.1 0.1 0 0 0.1zm7.7-0.1q0.1 0.3 0 0.2-0.1-0.1-0.1-0.2 0-0.1 0.1 0zm-11 0q0 0.1 0 0.2c-0.1 0.1-0.1 0 0-0.1q0-0.2 0-0.1zm3.2 0.3c0 0.1 0 0.2 0 0.4q-0.1 0.2-0.1 0.1c0-0.1 0-0.2 0-0.2 0.1-0.1 0.1-0.2 0.1-0.3q0-0.1 0 0zm21.7 0.1c0.1 0 0.1 0.1 0.1 0.1q0 0.1-0.1 0c0-0.1-0.1-0.2-0.1-0.2q0-0.1 0.1 0.1zm-13.8 0q0 0.2 0.1 0.2 0 0-0.1-0.1 0-0.1 0-0.1 0-0.1 0 0zm-11.2 0c0 0.1-0.1 0.3-0.1 0.2q0 0 0-0.1 0.1-0.2 0.1-0.1zm8 0.2v0.2l-0.1-0.2c0-0.1 0-0.2 0-0.2 0-0.1 0.1 0.1 0.1 0.2zm17.1 0q0.1 0 0.1 0.1c0 0.1 0 0.1-0.1 0q0-0.1 0-0.1zm-25.3 0.3c-0.1 0.3-0.3 0.3 1.6 0.3 1.7 0 1.8 0 1.8-0.2q0 0-0.1 0.1l-0.1 0.1h-1.6c-0.9 0-1.6 0-1.6-0.1v-0.1c0.1-0.1 0.1-0.2 0.1-0.2q0-0.1-0.1 0.1zm11.5 0q0 0 0.1 0.1 0 0.1 0 0.1c0-0.1-0.1-0.3-0.1-0.2zm14.1 0.2q0 0.2-0.1-0.1c0-0.1-0.1-0.1-0.1-0.2 0 0 0.1 0.2 0.2 0.3zm-17.3-0.1q0 0 0 0.1c0 0.1-0.1-0.1-0.1-0.2q0 0 0.1 0.1zm-14.8 0.2c1.1 0 2.8 0 3.8 0 1 0 0.2 0-1.9 0-2 0-2.9 0-1.9 0zm16.5 0c0.9 0 1.2 0 0.8 0-0.5 0-1.2 0-1.7 0-0.4 0 0 0 0.9 0zm4.5 0c0.9 0 1.2 0 0.8 0-0.4 0-1.1 0-1.5 0-0.4 0-0.1 0 0.7 0zm5.5 0c0.7 0 1 0 0.7 0-0.4 0-1 0-1.3 0-0.4 0-0.1 0 0.6 0zm6.7 0c0.5 0 1.4 0 1.9 0 0.6 0 0.1 0-1 0-1.1 0-1.5 0-0.9 0zm-39.3 2.6v0.4q0.1 0.5 0.3 0.9 0.1 0.1 0.1 0.1c-0.1 0-0.3-0.4-0.3-0.5q0-0.1 0-0.1c0 0-0.1-0.2-0.1-0.4zm53.1 1.2q0.1 0 0 0.1-0.1 0-0.1 0.1c0 0-0.1 0.1-0.1 0.2-0.2 0.3-0.6 0.6-0.6 0.5q0-0.1 0.1-0.1c0 0 0.5-0.4 0.6-0.7 0.1-0.1 0.1-0.2 0.1-0.1zm-52.7 0.2c0.1 0.1 0.4 0.5 0.6 0.6 0.2 0.2 0.1 0.2-0.1-0.1-0.2-0.1-0.3-0.3-0.4-0.4q-0.1-0.1-0.1-0.1zm1 0.9c0.1 0.1 0.3 0.1 0.3 0.1q0.2 0 0 0c0 0.1-0.2 0-0.3-0.1q-0.4-0.3 0 0zm50.8-0.1c-0.1 0-0.1 0.1-0.2 0.1l-0.1 0.1q-0.1 0-0.2 0-0.1 0 0 0 0.1 0 0.1 0c0.1-0.1 0.2-0.1 0.2-0.2q0.3-0.1 0.2 0zm-50.3 0.3q0.2 0 0.3 0l0.1 0.1h-0.1c-0.1 0-0.2-0.1-0.3-0.1q-0.1-0.1 0 0zm49.6 0q0.1-0.1 0 0c-0.1 0-0.2 0.1-0.2 0.1h-0.2l0.2-0.1q0.1 0 0.1 0 0.1 0 0.1 0zm-24.8 0.1c13.3 0 18.7 0 12.1 0-6.6 0-17.5 0-24.1 0-6.7 0-1.2 0 12 0z"/>
	<path id="Layer" fill-rule="evenodd" class="s3" d="m27.9 1.1l24.6 0.1h-24.6c-19.5 0-24.6 0-24.7 0 0 0.1-0.1 0.1-0.2 0.1q0 0 0.2-0.1c0.2-0.1 0.8-0.1 24.7-0.1zm24.8 0.1q0.1 0.1 0.1 0.1c0 0-0.1 0-0.2-0.1-0.2 0-0.1 0 0.1 0zm-49.8 0.1c0.1 0-0.1 0.1-0.2 0.1-0.1 0.1-0.4 0.3-0.5 0.4q-0.1 0-0.1 0c-0.1 0 0.3-0.2 0.5-0.4 0.2 0 0.3-0.1 0.3-0.1zm50.2 0.1q0.1 0 0 0-0.1 0-0.1 0c-0.1-0.1-0.1-0.1 0.1 0zm0.4 0.2c0.1 0.1 0.2 0.2 0.2 0.2 0.2 0.1 0.5 0.6 0.6 0.8q0.1 0.4 0.1 0.3c0-0.2-0.4-0.9-0.8-1.2q-0.2-0.1-0.1-0.1zm-51.5 0.3l-0.2 0.3q-0.1 0 0-0.1c0.1-0.1 0.2-0.2 0.2-0.2zm-0.3 0.4q0 0 0 0.1c-0.1 0-0.1 0.1-0.2 0.2 0 0.1-0.1 0.2-0.1 0.2 0-0.1 0.1-0.3 0.2-0.4q0.1-0.1 0.1-0.1zm-0.3 0.7q-0.1 0.2-0.1 0.2c0 0 0.1-0.2 0.1-0.3q0 0 0 0.1zm53.1 0.1c0.1 0.2 0.1 34.8 0 35 0 0.1-0.1 0 0-0.1 0-0.3 0-34.5 0-34.8-0.1-0.2 0-0.2 0-0.1zm-53.2 8.9c0 4.7 0 12.4 0 17.1 0 4.7 0 0.9 0-8.6 0-9.4 0-13.3 0-8.5zm19.8-5c2.1 0 2.2 0 2.2 0.2q0 0-0.1 0c0-0.1-0.1-0.1-2.1-0.1-2.1 0-2.1 0-2.2 0.2q0 0.1 0 0c0-0.1 0-0.2 0.1-0.2 0-0.1 0.1-0.1 2.1-0.1zm-13 0.1c1.5 0 2.1 0 1.3 0-0.7 0-1.9 0-2.6 0-0.8 0-0.2 0 1.3 0zm22.3 0c2.1 0 2.2 0 2.1 0.2 0-0.2-0.1-0.2-2.2-0.1h-2v5.8 5.8h1.4 1.3-1.3c-1 0-1.4 0-1.4 0-0.1-0.1-0.1-11.6 0-11.6 0-0.1 0.5-0.1 2.1-0.1zm9 0.1c0 0 0 11.5 0 11.6 0 0-0.1-2.6-0.1-5.8v-5.8h-1.4l-1.4-0.1 0.1 3.7c0 2.1 0 3.9 0 4v0.3l-0.1-0.1c0-0.1-0.1-0.2-0.1-0.2q0.1 0 0.1 0 0 0.1 0 0.1c0-0.1 0-1.8 0-3.9 0-2.1 0-3.8 0-3.9 0.1 0 2.8 0 2.9 0.1zm5.6-0.1c0.1 0 0.1 0.3 0.1 2.3 0 2.2 0 2.5 0.1 2.4 0 0.1-0.1 0.1-0.1 0.1 0-0.1-0.1-1.1-0.1-2.4v-2.3h-1.6c-0.8 0-1.5-0.1-1.5-0.1 0 0 3 0 3.1 0zm6.8 0.1q0 0.1-0.3 0.6c-0.1 0-0.1 0.1-0.2 0.2 0 0-0.1 0.2-0.2 0.3-0.1 0.1-0.1 0.2-0.1 0.2q0 0.1-0.1 0.1c0 0 0.2-0.4 0.4-0.7 0.1 0 0.1-0.1 0.2-0.2 0 0 0.1-0.1 0.2-0.2 0.2-0.4 0.3-0.4-1.6-0.4h-1.7l-0.1 0.2c-0.1 0.1-0.2 0.2-0.2 0.2 0-0.1 0.2-0.3 0.3-0.4 0.1 0 3.4 0 3.4 0.1zm-40.8 0c0.4 0 0.9 0.1 1 0.1q0.1 0.1-0.1 0.1c0 0-0.2-0.1-0.3-0.1-0.1 0-0.4-0.1-0.5-0.1q-0.3-0.1-0.1 0zm-5.6 0l0.1 5.8v5.8h2.5 2.6-2.5c-2 0-2.6 0-2.6 0-0.1-0.1-0.1-1.4-0.1-5.9zm17.9 0.2c0 0.1 0.1 0.3 0.1 0.2q0-0.1-0.1-0.1 0-0.1 0-0.1zm9.3 0.1l0.2 0.4c0 0-0.1-0.1-0.2-0.2 0-0.2-0.1-0.3 0-0.2zm-20.4 0q0 0 0.1 0 0.1 0.1 0.1 0.1-0.1 0-0.1 0-0.1-0.1-0.1-0.1-0.2 0 0 0zm6.6 0q0.1 0.1 0 0.1 0 0.1 0 0.1 0 0.1-0.1 0.1c0-0.1 0-0.1 0.1-0.2q0-0.1 0-0.1zm-6.3 0.1c0.4 0.2 0.9 0.6 1.2 0.9 0.2 0.3 0.2 0.2 0 0-0.2-0.4-1-0.9-1.2-0.9q-0.1 0 0 0zm35.6 0l-0.2 0.3q0 0 0 0.1 0 0-0.1 0.1-0.1 0-0.1 0 0 0 0.1 0 0 0 0-0.1c0.1-0.1 0.2-0.3 0.3-0.4zm-29.4 0.3q0 0 0 0.1-0.1 0.2-0.1 0.1 0 0 0-0.1 0.1-0.1 0.1-0.1zm4.8 0.2c0.1 0.3 0.2 0.5 0.2 0.4q0-0.1-0.1-0.2c0 0 0-0.1-0.1-0.2 0-0.1 0-0.2 0-0.2q0 0 0 0.2zm24.2 0.1c0 0 0 0-0.3 0.4-0.1 0.2-0.3 0.5-0.4 0.7q-0.3 0.3-0.3 0.3 0 0 0.1-0.1c0.1-0.2 0.7-1 0.7-1.1q0.1-0.1 0.1-0.1 0.1-0.1 0.1-0.1zm-29.2 0.4q-0.1 0.2-0.1 0.1c0-0.1 0.1-0.2 0.1-0.2 0-0.2 0.1-0.1 0 0.1zm14.6-0.1c0.1 0.1 0.1 0.2 0.1 0.2q0 0-0.1-0.1c0-0.1 0-0.1 0-0.2q0 0 0 0.1zm-9.4 0.2q0.1 0.1 0.1 0.2c0 0.1-0.1-0.1-0.1-0.2q0-0.1 0 0zm27 0.2c-0.1 0.1-0.1 0.2-0.1 0.2 0 0 0.3-0.4 0.2-0.4 0 0 0 0.1-0.1 0.2zm-36.8-0.1q0 0 0.1 0.1 0 0.1 0 0.1c0-0.1-0.1-0.3-0.1-0.2zm4.5 0.2q-0.1 0.1-0.1 0.1c0-0.1 0-0.2 0.1-0.2 0-0.2 0-0.1 0 0.1zm14.9-0.2q0 0.1 0 0.1c0 0.1-0.1 0-0.1-0.1q0 0 0.1 0zm-9.5 0.2c0 0.1 0.1 0.1 0.1 0.2 0.1 0.1 0.1 0.2 0.1 0.2 0 0.1 0 0.2 0 0.2 0.1 0.1 0.1 0.2 0.1 0.2 0 0.1-0.1-0.2-0.2-0.4 0 0 0-0.1 0-0.2q-0.1-0.1-0.1-0.2zm-9.7 0.1q0 0.1 0 0.2 0 0.1 0-0.1-0.1-0.1-0.1-0.1 0 0 0.1 0zm4.1 0.2q0 0.2 0 0.1 0 0 0-0.1 0.1-0.2 0 0zm15.3 0c0 0.1 0.2 0.5 0.3 0.4q0 0-0.1-0.1-0.1-0.1-0.1-0.1c0 0 0-0.1 0-0.2q-0.1-0.1-0.1 0zm16.9 0c0.1 0-0.2 0.4-0.2 0.4 0 0 0-0.1 0.1-0.2 0.1-0.1 0.1-0.2 0.1-0.2zm-29.3 0.1c0 0 0.1 0.4 0.1 0.5q0 0 0-0.2-0.2-0.4-0.2-0.1 0 0.2 0 0.1c0 0 0-0.1 0-0.2q0-0.1 0.1-0.1zm-6.9 0.1c0 0.1 0 0.2 0 0.2q0 0.1 0-0.1 0-0.1 0-0.1zm-4 0.2q0.2 0.1 0.1 0.1c0 0-0.1 0-0.2-0.1-0.1 0-0.4 0-0.8 0h-0.6v0.9 1h0.4c0.6 0 1.4-0.1 1.5-0.3q0 0 0.1-0.1 0.1 0 0 0.1c-0.3 0.3-0.8 0.4-1.5 0.4h-0.5l-0.1-0.1c0-0.2 0-1.9 0.1-2 0.1 0 1.3 0 1.5 0.1zm7.9 0.1q-0.1 0.2-0.1 0.1 0 0 0.1-0.1 0.1-0.2 0 0zm28.6-0.1c-0.1 0.1-0.2 0.3-0.3 0.4q0 0.1 0 0.1-0.1 0 0-0.1c0-0.1 0.1-0.2 0.1-0.2 0.1-0.1 0.2-0.2 0.2-0.2zm3.4 0.2c-0.1 0.1-0.2 0.1-0.2 0.2q0 0 0-0.1c0.1-0.1 0.1-0.2 0.2-0.2 0.1-0.2 0.1-0.1 0 0.1zm-39.5 0c0.1 0.1 0.3 0.3 0.2 0.3 0-0.1-0.1-0.2-0.2-0.3q-0.2-0.2 0 0zm10.4 0c0 0.1 0 0.2-0.1 0.2q0-0.1 0-0.2 0.1-0.1 0.1 0zm12.8-0.1c0.1 0.1 0.3 0.5 0.3 0.5-0.1 0-0.1-0.1-0.2-0.2-0.1-0.2-0.1-0.3-0.1-0.3zm-19.6 0.2c0 0 0 0.1 0 0.2q0 0.1 0-0.1 0-0.2 0-0.1zm7.1 0.1c0 0.1 0 0.2 0 0.2q0.1 0.2 0 0c0-0.1 0-0.2 0-0.2q-0.1-0.2 0 0zm2.9-0.1q0 0.1 0 0.2l-0.1-0.2q0-0.1 0.1 0zm-6.3 0.3q0 0.1 0 0v-0.1c0.1-0.2 0.1-0.1 0 0.1zm31.9-0.2q0.1 0.1-0.3 0.5c0 0-0.1 0.1-0.1 0.2-0.1 0.1-0.2 0.2-0.2 0.2q0 0.1 0 0.1 0 0.1-0.1 0.1-0.1 0.1-0.1 0.2-0.1 0-0.1 0.1-0.1 0.1-0.1 0.1c0 0 0-0.1 0.2-0.3 0.1-0.1 0.2-0.3 0.2-0.4 0.1 0 0.1-0.1 0.2-0.1 0 0 0.1-0.2 0.3-0.5 0.1-0.1 0.1-0.2 0.1-0.2zm-38.9 0.1v0.4c0 0.3 0 0.3-0.1 0.5q0 0.1-0.1 0 0 0 0.1-0.1 0.1-0.1 0.1-0.4zm13.3 0v0.1q0.1 0 0.1 0.1 0 0 0 0.1 0 0.1 0 0c-0.1-0.1-0.1-0.2-0.1-0.2zm22 0c0.1 0 0 0.2-0.1 0.3q-0.1 0.1 0-0.1 0.1-0.2 0.1-0.2zm-32 0.2c0 0 0 0.1 0 0.2q-0.1 0.1-0.1-0.1 0-0.2 0.1-0.1zm6.6 0.1c0 0.1-0.1 0.2-0.1 0.2 0.1 0 0.2-0.2 0.1-0.3q0 0 0 0.1zm-2.9-0.1q0 0.1-0.1 0.2c-0.1 0.1-0.1 0.1 0-0.1q0-0.1 0.1-0.1zm3.5 0.1c0 0.1 0 0.2 0.1 0.3 0 0 0 0.1 0 0.2q0 0.1 0 0c0 0 0-0.1-0.1-0.2q0-0.2 0-0.3 0-0.2 0 0zm12.8 0.1c0 0 0 0.1 0.1 0.1q0.1 0.2 0 0.1c0-0.1-0.1-0.3-0.1-0.2zm11.8 0c0 0 0 0.1-0.1 0.2-0.1 0.1-0.2 0.2-0.2 0.2 0-0.1 0.2-0.3 0.3-0.4zm-15 0.5v0.3l-0.1-0.3c0-0.2 0-0.3 0.1-0.4 0-0.1 0 0 0 0.4zm-13.3-0.4c0.1 0 0 0.2-0.1 0.4q0 0.1 0 0.1c0-0.1 0-0.2 0-0.2 0.1-0.1 0.1-0.2 0.1-0.2q0-0.1 0-0.1zm-3.6 0.1c0 0.1 0 0.1 0 0.2q-0.1 0.1-0.1 0.1 0-0.1 0-0.1 0.1-0.1 0.1-0.2 0-0.1 0 0zm10.3 0q0.1 0.1 0.1 0.2 0 0.1 0 0 0-0.1-0.1-0.1 0-0.1 0-0.1zm7 0.6c0.1 0.3 0.2 0.5 0.2 0.5 0 0-0.1-0.1-0.1-0.2-0.1-0.1-0.1-0.2-0.1-0.2q-0.1 0-0.1-0.1 0-0.2-0.1-0.2 0 0 0-0.1l-0.1-0.1q-0.1-0.1-0.1-0.2c0-0.1 0 0 0.4 0.6zm-10.7-0.4c-0.1 0.1-0.1 0.2-0.1 0.2 0.1 0.1 0.1-0.2 0.1-0.3q0-0.1 0 0.1zm13.8 0.1c0 0.1 0.1 0.2 0.1 0.2q0-0.1-0.1-0.1c0-0.1 0-0.2-0.1-0.2q0-0.1 0-0.1c0 0 0 0.1 0.1 0.2zm-20.5 0.1l-0.1 0.2q0 0 0-0.1 0.1-0.1 0.1-0.1zm7.6 0.1c0.1 0.2 0.1 0.3 0 0.1 0-0.1-0.1-0.2-0.1-0.2q0 0 0.1 0.1zm3-0.1q0 0.1 0 0.2l-0.1-0.2q0-0.1 0.1 0zm21 0.1q-0.1 0-0.1 0 0 0 0 0.1l-0.3 0.4q0 0 0.1-0.3c0.1 0 0.1-0.1 0.1-0.1q0-0.1 0.1-0.1 0.1-0.2 0.1 0zm-28 0q0 0.1-0.1 0.1 0 0.1 0 0.1 0 0.1 0 0.1 0-0.1 0-0.2 0-0.1 0.1-0.1zm3 0.1c0 0.1 0 0.2-0.1 0.3 0 0.1 0 0.2 0 0.2q-0.1 0.1 0 0c0-0.1 0-0.2 0-0.4q0.1-0.2 0.1-0.1zm14 0c0.1 0 0.3 0.5 0.3 0.5q-0.1 0-0.1 0c0-0.1 0-0.2-0.1-0.3-0.1-0.1-0.1-0.2-0.1-0.2zm-20.7 0.1q0 0-0.1 0.1-0.2 0.1 0 0c0.1-0.2 0.1-0.2 0.1-0.1zm17.1 0.1c0.1 0.1 0.1 0.8 0 0.8 0 0 0-0.2 0-0.5q0-0.5 0-0.3zm-9.3 0.1c0 0 0 0.1 0.1 0.2q0 0.1-0.1 0c0 0 0-0.1 0-0.2q-0.1-0.2 0 0zm3 0c0 0 0.1 0.1 0.1 0.2 0 0 0 0.2 0.1 0.2 0 0.1 0 0.2 0 0.2 0 0.1-0.1-0.1-0.1-0.4-0.1 0-0.1-0.1-0.1-0.2q0-0.1 0 0zm-11 0c0 0-0.3 0.4-0.4 0.5-0.1 0 0-0.1 0.1-0.2 0.2-0.1 0.3-0.3 0.3-0.3zm3.7 0.2q-0.1 0.1-0.1 0 0-0.1 0.1-0.1 0.1-0.1 0 0.1zm14.3 0.1q0 0.1 0 0.1 0 0.1 0 0-0.1-0.1-0.1-0.1 0-0.1 0.1 0zm-14.4 0c0 0 0 0.2-0.1 0.4q0 0.1 0 0.1c0-0.1 0-0.2 0-0.2 0.1-0.1 0.1-0.2 0.1-0.2q0-0.1 0-0.1zm3.1 0v0.1c0 0.1 0 0.1 0 0.2q-0.1 0.1-0.1 0 0 0 0.1-0.1 0 0 0-0.1zm1.4 0.2c0 0 0.1 0.1 0.1 0.2q0 0.1 0 0c-0.1 0-0.1-0.1-0.1-0.2q0-0.3 0 0zm26.6-0.2q0.1 0.1 0 0.2c-0.1 0.1-0.1 0.1-0.1 0.2q0 0.2 0 0.1-0.2-0.2 0-0.3 0.1-0.2 0.1-0.2zm-13.3 0.2q0 0 0 0.1c0 0.1-0.1 0-0.1-0.1q0 0 0.1 0zm-22.2 0.2c-0.1 0.1-0.2 0.1-0.2 0.1-0.2 0-0.2 0.2 0 0.2 0 0 0.1 0.1 0.2 0.1 0 0.1 0 0.1-0.1 0 0 0-0.1 0-0.2 0q-0.3-0.1 0-0.3c0.1 0 0.2 0 0.2-0.1q0.3-0.1 0.1 0zm19 0.1c0.1 0.2 0.1 0.3 0 0.1 0-0.1 0-0.2 0-0.2q0 0 0 0.1zm3.2-0.1q0 0.1 0.1 0.1 0 0 0.1 0.1 0 0.1 0 0.1c0-0.1 0-0.2-0.1-0.2q-0.1-0.1-0.1-0.1zm-10.1 0.1q0 0.1 0 0.2l-0.1-0.2q0-0.1 0.1 0zm-4.7 0.1c0 0 0 0.1-0.1 0.2q0 0.1 0 0c0 0 0-0.1 0.1-0.2q0-0.2 0 0zm10.8-0.1v3.1c0 1.7 0 3.1 0 3.2 0 0-0.1-1.4 0-3.2zm-14 0.2q0 0.1-0.1 0.2 0 0.1 0 0 0-0.1 0-0.2 0.1 0 0.1 0zm4.9 0.2c0.1 0.2 0.1 0.3 0 0.1-0.1 0-0.1-0.1-0.1-0.2q0 0 0.1 0.1zm3-0.1h0.1q0 0.1 0 0.2 0.1 0 0.1 0.1 0 0-0.1-0.1c0 0-0.1-0.1-0.1-0.2zm-4.9 0.4c0.1 0.1 0 0.3 0 0.3-0.1 0 0-0.1 0-0.2q0-0.3 0-0.1zm15.4-0.1q0 0.1 0 0.2 0 0 0-0.1-0.1-0.1-0.1-0.1 0 0 0.1 0zm-22.3 0c0.1 0 0.8 0.6 0.8 0.7q0 0.1 0 0.1 0.1 0.1 0.1 0.1c0 0-0.1-0.1-0.2-0.2q-0.2-0.3-0.6-0.6-0.1-0.1-0.1-0.1zm3.7 0.2q0 0.1 0 0.1 0-0.1 0-0.2 0.1-0.2 0 0.1zm15.4 0.1c0 0 0.1 0.1 0.1 0.2 0.2 0.2 0.2 0.4 0.1 0.2-0.1-0.1-0.4-0.6-0.4-0.7 0 0 0.2 0.2 0.2 0.3zm16.3-0.2q0 0 0 0.1 0.1 0 0.1 0.1l0.3 0.5c0-0.1-0.1-0.2-0.2-0.3 0-0.1-0.1-0.2-0.1-0.2q0-0.1-0.1-0.2zm-23.3 0.5q0 0.1 0 0c0 0-0.1-0.1-0.1-0.2 0-0.1 0-0.2 0-0.2 0-0.1 0.1 0.2 0.1 0.4zm-3.2-0.3c0 0.1 0 0.2 0 0.2q0.1 0.1 0 0c0 0 0-0.1 0-0.2q-0.1-0.2 0 0zm-5.3 0.4q-0.1 0.2-0.1 0.1c0-0.1 0-0.2 0.1-0.2 0-0.1 0-0.1 0 0.1zm5.4 0.1v0.2h-1.1c-1.2 0-1.2 0-1.2-0.1q0.1-0.1 0.1-0.2 0 0-0.1 0.1c-0.1 0.2-0.1 0.2 1.2 0.2 1.2 0 1.2 0 1.1-0.2v-0.2zm3.2 0q0 0.1 0 0.2l-0.1-0.2q0-0.1 0.1 0zm7.2 0.1c0.1 0.1 0.1 0.2 0 0.1q-0.1-0.1-0.1-0.1 0-0.1 0.1 0zm16.5 0.1c0 0.1 0.1 0.2 0.2 0.3 0 0.1 0.1 0.2 0.1 0.2 0 0-0.1 0-0.1-0.1-0.2-0.3-0.2-0.4-0.3-0.5 0-0.1 0.1 0 0.1 0.1zm-32.5 0.1q0 0.2 0 0.1c0 0 0-0.1 0-0.2 0.1-0.1 0.1-0.1 0 0.1zm-8-0.1h0.6q0.6 0 0.8 0l0.2 0.1h-0.2c-0.1-0.1-0.5-0.1-0.8-0.1h-0.6v1.2 1.1h0.9c0.7 0 0.8 0 0.5 0-0.4 0.1-1.3 0.1-1.4 0-0.1-0.1-0.1-2.1 0-2.2zm5.5 0.2c0.1 0 0.1 0.1 0.1 0.2q0 0.1 0 0 0-0.1-0.1-0.2 0-0.1-0.1-0.1 0.1-0.1 0.1 0.1zm11.4 0q0.1 0.3 0 0.1c-0.1-0.1-0.1-0.1-0.1-0.2q0 0 0.1 0.1zm-15.1 0c0.1 0 0.2 0.1 0.3 0.1q0 0.1 0 0.1c0-0.1-0.3-0.3-0.4-0.3q0 0 0.1 0.1zm22.2-0.1q0 0.1 0.1 0.1 0 0.1 0.1 0.1 0 0.1 0 0.1c0-0.1-0.1-0.2-0.1-0.2q-0.1-0.1-0.1-0.1zm-16.1 0.3q0 0 0 0.1-0.1 0.1-0.1 0.1 0-0.1 0-0.2 0.1-0.1 0.1 0zm19.6 0c0.1 0.1 0.2 0.4 0.2 0.4 0 0-0.1-0.1-0.1-0.2-0.1-0.1-0.1-0.2-0.1-0.2zm-3.3 0l0.2 0.4c0 0.1-0.1 0-0.1-0.2-0.1 0-0.1-0.1-0.1-0.1q0-0.1 0-0.1zm-18.5 0.2c0 0.1 0 0.3 0 0.4v0.3-0.3c0-0.2 0-0.3-0.1-0.4q0-0.1 0.1 0zm31.7 0.1q0.1 0.2 0 0.1c0 0-0.1-0.1-0.1-0.2-0.1-0.1 0-0.1 0.1 0.1zm3.4 0q0.1 0.1 0.1 0.1 0 0.1-0.1-0.1-0.1-0.1 0 0zm-23.8 0c0.1 0 0.1 0.1 0.1 0.2q0 0.1-0.1-0.1c0-0.1 0-0.1 0-0.2q0 0 0 0.1zm19.8-0.1c0.1 0-0.1 0.2-0.2 0.2q0 0-0.1 0.1l-0.1 0.1v1.9c0 1.8 0 1.9-0.1 1.9q-0.1 0 0 0c0 0 0-0.4 0-1.9v-1.9l0.2-0.1c0-0.1 0.1-0.1 0.1-0.1q0.1 0 0.1-0.1 0.1-0.1 0.1-0.1zm-34.5 0.1l0.1 0.1c0.1 0.2 0.1 0.5 0 0.7l-0.1 0.2 0.1-0.2c0-0.2 0-0.5 0-0.7zm5.3 0.4q0 0.1 0 0v-0.1c0.1-0.2 0.1-0.1 0 0.1zm16.9 0.1c0.1 0.1 0.2 0.2 0.1 0.3 0 0-0.2-0.5-0.2-0.6 0 0 0 0 0.1 0.3zm13.1 0c0 0.1 0.1 0.2 0.1 0.3 0 0-0.3-0.5-0.3-0.6 0 0 0 0 0.2 0.3zm-20.5-0.1q0 0.1 0 0.2 0 0 0-0.1-0.1 0-0.1-0.1 0-0.1 0.1 0zm-9.6 0.3q-0.1 0.2-0.1 0.1c0 0 0.1-0.1 0.1-0.2 0.1-0.1 0.1 0 0 0.1zm33.7 0c0 0.1 0.1 0.2 0.1 0.2q-0.1 0-0.1-0.1c-0.1-0.1-0.1-0.1-0.1-0.2q0 0 0.1 0.1zm-24 0.2l0.1 0.1c0 0.1 0 0.3 0.1 0.3 0 0.1 0 0.2 0 0.2 0 0.1-0.1-0.2-0.1-0.4-0.1 0-0.1-0.1-0.1-0.2q0-0.1 0 0zm-9.8 0.1q0 0 0 0.1-0.1 0.1-0.1 0.1 0 0 0-0.1 0.1-0.2 0.1-0.1zm-1.7 0.1c0 0.2-0.1 0.5-0.1 0.5q-0.1 0.1 0 0c0-0.1 0-0.2 0-0.4q0-0.3 0.1-0.1zm35.6-0.1q0.1 0.1 0.1 0.1 0 0.1 0 0.1 0.1 0.1 0.1 0.1c0 0.1-0.1 0-0.2-0.2q0-0.1 0-0.1zm-39.1 0c0.1 0 0 0.1-0.1 0.3-0.1 0.1-0.4 0.3-0.4 0.3q-0.1 0 0.1-0.1c0.2-0.1 0.4-0.3 0.4-0.4q0-0.1 0-0.1zm22.6 0.1q0.1 0.1 0.1 0.1 0 0 0.1 0.1-0.1 0-0.1-0.1c-0.1 0-0.1-0.1-0.1-0.1q0-0.1 0 0zm-17.5 0.2c0 0 0 0.1-0.1 0.3-0.1 0.2-0.1 0.1 0-0.2q0.1-0.1 0.1-0.1zm30.7 0q0 0.1 0.1 0.2 0 0.1-0.1 0c0-0.1-0.1-0.1-0.1-0.2q0-0.1 0.1 0zm3.6 0.2c0 0 0.1 0.1 0.1 0.2q0 0-0.1-0.1c-0.1-0.1-0.1-0.2-0.1-0.2q0 0 0.1 0.1zm-16.5 0.2q0.1 0.1 0 0.1 0-0.1 0-0.1 0-0.1 0 0zm13.3 0.5q0.3 0.4 0.3 0.6c0.1 0 0.1 0.1 0 0 0 0-0.1-0.2-0.3-0.5-0.1-0.3-0.2-0.5-0.3-0.5q0-0.1 0-0.1c0-0.1 0-0.1 0.3 0.5zm-20.9-0.5q0 0.1 0.1 0.2l-0.2-0.2q0-0.1 0.1 0zm-12 0.1q0 0.1 0 0.2-0.1 0.1 0-0.1 0-0.2 0-0.1zm19.7 0.1q0.1 0.1 0.1 0.1 0.1 0 0.1 0.1 0 0.1-0.1 0 0-0.1 0-0.1-0.1-0.1-0.1-0.1 0-0.1 0 0zm-18.1 0.1q-0.1 0.2-0.1 0.1c0 0 0-0.1 0.1-0.2 0-0.1 0 0 0 0.1zm10.5-0.1v0.1q0 0.1 0 0.1 0.1 0.1 0.1 0.1 0 0.1-0.1 0c0-0.1 0-0.1 0-0.2zm-7.1 0.1c0 0 0.7 0 1.8 0l1.8 0.1h0.1q0.1 0.1 0.1 0.1c0-0.2-0.1-0.2-1.9-0.2-1 0-1.8 0-1.9 0zm31.5 0.2l0.2 0.4c0 0-0.2-0.3-0.3-0.4q0-0.1 0.1 0zm-16.6 0c0 0 0.1 0.1 0.1 0.2 0.1 0.1 0.1 0.2 0.1 0.2 0 0-0.1-0.1-0.1-0.2-0.1-0.1-0.1-0.2-0.1-0.2zm-18.5 0.2q0 0.2 0 0 0 0 0-0.1 0.2-0.1 0 0.1zm3.5-0.1c0 0.1-0.1 0.4-0.1 0.3q0 0 0-0.1 0.1-0.2 0.1-0.2zm3.9 0.1l0.1 0.2q0 0.1 0 0.3 0 0.1 0 0c0-0.1 0-0.2-0.1-0.2q0-0.2 0-0.3 0-0.2 0 0zm3.5 0.2q0 0.1 0 0.1 0 0.2 0 0 0 0 0-0.1-0.1 0-0.1-0.1 0 0 0.1 0.1zm-10.9 0c0 0 0 0.1-0.1 0.3q-0.1 0.2-0.1 0.1c0 0 0-0.1 0.1-0.2 0-0.1 0-0.2 0-0.2q0 0 0.1 0zm-1.8 0c0.1 0-0.5 0.6-0.7 0.8-0.3 0.2-0.3 0.1 0-0.1 0.2-0.1 0.4-0.3 0.5-0.5 0.1-0.1 0.2-0.2 0.2-0.2zm20.6 0.1c0 0.1 0.1 0.2 0.1 0.2q0 0-0.1-0.1l-0.1-0.1q0-0.1 0.1 0zm16.6 0c0 0 0 0.1 0.1 0.2 0 0 0.1 0.2 0.1 0.3 0.1 0.1 0.1 0.2 0.1 0.2 0 0 0-0.1-0.1-0.2 0-0.1-0.1-0.2-0.2-0.3q-0.1-0.2 0-0.2zm-32 0.1c0 0.1-0.1 0.3-0.1 0.3 0 0 0-0.1 0-0.2q0.1-0.2 0.1-0.1zm7.5 0.1c0.1 0.1 0.2 0.3 0.2 0.2q0-0.1-0.1-0.1 0-0.1-0.1-0.1zm21.1 0.1c0.1 0.2 0.1 0.2 0 0.1-0.1-0.1-0.1-0.2-0.1-0.2q0 0 0.1 0.1zm-13 0q0 0.1 0 0.2 0 0 0-0.1-0.1-0.1-0.1-0.1 0 0 0.1 0zm-11.4 0.1c0.1 0.2 0.1 0.3 0 0.2 0-0.1-0.1-0.2-0.1-0.2q0.1-0.1 0.1 0zm-7.8 0q0 0.1 0 0.1-0.1 0.1-0.1 0.2c0 0 0-0.1 0-0.2q0.1-0.1 0.1-0.1zm3.4 0.2c0.1 0 0 0.1 0 0.2 0 0.1-0.1 0.2-0.1 0.3q0 0.1 0-0.1c0 0 0-0.1 0.1-0.2 0-0.1 0-0.2 0-0.2q0-0.2 0 0zm7.9 0c0 0 0.1 0.1 0.1 0.2 0 0 0 0.1 0 0.2 0 0.1-0.1-0.2-0.1-0.4q0-0.1 0 0zm8 0q0 0 0 0.1-0.1-0.1-0.1-0.1 0-0.1 0.1 0zm13 0c0.1 0.1 0.2 0.4 0.1 0.3 0 0-0.1-0.2-0.2-0.4q0 0 0.1 0.1zm-24.4 0.3q0.2 0.3 0 0.1c0 0 0-0.1 0-0.2q0-0.1 0 0.1zm11.6 0.1c0.1 0.1 0.1 0.3 0.1 0.3l-0.3-0.5c0-0.1 0.1-0.1 0.2 0.2zm-19.7 0q0 0.1 0 0.1 0-0.1 0-0.2 0.1-0.2 0 0.1zm36.3 0q0.1 0 0.1 0.1c0 0.1 0.1 0.2 0.1 0.2 0.1 0.1 0 0.2 0 0.2q-0.1-0.1 0-0.1c0 0 0 0 0-0.1-0.1 0-0.1-0.1-0.2-0.2q-0.1-0.2 0-0.1zm-3.4 0.3q0 0.1 0.1 0.1 0 0.1 0 0.1-0.1-0.1-0.2-0.2c0 0 0-0.1-0.1-0.1q0-0.1 0-0.2c0 0 0.1 0.1 0.2 0.3zm-35.8-0.3q0 0-0.1 0.1c-0.1 0.1-0.2 0.1-0.2 0.1q-0.2 0 0 0c0 0 0.1-0.1 0.2-0.1q0-0.1 0.1-0.1zm14.6 0.1c0.1 0.1 0.1 0.3 0 0.4 0 0-0.8 0-1.7 0h-1.7 1.7l1.7-0.1v-0.1c0 0 0-0.1 0-0.2q-0.1-0.1 0 0zm-11.7 0.2q-0.1 0.1-0.1 0.1 0 0 0-0.1 0.1-0.3 0.1 0zm3.5-0.1c0 0.1-0.1 0.3-0.1 0.3q-0.1-0.1 0-0.2 0.1-0.1 0.1-0.1zm-6.9 0.1c-0.1 0-0.2 0-0.2 0q-0.2 0 0 0 0.3-0.2 0.2 0zm11.6 0q0 0.1 0.1 0.1 0 0.1 0 0-0.1 0-0.1-0.1 0-0.2 0 0zm-12.1 0c0.2 0-0.1 0.1-0.4 0.1h-0.2 0.2c0.1 0 0.3 0 0.3-0.1q0 0 0.1 0zm5.5 0.2q1.5 0 0.9 0c-0.5 0-1.2 0-1.7 0-0.4 0-0.1 0 0.8 0zm20.4 0c1.1 0 1.6 0 1 0-0.5 0-1.4 0-2 0-0.6 0-0.1 0 1 0zm6.1 0c0.9 0 1.2 0 0.8 0-0.4 0-1.1 0-1.5 0-0.4 0-0.1 0 0.7 0zm5.8 0c0.4 0 1.2 0 1.7 0 0.4 0 0 0-0.9 0-0.9 0-1.3 0-0.8 0zm-31.7 4.4c-0.1 0-0.1 0.1-0.1 0.1q0 0.1 0 0.1c0-0.1 0.1-0.1 0.1-0.2l0.1-0.1h1.9c2.2 0 2.2 0 2.3 0.2q0 0.2 0 0.2c0.1 0 0-0.2-0.1-0.3-0.1-0.2-4.1-0.2-4.2 0zm-8.9 0l0.1 0.1v4.5c0 2.5 0 4.5 0 4.4-0.1 0-0.1-2.1-0.1-4.5v-4.5h-0.1c0 0-0.7 0-1.5 0h-1.5v5.8 5.8h3.8 3.8v-1.2-1.3h-2.2-2.2 2.2c1.6 0 2.2 0 2.2 0 0 0.1 0.1 0.4 0.1 1.3v1.2l-0.1 0.1c-0.1 0-1.8 0-3.9 0h-3.7l-0.1-5.8c0-4.3 0-5.8 0.1-5.9 0.1-0.1 3-0.1 3.1 0zm19.8 0c1.2 0 1.5 0 1.6 0 0 0.1 0 1.6 0 5.9v5.8h-1.6-1.6l-0.1-5.8c0-4.3 0-5.8 0.1-5.9 0 0 0.3 0 1.6 0zm4.1 0c-0.1 0.1-0.1 11.5 0 11.6 0 0.1 2.7 0.1 2.8 0.1 0-0.1-0.6-0.1-1.4-0.1h-1.4v-5.7c-0.1-4.3 0-5.8 0-5.8 0-0.1 0.4-0.1 2.1-0.1h2l0.1 0.2c0.1 0.3 0.2 0.3 0.1 0.1-0.2-0.4 0-0.3-2.3-0.3-1.2 0-2 0-2 0zm11.1 0q0 0.1-0.1 0.1c0-0.1-2.7-0.1-2.7-0.1-0.1 0-0.1 1.3-0.1 2.8v2.8-2.8q0-2.7 0-2.8c0.1-0.1 2.8-0.1 2.9 0zm-13.6 5.8v5.8h-1.6-1.6v-5.7c0-3.2 0-5.8 0-5.8 0-0.1 0.3-0.1 1.6-0.1h1.5zm-12.6-5.6c0.1 0 0 0.2 0 0.4q-0.1 0.2-0.1 0.1c0-0.1 0-0.1 0-0.2 0.1-0.1 0.1-0.2 0.1-0.2q0 0 0-0.1zm19.6 0.3c0 0.1 0.1 0.2 0.1 0.2 0 0.1 0.1 0.1 0.1 0.2q0 0.1 0 0.1c0 0-0.2-0.3-0.3-0.5q0 0 0.1 0zm-14.9 0.1q0 0.1 0 0.2 0 0.1 0 0 0-0.1-0.1-0.2 0-0.1 0.1 0zm-4.8 0.2q0 0.1-0.1 0.1 0 0.1 0 0.2c0 0 0-0.1 0-0.2q0.1-0.1 0.1-0.1zm4.9 0.2q0 0.1 0 0.1c0 0.1-0.1-0.1-0.1-0.2q0 0 0.1 0.1zm-5.1 0.4q-0.1 0.1-0.1 0.1 0-0.1 0.1-0.2 0.1-0.2 0 0.1zm20.4 0.2c0.1 0 0.1 0.1 0.2 0.2 0.1 0.2 0.1 0.3 0 0.2-0.1-0.1-0.3-0.7-0.3-0.7 0 0 0.1 0.1 0.1 0.3zm-15.2-0.2c0 0.1 0.1 0.1 0.1 0.2 0 0.1 0 0.2 0.1 0.3q0 0 0 0.1c0 0.1-0.1-0.1-0.1-0.3 0-0.1-0.1-0.2-0.1-0.2q0-0.1 0-0.1zm-5.3 0.2c0 0 0 0.1-0.1 0.3q0 0.2 0 0.1c0-0.1 0-0.2 0-0.2q0.1-0.1 0.1-0.2zm-0.2 0.7q-0.1 0.1-0.1 0.1c0-0.1 0.1-0.1 0.1-0.2 0.1-0.2 0.1-0.1 0 0.1zm21.4 0.6c0.1 0.1 0.2 0.3 0.2 0.4q0.1 0.1 0.1 0.1c0 0-0.1-0.1-0.2-0.2-0.3-0.6-0.5-1.1-0.5-1.1q0-0.1 0.4 0.8zm-15.6-0.6q0.1 0.1 0.1 0.1c0 0.1-0.2-0.1-0.2-0.2q0 0 0.1 0.1zm-2.9 0c0.1 0 0.1 0.1 0 0.1-0.1 0.1-0.1 0-0.1-0.1q0.1 0 0.1 0zm-3 0.4q-0.1 0.1-0.1 0 0 0 0.1-0.1c0-0.1 0.1-0.1 0 0.1zm6-0.1c0 0 0 0.1 0.1 0.2 0 0 0 0.1 0 0.2l0.1 0.1c0 0.1 0.1 0.2 0.1 0.2q-0.1 0.1-0.1 0.1c0-0.1 0-0.2-0.1-0.2 0-0.1 0-0.2 0-0.2 0-0.1 0-0.2-0.1-0.2 0-0.1 0-0.2 0-0.2q0-0.1 0 0zm-2.7 0.5q0 0.1-0.1 0.1 0-0.2 0-0.3c-0.1-0.1-0.1-0.2-0.1-0.2 0-0.2 0.1 0.2 0.2 0.4zm-0.4-0.4c0 0.1-0.1 0.4-0.1 0.4q0-0.1 0-0.2c0 0 0.1-0.1 0.1-0.2q0-0.2 0 0zm-3.1 0.5q-0.1 0.2-0.1 0.1c0-0.1 0.1-0.2 0.1-0.2 0.1-0.1 0.1-0.1 0 0.1zm3 0c0 0.1-0.1 0.2-0.1 0.3 0 0.1-0.1 0.3-0.1 0.3q0 0.1 0 0c0-0.1 0-0.2 0.1-0.3q0-0.2 0-0.3 0-0.1 0.1 0zm0.5 0.2c0.1 0.1 0.1 0.2 0.1 0.2 0 0.1-0.1-0.1-0.1-0.2q0-0.1 0 0zm-3.6 0.2q-0.1 0.2-0.1 0.1c0-0.1 0-0.2 0.1-0.2q0.1-0.2 0 0.1zm6.6-0.1q0.1 0.1 0.1 0.2c0 0.1-0.1-0.1-0.1-0.2zm15.6 0q0 0.1 0 0.2 0 0-0.1-0.1 0-0.2 0.1-0.1zm-3.3 0.1q0.1 0 0 0.1 0 0 0 0.1 0 0.1-0.1 0 0 0 0-0.1 0.1-0.1 0.1-0.1zm0.1 0.2q0.1 0.1 0 0.1c0 0 0-0.1 0-0.2q0 0 0 0.1zm-15.2 0.1q0 0.1 0 0.3c0 0-0.1-0.3-0.1-0.4q0-0.1 0.1 0.1zm18.5-0.1c0.1 0.1 0.1 0.1 0.1 0.2q0 0.1 0 0-0.1-0.1-0.1-0.2-0.1 0-0.1 0 0-0.1 0.1 0zm-22.4 0q0 0.1 0 0.2c-0.1 0.1-0.1 0-0.1-0.1q0.1-0.1 0.1-0.1zm6.8 0.1q0.2 0.3 0 0.1c0 0 0-0.1 0-0.2q0 0 0 0.1zm-3.8 0.1l-0.1 0.3q0-0.1 0-0.2 0.1-0.1 0.1-0.1zm16.5 0.5c0.1 0.2 0.2 0.4 0.2 0.4q0.1 0.1 0.1 0.1c-0.1 0.1-0.1 0-0.2-0.2-0.1-0.2-0.2-0.4-0.3-0.5-0.1-0.2-0.1-0.3-0.1-0.3 0-0.1 0 0 0.3 0.5zm3-0.4q0.1 0 0.1 0c0 0.1 0 0.1-0.1 0.1q0-0.1 0-0.1zm-22.6 0.1c0 0 0 0.1-0.1 0.2-0.1 0.3-0.1 0.1 0-0.1q0.1-0.2 0.1-0.1zm4.1 0.1c0 0 0 0.2 0 0.3 0.1 0.1 0.1 0.2 0.1 0.2q0 0.1 0 0c0-0.1-0.1-0.2-0.1-0.2 0-0.1-0.1-0.2-0.1-0.3q0-0.1 0.1 0zm18.7 0l0.2 0.5c0 0-0.1-0.1-0.2-0.3 0-0.1-0.1-0.2-0.1-0.2q0 0 0.1 0zm-15.7 0.1q0.1 0.1 0.1 0.2 0 0.1-0.1 0 0-0.1 0-0.1 0-0.1 0-0.1zm-4.1 0.1c0 0.1-0.1 0.3-0.1 0.3 0 0 0-0.1 0-0.2q0.1-0.2 0.1-0.1zm16.1 0.2c0 0.1 0.1 0.6 0.1 1 0 0.7 0 0.7 0 0.1-0.1-0.3-0.1-0.7-0.1-1 0-0.3 0-0.3 0-0.1zm-19.3 0.2q-0.1 0.1-0.1 0 0 0 0-0.1c0.1-0.2 0.1-0.1 0.1 0.1zm7.4-0.1q0.1 0.1 0.1 0.2 0 0-0.1-0.1 0 0 0-0.1 0-0.1 0 0zm-4.4 0.3c0 0.1-0.1 0.2-0.1 0.2 0.1 0 0.2-0.2 0.1-0.3q0-0.2 0 0.1zm20.3-0.2c0.1 0.1 0 0.1 0 0.1q-0.1-0.1 0-0.1zm-18.8 0.2q0 0.1 0 0.1c0 0.1-0.1-0.1-0.1-0.2q0-0.1 0.1 0.1zm-4.7 0.2q0 0.1 0 0 0-0.1 0-0.1c0.1-0.2 0.1-0.1 0 0.1zm23.7 0q0 0.1 0 0.1c0.1 0 0.3 0.4 0.2 0.4 0 0 0 0-0.1-0.1 0-0.1-0.1-0.3-0.2-0.4 0-0.1-0.1-0.2-0.1-0.2 0-0.1 0.2 0.1 0.2 0.2zm-3.4-0.1q0.1 0 0.1 0.1 0 0-0.1-0.1 0-0.1 0 0zm-12.5 0.1c0 0 0 0.1 0.1 0.1 0 0.1 0 0.3 0 0.3 0.1 0.1 0.1 0.2 0.1 0.2 0 0.1-0.1-0.2-0.2-0.4 0 0 0-0.1 0-0.2q-0.1-0.1 0 0zm12.8 0.3c0 0.1 0.1 0.3 0.1 0.3 0 0-0.3-0.5-0.3-0.6 0 0 0 0 0.2 0.3zm-15.8-0.1q0.1 0.4 0 0.2c-0.1-0.1-0.1-0.2-0.1-0.2q0-0.2 0.1 0zm-4.8-0.1c0 0 0 0.2-0.1 0.4q-0.1 0.1-0.1 0.1c0-0.1 0-0.2 0.1-0.2 0-0.1 0-0.2 0-0.2q0-0.1 0.1-0.1zm3.1 0.2c0 0.1-0.1 0.3-0.1 0.3q0 0 0-0.2 0.1-0.1 0.1-0.1zm1.8 0.3c0 0 0 0.2 0.1 0.3 0 0.1 0 0.2 0 0.2q0 0.1 0 0c0-0.1-0.1-0.2-0.1-0.2q0-0.2 0-0.3 0-0.1 0 0zm19.1 0q0.1 0.1 0.1 0.2 0 0-0.1-0.1 0-0.1 0-0.1zm-24.3 0.3q0 0.1 0 0 0 0 0-0.1c0.1-0.2 0.1-0.1 0 0.1zm3.2-0.2v0.1c0.1 0.1 0 0.2 0 0.2q-0.1 0.2 0 0c0 0 0-0.1 0-0.2zm5.1 0.1q0.1 0.1 0.1 0.2 0 0-0.1-0.1 0-0.1 0-0.1 0-0.1 0 0zm12.8 0.1q0.1 0.1 0.1 0.2c0 0-0.1-0.1-0.1-0.2q0-0.1 0 0zm3.3 0c0.1 0 0.3 0.4 0.2 0.4 0 0.1 0 0-0.1-0.1 0-0.1-0.1-0.2-0.1-0.2q0-0.1 0-0.1zm0.9 0c0.1 0.1 0 1.7 0 1.7q-0.1 0-0.1-0.1 0-0.1 0 0c0.1 0 0.1-0.2 0.1-0.8 0-0.4 0-0.8 0-0.8zm-16.9 0.1v0.1q0 0.1 0.1 0.2 0 0 0 0.1 0 0 0-0.1c-0.1 0-0.1-0.1-0.1-0.2zm-8.5 0.3q-0.1 0.1-0.1 0 0 0 0.1-0.1 0.1-0.2 0 0.1zm21.4-0.1q0.2 0.3 0 0.1c-0.1-0.1-0.1-0.1-0.1-0.2q0 0 0.1 0.1zm-18.2 0c0 0 0 0.1 0 0.2 0 0.1 0 0.2-0.1 0.2q0-0.1 0-0.2c0 0 0.1-0.1 0.1-0.2zm2.2 0.2c0.1 0.2 0.1 0.2 0 0.2q0 0 0-0.1 0.1 0 0 0 0-0.1 0-0.2 0-0.1 0 0.1zm-5.5 0c0 0 0 0.2-0.1 0.4q-0.1 0.2 0 0v-0.1q0.1-0.1 0.1-0.2 0-0.1 0-0.1zm8.9 0.4q0 0.1 0 0.1c-0.1 0-0.1-0.1-0.1-0.2-0.1-0.1-0.1-0.2-0.1-0.2 0-0.1 0.1 0.2 0.2 0.3zm12.7-0.3q0.1 0.1 0 0.1 0-0.1 0-0.1 0-0.1 0 0zm0.2 0.2c0.2 0.4 0.2 0.5 0.2 0.5-0.1-0.1-0.3-0.5-0.3-0.5q0-0.1 0.1 0zm3.3 0c0 0.1 0 0.1 0 0.2q0 0.1 0 0 0-0.1-0.1-0.2 0-0.1 0.1 0zm-25.3 0.3q0.1 0.1 0 0.1 0 0.1 0 0.1 0 0.1-0.1 0.1c0-0.1 0-0.1 0.1-0.2q0-0.1 0-0.1zm9.1 0c0 0.1 0.1 0.3 0.1 0.2q0 0-0.1-0.1 0-0.1 0-0.1zm13.1 0.3c0.1 0.1 0.2 0.4 0.2 0.4q0 0-0.1-0.1c0-0.1 0-0.2-0.1-0.2q0-0.1 0-0.1 0-0.1 0 0zm-22.3 0.1q0 0 0 0.1-0.1 0.2-0.1 0.1 0 0 0-0.1 0.1-0.1 0.1-0.1zm22.6 0.4c0.1 0.1 0.1 0.2 0.1 0.2q0 0-0.1-0.1l-0.1-0.1q0.1-0.1 0.1 0zm-22.8 0.3q-0.1 0.2-0.1 0.1c0-0.1 0.1-0.2 0.1-0.2 0.1-0.2 0.1-0.1 0 0.1zm9.8 0q0 0.1-0.1 0 0-0.2 0-0.2c0-0.1 0.1 0.2 0.1 0.2zm-9.9 0.4q-0.1 0.1-0.1 0.1c0-0.1 0-0.2 0.1-0.2 0-0.2 0-0.1 0 0.1zm10-0.2q0 0.1 0 0.2 0 0.1 0 0-0.1-0.1-0.1-0.2 0 0 0.1 0zm13.4 0.3c0.1 0.2 0.1 0.3-0.1 0.1 0-0.1 0-0.1 0-0.2q0 0 0.1 0.1zm-13.4 0l0.1 0.1q0 0.1 0 0.1 0.1 0 0.1 0.1 0 0.1-0.1 0c0-0.1-0.1-0.2-0.1-0.2zm-10.2 0.2q0 0.1 0 0.1 0-0.1 0-0.1c0.1-0.2 0.1-0.1 0 0zm10.4 0.3c0 0 0 0.1 0.1 0.2q0 0.2 0 0.1c0-0.1 0-0.2-0.1-0.3q0-0.1 0 0zm13.4 0q0.1 0.1 0.1 0.2c-0.1 0-0.1-0.1-0.1-0.2zm-23.9 0.2q-0.1 0.2-0.1 0.1 0 0 0.1-0.1 0.1-0.2 0 0zm7.1-0.1q0.1 0.1 0.1 0.2 0 0.1 0 0c0-0.2-0.1-0.2-1.9-0.2h-1.8l-0.1 0.1q0 0.1 0 0.1 0-0.1 0-0.2c0.1 0 3.6 0 3.7 0zm16.9 0.1c0.1 0.1 0.6 1.1 0.5 1.1 0 0-0.1-0.2-0.1-0.3-0.1-0.2-0.2-0.3-0.2-0.3q0 0-0.1-0.1c0-0.1 0-0.2-0.1-0.2q0-0.1 0-0.1 0-0.1 0-0.1zm-20.7 0.2c0.1 0.1 0 0.4 0 0.4-0.1-0.1 0-0.2 0-0.3q0-0.2 0-0.1zm4 0.1q0 0.2 0 0.3 0 0 0-0.1c-0.1-0.1-0.1-0.2-0.1-0.2q0-0.1 0.1 0zm-7.5 0.2q0 0.1 0 0v-0.1c0.1-0.2 0.1-0.1 0 0.1zm10.9-0.2q0 0.1 0 0.2c0 0-0.1-0.1-0.1-0.2q0 0 0.1 0zm0.1 0.2v0.1q0 0.1 0 0.1 0.1 0.1 0.1 0.1 0 0.1-0.1 0c0 0 0-0.1 0-0.2zm-11 0.2q0 0-0.1 0.1c-0.1 0.2-0.1 0.1 0-0.1q0.1-0.1 0.1 0zm7.6 0c0.1 0.3 0.1 0.4 0 0.2 0 0-0.1-0.1-0.1-0.2q0-0.1 0.1 0zm-4.2 0.2c0 0 0 0.1-0.1 0.2q-0.1 0.2 0-0.1 0.1-0.2 0.1-0.1zm7.7 0v0.1c0 0.1 0 0.1 0.1 0.2q0 0.1 0 0.2 0 0.1 0 0 0-0.1-0.1-0.2c0-0.1 0-0.1 0-0.2zm-11.3 0.1c0 0.1 0 0.1 0 0.2q-0.1 0.1-0.1 0.1 0-0.1 0.1-0.1 0-0.1 0-0.2 0-0.1 0 0zm7.9 0.2c0 0.1 0.1 0.2 0.1 0.3-0.1 0-0.1-0.1-0.1-0.2q0-0.3 0-0.1zm17.1 0q0.1 0.1 0.1 0.1 0 0-0.1 0 0 0 0-0.1zm-21.6 0.1c0.1 0.1 0 0.2 0 0.2q-0.1 0.1-0.1 0.1c0.1-0.1 0.1-0.2 0.1-0.2q0-0.2 0-0.1zm-3.5 0.1c0 0.1 0 0.2 0 0.2-0.1 0.1-0.1 0.1-0.1 0.2q0 0.1 0 0 0-0.1 0-0.2c0.1 0 0.1-0.1 0.1-0.2q0-0.1 0 0zm25.4 0.3c0 0.1 0.1 0.2 0.1 0.2l-0.3-0.5c0 0 0 0 0.2 0.3zm-13.9-0.2c0 0.1 0.2 0.3 0.2 0.2q0 0-0.1-0.1-0.1-0.1-0.1-0.1zm-8.1 0.4l-0.1 0.1h-1.7c-1 0-1.7 0-1.7 0 0 0 0.8 0.1 1.7 0.1 1.8 0 1.8 0 1.8-0.3q0-0.2 0 0.1zm4.8 0v0.1h1.7 1.8v-0.1q0-0.2 0 0v0.1l-1.7 0.1c-1.8 0-1.9 0-1.9-0.2q0-0.2 0.1 0zm19.4 0.1c1.2 0 2.1 0 2.1 0 0 0-1 0.1-2.1 0.1-1.1 0-2.1-0.1-2.1-0.1 0 0 0.9 0 2.1 0zm-40.1 3.2c0.1 0 0.1 0.1 0.1 0.2q0 0-0.1-0.1c0-0.1 0-0.2 0-0.2q0-0.1 0 0.1zm53.1 0.2c0 0 0 0.1-0.1 0.2-0.1 0.2-0.1 0.1 0-0.1q0.1-0.1 0.1-0.1zm-52.9 0.2q0.1 0.2-0.1 0.1 0-0.1 0-0.2 0 0 0.1 0.1zm0.1 0.3c0.1 0.1 0.1 0.2 0.2 0.2 0 0 0 0.1 0.1 0.2 0.1 0.2 0.4 0.4 0.8 0.6 0.1 0 0.2 0.1 0.2 0.1-0.1 0-0.7-0.3-0.9-0.5-0.1-0.2-0.5-0.7-0.5-0.7q0 0 0.1 0.1zm52.6-0.1q0 0 0 0.1c-0.1 0.1-0.1 0.1-0.1 0q0.1-0.1 0.1-0.1zm-0.3 0.5c-0.2 0.2-0.8 0.7-0.7 0.6 0-0.1 0.1-0.1 0.2-0.2 0.1-0.1 0.3-0.2 0.4-0.4q0.6-0.6 0.1 0zm-0.8 0.6c0.1 0-0.2 0.1-0.5 0.2q-0.4 0.2-0.3 0c0 0 0.2 0 0.3-0.1 0.1 0 0.3 0 0.3 0q0.1-0.1 0.2-0.1zm-50.2 0.1h0.2c0.1 0.1 0.3 0.1 0.3 0.1 0.2 0.1 0 0-0.2 0zm24.9 0.1c13.4 0 18.9 0 12.2 0-6.7 0-17.7 0-24.4 0-6.7 0-1.2 0 12.2 0z"/>
</svg>