<svg version="1.2" xmlns="http://www.w3.org/2000/svg" viewBox="0 0 42 42" width="42" height="42">
	<title>bca-svg</title>
	<style>
		.s0 { fill: #c1bfc0 } 
		.s1 { fill: #293e97 } 
		.s2 { fill: #ffffff } 
		.s3 { fill: #cbcacb } 
		.s4 { fill: #3c54ad } 
	</style>
	<g id="WYoD97rRtYUXDEcgm49vz">
		<g id="Layer">
			<g id="PTnTni_GJk1NSLM7EihhY">
				<path id="Layer" class="s0" d="m2.9 9.4c0-3.4 2.7-6 6-6h23.8c3.4 0 6 2.6 6 6v23.8c0 3.3-2.6 6-6 6h-23.8c-3.3 0-6-2.7-6-6z"/>
			</g>
			<g id="d_xZwlql1MfDuasa33IG9">
				<path id="Layer" class="s1" d="m4.5 10.9c0-3.3 2.6-6 6-6h20.7c3.3 0 6 2.7 6 6v20.7c0 3.4-2.7 6-6 6h-20.7c-3.4 0-6-2.6-6-6z"/>
			</g>
			<g id="HE1qPz3kGBpEeRFTXxDZj">
				<path id="Layer" fill-rule="evenodd" class="s2" d="m27.4 14.3l1.7-3.1h5.2l0.5 10.7h-3.4l-0.1-1.8h-2.3l-0.8 1.8h-3.8l3.9-7.6zm2.6 3.3h1.3l-0.1-2.9z"/>
			</g>
			<g id="9Kuu8XLqABhcwBJjGXaJJ">
				<path id="Layer" fill-rule="evenodd" class="s2" d="m6.9 21.9l1.9-7.5h-0.8l1.7-3.2c0 0 3.2 0 4.6 0 1.7 0 2.7 0.9 2.7 2.2 0 1.3-1 2.4-2.1 2.9 1.1 0.4 1.2 1.5 1.2 2.2 0 1.8-1.7 3.4-4 3.4zm4.9-6.4h0.8c0.4 0 1 0 1.2-0.7 0.2-0.7-0.4-0.8-0.7-0.8h-1zm-1 3.7h1.2c0.5 0 1.1-0.2 1.2-0.8 0.2-0.6-0.2-1-0.6-1h-1.3z"/>
			</g>
			<g id="bE2iO7Hb-ICMXJP_xvB2s">
				<path id="Layer" class="s2" d="m16.7 18c0-3.1 2.6-6.7 7.1-6.7 0.3 0 0.7 0 1 0.2l0.3-0.4 2.3 1.2-1.7 3c-0.6-0.5-1.4-0.9-2.4-0.9-1.9 0-3.1 1.5-3.1 2.9 0 1 0.6 2.1 2.5 2.2 1 0 2-0.5 2.6-1l-1.8 3.6c-0.3 0.1-1.1 0.2-1.7 0.3-3.7 0.1-5.1-2.2-5.1-4.4z"/>
			</g>
			<g id="-QDAAEgMf4-cZVwykCK8Q">
				<path id="Layer" class="s2" d="m14.1 27.3q0.3 0.5 0 1.5l-0.7 2.7h-0.9l0.7-2.6q0.2-0.7 0.1-1-0.2-0.4-0.6-0.4-0.5 0-0.9 0.3-0.4 0.3-0.5 0.9l-0.8 2.8h-0.8l0.7-2.7q0.2-0.6 0-1-0.2-0.3-0.6-0.3-0.4 0-0.8 0.4-0.5 0.3-0.6 0.8l-0.7 2.8h-0.9l0.9-3.4q0.2-0.7 0.3-1.2h0.8l-0.2 0.7q0.7-0.8 1.7-0.8 0.5 0 0.7 0.2 0.3 0.2 0.3 0.7 0.9-0.9 1.8-0.9 0.7 0 1 0.5z"/>
			</g>
			<g id="kzS3hEey49sEZAcxRoGv1">
				<path id="Layer" fill-rule="evenodd" class="s2" d="m19.5 27.4q0.4 0.7 0.1 1.7-0.1 0.8-0.6 1.4-0.5 0.5-1 0.8-0.7 0.3-1.3 0.3-1 0-1.4-0.6-0.5-0.7-0.2-1.8 0.3-1.1 1.1-1.8 0.9-0.6 1.9-0.6 1 0 1.4 0.6zm-0.8 0.5q-0.2-0.5-0.8-0.5-0.7 0-1.2 0.5-0.5 0.6-0.7 1.3-0.2 0.8 0 1.3 0.3 0.5 0.9 0.5 0.6 0 1.1-0.5 0.5-0.5 0.7-1.3 0.3-0.7 0-1.3z"/>
			</g>
			<g id="N2GfWI3G8JHcaZo3tkDIL">
				<path id="Layer" fill-rule="evenodd" class="s2" d="m25 27.4q0.4 0.6 0.1 1.7-0.3 1.1-1.1 1.8-0.7 0.7-1.6 0.7-1 0-1.3-0.9l-0.3 0.8h-0.7q0.2-0.4 0.4-1.2l1.4-5.7h0.9l-0.7 3q0.7-0.9 1.7-0.9 0.9 0 1.2 0.7zm-0.7 0.5q-0.3-0.4-0.9-0.4-0.6 0-1.1 0.4-0.5 0.4-0.6 0.9l-0.2 0.8q-0.1 0.5 0.1 0.9 0.3 0.4 0.8 0.4 0.6 0 1.2-0.5 0.4-0.5 0.7-1.3 0.2-0.7 0-1.2z"/>
			</g>
			<g id="LelwYpUnRL5oPhp0bdvVF">
				<path id="Layer" class="s2" d="m26.8 26.9h0.9l-1.2 4.6h-0.9z"/>
			</g>
			<g id="AspJDO50vHcjYJkkk4boH">
				<path id="Layer" class="s2" d="m27.8 24.8q0.2 0 0.4 0.1 0.1 0.2 0 0.5-0.1 0.2-0.2 0.4-0.2 0.1-0.5 0.1-0.2 0-0.4-0.1-0.1-0.2 0-0.4 0.1-0.3 0.3-0.5 0.2-0.1 0.4-0.1z"/>
			</g>
			<g id="SYJLg9nr2F4tdwfXd48L3">
				<path id="Layer" class="s2" d="m30.5 24.6l-1.8 6.9h-0.9l1.9-6.9z"/>
			</g>
			<g id="m0BERcI8jPBzjy9WYGmhO">
				<path id="Layer" fill-rule="evenodd" class="s2" d="m34.4 27.4q0.3 0.6 0.1 1.6-0.1 0.2-0.2 0.4h-3.2q-0.2 0.7 0.1 1.2 0.4 0.3 1 0.3 0.8 0 1.4-0.2v0.6q-0.7 0.3-1.6 0.3-1.1 0-1.5-0.6-0.5-0.7-0.2-1.7 0.3-1.1 1.1-1.8 0.8-0.7 1.8-0.7 0.9 0 1.2 0.6zm-0.7 0.4q-0.2-0.4-0.8-0.4-0.5 0-0.9 0.4-0.4 0.3-0.7 0.9h2.4q0.2-0.6 0-0.9z"/>
			</g>
			<g id="ab2PjUATCGyw0s_DpdS66">
				<path id="Layer" fill-rule="evenodd" class="s2" d="m38.7 17.7v-8.2c0-3.4-2.6-6.1-5.9-6.4 3.3 0.3 5.9 3 5.9 6.4zm-35.8-8.3c0-1.7 0.7-3.4 1.9-4.5-1.2 1.1-1.9 2.8-1.9 4.5zm1.9-4.5z"/>
			</g>
			<g id="OPw4qu-Y1wdZklMeXM8L-">
				<path id="Layer" class="s3" d="m4.5 18.7q-0.8-0.2-1.6-0.5v-8.7c0-1.8 0.7-3.4 1.9-4.5 1.1-1.2 2.7-1.9 4.5-1.9h23q0.3 0 0.5 0.1c3.3 0.2 5.9 2.9 5.9 6.3v8.2q-0.7 0.4-1.5 0.6v-7.8c0-3.2-2.6-5.8-5.9-5.8h-21c-3.2 0-5.8 2.6-5.8 5.8z"/>
			</g>
			<g id="DQb4gaL0b4lqzz6np1a_r">
				<path id="Layer" fill-rule="evenodd" class="s4" d="m17.9 21.1q-1.4-0.1-2.7-0.3c0.7-0.6 1.1-1.4 1.1-2.4 0-0.7-0.1-1.7-1.2-2.1 1.1-0.6 2.1-1.7 2.1-2.9 0-1.4-1-2.3-2.7-2.3-0.5 0-1.2 0-1.8 0-1.4 0-2.8 0-2.8 0l-1.7 3.2h0.9l-1.4 5.4q-1.7-0.4-3.2-0.9v-8.2c0-3.3 2.6-5.9 5.8-5.9h21c3.3 0 5.9 2.6 5.9 5.9v7.8q-1.3 0.4-2.7 0.8l-0.4-8.1h-5.2l-1.7 3.1h0.9l-3.5 6.7q-0.3 0-0.6 0l1.2-2.4c-0.5 0.3-1.5 0.9-2.5 0.9q0 0-0.1 0c-1.8-0.1-2.4-1.2-2.4-2.2 0-1.4 1.1-2.9 3.1-2.9q0 0 0 0c1 0 1.7 0.5 2.4 0.9l1.7-3-2.4-1.2-0.3 0.4c-0.2-0.2-0.7-0.2-0.9-0.2-4.5 0-7.1 3.7-7.1 6.6 0 1.2 0.4 2.4 1.2 3.3zm10.7-0.6l0.2-0.5h2.3q-1.2 0.3-2.5 0.5zm-16.4-1.3h-1.2l0.4-1.8h1.3c0.5 0 0.8 0.3 0.7 0.9-0.2 0.6-0.7 0.9-1.2 0.9zm18.9-1.7h-1.3l1.2-2.9zm-18.1-2.1h-1l0.4-1.5h1c0.2 0 0.9 0 0.7 0.8-0.2 0.6-0.8 0.7-1.1 0.7z"/>
			</g>
			<g id="8V3joqcLtrofDn-9dIUNz">
				<path id="Layer" fill-rule="evenodd" class="s2" d="m24.8 21l3.5-6.8h-0.9l1.7-3.1h5.3l0.3 8.2q-1.6 0.4-3.4 0.8h-2.3l-0.2 0.4q-1.9 0.3-4 0.5zm6.4-6.3l-1.2 2.9h1.3z"/>
			</g>
			<g id="P1G-DcLjlB2U6mMTa0Z6t">
				<path id="Layer" fill-rule="evenodd" class="s2" d="m15 20.9c-2.7-0.2-5.2-0.6-7.5-1.2l1.4-5.3h-0.9l1.7-3.2c0 0 1.4 0 2.7 0 0.7 0 1.4 0 1.9 0 1.7 0 2.7 0.9 2.7 2.2 0 1.3-1 2.4-2.1 2.9 1.1 0.4 1.2 1.5 1.2 2.2 0 0.9-0.4 1.8-1.1 2.4zm-3.8-3.5l-0.4 1.8h1.2c0.4 0 1-0.2 1.2-0.8 0.1-0.6-0.2-1-0.7-1zm0.8-3.4l-0.3 1.5h0.9c0.3 0 1 0 1.1-0.7 0.2-0.8-0.4-0.8-0.7-0.8z"/>
			</g>
			<g id="WcxRsCpxrDhu9B-W5o-nh">
				<path id="Layer" class="s2" d="m20.2 21.2q-1.1 0-2.2-0.1c-0.9-0.8-1.3-2-1.3-3.1 0-3.1 2.6-6.8 7.1-6.8 0.3 0 0.7 0.1 1 0.2l0.3-0.3 2.3 1.2-1.7 3c-0.6-0.5-1.4-0.9-2.4-0.9q0 0 0 0c-1.9 0-3.1 1.5-3.1 2.9 0 1 0.6 2.1 2.5 2.1q0 0 0 0c1 0 2.1-0.5 2.6-0.9l-1.3 2.6q-1.8 0.1-3.8 0.1z"/>
			</g>
		</g>
	</g>
</svg>