<svg version="1.2" xmlns="http://www.w3.org/2000/svg" viewBox="0 0 80 80" width="80" height="80">
	<title>qris-svg</title>
	<style>
		.s0 { fill: #c1bfc0 } 
		.s1 { fill: #293e97 } 
		.s2 { fill: #ffffff } 
		.s3 { fill: #cbcacb } 
		.s4 { fill: #3c54ad } 
	</style>
	<g id="WYoD97rRtYUXDEcgm49vz">
		<g id="Layer">
			<g id="PTnTni_GJk1NSLM7EihhY">
				<path id="Layer" class="s0" d="m61.6 74.7h-43.9c-6.7 0-12.2-5.5-12.2-12.2v-43.9c0-6.7 5.5-12.2 12.2-12.2h43.9c6.7 0 12.2 5.5 12.2 12.2v43.9c0 6.7-5.5 12.2-12.2 12.2z"/>
			</g>
			<g id="d_xZwlql1MfDuasa33IG9">
				<path id="Layer" class="s1" d="m59.7 71.7h-40.1c-6.1 0-11.1-5-11.1-11.1v-40.1c0-6.2 5-11.1 11.1-11.1h40.1c6.2 0 11.1 4.9 11.1 11.1v40.1c0 6.1-4.9 11.1-11.1 11.1z"/>
			</g>
			<g id="HE1qPz3kGBpEeRFTXxDZj">
				<path id="Layer" fill-rule="evenodd" class="s2" d="m52.2 27.2l3.3-5.9h9.9l0.9 20.5h-6.5l-0.1-3.5h-4.5l-1.5 3.5h-7.3l7.5-14.6zm4.9 6.4h2.5l-0.1-5.6z"/>
			</g>
			<g id="9Kuu8XLqABhcwBJjGXaJJ">
				<path id="Layer" fill-rule="evenodd" class="s2" d="m13.1 41.8l3.7-14.3h-1.5l3.2-6.2c0 0 6 0 8.7 0 3.2 0 5.2 1.8 5.2 4.3 0 2.4-1.9 4.5-4.1 5.5 2.2 0.8 2.4 2.8 2.4 4.2 0 3.4-3.3 6.5-7.7 6.5zm9.3-12.2h1.7c0.7 0 1.9-0.1 2.2-1.4 0.3-1.4-0.8-1.5-1.4-1.5h-1.8zm-1.9 7h2.3c0.9 0 2-0.4 2.3-1.5 0.3-1.1-0.5-1.9-1.3-1.9h-2.4z"/>
			</g>
			<g id="bE2iO7Hb-ICMXJP_xvB2s">
				<path id="Layer" class="s2" d="m31.8 34.2c0-5.8 5-12.7 13.5-12.7 0.6 0 1.4 0.1 1.9 0.4l0.6-0.8 4.4 2.3-3.3 5.8c-1.1-1-2.7-1.8-4.6-1.8-3.6 0.1-5.8 2.9-5.9 5.5 0 1.9 1.3 4.1 4.8 4.2 1.9 0 3.9-1 4.9-1.8l-3.3 6.8c-0.7 0.2-2.1 0.4-3.3 0.5-7 0.2-9.7-4.1-9.7-8.4z"/>
			</g>
			<g id="-QDAAEgMf4-cZVwykCK8Q">
				<path id="Layer" class="s2" d="m26.8 52q0.6 1 0 2.9l-1.3 5.1h-1.6l1.3-4.9q0.4-1.3 0.1-2-0.3-0.7-1.2-0.7-0.8 0-1.6 0.6-0.8 0.6-1 1.6l-1.5 5.4h-1.6l1.4-5.2q0.3-1.1 0-1.8-0.3-0.6-1.1-0.6-0.8 0-1.6 0.7-0.9 0.7-1.1 1.6l-1.4 5.3h-1.6l1.7-6.4q0.4-1.5 0.6-2.4h1.4l-0.3 1.4q1.4-1.6 3.2-1.6 0.9 0 1.4 0.4 0.5 0.5 0.6 1.4 1.6-1.8 3.4-1.8 1.3 0 1.8 1z"/>
			</g>
			<g id="kzS3hEey49sEZAcxRoGv1">
				<path id="Layer" fill-rule="evenodd" class="s2" d="m37.1 52.2q0.9 1.3 0.3 3.3-0.3 1.4-1.2 2.5-0.9 1.1-2 1.7-1.2 0.5-2.4 0.5-1.9 0-2.7-1.2-0.9-1.3-0.3-3.3 0.5-2.2 2.1-3.5 1.6-1.2 3.5-1.2 1.9 0 2.7 1.2zm-1.4 1q-0.5-1-1.7-1-1.2 0-2.2 1-1 1-1.4 2.4-0.4 1.5 0.1 2.4 0.5 1 1.6 1 1.2 0 2.2-1 1-0.9 1.4-2.4 0.4-1.4 0-2.4z"/>
			</g>
			<g id="N2GfWI3G8JHcaZo3tkDIL">
				<path id="Layer" fill-rule="evenodd" class="s2" d="m47.7 52.2q0.7 1.2 0.2 3.2-0.6 2.2-2.1 3.5-1.5 1.3-3.1 1.3-2 0-2.6-1.7l-0.4 1.5h-1.4q0.3-0.8 0.7-2.3l2.8-10.8h1.7l-1.5 5.7q1.4-1.7 3.4-1.7 1.6 0 2.3 1.3zm-1.5 1q-0.5-0.9-1.7-0.9-1 0-2 0.8-0.9 0.8-1.2 1.8l-0.4 1.5q-0.2 1 0.3 1.7 0.5 0.7 1.5 0.7 1.2 0 2.2-0.9 0.9-0.9 1.4-2.4 0.3-1.4-0.1-2.3z"/>
			</g>
			<g id="LelwYpUnRL5oPhp0bdvVF">
				<path id="Layer" class="s2" d="m51.1 51.2h1.6l-2.3 8.8h-1.7z"/>
			</g>
			<g id="AspJDO50vHcjYJkkk4boH">
				<path id="Layer" class="s2" d="m53 47.2q0.4 0 0.7 0.3 0.2 0.3 0 0.8-0.1 0.5-0.4 0.8-0.4 0.3-0.9 0.3-0.4 0-0.7-0.3-0.2-0.3 0-0.8 0.1-0.5 0.5-0.8 0.3-0.3 0.8-0.3z"/>
			</g>
			<g id="SYJLg9nr2F4tdwfXd48L3">
				<path id="Layer" class="s2" d="m58.1 46.9l-3.5 13.1h-1.6l3.5-13.1z"/>
			</g>
			<g id="m0BERcI8jPBzjy9WYGmhO">
				<path id="Layer" fill-rule="evenodd" class="s2" d="m65.5 52.2q0.6 1.2 0.2 3-0.2 0.5-0.3 0.8h-6.1q-0.4 1.4 0.2 2.2 0.6 0.7 1.9 0.7 1.4 0 2.6-0.4v1.2q-1.4 0.5-3.1 0.5-2 0-2.8-1.2-0.9-1.2-0.3-3.2 0.5-2.1 2-3.5 1.5-1.3 3.4-1.3 1.7 0 2.3 1.2zm-1.3 0.7q-0.4-0.7-1.5-0.7-0.9 0-1.8 0.7-0.8 0.7-1.3 1.8h4.6q0.3-1.1 0-1.8z"/>
			</g>
			<g id="ab2PjUATCGyw0s_DpdS66">
				<path id="Layer" class="s2" d="m73.8 33.8v-15.7c0-6.5-5-11.7-11.3-12.2 6.3 0.5 11.3 5.7 11.3 12.2zm-68.3-15.8c0-3.3 1.4-6.4 3.6-8.6-2.2 2.2-3.6 5.3-3.6 8.6m3.6-8.6q0 0 0 0 0 0 0 0z"/>
			</g>
			<g id="OPw4qu-Y1wdZklMeXM8L-">
				<path id="Layer" class="s3" d="m8.5 35.7q-1.5-0.5-3-1v-16.6c0-3.4 1.4-6.4 3.6-8.6q0 0 0 0 0 0 0 0c2.2-2.2 5.2-3.6 8.6-3.6h43.9q0.5 0 0.9 0.1c6.3 0.4 11.3 5.7 11.3 12.1v15.7q-1.5 0.6-3 1.1v-14.9c0-6.1-4.9-11.1-11.1-11.1h-40.1c-6.1 0-11.1 5-11.1 11.1z"/>
			</g>
			<g id="DQb4gaL0b4lqzz6np1a_r">
				<path id="Layer" fill-rule="evenodd" class="s4" d="m34.1 40.1q-2.6-0.1-5.2-0.4c1.4-1.2 2.2-2.8 2.2-4.6 0-1.4-0.2-3.3-2.4-4.1 2.2-1.1 4.1-3.2 4.1-5.5 0-2.6-2-4.3-5.2-4.4-0.9 0-2.2 0-3.4 0-2.6 0-5.3 0-5.3 0l-3.2 6.2h1.6l-2.7 10.2q-3.2-0.8-6.1-1.7v-15.7c0-6.2 5-11.1 11.1-11.1h40.1c6.2 0 11.1 4.9 11.1 11.1v14.9q-2.4 0.9-5.1 1.6l-0.7-15.5h-9.9l-3.3 5.9h1.7l-6.6 12.8q-0.6 0.1-1.2 0.1l2.3-4.7c-0.9 0.7-2.8 1.7-4.8 1.7q0 0-0.1 0c-3.4-0.1-4.7-2.2-4.7-4.1 0-2.7 2.2-5.5 5.9-5.6q0 0 0.1 0c1.8 0 3.3 0.9 4.5 1.8l3.2-5.8-4.4-2.3-0.6 0.8c-0.4-0.3-1.3-0.4-1.8-0.4-8.6 0-13.5 7-13.5 12.7 0 2.2 0.7 4.5 2.3 6.1zm20.3-1.1l0.4-0.9h4.5q-2.4 0.5-4.9 0.9zm-31.2-2.5h-2.2l0.8-3.4h2.4c0.9 0 1.6 0.7 1.3 1.8-0.3 1.1-1.4 1.6-2.3 1.6zm36-3.1h-2.5l2.4-5.6zm-34.6-3.9h-1.8l0.7-3h1.9c0.5 0 1.7 0.1 1.3 1.5-0.3 1.3-1.5 1.5-2.1 1.5z"/>
			</g>
			<g id="8V3joqcLtrofDn-9dIUNz">
				<path id="Layer" fill-rule="evenodd" class="s2" d="m47.3 40l6.6-12.9h-1.7l3.3-5.9h10l0.6 15.6q-3.1 0.8-6.4 1.5h-4.5l-0.3 0.8q-3.7 0.6-7.6 0.9zm12.2-12l-2.4 5.6h2.5z"/>
			</g>
			<g id="P1G-DcLjlB2U6mMTa0Z6t">
				<path id="Layer" fill-rule="evenodd" class="s2" d="m28.5 39.9c-5-0.5-9.8-1.2-14.3-2.3l2.7-10.1-1.6-0.1 3.2-6.1c0 0 2.7 0 5.2 0 1.3 0 2.6 0 3.5 0 3.2 0 5.2 1.8 5.2 4.3 0 2.4-1.9 4.4-4.1 5.5 2.2 0.8 2.4 2.8 2.4 4.2 0 1.7-0.8 3.4-2.2 4.6zm-7.1-6.7l-0.8 3.4h2.2c0.9 0 2-0.4 2.3-1.5 0.3-1.1-0.4-1.9-1.3-1.9zm1.6-6.5l-0.7 2.9h1.7c0.7 0 1.9-0.1 2.2-1.4 0.3-1.5-0.8-1.5-1.3-1.5z"/>
			</g>
			<g id="WcxRsCpxrDhu9B-W5o-nh">
				<path id="Layer" class="s2" d="m38.5 40.3q-2.2 0-4.3-0.1c-1.7-1.6-2.4-3.8-2.4-6 0-5.8 5-12.8 13.5-12.8 0.6 0 1.4 0.2 1.9 0.4l0.6-0.7 4.4 2.3-3.3 5.8c-1.1-1-2.7-1.8-4.5-1.8q0 0-0.1 0c-3.6 0.1-5.8 2.8-5.9 5.5 0 1.9 1.3 4.1 4.8 4.1q0 0 0.1 0c1.9 0 3.9-1 4.8-1.7l-2.3 4.8q-3.6 0.2-7.3 0.2z"/>
			</g>
		</g>
	</g>
</svg>