<svg version="1.2" xmlns="http://www.w3.org/2000/svg" viewBox="0 0 81 42" width="81" height="42"><defs><linearGradient id="P" gradientUnits="userSpaceOnUse"/><linearGradient id="g1" x1="25.8" y1="12.1" x2="50.7" y2="9.8" href="#P"><stop stop-color="#00418a"/><stop offset="1" stop-color="#fc0"/></linearGradient></defs><style>.a{fill:#165680}.b{fill:url(#g1)}</style><path fill-rule="evenodd" class="a" d="m0.1 22.6h1.9v6.7h0.1c0.6-1.2 1.9-2 3.6-2 2.6 0 4.5 2.2 4.5 5.5 0 3.8-2.4 5.7-4.8 5.7-1.5 0-2.8-0.6-3.6-2l-0.1 1.7h-1.7c0-0.7 0.1-1.8 0.1-2.7zm1.9 11.3q0 0.4 0.1 0.7c0.4 1.4 1.5 2.3 2.9 2.3 2 0 3.3-1.6 3.3-4.1 0-2.1-1.1-3.9-3.2-3.9-1.3 0-2.6 0.9-3 2.3 0 0.3-0.1 0.5-0.1 0.8z"/><path fill-rule="evenodd" class="a" d="m19.9 35.7c0 0.9 0 1.8 0.2 2.5h-1.8l-0.2-1.3c-0.6 0.8-1.8 1.6-3.3 1.6-2.2 0-3.3-1.5-3.3-3.1 0-2.6 2.3-4 6.5-3.9v-0.3c0-0.8-0.3-2.4-2.5-2.4-1 0-2 0.3-2.7 0.8l-0.5-1.3c0.9-0.6 2.2-1 3.5-1 3.3 0 4.1 2.3 4.1 4.4zm-1.9-2.9c-2.1 0-4.5 0.3-4.5 2.4 0 1.3 0.8 1.9 1.8 1.9 1.4 0 2.3-0.9 2.6-1.8q0.1-0.3 0.1-0.6z"/><path class="a" d="m22.9 30.5c0-1.1-0.1-2-0.1-2.9h1.7l0.1 1.7h0.1c0.5-1 1.7-2 3.5-2 1.5 0 3.8 0.9 3.8 4.6v6.3h-2v-6.1c0-1.7-0.6-3.2-2.4-3.2-1.3 0-2.3 1-2.7 2 0 0.3-0.1 0.6-0.1 0.9v6.4h-1.9z"/><path class="a" d="m36.7 32.5h0.1c0.2-0.4 0.6-0.9 0.9-1.2l3.2-3.7h2.3l-4.1 4.4 4.7 6.2h-2.4l-3.7-5.1-1 1.1v4h-1.9v-15.6h1.9z"/><path fill-rule="evenodd" class="a" d="m61.3 32.3c0 1-0.2 2-0.6 2.8q-0.4 1-1 1.7-0.6 0.8-1.5 1.2-0.2 0.1-0.4 0.1c-0.2 0.1-0.8 0.2-1.6 0.2-0.8 0-1.5-0.2-1.8-0.3-0.4-0.2-1-0.6-1.1-0.7q-0.1 0-0.1-0.1-0.1 0-0.2 0c-0.1-0.1-0.3 0.1-0.4 0.4q0 0.1 0 0.2-0.1 0.1-0.1 0.1 0 0 0 0 0 0 0 0-0.2 0.1-0.4 0.1h-1.9c-0.3 0-0.5-0.2-0.5-0.5v-14-0.5q0 0 0 0v-0.2c0-0.2 0.2-0.5 0.5-0.5h2.1c0.3 0 0.5 0.3 0.5 0.5v4.4c0 0.2 0.2 0.3 0.3 0.4q0.1 0 0.1 0 0.1-0.1 0.1-0.1c0.9-0.7 1.9-1.2 3-1.2 1.1 0 2 0.4 2.8 1q0.3 0.2 0.5 0.4 0.1 0.1 0.2 0.3c0.9 1.1 1.5 2.6 1.5 4.3zm-3.1 0.1c0-2.1-1.2-3.8-2.8-3.8-1.6 0-2.8 1.7-2.8 3.8 0 2 1.2 3.7 2.8 3.7 1.6 0 2.8-1.7 2.8-3.7z"/><path class="a" d="m66.9 28q0 0.1 0 0.2v10.4c0 0.1-0.1 0.5-0.1 0.7q0 0.8-0.3 1.3-0.3 0.4-0.7 0.7c-0.3 0.2-0.6 0.4-0.9 0.5-1 0.2-2.4 0.2-2.5 0.2q-0.3-0.1-0.5-0.3 0-0.1 0-0.3c0-0.1 0-1.3 0-1.4q0-0.2 0-0.3 0.2-0.2 0.4-0.2 0.3 0 0.6-0.1c0.4-0.1 0.8-0.5 0.8-0.8v-11.5c0-0.3 0.2-0.5 0.5-0.5h2.2c0.2 0 0.5 0.2 0.5 0.5v0.4q0 0 0 0.1 0 0.2 0 0.4z"/><path fill-rule="evenodd" class="a" d="m81 32.3c0 1-0.2 2-0.6 2.8q-0.4 1-1 1.7-0.6 0.8-1.6 1.2-0.2 0.1-0.4 0.1c-0.1 0.1-0.7 0.2-1.5 0.2-0.9 0-1.6-0.2-1.8-0.3-0.4-0.2-1-0.6-1.1-0.7q-0.1 0-0.2-0.1 0 0-0.1 0c-0.1-0.1-0.4 0.1-0.4 0.4q0 0.1-0.1 0.2 0 0.1-0.1 0.1 0 0 0 0 0 0 0 0-0.1 0.1-0.3 0.1h-1.9c-0.3 0-0.5-0.2-0.5-0.5v-14-0.5q0 0 0 0v-0.2c0-0.2 0.2-0.5 0.5-0.5h2.1c0.3 0 0.5 0.3 0.5 0.5v4.4c0 0.2 0.2 0.3 0.3 0.4q0.1 0 0.1 0 0-0.1 0.1-0.1c0.8-0.7 1.9-1.2 3-1.2 1 0 2 0.4 2.8 1q0.2 0.2 0.4 0.4 0.1 0.1 0.2 0.3c1 1.1 1.6 2.6 1.6 4.3zm-3.1 0.1c0-2.1-1.3-3.8-2.8-3.8-1.6 0-2.9 1.7-2.9 3.8 0 2 1.3 3.7 2.9 3.7 1.5 0 2.8-1.7 2.8-3.7z"/><path class="a" d="m66 22.7q0.4 0.2 0.6 0.5 0.1 0.4 0.1 0.8 0 0.4-0.1 0.7-0.2 0.4-0.6 0.6-0.3 0.2-0.8 0.2-0.5 0-0.8-0.2-0.3-0.2-0.5-0.6-0.2-0.3-0.2-0.7 0-0.4 0.2-0.8 0.2-0.3 0.5-0.5 0.4-0.2 0.8-0.2 0.5 0 0.8 0.2z"/><path fill-rule="evenodd" class="b" d="m49.1 0c-2.7 4.5-10.4 7.9-22.7 10.3q0.1-1.4 0.3-2.8c8.6-0.8 15.8-3.6 22.4-7.5zm-23.5 12q-0.1 1.4-0.3 2.8c12.3-2.4 20.1-5.8 22.7-10.3-6.5 3.9-13.8 6.7-22.4 7.5zm-1 3.9q-0.1 1.4-0.3 2.8c12.3-2.4 20.1-5.8 22.7-10.3-6.5 3.9-13.7 6.7-22.4 7.5z"/></svg>