<svg version="1.2" xmlns="http://www.w3.org/2000/svg" viewBox="0 0 145 42" width="145" height="42"><defs><clipPath clipPathUnits="userSpaceOnUse" id="cp1"><path d="m130.11 0h14.62v40.04h-14.62z"/></clipPath></defs><style>.a{fill:#f07c00}.b{fill:#458877}</style><path fill-rule="evenodd" class="a" d="m0 0.6h12.7q-0.1 0.6-0.2 1.3-0.5 6.6 1.7 12.5c1.2 3.3 2.6 6.6 5.1 9.6l-3.6 3.2-15.7-19zm15.6 0h23.7v6.8c-1.9-1.2-3.7-1.3-5.8-1.6-3.6-0.4-8.9 2.8-10.5 7.2-0.5 1.6-0.9 3.2-0.7 4.9-2.5-3.1-4.7-6.6-5.7-9.6q-1.1-3.8-1-7.7zm23.7 13.8v15q-1.7 0.5-3.7 0c-2.8-0.6-4.8-2.6-7.8-5.7-1.7-1.9-1.9-3-2.2-3.9-0.8-2.7-1-6.4 1.1-8.4 1.7-1.6 3.1-2 5.4-1.6q3.4 0.6 7 4.4zm0 18.1v7.4h-12.1c3.4-3.6-0.3-1.4-1.8-1.8q-1.1-0.3-2.5-2l-5.7-6.8 3.8-3.4c3.9 4.1 8.2 6.4 12 7.1q3.5 0.6 6.3-0.5zm-20 7.4h-15l8.9-7.7zm-18.9 0h-0.4v-23.8l11.3 14.1z"/><path fill-rule="evenodd" class="b" d="m71.6 17.3c4.5 0.3 5.4 1.6 7.4 3.2q3 2.4 3 6.5 0 5.3-5 9.1c-3.4 2.5-9.2 3.3-14.4 3.3h-12.3c1.8-1.8 1.1-1.1 2.3-2.5q0.3-0.4 0.4-1.4 0.2-3.3 0.2-7.5v-17.1q0-6.9-0.5-7.8c-1.5-2.3-0.2-0.9-2.9-2.8 5.6 0 11.2-0.2 16.9 0 3.7 0.1 6.8 1.2 8.6 2.3q3.4 2.1 3.4 5.9 0 3.1-2.4 5.5c-1.6 1.5-0.9 2.2-4.7 3.3zm-12.4-1.5c1.1 0.1 0.1 0.1 1 0.1 4.2 0 7.1 0.1 8.9-1.2 1.8-1.3 2.2-3.4 2.2-5.9 0-2.1-0.9-3.2-2.4-4.3-1.5-1.2-3.2-1.7-6.5-1.7-1.5 0-1.2-0.1-3 0.1-0.1 2.2-0.4 5.6-0.2 10.1zm0 19.7c3.1 0.1 9 0.6 11.5-1.1 2.2-1.5 3-4 3-7 0-2-0.4-2.8-1.3-4.1q-1.4-1.9-3.8-2.8-2.5-0.9-7.8-0.9c-1.1 0-0.4 0-1.7 0.1v8.9 3.5q0.1 1.8 0.1 2.8c0 0.5 0 0 0 0.6z"/><path fill-rule="evenodd" class="b" d="m94.2 32.1c0 4.7 0.1 5 0.7 5.9 0.6 0.8 1.2 1.3 1.4 1.4 0 0.1 0.2 0.1-0.6 0.1-0.7 0-1.8 0-3.5 0-1.1 0-2.6 0-3.6 0-2.5 0-0.2-0.3 0.5-1.6 0.5-0.8 0.6-1.1 0.6-5.7v-27.4c-0.1-2.1 0.3-2.3-1.6-3.7-0.8-0.5-1.5-1-1.3-1 1.3 0.1 6.8-0.1 7.5 0.2 0.3 0.2 1.4 0.8 1.7 1.2l20.9 24.2v-20.2c0-1.3 0-2.1-0.5-3-0.7-1.2-1.5-2.2-2.8-2.3-0.2-0.1 8.2 0 11.2-0.1 0 0-3.3 2.5-3.3 5.2l-0.1 31.3c0 1.5 0.1 1.2 0.2 2.9 0.3 2.2-7.9-6.4-8.9-7.7-7.7-9.2-17.8-19.2-18.5-20.5z"/><g clip-path="url(#cp1)"><path fill-rule="evenodd" class="b" d="m140.5 9.1v21.4c0 1.8 0.1 3.2 0.2 4.1 0.3 3.6 3.9 4.7 4 5.1h-14.3c0.2-0.2 3.7-1.8 3.7-6 0-0.8 0.1-1.8 0.1-3.1v-21.4c0-2-0.2-3.5-0.3-4.4-0.2-3.7-3.3-4.4-3.5-4.7h14.3c0.1-0.1-3.8 0.3-4.1 4.8-0.1 0.9-0.1 3-0.1 4.2z"/></g></svg>