<svg version="1.2" xmlns="http://www.w3.org/2000/svg" viewBox="0 0 178 42" width="178" height="42"><defs><clipPath clipPathUnits="userSpaceOnUse" id="cp1"><path d="m-128.26-999.39h1042.91v1473.31h-1042.91z"/></clipPath><clipPath clipPathUnits="userSpaceOnUse" id="cp2"><path d="m-128.26-999.39h1042.91v1473.31h-1042.91z"/></clipPath></defs><style>.a{fill:#00529c}</style><g clip-path="url(#cp1)"><path fill-rule="evenodd" class="a" d="m47.8 10.4h9.5c3.9 0 6.7 1.7 6.7 5.3 0 2.6-1.3 4-3.6 4.8v0.1c2.7 0.5 4.2 2 4.2 4.5 0 5-4.4 6-8.1 6h-8.7zm5.5 8.2h1.5c1.8 0 3.7-0.5 3.7-2.2 0-1.9-1.8-2.1-3.6-2.1h-1.6zm0 8.6h1.6c2 0 4.1-0.3 4.1-2.4 0-2.3-2.1-2.5-4-2.5h-1.7z"/></g><path fill-rule="evenodd" class="a" d="m71.8 10.4h6.8l7.9 20.7h-6l-1.6-4.4h-7.7l-1.7 4.4h-5.6zm3.4 4.3l-2.7 8h5.2z"/><path class="a" d="m87.3 10.4h7l7 14.1h0.1l-0.1-14.1h5v20.7h-6.8l-7.2-14.1h-0.1l0.2 14.1h-5.1z"/><path class="a" d="m108.2 10.4h5.5v8.5h0.1l6.2-8.5h6.6l-7.6 9.6 8.2 11.1h-7l-6.4-9.4h-0.1v9.4h-5.5z"/><g clip-path="url(#cp2)"><path fill-rule="evenodd" class="a" d="m134.1 10.4h9.5c3.8 0 6.7 1.7 6.7 5.3 0 2.6-1.3 4-3.6 4.8v0.1c2.7 0.5 4.2 2 4.2 4.5 0 5-4.4 6-8.1 6h-8.7zm5.5 8.2h1.5c1.8 0 3.7-0.5 3.7-2.2 0-1.9-1.8-2.1-3.6-2.1h-1.6zm0 8.6h1.6c2 0 4.1-0.3 4.1-2.4 0-2.3-2.1-2.5-4-2.5h-1.7z"/><path fill-rule="evenodd" class="a" d="m152.1 10.4h9.8c3.7 0 6.7 1.7 6.7 5.2 0 2.8-1.3 4.6-4 5.2v0.1c1.8 0.5 1.9 2 3 4.6l2 5.6h-5.8l-1.2-3.7c-1.1-3.6-1.8-4.5-3.9-4.5h-1.1v8.2h-5.5zm5.5 8.6h1.4c1.8 0 4.1-0.1 4.1-2.4 0-1.9-2-2.3-4.1-2.3h-1.4z"/></g><path class="a" d="m171.1 10.4h5.5v20.7h-5.5z"/><path fill-rule="evenodd" class="a" d="m41.5 6.5v28.5c0 3.6-2.8 6.5-6.3 6.5h-29c-3.4 0-6.2-2.9-6.2-6.5v-28.5c0-3.6 2.8-6.5 6.3-6.5h28.9c3.5 0 6.3 2.9 6.3 6.5zm-25.4 25.9c0-1.4-0.6-2.8-1.6-3.8l-7.6-7.8 8.1-8.2c1-1 1.6-2.3 1.6-3.8 0-3-2.4-5.5-5.3-5.5h-3.2c-1.9 0-3.3 1.5-3.4 3.4v1.4 26.4 0.2c0 2 1.6 3.5 3.5 3.5h1.6c3.5 0 6.3-2.6 6.3-5.8zm19.1 5.3l-16.7-16.9 8-8.2c1-1 1.5-2.3 1.5-3.8 0-3-2.3-5.5-5.2-5.5h-3.5c1 1.4 1.6 3.4 1.6 5.6 0 2.9-0.9 5.3-2.4 6.7l-5 5.2 4.9 4.9c1.4 1.6 2.3 4 2.3 6.7 0 2.2-1.7 5.8-1.7 5.8h14.3c0.7 0 1.3-0.2 1.9-0.5zm1.6-30.9c0-1.9-1.5-3.5-3.5-3.5l-2.5-0.1c1 1.5 1.6 3.5 1.6 5.7 0 2.5-0.7 4.6-1.9 6.1l-5.6 5.7 11.9 12.2z"/></svg>