<svg version="1.2" xmlns="http://www.w3.org/2000/svg" viewBox="0 0 148 42" width="148" height="42"><style>.a{fill:#168f8c}.b{fill:#0ca49d}.c{fill:#f9ad3c}</style><path class="a" d="m49.1 12.1q0 0 0 0z"/><path class="b" d="m56.5 19.2v22.6h-7.1v-30.2c6.2 0.8 7.1 5.9 7.1 7.6z"/><path fill-rule="evenodd" class="b" d="m10.9 12.3q3 0 5.2 0.5 2.1 0.6 3.5 1.6 1.3 1 1.9 2.5 0.6 1.5 0.7 3.3 0 1-0.3 1.9-0.3 0.9-0.9 1.7-0.6 0.8-1.6 1.5-0.9 0.7-2.3 1.2 3 0.7 4.4 2.2 1.3 1.6 1.3 4.1 0.1 1.9-0.7 3.5-0.7 1.6-2.1 2.8-1.4 1.2-3.5 1.9-2 0.7-4.7 0.7h-11.8v-29.4zm-4 5.1v7.2h3.6q1.1 0 2-0.1 0.9-0.2 1.6-0.6 0.6-0.4 0.9-1.1 0.4-0.7 0.4-1.8 0-1-0.3-1.7-0.2-0.7-0.8-1.2-0.5-0.4-1.4-0.6-0.8-0.1-2-0.1zm4.8 19.1q1.4 0 2.2-0.3 0.9-0.4 1.4-0.9 0.5-0.5 0.7-1.2 0.1-0.7 0.1-1.4 0-0.8-0.2-1.5-0.2-0.6-0.7-1.1-0.5-0.4-1.4-0.7-0.8-0.2-2.1-0.2h-4.8v7.3z"/><path class="b" d="m43.4 18.2q-0.3 0.5-0.6 0.8-0.4 0.2-0.9 0.2-0.5 0-1-0.3-0.5-0.3-1.2-0.7-0.7-0.3-1.6-0.6-0.8-0.3-1.9-0.3-2 0-2.9 0.8-0.9 0.8-1 2.2 0.1 0.9 0.6 1.5 0.6 0.6 1.5 1 0.9 0.4 2.1 0.8 1.2 0.3 2.4 0.8 1.3 0.4 2.4 1 1.2 0.6 2.1 1.5 1 0.9 1.5 2.2 0.6 1.3 0.6 3.1 0 2.1-0.7 3.9-0.7 1.7-2.1 3.1-1.3 1.3-3.3 2-2 0.8-4.5 0.8-1.3 0-2.8-0.3-1.4-0.3-2.7-0.8-1.4-0.5-2.5-1.2-1.2-0.7-2.1-1.6l2-3.2q0.3-0.3 0.7-0.5 0.4-0.3 0.8-0.3 0.6 0 1.3 0.4 0.6 0.4 1.4 0.9 0.7 0.4 1.7 0.8 1.1 0.4 2.4 0.4 1.9 0 2.9-0.8 1.1-0.8 1.1-2.6 0-1-0.6-1.7-0.6-0.6-1.5-1.1-0.9-0.4-2.1-0.7-1.2-0.3-2.4-0.7-1.2-0.4-2.4-1-1.2-0.6-2.1-1.5-0.9-0.9-1.5-2.3-0.6-1.5-0.6-3.5 0.1-1.7 0.7-3.2 0.7-1.6 2-2.8 1.3-1.3 3.2-2 1.8-0.8 4.3-0.8 1.3 0 2.6 0.3 1.3 0.2 2.5 0.6 1.1 0.4 2.1 1 1 0.5 1.8 1.3l-1.7 3.1z"/><path class="c" d="m57.3 0.7q0-0.3-0.1-0.7c1.6 1.6 3.9 2.6 6.4 2.4 1.1 0 2.2-0.4 3.2-0.9-0.7 1.4-1.1 2.9-1 4.5 0.1 2.1 1 3.9 2.3 5.2q-1-0.2-2.1-0.1c-2.9 0.2-5.3 1.8-6.6 4.2-0.5-3.5-3.2-6.2-6.6-6.8 2.9-1.4 4.7-4.4 4.5-7.8z"/><path fill-rule="evenodd" class="b" d="m69.2 22.2q0.8 0 1.4 0.2 0.5 0.1 0.9 0.4 0.4 0.3 0.5 0.7 0.2 0.4 0.2 0.9 0 0.3-0.1 0.6-0.1 0.3-0.3 0.5-0.2 0.3-0.5 0.5-0.3 0.2-0.7 0.3 1 0.2 1.4 0.7 0.5 0.5 0.5 1.2 0 0.6-0.2 1-0.2 0.5-0.6 0.8-0.4 0.3-0.9 0.5-0.6 0.1-1.3 0.1h-2.9v-8.4h2.6zm-1.5 3.8h1.5q0.5 0 0.8-0.1 0.4-0.1 0.6-0.3 0.3-0.2 0.4-0.5 0.1-0.2 0.1-0.6 0-0.7-0.5-1.1-0.4-0.3-1.4-0.3h-1.5zm1.8 3.8q0.5 0 0.8-0.2 0.4-0.1 0.6-0.3 0.3-0.2 0.4-0.5 0.1-0.2 0.1-0.6 0-0.6-0.5-1-0.5-0.4-1.4-0.4h-1.8v3z"/><path fill-rule="evenodd" class="b" d="m80 30.6q-0.1 0-0.2 0-0.1-0.1-0.2-0.2l-0.8-2.1h-3.7l-0.8 2.1q-0.1 0.1-0.2 0.2-0.1 0-0.2 0h-0.9l3.4-8.4h1.1l3.4 8.4zm-1.5-3.1l-1.3-3.4q-0.1-0.2-0.1-0.4-0.1-0.2-0.2-0.4-0.1 0.5-0.2 0.8l-1.3 3.4z"/><path class="b" d="m88.8 22.2v8.4h-0.5q-0.2 0.1-0.3 0 0 0-0.1-0.2l-4.9-6.3q0 0.1 0 0.3 0 0.1 0 0.2v6h-1v-8.4h0.6q0.1 0 0.1 0 0.1 0 0.1 0.1 0.1 0 0.1 0 0 0.1 0.1 0.1l4.9 6.4q0-0.2 0-0.3-0.1-0.2-0.1-0.3v-6h1z"/><path class="b" d="m92.1 25.9h0.5q0.2 0 0.3 0 0.2-0.1 0.3-0.2l2.8-3.2q0.1-0.2 0.2-0.2 0.2-0.1 0.3-0.1h1l-3.2 3.6q-0.1 0.2-0.2 0.3-0.1 0.1-0.3 0.1 0.2 0.1 0.3 0.2 0.1 0.1 0.3 0.3l3.3 3.9h-1q-0.1 0-0.2 0 0 0-0.1 0-0.1-0.1-0.1-0.1 0 0-0.1-0.1l-2.9-3.3q-0.1-0.2-0.2-0.3-0.2 0-0.5 0h-0.5v3.8h-1.1v-8.4h1.1v3.7z"/><path class="b" d="m106.1 23.5q0 0.1-0.1 0.2-0.1 0-0.1 0-0.1 0-0.3-0.1-0.1-0.1-0.3-0.2-0.2-0.1-0.5-0.2-0.3-0.1-0.7-0.1-0.4 0-0.7 0.1-0.3 0.1-0.5 0.3-0.1 0.1-0.3 0.4 0 0.2-0.1 0.5 0 0.3 0.2 0.6 0.2 0.2 0.5 0.4 0.3 0.1 0.6 0.3 0.4 0.1 0.8 0.2 0.3 0.1 0.7 0.3 0.4 0.2 0.7 0.4 0.2 0.3 0.4 0.6 0.2 0.4 0.2 0.9 0 0.5-0.2 1-0.2 0.5-0.6 0.9-0.3 0.3-0.8 0.5-0.6 0.2-1.2 0.2-0.9 0-1.5-0.3-0.7-0.3-1.2-0.8l0.3-0.5q0.1-0.1 0.2-0.1 0-0.1 0.1-0.1 0.1 0 0.2 0.1 0.1 0.1 0.2 0.2 0.1 0.1 0.3 0.2 0.1 0.1 0.3 0.2 0.2 0.1 0.5 0.1 0.3 0.1 0.6 0.1 0.4 0 0.7-0.1 0.3-0.1 0.6-0.3 0.2-0.2 0.3-0.5 0.1-0.3 0.1-0.6 0-0.4-0.2-0.7-0.1-0.2-0.4-0.4-0.3-0.1-0.7-0.3-0.3-0.1-0.7-0.2-0.4-0.1-0.7-0.3-0.4-0.1-0.7-0.4-0.3-0.2-0.4-0.6-0.2-0.4-0.2-0.9 0-0.5 0.2-0.9 0.1-0.4 0.5-0.7 0.3-0.4 0.8-0.6 0.5-0.2 1.1-0.2 0.7 0 1.3 0.3 0.6 0.2 1 0.6l-0.3 0.5z"/><path class="b" d="m111.2 27.3v3.3h-1.1v-3.3l-3.1-5.1h1q0.1 0 0.2 0.1 0.1 0.1 0.2 0.2l1.9 3.3q0.1 0.2 0.2 0.4 0.1 0.1 0.1 0.3 0.1-0.2 0.2-0.3 0.1-0.2 0.2-0.4l1.9-3.3q0-0.1 0.1-0.2 0.1-0.1 0.3-0.1h1z"/><path fill-rule="evenodd" class="b" d="m120.5 30.6q-0.1 0-0.2 0-0.1-0.1-0.2-0.2l-0.8-2.1h-3.7l-0.8 2.1q-0.1 0.1-0.2 0.2-0.1 0-0.2 0h-0.9l3.4-8.4h1.1l3.4 8.4zm-1.5-3.1l-1.3-3.4q-0.1-0.2-0.1-0.4-0.1-0.2-0.2-0.4-0.1 0.5-0.2 0.8l-1.3 3.4z"/><path fill-rule="evenodd" class="b" d="m128.8 30.6h-1.1q-0.3 0-0.4-0.2l-2.2-3q-0.1-0.2-0.2-0.2-0.1-0.1-0.4-0.1h-0.8v3.5h-1.2v-8.4h2.4q0.8 0 1.4 0.2 0.6 0.1 0.9 0.4 0.4 0.3 0.6 0.8 0.2 0.4 0.2 0.9 0 0.5-0.2 0.9-0.1 0.4-0.4 0.7-0.2 0.3-0.6 0.5-0.4 0.2-0.9 0.3 0.2 0.2 0.4 0.4l2.4 3.3zm-3.9-4.3q0.5 0 0.9-0.1 0.4-0.2 0.6-0.4 0.3-0.2 0.4-0.5 0.2-0.3 0.2-0.7 0-0.7-0.5-1.1-0.5-0.4-1.5-0.4h-1.3v3.2h1.2z"/><path class="b" d="m129.9 22.2h1.1v8.4h-1.1z"/><path fill-rule="evenodd" class="b" d="m139.2 30.6q-0.2 0-0.3 0-0.1-0.1-0.1-0.2l-0.8-2.1h-3.8l-0.8 2.1q0 0.1-0.1 0.2-0.1 0-0.3 0h-0.8l3.3-8.4h1.2l3.4 8.4zm-1.5-3.1l-1.4-3.4q0-0.2-0.1-0.4 0-0.2-0.1-0.4-0.1 0.5-0.3 0.8l-1.3 3.4z"/><path class="b" d="m148 22.2v8.4h-1.1v-3.8h-4.6v3.8h-1.1v-8.4h1.1v3.8h4.6v-3.8z"/><path class="b" d="m66.5 33.3h1.2v8.5h-1.2z"/><path class="b" d="m76.7 33.3v8.5h-0.6q-0.1 0-0.2-0.1-0.1 0-0.2-0.2l-4.9-6.3q0 0.1 0 0.3 0.1 0.1 0 0.3v6h-1v-8.5h0.6q0.1 0 0.2 0 0 0.1 0.1 0.1 0 0 0 0 0.1 0.1 0.1 0.1l4.9 6.4q0-0.2 0-0.3 0-0.2 0-0.3v-6h1z"/><path fill-rule="evenodd" class="b" d="m86.2 37.6q0 0 0-0.1 0 0 0 0zm-0.4 1.8q-0.3 0.7-0.8 1.3-0.5 0.5-1.3 0.9-0.8 0.3-1.7 0.3h-3.2v-8.5h3.2q0.9 0 1.7 0.3 0.8 0.3 1.3 0.9 0.6 0.5 0.8 1.3 0.3 0.8 0.4 1.7 0 1-0.4 1.8zm-0.8-1.8q0-0.7-0.2-1.3-0.2-0.7-0.6-1.1-0.4-0.4-1-0.6-0.5-0.3-1.2-0.3h-2v6.6h2q0.7 0 1.2-0.2 0.6-0.2 1-0.6 0.4-0.5 0.6-1.1 0.2-0.6 0.2-1.4z"/><path fill-rule="evenodd" class="b" d="m95.6 37.5q0 1-0.3 1.8-0.3 0.8-0.9 1.3-0.5 0.6-1.3 0.9-0.7 0.3-1.7 0.3-0.9 0-1.7-0.3-0.7-0.3-1.3-0.9-0.5-0.5-0.8-1.3-0.3-0.8-0.3-1.8 0-0.9 0.3-1.7 0.3-0.8 0.8-1.4 0.6-0.5 1.3-0.8 0.8-0.4 1.7-0.4 1 0 1.7 0.4 0.8 0.3 1.3 0.8 0.6 0.6 0.9 1.4 0.3 0.8 0.3 1.7zm-1.2 0q0-0.7-0.2-1.3-0.2-0.7-0.6-1.1-0.4-0.4-0.9-0.7-0.6-0.2-1.3-0.2-0.6 0-1.2 0.2-0.6 0.3-0.9 0.7-0.4 0.4-0.6 1.1-0.3 0.6-0.3 1.3 0 0.8 0.3 1.4 0.2 0.6 0.6 1.1 0.3 0.4 0.9 0.6 0.5 0.3 1.2 0.3 0.7 0 1.3-0.3 0.5-0.2 0.9-0.6 0.4-0.5 0.6-1.1 0.2-0.6 0.2-1.4z"/><path class="b" d="m104.1 33.3v8.5h-0.6q-0.2 0-0.2-0.1-0.1 0-0.2-0.2l-4.9-6.3q0 0.1 0 0.3 0 0.1 0 0.3v6h-1v-8.5h0.6q0.1 0 0.1 0 0.1 0.1 0.1 0.1 0.1 0 0.1 0 0.1 0.1 0.1 0.1l4.9 6.4q0-0.2 0-0.3 0-0.2 0-0.3v-6h1z"/><path class="b" d="m111.4 40.8v1h-5.2v-8.5h5.2v1h-4v2.8h3.2v0.8h-3.2v2.9z"/><path class="b" d="m117.3 34.6q0 0.1-0.1 0.2-0.1 0-0.1 0-0.1 0-0.3-0.1-0.1-0.1-0.3-0.2-0.2-0.1-0.5-0.2-0.3-0.1-0.7-0.1-0.4 0-0.7 0.1-0.3 0.1-0.5 0.3-0.1 0.1-0.3 0.4 0 0.2-0.1 0.5 0 0.3 0.2 0.6 0.2 0.2 0.5 0.4 0.3 0.1 0.6 0.3 0.4 0.1 0.8 0.2 0.3 0.1 0.7 0.3 0.4 0.2 0.7 0.4 0.2 0.3 0.4 0.6 0.2 0.4 0.2 0.9 0 0.6-0.2 1-0.2 0.5-0.6 0.9-0.3 0.3-0.8 0.5-0.6 0.2-1.2 0.2-0.9 0-1.5-0.3-0.7-0.3-1.2-0.8l0.3-0.5q0.1-0.1 0.2-0.1 0 0 0.1 0 0.1 0 0.2 0 0.1 0.1 0.2 0.2 0.1 0.1 0.3 0.2 0.1 0.1 0.3 0.2 0.2 0.1 0.5 0.1 0.3 0.1 0.6 0.1 0.4 0 0.7-0.1 0.3-0.1 0.6-0.3 0.2-0.2 0.3-0.5 0.1-0.3 0.1-0.6 0-0.4-0.2-0.7-0.1-0.2-0.4-0.4-0.3-0.1-0.7-0.2-0.3-0.2-0.7-0.3-0.4-0.1-0.7-0.3-0.4-0.1-0.7-0.4-0.3-0.2-0.4-0.6-0.2-0.4-0.2-0.9 0-0.5 0.2-0.9 0.1-0.4 0.5-0.7 0.3-0.4 0.8-0.6 0.5-0.2 1.1-0.2 0.7 0 1.3 0.3 0.6 0.2 1 0.6l-0.3 0.6z"/><path class="b" d="m119.4 33.3h1.1v8.5h-1.1z"/><path fill-rule="evenodd" class="b" d="m128.7 41.7q-0.2 0-0.3 0-0.1-0.1-0.1-0.2l-0.8-2.1h-3.8l-0.8 2.1q0 0.1-0.1 0.2-0.1 0-0.3 0h-0.8l3.3-8.4h1.2l3.4 8.4zm-1.5-3.1l-1.3-3.4q-0.1-0.2-0.2-0.4 0-0.2-0.1-0.4-0.1 0.5-0.3 0.8l-1.3 3.4z"/></svg>