<svg width="42" height="42" viewBox="0 0 42 42" fill="none" xmlns="http://www.w3.org/2000/svg">
<path fill-rule="evenodd" clip-rule="evenodd" d="M10.2072 39.8324C10.9648 39.8863 11.8477 39.2971 12.1592 38.9595C13.2398 37.7864 13.2659 36.0892 12.1781 34.8613C11.7727 34.4042 10.8243 33.8985 10.2193 33.9695L8.03491 33.9709L8.03442 39.8246L10.2072 39.8324ZM9.26177 38.5636C9.42258 38.5918 10.0832 38.5816 10.2649 38.5646C11.7572 38.4276 12.2846 36.3817 11.0297 35.5243C10.8214 35.382 10.5899 35.2683 10.2857 35.2348C10.1191 35.2159 9.40805 35.2042 9.2608 35.2309L9.26177 38.5636Z" fill="#108DE8"/>
<path fill-rule="evenodd" clip-rule="evenodd" d="M29.3411 39.8433L30.5834 39.8428L30.5849 38.5813H33.0502L33.0575 39.8428L34.2994 39.8433C34.3004 39.1418 34.2999 38.4463 34.2999 37.7512C34.2999 37.1246 34.3527 36.3406 34.1982 35.7722C33.9376 34.8105 33.0255 33.9575 31.8258 33.9527C30.6125 33.9478 29.732 34.7983 29.451 35.7465C29.2844 36.307 29.3401 37.1114 29.3401 37.7288C29.3401 38.4327 29.3329 39.1399 29.3411 39.8433ZM30.5844 37.3116L33.0565 37.3125C33.0624 36.7714 33.1205 36.2458 32.8783 35.831C32.7049 35.5342 32.3397 35.2238 31.8263 35.2219C31.3027 35.2195 30.9535 35.5177 30.7665 35.8252C30.5215 36.2279 30.5772 36.7831 30.5844 37.3116Z" fill="#108DE8"/>
<path fill-rule="evenodd" clip-rule="evenodd" d="M15.1278 39.8416L16.3663 39.8426C16.3672 39.5793 16.3328 38.772 16.3784 38.5806L18.8345 38.5811L18.8432 39.8421L20.0832 39.843C20.0769 39.1441 20.0827 38.446 20.0827 37.7509C20.0827 37.1545 20.1379 36.3 19.9819 35.7711C19.2724 33.3632 15.9686 33.3462 15.2353 35.7473C15.0692 36.2908 15.1263 37.1229 15.1263 37.7286C15.1263 38.4276 15.1103 39.145 15.1278 39.8416ZM16.3672 37.3113L18.8423 37.3128C18.8471 36.7795 18.9052 36.2437 18.6626 35.8298C18.2184 35.0726 17.0884 34.9633 16.5513 35.826C16.3052 36.2204 16.359 36.7921 16.3672 37.3113Z" fill="#108DE8"/>
<path fill-rule="evenodd" clip-rule="evenodd" d="M22.2627 36.2558L22.2463 37.1302C22.2463 37.8636 22.2094 39.231 22.2487 39.826L23.463 39.8265C23.491 39.4097 23.4194 36.4341 23.4959 36.3394C23.4964 35.7613 24.0975 35.2236 24.7053 35.2217C25.0787 35.2202 25.351 35.3727 25.5491 35.5534C25.704 35.6948 25.9409 36.0164 25.9361 36.3428C25.9932 36.3748 25.9482 39.4782 25.9661 39.8255L27.1818 39.8265L27.1721 36.2738C27.2021 35.9955 27.035 35.5651 26.928 35.3465C26.0281 33.5119 23.445 33.4876 22.5194 35.3149C22.4109 35.5292 22.2371 35.9712 22.2627 36.2558Z" fill="#108DE8"/>
<path fill-rule="evenodd" clip-rule="evenodd" d="M10.2073 39.8324L8.03445 39.8246L8.03493 33.9709L10.2194 33.9695C10.1796 33.9136 9.26858 33.9471 9.14071 33.9471C8.82298 33.9471 8.32118 33.917 8.02573 33.952C7.99764 34.0452 7.9865 39.693 8.02379 39.8455C8.2248 39.8712 9.62652 39.8513 10.0697 39.8523L10.1918 39.8396C10.1956 39.8382 10.2019 39.8348 10.2073 39.8324Z" fill="#79BBE7"/>
<path fill-rule="evenodd" clip-rule="evenodd" d="M25.936 36.3429C25.9491 36.8214 25.9103 39.6751 25.9549 39.8461L27.1929 39.8514C27.2249 39.7144 27.205 37.4893 27.205 37.1526C27.205 36.9914 27.2481 36.3589 27.1721 36.2739L27.1817 39.8266L25.966 39.8257C25.9481 39.4784 25.9931 36.375 25.936 36.3429Z" fill="#79BBE7"/>
<path fill-rule="evenodd" clip-rule="evenodd" d="M23.4959 36.3395C23.4193 36.4342 23.491 39.4099 23.4629 39.8267L22.2486 39.8262C22.2094 39.2312 22.2462 37.8638 22.2462 37.1303L22.2627 36.256C22.1939 36.2861 22.2249 37.8444 22.2249 38.0391C22.2249 38.3223 22.191 39.6843 22.2394 39.8466L23.4765 39.8514L23.4959 36.3395Z" fill="#79BBE7"/>
<path fill-rule="evenodd" clip-rule="evenodd" d="M19.8531 3.05282C14.9692 3.50603 11.0131 6.04521 8.60875 9.96456C7.04724 12.511 6.31386 15.5288 6.54028 18.6251C7.094 26.2003 13.7215 32.6141 22.2058 31.9531C29.8176 31.3609 36.0981 24.6352 35.4546 16.3639C35.2195 13.3352 34.1478 10.8396 32.43 8.5856C31.6511 7.56436 31.4985 7.54865 30.6864 6.71233C29.6786 5.6766 27.5486 4.48738 26.1889 3.96045C24.3665 3.25465 22.0458 2.84857 19.8531 3.05282Z" fill="#108DE8"/>
<path fill-rule="evenodd" clip-rule="evenodd" d="M12.6079 13.577C12.4219 14.1293 12.5328 20.2616 12.5328 21.3992C12.5328 22.6294 12.2963 23.0129 14.165 23.6718C19.1097 25.415 24.0063 19.5049 28.9238 22.4288C29.1517 22.5647 29.4301 22.8427 29.4954 22.3933L29.4966 14.5051C29.4966 13.657 29.5706 13.3904 29.0248 12.9981C24.6247 9.83922 19.8599 15.2428 15.3944 14.6371C13.7425 14.4124 13.0588 13.544 12.6079 13.577Z" fill="white"/>
</svg>
