<svg width="42" height="42" viewBox="0 0 42 42" fill="none" xmlns="http://www.w3.org/2000/svg">
<path d="M17.1825 31.0736C17.1888 30.2968 16.5415 29.6622 15.7367 29.6561C14.9317 29.65 14.2742 30.2746 14.2678 31.0514C14.2615 31.8281 14.9089 32.4628 15.7136 32.4688C15.7214 32.4688 15.7289 32.4688 15.7367 32.4688C16.5002 32.5084 17.1525 31.943 17.1935 31.2061C17.1958 31.1619 17.1961 31.1178 17.194 31.0736H17.1825ZM12.8527 31.0736C12.8527 29.5969 14.0614 28.4711 15.7367 28.4711C17.412 28.4711 18.6208 29.6044 18.6208 31.0736C18.6208 32.5428 17.4233 33.6796 15.7367 33.6796C14.0498 33.6796 12.8527 32.5462 12.8527 31.0736Z" fill="black"/>
<path d="M10.5577 31.343C10.5577 31.952 9.91497 32.4504 9.1004 32.4504C8.35195 32.5234 7.68436 31.997 7.60871 31.2752C7.60091 31.2021 7.59976 31.1285 7.60467 31.0551C7.60467 30.2504 8.21682 29.6966 9.15757 29.6966C9.92276 29.6966 10.5577 30.2025 10.5577 30.7745V31.343ZM10.6149 28.4673V29.0506C10.1494 28.6426 9.53295 28.4336 8.9052 28.4711C7.42131 28.4844 6.22934 29.6561 6.24291 31.0883C6.25677 32.5206 7.47097 33.6707 8.95487 33.6574C9.56587 33.6839 10.1607 33.463 10.5958 33.0484V33.5468C10.5958 34.2222 9.99149 34.7168 9.19598 34.7168C8.58815 34.7592 7.98986 34.556 7.54345 34.1558L6.61396 35.0197C7.311 35.6798 8.25811 36.0347 9.23409 36.0015C10.8635 36.0015 11.9804 34.9458 11.9804 33.5393V28.4673H10.6149Z" fill="black"/>
<path d="M19.4624 28.619H20.8317V29.0544H20.8507C21.2997 28.6594 21.8925 28.4524 22.4995 28.4787C23.9897 28.5327 25.1525 29.7425 25.0962 31.1808C25.0431 32.5431 23.9112 33.6358 22.4995 33.6872C21.9197 33.6999 21.3537 33.5157 20.9007 33.1666V35.6325H19.474L19.4624 28.619ZM22.2774 29.6966C21.5125 29.6966 20.8891 30.2097 20.8891 30.7673V31.391C20.8891 31.9853 21.5047 32.4764 22.2852 32.4764C23.0805 32.516 23.7585 31.9258 23.7995 31.1583C23.8405 30.3905 23.2292 29.7362 22.4337 29.6966C22.3843 29.6943 22.3346 29.6943 22.2852 29.6966H22.2774Z" fill="black"/>
<path d="M27.8352 30.5973C28.7722 30.4755 29.0514 30.3461 29.0514 30.0952C29.0514 29.7704 28.6957 29.5749 28.145 29.5749C27.5514 29.5278 27.0108 29.9055 26.8714 30.4642L25.5249 30.1948C25.7161 29.1908 26.787 28.4747 28.1066 28.4747C29.5986 28.4747 30.5241 29.2131 30.5241 30.4091V33.5429H29.2429V32.9966H29.2235C28.7887 33.469 28.1517 33.7196 27.4985 33.6757C26.3701 33.6757 25.5861 33.0815 25.5861 32.1993C25.5861 31.3169 26.2286 30.8113 27.8352 30.5973ZM29.1663 31.1177H29.1473C29.0208 31.295 28.7647 31.3983 28.057 31.5164C27.2193 31.6677 26.9095 31.8266 26.9095 32.1144C26.9095 32.4023 27.1581 32.5427 27.6975 32.5427C28.5198 32.5427 29.1548 32.1734 29.1548 31.7047L29.1663 31.1177Z" fill="black"/>
<path d="M33.1061 33.2659L30.7461 28.6188H32.3181L33.8672 31.8375H33.89L35.4201 28.6188H36.9999L33.4656 35.6323H31.8936L33.1061 33.2659Z" fill="black"/>
<path d="M21.3336 5.24158C26.9313 5.24158 31.4692 9.62075 31.4692 15.0233C31.4692 20.4252 26.9313 24.8044 21.3336 24.8044C15.7359 24.8044 11.198 20.4252 11.198 15.0233C11.198 9.62075 15.7359 5.24158 21.3336 5.24158Z" fill="#00AED6"/>
<path fill-rule="evenodd" clip-rule="evenodd" d="M27.2464 14.7221C27.1692 13.4768 26.0706 12.5223 24.7801 12.5778H18.3777C18.1444 12.5778 17.955 12.3954 17.955 12.1704C17.955 11.9453 18.1444 11.7629 18.3777 11.7629H24.8642C24.8266 10.9194 24.2298 10.195 23.3862 9.96994C21.4951 9.64348 19.5593 9.64348 17.6681 9.96994C16.593 10.2244 15.7896 11.0877 15.6411 12.1461C15.3452 14.0647 15.3452 16.0146 15.6411 17.9332C15.8674 19.0535 16.7894 19.9206 17.955 20.11C20.2995 20.395 22.6721 20.395 25.0166 20.11C26.0611 19.9053 26.8511 19.0771 26.976 18.0556C27.1903 16.957 27.2808 15.8392 27.2464 14.7221ZM25.1346 16.0911V16.4501C25.1346 16.6751 24.9459 16.8575 24.7125 16.8575C24.4791 16.8575 24.2897 16.6751 24.2897 16.4501V16.0911C24.1533 15.9763 24.0761 15.8093 24.0787 15.6346C24.0787 15.2973 24.3624 15.0237 24.7125 15.0237C25.0619 15.0237 25.3456 15.2973 25.3456 15.6346C25.3437 15.8086 25.2672 15.9738 25.1346 16.0911Z" fill="white"/>
</svg>
