<svg version="1.2" xmlns="http://www.w3.org/2000/svg" viewBox="0 0 118 42" width="118" height="42"><style>.a{fill:#f00}.b{fill:#00f}.c{fill:#f9cd09}.d{fill:#e6252d}</style><path fill-rule="evenodd" class="a" d="m5.2 2.6h107.6c1.5 0 2.7 1.3 2.7 2.8v8.6h-13.4c-0.8-7.8-36.2-9.4-42.3-9.5-9.9 0-43.9 2.3-43.9 9.4v0.1h-13.4v-8.6c0-1.5 1.2-2.8 2.7-2.8z"/><path fill-rule="evenodd" class="b" d="m15.9 26.8h-13.4v-11.6h13.4c0 3.6 0 8.1 0 11.6zm86.1-11.6c0 3.7 0.2 8 0.1 11.6h13.4v-11.6z"/><path fill-rule="evenodd" class="c" d="m115.5 28v8.6c0 1.5-1.2 2.8-2.7 2.8h-107.6c-1.5 0-2.7-1.3-2.7-2.8v-8.6h13.5c1.7 7 29.5 9.8 43.4 9.8 7.9 0.1 40.6-2.4 42.6-9.8z"/><path fill-rule="evenodd" class="d" d="m59.6 6.6c7.7 0 40.5 3.4 40.2 7.5-0.3 3.5 0.2 10.2 0 13.7-0.4 4-32.8 7.5-40.4 7.5-8.2-0.1-41-2.8-41.2-7.9-0.1-3.5 0-9.4 0-12.9 0-5.2 33.1-8 41.4-7.9zm0 3.1c-7.9 0-39.1 1.9-39.1 5.9 0 2.7-0.1 8.1 0 10.8 0.1 4 31.1 5.6 38.9 5.7 7.2 0.1 37.8-2.3 38.1-5.4 0.2-2.7-0.3-8.6 0-11.3 0.3-3.2-30.7-5.6-37.9-5.7z"/><path fill-rule="evenodd" class="b" d="m32.8 22.2c1.2-0.7 2.3-1.6 3.6-2.2 0.2-0.1 0.5-0.2 0.8-0.2 0.8-0.1 0.7 0.7 1.2 0.9 0.4 0.2 1.2-0.5 1.9-0.8 0.5-0.2 1.1-0.2 1.5 0.6 0.2 0.4-0.4 1.7-0.6 2.2-0.2 0.6-0.4 1.3-0.6 2 0 0.2 0.2 0.5 0.4 0.5 0.5-0.2 1-0.5 1.4-0.8 0.1-0.6 0.3-1.3 0.6-1.8 1.3-2.6 3.2-3.2 5.3-2.8 0.4-1.1 1-2.4 1.4-3.5 0.6-0.1 1-0.1 1.5-0.1-1 2.7-2.2 5.4-3.1 8.2-0.1 0.2 0 0.6 0.2 0.7 0.7 0 1.3-0.3 1.9-0.5q0.1 0.3 0.3 0.5c-0.9 0.3-1.6 0.8-3 1.4-0.5 0.3-1.4 0.4-1.3-0.5-0.4 0.2-0.7 0.4-1.1 0.5-0.5 0.1-1.1 0.3-1.5 0.1-0.7-0.3-1-0.9-1.1-1.5-0.8 0.6-2.2 1.5-3.4 1.3-1.3-0.1-0.3-2.3-0.2-2.9 0.2-0.4 0.4-0.9 0.2-1.3-0.1-0.2-0.4-0.3-0.6-0.2-0.3 0-0.5 0.2-0.6 0.4-0.6 1.3-1 2.7-1.4 4.1q-1 0-1.9 0c0.4-1.4 1-2.4 1.2-3.9 0.2-1.6-2.3 0.4-2.5 0.5-0.7 0.7-1.5 1.3-2.2 1.7-1.1 1.2-3.1 2.1-4.6 1.9-1.7-0.3-3.5-1.4-2.2-3.9 0.5 1.5 1.6 2.5 3.9 2 3.2-0.6 4.3-5.9 5.6-8.9-2.4 0.8-4.9 0.2-4.7 3 0 0.6 0.7 0.7 1.6 0.9-0.8 0.9-2.6 1.6-3.6 0.1-1.1-1.5 0-3 1.1-3.8 2-1.3 5.5-1.5 7.9-1.8-1.1 2.9-2.2 5.8-3.3 7.9zm54.9 1.3c-0.6 0.6-1.2 0.8-1.8 1.3 0.2 0.7 0.8 1.2 2.3 0.9 0.5-0.1 1-0.3 1.3-0.7 0.8-1.1 1.2-2.4 1.6-3.9-0.3 0.1-0.7 0.1-1 0.1q0.1-0.7 0.3-1.4c0.4 0 0.8 0 1.2 0 0.5-1.3 0.9-2.5 1.3-3.7 0.6 0 1.1 0 1.7 0-0.5 1.2-1 2.5-1.2 3.7 0.2 0.1 0.6 0 0.8 0.1-0.1 0.4-0.2 0.8-0.4 1.3-0.3 0-0.8 0-1.2 0-0.2 0.7-0.5 1.7-0.8 2.5-0.3 0.7-0.4 1.4-0.2 1.8 0.7 0.9 1.8-0.2 2.4-0.6 0.1-0.1 0.3-0.3 0.4-0.2 0.2 0.1 0.2 0.4 0.1 0.6-0.7 0.5-1.4 1.1-2.2 1.4-0.8 0.2-2.2 0.1-2.7-0.8-0.9 0.4-2.5 1.1-3.8 0.7-0.7-0.2-1.1-0.6-1.4-1.2-0.6 0.5-1.3 1-2.5 1.2-0.5 0.1-0.9 0.1-1.4-0.1-1.7-0.8 0-3.7 0.2-4.5-0.2 0-0.7 0.2-0.9 0.1-1.6 2.2-2.8 3.7-4.8 4.5-0.9 0.4-1.4 0.1-1.6-0.7-0.5 0.2-0.8 0.6-1.3 0.7-1.4 0.3-2.1-0.4-2.3-1.5-0.9 0.5-1.9 1.1-2.8 1.5-0.3 0.1-0.6 0.1-0.9 0-0.3-0.1-0.5-0.4-0.6-0.7-0.1-0.4 0-0.8 0.1-1.2 0.2-0.8 0.7-1.5 0.8-2.4 0.1-0.1-0.1-0.3-0.2-0.3-0.2 0-0.8 0-0.9 0.2-0.8 1.4-1 3-1.7 4.5-0.7 0-1.4 0-2.1 0 0.4-1.2 0.9-2.3 1.3-3.5q0.2-0.3 0.1-0.7c0-0.2-0.1-0.5-0.3-0.5-0.3 0-0.6 0.1-0.8 0.3-0.7 1.4-1.1 2.9-1.7 4.4q-0.9 0-1.9 0c0.6-1.6 1.3-3.2 1.8-4.9 0.1-0.1 0-0.4-0.1-0.4-0.2-0.1-0.4 0-0.5 0-0.4 0.1-0.8 0.3-1.2 0.4q-0.1-0.3-0.2-0.6 1.4-0.7 2.8-1.3c0.5-0.2 0.8-0.4 1.2 0.1 0.2 0.2 0 0.8 0.3 0.7 0.6 0 1-0.6 1.5-0.9 0.3-0.1 0.6-0.1 0.9 0 0.2 0 0.4 0.2 0.5 0.3 0.2 0.2 0.3 0.5 0.5 0.6 0.1 0.1 0.2 0.2 0.3 0.1 0.4-0.2 0.8-0.6 1.2-0.9 0.6-0.2 1.5-0.2 1.7 0.6 0.1 0.5-0.3 1.1-0.4 1.6-0.3 0.9-0.7 1.7-0.9 2.6-0.1 0.1 0 0.4 0.2 0.4 0.6 0.1 1.3-0.3 2-0.5q0-0.7 0.2-1.3c0.4-1.1 1.1-2 2-2.6 1.1-0.9 1.9-1.2 3.1-0.4 0.1-0.2 0.2-0.3 0.2-0.5 0.6 0 1.1 0 1.6 0-0.5 1.5-1.4 3.6-1.7 4.5-0.2 0.7 0.2 1 0.9 0.7 1.1-0.6 2.7-2.8 2.9-3.5 0.1-0.4 0.1-0.8 0.2-1.1 0.2-0.4 0.2-0.8 0.4-1.1 0.1-0.2 0.4-0.3 0.6-0.3 0.1 0.1 0 0.4 0.2 0.4 0.4 0.2 0.8 0 1.2 0.2 0.2 0-0.6 0.4-0.6 1 0 0.7 0.5 0.6 1 0.6 0.8-0.1 0.8 0.5 0.5 1.1-0.1 0.2-0.4 0.1-0.5 0.5-0.3 0.8-0.4 1.5-0.4 2.4 0 0.3 0.3 0.6 0.7 0.5 0.9-0.2 1.4-0.5 1.9-0.8-0.3-1-0.2-2.2 0.2-3 0.5-1.1 1.6-2.2 3.1-2 2.2 0.1 1.1 2.6 0.2 3.6zm-1.7-1.5c-0.5 0.6-0.7 1.2-0.5 1.4 0.3 0.2 0.8-0.2 1.3-0.8 0.4-0.6 0.6-1.3 0.4-1.4-0.2-0.2-0.8 0.2-1.2 0.8zm-13.8 1c-0.5 1-0.6 2-0.2 2.1 0.4 0.2 1.2-0.5 1.7-1.5 0.5-1 0.5-2 0.1-2.1-0.4-0.2-1.1 0.5-1.6 1.5zm-27.3-0.1c-0.5 1-0.5 2-0.1 2.2 0.4 0.1 1.1-0.5 1.6-1.6 0.5-1 0.6-1.9 0.2-2.1-0.4-0.2-1.2 0.5-1.7 1.5z"/><path fill-rule="evenodd" class="a" d="m54.2 18.8c1.1 0 2.2 0.5 3 1.2 0.7 0.8 1.2 1.9 1.2 3 0 1.2-0.5 2.3-1.2 3-0.8 0.8-1.9 1.3-3 1.3-1.2 0-2.3-0.5-3-1.3-0.8-0.7-1.3-1.8-1.3-3 0-1.1 0.5-2.2 1.3-3 0.7-0.7 1.8-1.2 3-1.2zm0 0.5c-1.1 0-2 0.4-2.7 1.1-0.6 0.7-1.1 1.6-1.1 2.6 0 1.1 0.5 2 1.1 2.7 0.7 0.6 1.6 1.1 2.7 1.1 1 0 1.9-0.5 2.6-1.1 0.7-0.7 1.1-1.6 1.1-2.7 0-1-0.4-1.9-1.1-2.6-0.7-0.7-1.6-1.1-2.6-1.1z"/><path fill-rule="evenodd" class="a" d="m54.2 26.2c-1.8 0-3.2-1.4-3.2-3.2 0-1.7 1.4-3.2 3.2-3.2 1.7 0 3.2 1.5 3.2 3.2 0 1.8-1.5 3.2-3.2 3.2zm2.5-3.2c0-1.4-1.1-2.5-2.5-2.5-1.4 0-2.6 1.1-2.6 2.5 0 1.4 1.2 2.6 2.6 2.6 1.4 0 2.5-1.2 2.5-2.6z"/><path fill-rule="evenodd" class="a" d="m54.2 25c-1.1 0-2-0.9-2-2 0-1 0.9-1.9 2-1.9 1 0 1.9 0.9 1.9 1.9 0 1.1-0.9 2-1.9 2z"/></svg>