<svg width="42" height="42" viewBox="0 0 42 42" fill="none" xmlns="http://www.w3.org/2000/svg">
<path fill-rule="evenodd" clip-rule="evenodd" d="M9.0615 7.9093H11.0514C11.2029 7.9093 11.3193 8.04361 11.2977 8.19352L10.3735 14.6041C10.338 14.8509 10.5294 15.0718 10.7787 15.0718H14.2694C14.3686 15.0718 14.4446 15.1599 14.4301 15.2579L14.1593 17.0991C14.1453 17.1948 14.0632 17.2658 13.9664 17.2658H10.0193C8.84523 17.2658 7.71927 16.3029 7.88493 15.1405L8.8149 8.12542C8.83123 8.00176 8.93667 7.9093 9.0615 7.9093Z" fill="#E82529"/>
<path fill-rule="evenodd" clip-rule="evenodd" d="M15.6968 10.4673L14.786 17.005C14.7715 17.1087 14.852 17.2013 14.9567 17.2013H16.8823C17.0192 17.2013 17.1353 17.1004 17.1543 16.9648L18.0562 10.5333C18.0755 10.3852 17.9601 10.2538 17.8107 10.2538H15.9421C15.8185 10.2538 15.7139 10.3449 15.6968 10.4673Z" fill="#E82529"/>
<path fill-rule="evenodd" clip-rule="evenodd" d="M19.6687 16.7C19.0746 16.6785 18.7966 16.8647 18.446 17.0739C18.5306 16.4844 19.194 11.891 19.2545 11.6088C19.3186 11.308 19.3767 10.806 19.6413 10.5529C19.9513 10.2557 20.4312 10.0856 22.8191 10.0779C25.2565 10.07 25.7287 11.8242 25.5993 12.964C25.4891 13.9396 25.1264 16.35 25.024 17.0234C25.0084 17.1258 24.9209 17.2012 24.8178 17.2012H22.935C22.7971 17.2012 22.691 17.0796 22.7103 16.9431C22.8055 16.2696 23.0609 14.4743 23.1475 13.953C23.255 13.3081 23.341 12.5985 23.1689 12.3184C22.9968 12.0389 22.4806 11.8242 21.4914 11.9963L20.7598 17.1692C20.7598 17.1692 20.2891 16.7224 19.6687 16.7Z" fill="#E82529"/>
<path fill-rule="evenodd" clip-rule="evenodd" d="M27.6413 7.53796H29.7299C29.8076 7.53796 29.8674 7.60665 29.8568 7.68365L28.5571 17.0983C28.5475 17.1682 28.4877 17.2202 28.4171 17.2202H26.3551C26.2693 17.2202 26.2034 17.1445 26.2152 17.0597L27.5145 7.64865C27.5232 7.58521 27.5773 7.53796 27.6413 7.53796Z" fill="#E82529"/>
<path fill-rule="evenodd" clip-rule="evenodd" d="M29.2576 13.2105L31.618 10.4463C31.6924 10.3592 31.8012 10.3091 31.9158 10.3091H33.9879C34.1375 10.3091 34.2163 10.4863 34.1162 10.5972L31.7027 13.2757L33.909 18.0206C33.9899 18.1947 33.8628 18.3939 33.6709 18.3939H31.7979C31.7001 18.3939 31.6113 18.3369 31.5704 18.2481L29.2576 13.2105Z" fill="#E82529"/>
<path fill-rule="evenodd" clip-rule="evenodd" d="M18.4597 8.48334C18.2908 9.19571 17.6493 9.72579 16.9776 9.72579C16.3061 9.72579 15.791 9.14832 15.96 8.43609C16.1289 7.72372 16.6849 7.14624 17.4819 7.14624C18.1534 7.14624 18.6286 7.77097 18.4597 8.48334Z" fill="#E82529"/>
<path fill-rule="evenodd" clip-rule="evenodd" d="M20.5826 18.8677C20.4137 19.5801 19.7722 20.1102 19.1005 20.1102C18.429 20.1102 17.9139 19.5327 18.0829 18.8205C18.2518 18.1081 18.8079 17.5306 19.6048 17.5306C20.2764 17.5306 20.7515 18.1554 20.5826 18.8677Z" fill="#E82529"/>
<path fill-rule="evenodd" clip-rule="evenodd" d="M30.6857 27.3805C30.5433 28.0844 29.8951 28.6081 29.189 28.6077C28.4827 28.6074 27.9127 28.0363 28.055 27.3325C28.1974 26.6286 28.7534 26.0582 29.5914 26.0586C30.2975 26.059 30.828 26.6766 30.6857 27.3805Z" fill="#E82529"/>
<path fill-rule="evenodd" clip-rule="evenodd" d="M12.9076 23.8747H11.6431C11.5961 23.8747 11.5639 23.8274 11.5811 23.7837L12.6815 20.9905C12.7025 20.9373 12.781 20.9486 12.7861 21.0055L13.0334 23.7369C13.0401 23.8108 12.9819 23.8747 12.9076 23.8747ZM15.9709 27.3823L14.5598 18.9365C14.4981 18.5673 14.1785 18.2968 13.8041 18.2968H12.3882C11.9564 18.2968 11.5644 18.5489 11.3857 18.9419L7.58458 27.3928C7.52945 27.5154 7.61957 27.6538 7.75388 27.6531L9.72887 27.6416C9.86406 27.6408 9.98568 27.5598 10.0385 27.4355L10.695 25.891C10.7128 25.8489 10.7541 25.8216 10.7999 25.8216H13.19C13.2486 25.8216 13.2978 25.8661 13.3035 25.9244L13.4461 27.3859C13.4626 27.556 13.6056 27.6858 13.7766 27.6858H15.7138C15.8749 27.6858 15.9974 27.5411 15.9709 27.3823Z" fill="#E82529"/>
<path fill-rule="evenodd" clip-rule="evenodd" d="M15.0289 28.9122L15.4851 30.3213C15.567 30.5532 15.6289 30.6047 15.7891 30.5708C16.3653 30.4494 17.7576 30.038 18.4387 29.1165C19.3267 27.9152 19.4485 25.7913 19.6052 24.7119C19.7343 23.8228 20.0169 21.6342 20.1126 20.8903C20.1298 20.7565 20.0255 20.6382 19.8905 20.6382H18.12C17.9635 20.6382 17.8312 20.7537 17.8102 20.9087C17.6674 21.9594 17.1532 25.7376 17.0634 26.2613C16.959 26.8707 16.9381 27.7485 16.0366 28.2724C15.5867 28.5338 15.356 28.5836 15.178 28.6668C15.0874 28.709 14.985 28.7544 15.0289 28.9122Z" fill="#E82529"/>
<path fill-rule="evenodd" clip-rule="evenodd" d="M24.7725 25.6588C24.7725 25.6588 23.8493 25.9728 23.4061 25.6403C22.9628 25.308 22.9259 24.6248 23.1844 23.6461C23.443 22.6673 24.0893 22.5012 24.3662 22.4827C24.6433 22.4642 25.1641 22.5953 25.1641 22.5953L24.7725 25.6588ZM27.3291 20.891C26.7321 20.7416 25.7283 20.4135 24.1147 20.5318C22.6259 20.6409 20.9447 21.3295 20.6299 24.2683C20.315 27.2072 21.6586 27.7741 23.5898 27.8581C25.0051 27.9196 26.1159 27.5302 26.6085 27.3178C26.78 27.2438 26.8995 27.0853 26.9245 26.9003L27.6381 21.242C27.6661 21.0174 27.5538 20.9471 27.3291 20.891Z" fill="#E82529"/>
<path fill-rule="evenodd" clip-rule="evenodd" d="M28.7061 25.1218L29.2257 19.7036C29.2444 19.5095 29.4073 19.4303 29.6023 19.4303H31.3947C31.5617 19.4303 31.6324 19.557 31.5863 19.7645L30.4923 25.1901C30.4701 25.2951 30.3777 25.3702 30.2703 25.3702H28.9317C28.798 25.3702 28.6933 25.255 28.7061 25.1218Z" fill="#E82529"/>
<path fill-rule="evenodd" clip-rule="evenodd" d="M7.73112 35.1129C8.08607 35.309 8.50067 35.366 8.89529 35.2725C10.4672 34.9001 13.9459 33.8975 21.3043 32.8339C30.5491 31.4975 37.3749 31.503 37.3749 31.503L37.3928 31.4921C37.3928 31.4921 31.3429 30.6609 21.4137 31.6306C11.4844 32.6004 5.9425 34.1244 5.9425 34.1244L7.73112 35.1129Z" fill="#E82529"/>
</svg>
