<svg version="1.2" xmlns="http://www.w3.org/2000/svg" viewBox="0 0 142 42" width="142" height="42"><style>.a{fill:#0d2b5b}.b{fill:#fdd213}</style><path fill-rule="evenodd" class="a" d="m0.9 28.7c0-2.1 0-3.8-0.1-5.3h3.8l0.2 2.6h0.1c0.9-1.4 2.5-3 5.5-3 2.3 0 4.1 1.3 4.9 3.3q0.9-1.5 2.2-2.2c1-0.7 2.1-1.1 3.5-1.1 3 0 6 2 6 7.7v10.4h-4.4v-9.8c0-2.9-1-4.7-3.1-4.7-1.6 0-2.7 1.1-3.2 2.4q0 0.2 0 0.4-0.1 0.1-0.1 0.3 0 0.2-0.1 0.4 0 0.2 0 0.4v10.6h-4.3v-10.3c0-2.4-1-4.2-3.1-4.2-1.6 0-2.8 1.3-3.2 2.6-0.1 0.4-0.2 0.9-0.2 1.4v10.5h-4.4zm43 8.1c0 1.6 0.1 3.2 0.3 4.3h-4.1l-0.3-2h-0.1c-1.1 1.4-2.9 2.4-5.2 2.4-3.5 0-5.5-2.6-5.5-5.3 0-4.4 3.9-6.7 10.4-6.7v-0.2c0-1.2-0.4-3.1-3.5-3.1-1.8 0-3.6 0.5-4.8 1.3l-0.9-2.9c1.3-0.8 3.6-1.6 6.4-1.6 5.7 0 7.3 3.6 7.3 7.4zm-4.3-4.3c-3.2-0.1-6.2 0.6-6.2 3.3 0 1.7 1.1 2.5 2.5 2.5 1.8 0 3.1-1.2 3.5-2.4q0-0.1 0.1-0.3 0-0.1 0-0.2 0-0.1 0-0.3 0.1-0.1 0.1-0.2v-2.4zm7.4-3.8c0-2-0.1-3.8-0.2-5.3h4l0.2 2.7h0.1c0.7-1.4 2.7-3.1 5.6-3.1 3.1 0 6.3 2 6.3 7.6v10.5h-4.5v-10c0-2.5-0.9-4.5-3.4-4.5-1.7 0-3 1.3-3.4 2.7-0.2 0.4-0.2 0.9-0.2 1.4v10.4h-4.5zm35.3-12.4q0 0 0 0zm0 19.8c0 1.8 0.1 3.8 0.1 5h-3.9l-0.2-2.8h-0.1c-1.1 2-3.2 3.2-5.8 3.2-4.2 0-7.5-3.6-7.5-9 0-5.9 3.7-9.5 7.9-9.5 2.4 0 4.2 1 5 2.4v-9.1h4.5zm-4.5-5.3c0-0.4 0-0.8-0.1-1.2-0.4-1.7-1.8-3.1-3.8-3.1-2.9 0-4.5 2.5-4.5 5.8 0 3.3 1.6 5.6 4.4 5.6 1.9 0 3.5-1.2 3.9-3.1q0.1-0.6 0.1-1.4c0 0 0-2.6 0-2.6zm7.6-7.4h4.5v17.7h-4.5zm7.7 5.7c0-2.4 0-4.1-0.2-5.7h3.9l0.2 3.4h0.1c0.9-2.5 2.9-3.4 4.8-3.4 0.5 0 0.7-0.1 1.1 0v3.9q-0.2 0-0.3 0-0.2-0.1-0.4-0.1-0.1 0-0.3 0-0.2 0-0.3 0c-2.2 0-3.6 1.4-4 3.4q0 0.1-0.1 0.3 0 0.2 0 0.3 0 0.2 0 0.4 0 0.2-0.1 0.3v9.2h-4.4zm12-5.7h4.4v17.6h-4.4z"/><path class="b" d="m141.2 9.4l-11.8 6.8c-0.2 0.1-1.4 0.8-2.5 0.8-1.6 0-2.9-0.8-3.8-2q-0.2-0.4-0.5-0.8c-1.8-3-6.2-7.9-15-3.1l-9.9 5.8c-0.9 0.5-1.6 0.8-2.6 0.8-1.7 0.1-3.2-0.8-4.1-2.2l-0.2-0.4q0 0-0.1-0.1-0.1-0.1-0.1-0.3c-1.9-3-6.2-7.6-15-2.8 0 0-10.2 5.9-10.2 5.9-3.7 1.7-6.1-0.3-7.3-1.5l-3.1-3.7 5.9-3.4c0 0 7.9-4.5 11.4-6.5 5.6-2.7 9-1.2 11.2 1q0.1 0.1 0.2 0.2 0.1 0.1 0.2 0.3 0.1 0.1 0.3 0.2 0.1 0.2 0.2 0.3 0.1 0.1 0.2 0.3 0.1 0.1 0.2 0.3 0.1 0.1 0.2 0.3 0.1 0.1 0.2 0.3l0.5 0.9 0.1 0.2q0.1 0 0.1 0 0 0 0 0 0 0.1 0 0.1 0 0 0 0c0.9 1.2 3.4 2.9 6.7 1.5 0 0 8.8-5 11.5-6.6 5.7-2.7 9.2-1.2 11.3 0.9q0.1 0.2 0.2 0.3 0.2 0.1 0.3 0.2 0.1 0.2 0.2 0.3 0.1 0.1 0.2 0.3 0.2 0.2 0.3 0.4 0.2 0.3 0.4 0.5 0.1 0.2 0.3 0.5 0.1 0.2 0.3 0.4l0.2 0.4q0 0.1 0 0.1 0.1 0.1 0.1 0.1 0 0.1 0.1 0.1 0 0 0 0.1c1 1.2 3.4 2.6 6.5 1.3 0 0 5.8-3.2 6.5-3.6 1.9-1 4.3-2.1 6.5 0.4 2.5 2.9 3.7 4.7 3.7 4.7z"/></svg>