<svg width="42" height="42" viewBox="0 0 42 42" fill="none" xmlns="http://www.w3.org/2000/svg">
<path fill-rule="evenodd" clip-rule="evenodd" d="M14.5591 14.3623H19.703L19.7064 16.4247L18.4399 16.4213L21.4436 23.5462L24.3965 16.428H23.0962L23.0928 14.3691L27.214 14.3657L27.2072 15.5408L22.2496 27.1155C21.0542 27.1189 20.2753 26.6854 19.8588 25.7779L15.7782 16.428H14.5557L14.5591 14.3623ZM7.47816 14C11.0576 14 13.9597 16.9225 13.9597 20.5256C13.9597 24.1287 11.0576 27.0477 7.47816 27.0477C3.90213 27.0477 1 24.1287 1 20.5256C1 16.9225 3.90213 14 7.47816 14ZM7.46123 16.1334C9.71656 16.1334 11.5452 18.1212 11.5452 20.573C11.5452 23.0247 9.71656 25.0091 7.46123 25.0091C5.20251 25.0091 3.37386 23.0247 3.37386 20.573C3.37386 18.1212 5.20251 16.1334 7.46123 16.1334ZM34.5185 14C38.0979 14 41 16.9225 41 20.5256C41 24.1287 38.0979 27.0477 34.5185 27.0477C30.9424 27.0477 28.0403 24.1287 28.0403 20.5256C28.0403 16.9225 30.9424 14 34.5185 14ZM34.5015 16.1334C36.7569 16.1334 38.5855 18.1212 38.5855 20.573C38.5855 23.0247 36.7569 25.0091 34.5015 25.0091C32.2428 25.0091 30.4142 23.0247 30.4142 20.573C30.4142 18.1212 32.2428 16.1334 34.5015 16.1334Z" fill="#4C3494"/>
</svg>
