<svg version="1.2" xmlns="http://www.w3.org/2000/svg" viewBox="0 0 168 42" width="168" height="42"><defs><clipPath clipPathUnits="userSpaceOnUse" id="cp1"><path d="m99.81 24.29h36.15v17.58h-36.15z"/></clipPath><clipPath clipPathUnits="userSpaceOnUse" id="cp2"><path d="m11.91 29.24h11.09v12.63h-11.09z"/></clipPath><clipPath clipPathUnits="userSpaceOnUse" id="cp3"><path d="m65.31 25.94h7.8v15.93h-7.8z"/></clipPath><clipPath clipPathUnits="userSpaceOnUse" id="cp4"><path d="m53.81 29.24h11.91v12.63h-11.91z"/></clipPath><clipPath clipPathUnits="userSpaceOnUse" id="cp5"><path d="m73.11 29.24h11.92v12.63h-11.92z"/></clipPath><clipPath clipPathUnits="userSpaceOnUse" id="cp6"><path d="m148.69 8.24h18.97v33.35h-18.97z"/></clipPath><clipPath clipPathUnits="userSpaceOnUse" id="cp7"><path d="m149.11 14.41h18.55v27.18h-18.55z"/></clipPath><clipPath clipPathUnits="userSpaceOnUse" id="cp8"><path d="m159.78 13.18h7.88v2.47h-7.88z"/></clipPath></defs><style>.a{fill:#0095b8}.b{fill:#005575}.c{fill:#0abaee}.d{fill:#007190}.e{fill:#81b73d}.f{fill:#69921d}.g{fill:#277933}.h{fill:#adcc52}.i{fill:#e3032d}.j{fill:#b51227}.k{fill:#791b14}.l{fill:#ea515f}</style><path fill-rule="evenodd" d="m87.7 39.9q0-0.4 0-1.2v-11-1q0-0.4 0-0.5-0.1-0.1-0.1-0.2-0.1-0.4-0.5-0.6-0.4-0.2-1.1-0.2v-0.3h6.2q1.4 0 2.5 0.1 1 0.2 1.7 0.5 2 1 2 3.2c0 2.1-1.4 3.4-4.3 3.8l-0.5 0.1c0.7 0 1.5 0.2 2 0.3q0.6 0.1 1.1 0.5 2.3 1.1 2.3 3.7 0 3-3 4-0.7 0.2-1.7 0.3-1 0.1-2.2 0.1h-6.1v-0.4c0.7 0 1.2-0.1 1.4-0.3q0.1-0.2 0.2-0.3 0.1-0.2 0.1-0.6zm1.9-14.5v6.9h2.4c2.9 0 4.3-1.2 4.3-3.5 0.1-2.3-1.5-3.4-4.5-3.4zm7.3 11.5q-0.1-2.5-1.8-3.4-0.5-0.3-1.3-0.5-0.9-0.1-1.8-0.1h-2.4v8.1h2.4q2.5 0 3.7-1 0.5-0.5 0.8-1.3 0.4-0.8 0.4-1.8z"/><g clip-path="url(#cp1)"><path fill-rule="evenodd" d="m107.9 41c-0.1-0.2-0.2-0.5-0.2-1.3v-0.2l-0.2 0.2q-0.3 0.3-0.5 0.5-0.3 0.2-0.6 0.5-0.7 0.5-1.4 0.7-0.7 0.2-1.6 0.2-1.5 0-2.3-0.7-0.4-0.4-0.7-1-0.2-0.6-0.3-1.4c0.1-1.7 1.1-2.9 3.4-3.4q0.9-0.2 1.8-0.3 1-0.2 2.3-0.2l0.1-1.6q0-0.8-0.1-1.3-0.1-0.5-0.3-0.9-0.5-0.9-1.9-0.9-2.4 0-2.5 2.2-0.1 0.4-0.1 0.5-0.1 0.2-0.2 0.2-0.2 0.2-0.7 0.2c-0.8 0-1.1-0.2-1.1-0.6q0-0.6 0.4-1.2 0.4-0.5 1.2-1 1.3-0.7 3.3-0.7 2.2 0 3 1 0.4 0.4 0.5 1 0.2 0.6 0.2 1.6v0.1 0.6l-0.1 1.6v2.2 1.1c0 0.5 0 0.9 0.1 1.3 0 0.4 0.1 0.9 0.5 1 0.3 0.1 0.6 0.2 1.3 0.2q0.7 0 1.1-0.2 0.4-0.2 0.5-0.7 0.1-0.5 0.1-1.6v-6.2q0-1.3-0.3-1.8-0.4-0.4-1.3-0.4v-0.3l3.3-0.3v2.7l0.2-0.3q0.7-1.3 1.6-1.9 1-0.6 2.4-0.5 2.1-0.1 2.9 1.3 0.3 0.5 0.5 1.2 0.1 0.7 0.1 1.7v4.8q0 1.1 0.1 1.6 0.1 0.5 0.5 0.7c0.2 0.1 0.8 0.2 1.2 0.2q0.7 0 1-0.2 0.4-0.2 0.5-0.7 0.1-0.5 0.1-1.6v-11.3q0-1-0.1-1.4-0.1-0.5-0.5-0.7-0.3-0.1-1-0.1v-0.3l3.4-0.2q0 1.1-0.1 2.3 0 1.3 0 2.2v7.6l3.8-4.1q0.8-0.9 0.8-1.5c0-0.6-0.5-0.8-1.4-0.9v-0.3h4.9v0.3q-0.5 0.1-0.8 0.2-0.3 0.1-0.7 0.3-0.4 0.3-0.7 0.4-0.2 0.2-0.6 0.6-0.3 0.4-1 1.1l-1.3 1.4 3.3 5.1q0.6 1 1.1 1.3 0.4 0.4 1.1 0.5v0.3h-3q-0.1-0.2-0.3-0.6l-0.5-0.9-0.4-0.7-2.4-3.9-1.9 2.1v1.2q0 1.1 0.1 1.6 0.1 0.5 0.5 0.7 0.4 0.2 1.1 0.2v0.3h-10.2v-0.3c0.7 0 1.2-0.1 1.4-0.4q0.1-0.1 0.1-0.3 0.1-0.2 0.1-0.5 0-0.2 0.1-0.7 0-0.4 0-0.6v-4.7q0-1.7-0.4-2.5-0.6-1.3-2.1-1.3-1.7 0-2.7 1.6-0.4 0.6-0.6 1.4-0.2 0.7-0.2 1.5v4q0 1.1 0.1 1.6 0.1 0.5 0.5 0.7 0.4 0.2 1.1 0.2v0.3h-5c-0.4 0-1.3 0.1-1.7 0-0.4 0-0.7 0-1.1 0-0.3-0.1-0.5-0.2-0.6-0.5zm-5.9-2.5q0.1 1.1 0.6 1.8 0.6 0.7 1.5 0.7 0.9 0 1.7-0.5 0.9-0.4 1.3-1.2 0.3-0.5 0.4-1.3 0.2-0.8 0.2-1.9v-1.2c-1.1 0.1-1.9 0.2-2.5 0.3q-0.9 0.2-1.6 0.5-1.5 0.8-1.6 2.8z"/></g><path fill-rule="evenodd" d="m4.5 34.5v4.1q0 1 0.1 1.5 0.2 0.5 0.6 0.7 0.4 0.1 1.3 0.1v0.6h-6.5v-0.6q0.8 0 1.2-0.1 0.4-0.2 0.5-0.7 0.2-0.5 0.1-1.5v-10.8q0.1-1-0.1-1.5-0.1-0.5-0.4-0.7-0.4-0.1-1.2-0.2v-0.5h6.2q3.1 0 4.5 1.1 1.5 1.1 1.5 3.5 0 3.4-2.7 4.4-0.6 0.3-1.7 0.4-1.1 0.2-2.4 0.2zm0-0.6h1.1q1.9 0 2.8-1 0.5-0.5 0.8-1.3 0.2-0.9 0.2-2 0-4.1-3.6-4.1h-1.3z"/><g clip-path="url(#cp2)"><path fill-rule="evenodd" d="m22.7 35.2h-7.5q0 1.2 0.1 2 0.1 0.9 0.4 1.5 1 2.2 2.9 2.2 1.1 0 2-0.6 1-0.7 1.6-1.9l0.5 0.4q-0.8 1.5-1.9 2.3-1.2 0.7-2.8 0.7c-1.7 0-3.3-0.6-4.3-1.7q-1.5-1.6-1.5-4.4 0-2.8 1.5-4.5c0.9-1.1 2.4-1.6 4.1-1.7 1.1 0 2.1 0.3 2.9 0.8q1.1 0.7 1.6 2.2 0.2 0.5 0.3 1.1 0.1 0.6 0.1 1.6zm-7.5-0.6h4.7q0-1.1-0.1-1.7-0.1-0.6-0.3-1.1-0.6-1.8-1.8-1.7-1.4 0-2.1 1.9-0.1 0.5-0.2 1.1-0.1 0.6-0.2 1.5z"/></g><path  d="m23.2 29.9l4.2-0.3q0 0.6 0 1 0.1 0.5 0.1 0.8v0.7q1.3-2.5 3.2-2.6 0.9 0 1.4 0.5 0.5 0.5 0.5 1.2 0 0.6-0.4 1-0.5 0.4-1.2 0.4-0.8 0-1-0.7-0.1-0.5-0.3-0.7-0.1-0.1-0.4-0.1-0.7 0-1.2 1-0.3 0.5-0.4 1.1-0.2 0.6-0.2 1.4v4.1q0 1 0.1 1.5 0.1 0.5 0.5 0.6 0.4 0.2 1.2 0.2v0.5h-6.2v-0.5q0.8 0 1.1-0.2 0.4-0.1 0.5-0.6 0.1-0.5 0.1-1.5v-6.1q0-1.4-0.3-1.8-0.3-0.4-1.3-0.4"/><path  d="m37.6 29.6v2.2q1.4-2.2 3.9-2.3 2.6 0 3.2 2.4 0.7-1.2 1.6-1.8 1-0.6 2.2-0.6 2 0 2.9 1.3 0.4 0.5 0.5 1.2 0.2 0.7 0.2 1.8v4.9q-0.1 1 0.1 1.5 0.1 0.5 0.4 0.6 0.4 0.2 1.2 0.2v0.5h-6.1v-0.5q0.7 0 1.1-0.2 0.3-0.1 0.4-0.6 0.2-0.5 0.1-1.5v-4.8q0.1-1.8-0.4-2.6-0.4-0.8-1.4-0.7-1.2-0.1-2 1.2-0.7 1-0.7 2.2v4.7q0 1 0.1 1.5 0.1 0.5 0.5 0.6 0.3 0.2 1.1 0.2v0.5h-6v-0.5q0.7 0 1.1-0.2 0.3-0.1 0.4-0.6 0.1-0.5 0.1-1.5v-4.9q0-3.3-1.8-3.2-1.1 0-1.9 1-0.7 1.1-0.8 2.6v4.5q0 1 0.1 1.5 0.1 0.5 0.5 0.6 0.3 0.2 1.1 0.2v0.5h-6.1v-0.5q0.8 0 1.1-0.2 0.4-0.1 0.5-0.6 0.1-0.5 0.1-1.5v-6.2q0.1-1.3-0.3-1.7-0.3-0.4-1.3-0.4v-0.5"/><g clip-path="url(#cp3)"><path  d="m69.6 30.6v7.5q0 0.7 0 1.2 0.1 0.4 0.2 0.8 0.1 0.3 0.4 0.6 0.3 0.2 0.7 0.2 0.7 0 1.6-0.7l0.3 0.6q-1.4 1.1-3.1 1.1-1.8-0.1-2.5-1.3-0.1-0.2-0.2-0.6-0.1-0.3-0.1-0.9 0-0.6 0-1.5v-7h-1.3v-0.7q0.7 0 1.2-0.3 0.5-0.3 0.9-0.9 0.3-0.4 0.5-1 0.2-0.5 0.3-1.3l1.2-0.2q-0.1 0.5-0.1 0.9 0 0.5 0 1.1 0 0.7 0 1.7h2.7v0.7"/></g><g clip-path="url(#cp4)"><path fill-rule="evenodd" d="m65.6 41v0.5c-0.7 0.1-0.9 0.1-1.6 0.1-0.6 0-1.1-0.1-1.6-0.2-0.3-0.1-0.4-0.2-0.7-0.5-0.1-0.2-0.2-0.2-0.2-0.9q-0.9 1-1.8 1.4-1 0.4-2.1 0.4-1.6 0-2.5-0.9-0.9-0.8-0.9-2.3 0-2.9 3.6-3.6 1.6-0.3 3.6-0.4v-1.5q0-1.7-0.3-2.4-0.4-0.7-1.4-0.6-1.1-0.1-1.5 0.7-0.2 0.3-0.2 0.6-0.1 0.4-0.2 1 0 0.6-0.3 0.8-0.3 0.3-1 0.3-1.6 0-1.6-1 0-0.6 0.4-1.2 0.4-0.5 1-0.9 1.4-0.9 3.7-0.9 2.3 0 3.3 1 0.4 0.4 0.6 1 0.2 0.7 0.2 1.7v2 1.9q0 1 0 1.2-0.1 1.2 0 1.8c0.1 0.3 0.2 0.5 0.4 0.7 0.4 0.2 0.8 0.2 1.1 0.2zm-4.2-4.2v-1.7q-2.4 0.1-3.4 0.9-1 0.7-0.9 2.2 0 1.2 0.5 1.9 0.4 0.7 1.3 0.8 0.7-0.1 1.2-0.4 0.6-0.4 0.9-1.1 0.2-0.4 0.3-1.1 0.1-0.6 0.1-1.5z"/></g><g clip-path="url(#cp5)"><path fill-rule="evenodd" d="m84.8 41v0.5c-0.7 0.1-1 0.1-1.6 0.1-0.6 0-1.1 0-1.6-0.2-0.3-0.1-0.5-0.2-0.7-0.5-0.1-0.2-0.2-0.2-0.3-0.9q-0.8 1-1.8 1.4-0.9 0.4-2 0.4-1.6 0-2.5-0.9-0.9-0.8-0.9-2.3 0-2.9 3.6-3.6 1.6-0.3 3.6-0.4v-1.5q0-1.7-0.4-2.4-0.3-0.7-1.3-0.6-1.1-0.1-1.5 0.7-0.2 0.3-0.3 0.6 0 0.4-0.1 1 0 0.6-0.3 0.8-0.3 0.3-1 0.3-1.6 0-1.6-1 0-0.6 0.4-1.2 0.3-0.5 1-0.9 1.4-0.9 3.6-0.9 2.3 0 3.3 1 0.5 0.4 0.7 1 0.2 0.7 0.2 1.7v2 1.9q-0.1 1-0.1 1.2 0 1.2 0.1 1.8c0.1 0.3 0.1 0.5 0.4 0.7 0.4 0.3 0.8 0.2 1.1 0.2zm-4.2-4.2v-1.7q-2.4 0.1-3.4 0.9-1 0.7-1 2.2 0 1.2 0.5 1.9 0.5 0.7 1.3 0.8 0.7-0.1 1.3-0.4 0.6-0.4 0.9-1.1 0.2-0.4 0.3-1.1 0.1-0.6 0.1-1.5z"/></g><path class="a" d="m139.8 9l1.1 0.8 7.1 23.5-0.3 0.6h-0.1l-0.6-0.1-16.4-19.3v-0.9"/><path class="b" d="m135.5 15.4l12.1 18.5-0.6-0.1-16.4-19.3z"/><path class="c" d="m140.9 9.8l-3.6 4.9-1.7-0.8 4.2-4.9"/><path class="d" d="m130.6 13.6l5 0.3-0.1 1.5-4.9-0.9z"/><path class="d" d="m140.9 9.8l7.1 23.5-0.3 0.6-10.4-19.2z"/><g clip-path="url(#cp6)"><path class="e" d="m157 8.5l10.6 4.9 0.1 1.4-17.5 26.5-0.8 0.2h-0.1l-0.3-0.6 7.1-31.9"/></g><g clip-path="url(#cp7)"><path class="f" d="m167.7 14.8l-17.5 26.5-0.8 0.2 11.2-26.1z"/></g><path class="g" d="m158.6 14.3l-9.3 27.2-0.3-0.6 7.1-31.9z"/><g clip-path="url(#cp8)"><path class="h" d="m167.6 13.4l0.1 1.4-7.1 0.6-0.4-1.9"/></g><path class="f" d="m157 8.5l3.2 5-1.6 0.8-2.5-5.3z"/><path class="i" d="m140.8 1l0.4-0.9 13.6-0.1 0.9 0.9-6.5 21.9-0.5 0.2-0.4-0.3"/><path class="j" d="m141.2 0.1l5.8 2.3-1 1.2-5.2-2.6z"/><path class="k" d="m146 3.6l2.7 19.4-0.4-0.3-7.5-21.7c0 0 5.2 2.6 5.2 2.6z"/><path class="j" d="m155.7 0.9l-6.5 21.9-0.5 0.2-0.1-19.4z"/><path class="l" d="m155.7 0.9l-7.1 2.7-1.6-1.2 7.8-2.4z"/></svg>