<svg width="42" height="42" viewBox="0 0 42 42" fill="none" xmlns="http://www.w3.org/2000/svg">
<path fill-rule="evenodd" clip-rule="evenodd" d="M2.93032 14.8132H15.828C16.6849 14.8132 17.3861 15.5144 17.3861 16.3713V25.3997C17.3861 26.2567 16.6849 26.9578 15.828 26.9578H2.5581C1.70115 26.9578 1 26.2567 1 25.3997V14.2506C1 13.8438 1.33759 13.5668 1.73577 13.5148L13.6293 12C14.0361 12 14.3651 12.3289 14.3651 12.7358V13.9996H2.18589C2.18589 14.5276 2.3417 14.8219 2.93032 14.8219V14.8132ZM10.1668 24.6986C9.08483 24.9063 7.69119 24.5427 6.92945 23.7291C6.58321 23.3655 7.1372 22.8029 7.48345 23.1751C7.99416 23.7204 8.90305 23.9801 9.64748 23.9628C10.591 23.9455 11.4393 23.0799 10.894 22.119C10.1495 20.786 8.31443 21.1582 7.37957 20.1195C6.61783 19.2798 6.98139 17.9468 7.87297 17.3581C8.80783 16.7436 10.4179 16.7695 11.1796 17.6438C11.5085 18.0247 10.9546 18.5787 10.6256 18.1978C10.0024 17.488 8.53949 17.5832 7.9855 18.319C7.18914 19.3664 8.38368 19.929 9.21467 20.18C10.3573 20.5263 11.6211 21.1582 11.8288 22.4653C11.9933 23.5213 11.1796 24.4995 10.1668 24.6986Z" fill="#EE4E2C"/>
<path fill-rule="evenodd" clip-rule="evenodd" d="M10.1582 24.7072C9.07616 24.915 7.68252 24.5514 6.92078 23.7377C6.57453 23.3742 7.12853 22.8115 7.47477 23.1838C7.98548 23.7291 8.89438 23.9888 9.63881 23.9715C10.5823 23.9541 11.4306 23.0885 10.8853 22.1277C10.1409 20.7947 8.30576 21.1669 7.3709 20.1281C6.60916 19.2885 6.97272 17.9554 7.8643 17.3668C8.79916 16.7522 10.4092 16.7782 11.1709 17.6525C11.4999 18.0334 10.9459 18.5873 10.6169 18.2065C9.99371 17.4967 8.53082 17.5919 7.97683 18.3277C7.18046 19.3751 8.37501 19.9377 9.206 20.1887C10.3486 20.535 11.6124 21.1669 11.8288 22.4739C11.9933 23.53 11.1796 24.5081 10.1668 24.7072H10.1582Z" fill="#FEFEFE"/>
<path d="M32.3698 14.2593C31.9111 14.2593 31.4956 14.4584 31.2099 14.7614V14.3978C31.2099 14.0689 30.6905 14.0689 30.6905 14.3978V18.6566C30.6905 18.9855 31.2099 18.9855 31.2099 18.6566V16.7609C31.4956 17.0725 31.9111 17.263 32.3698 17.263C33.2268 17.263 33.9193 16.5878 33.9193 15.7568C33.9193 14.9258 33.2268 14.2506 32.3698 14.2506V14.2593ZM32.3698 16.7263C31.8245 16.7263 31.3744 16.2935 31.3744 15.7655C31.3744 15.2894 31.7379 14.8912 32.2054 14.8133H32.214C32.266 14.8046 32.3092 14.8046 32.3612 14.8046C32.768 14.8046 33.1143 15.0383 33.2701 15.3759C33.322 15.4971 33.3566 15.627 33.3566 15.7568C33.3566 16.2848 32.9152 16.7176 32.3698 16.7176V16.7263ZM28.5179 17.2716C27.6609 17.2716 26.9684 16.5965 26.9684 15.7655C26.9684 14.9345 27.6609 14.2593 28.5179 14.2593C29.3748 14.2593 30.0673 14.9345 30.0673 15.7655C30.0673 16.5965 29.3748 17.2716 28.5179 17.2716ZM28.5179 14.8046C27.9725 14.8046 27.5224 15.2374 27.5224 15.7655C27.5224 16.2935 27.9639 16.7263 28.5179 16.7263C29.0632 16.7263 29.5133 16.2935 29.5133 15.7655C29.5133 15.2374 29.0718 14.8046 28.5179 14.8046ZM41 15.7395C40.9913 15.047 40.6191 14.4238 39.866 14.2853C39.2168 14.1641 38.4551 14.5017 38.1781 15.0903C37.8924 15.7049 38.0136 16.5532 38.5763 16.9773C39.1909 17.4448 40.1517 17.2976 40.7836 16.9514C41.0779 16.7955 40.8182 16.3541 40.5153 16.5099C40.1171 16.7263 39.5891 16.8302 39.1476 16.6917C38.81 16.5791 38.6196 16.3021 38.5676 15.9905H40.7403C40.8788 15.9905 41 15.878 41 15.7395ZM38.5849 15.4885C38.5849 15.4712 38.5936 15.4538 38.6022 15.4365C38.7234 15.021 39.1562 14.7873 39.5891 14.77C40.0824 14.7527 40.3681 15.0903 40.4547 15.4885H38.5936H38.5849ZM37.5202 15.7482C37.5116 15.0557 37.1394 14.4324 36.3863 14.2939C35.7371 14.1727 34.9753 14.5103 34.6983 15.0989C34.4127 15.7135 34.5339 16.5618 35.0965 16.986C35.7111 17.4534 36.6719 17.3063 37.3038 16.96C37.5981 16.8042 37.3385 16.3627 37.0355 16.5185C36.6373 16.735 36.1093 16.8388 35.6678 16.7003C35.3302 16.5878 35.1485 16.3108 35.0879 15.9992H37.2605C37.399 15.9992 37.5202 15.8866 37.5202 15.7482ZM35.1052 15.4971C35.1052 15.4798 35.1138 15.4625 35.1225 15.4452C35.2437 15.0297 35.6765 14.796 36.1093 14.7787C36.6027 14.7614 36.8883 15.0989 36.9749 15.4971H35.1138H35.1052ZM26.3538 15.2634V17.0206C26.3538 17.3495 25.8345 17.3495 25.8345 17.0206V15.298C25.8171 14.9604 25.5228 14.796 25.5142 14.796C25.142 14.6315 24.4668 14.7094 24.0686 15.2201V17.0293C24.0686 17.3582 23.5492 17.3582 23.5492 17.0293V12.5108C23.5492 12.1818 24.0686 12.1818 24.0686 12.5108V14.5449C24.7092 14.1208 25.5228 14.1641 25.9037 14.4238C25.9037 14.4238 26.3625 14.6748 26.3538 15.2721V15.2634ZM22.6836 12.7098C22.1729 12.1472 21.0995 12.1299 20.4763 12.5281C19.879 12.9089 19.6367 13.7572 20.1474 14.3026C20.7793 14.9778 21.9998 14.7354 22.4932 15.5923C22.8481 16.2069 22.2854 16.7609 21.6622 16.7782C21.1688 16.7869 20.5629 16.6224 20.2166 16.2675C19.9829 16.0338 19.6193 16.3887 19.8444 16.6224C20.3465 17.1504 21.2813 17.3755 22.0084 17.2457C22.6836 17.1245 23.229 16.4926 23.1164 15.8087C22.9779 14.9691 22.1296 14.5623 21.3679 14.3372C20.8139 14.1727 20.0175 13.8178 20.5456 13.1427C20.9178 12.6752 21.8959 12.6146 22.3114 13.0647C22.5365 13.3071 22.9 12.9522 22.6836 12.7098Z" fill="#EE4E2C"/>
<path fill-rule="evenodd" clip-rule="evenodd" d="M36.3084 29.5806H34.6464L36.4209 26.222L33.5038 20.7167H35.3043L37.3211 24.5254L39.338 20.7167H41L36.3084 29.5806ZM19.7751 26.9578H21.1688V24.4129H23.0472C24.9948 24.4129 26.5702 23.0452 26.5702 21.3659C26.5702 19.6866 24.9948 18.319 23.0472 18.319H19.7838C19.7838 21.2015 19.7838 24.0753 19.7838 26.9578H19.7751ZM21.1688 23.0279V19.7126H23.0472C24.1032 19.7126 24.9602 20.457 24.9602 21.3659C24.9602 22.2835 24.1032 23.0193 23.0472 23.0193H21.1688V23.0279ZM31.7726 20.7773H32.9931V26.9059H31.7726V26.2134C31.2272 26.6808 30.5261 26.9578 29.7557 26.9578C28.0331 26.9578 26.6395 25.5642 26.6395 23.8416C26.6395 22.119 28.0331 20.7254 29.7557 20.7254C30.5261 20.7254 31.2359 21.0024 31.7726 21.4698V20.7773ZM29.7557 22.0411C30.7511 22.0411 31.5648 22.8461 31.5648 23.8502C31.5648 24.8457 30.7598 25.6594 29.7557 25.6594C28.7602 25.6594 27.9465 24.8544 27.9465 23.8502C27.9465 22.8548 28.7516 22.0411 29.7557 22.0411Z" fill="#EE4E2C"/>
</svg>
